<?xml version="1.0" encoding="utf-8" standalone="no"?>
<!DOCTYPE svg PUBLIC "-//W3C//DTD SVG 1.1//EN"
  "http://www.w3.org/Graphics/SVG/1.1/DTD/svg11.dtd">
<!-- Created with matplotlib (https://matplotlib.org/) -->
<svg height="345.6pt" version="1.1" viewBox="0 0 460.8 345.6" width="460.8pt" xmlns="http://www.w3.org/2000/svg" xmlns:xlink="http://www.w3.org/1999/xlink">
 <defs>
  <style type="text/css">
*{stroke-linecap:butt;stroke-linejoin:round;}
  </style>
 </defs>
 <g id="figure_1">
  <g id="patch_1">
   <path d="M 0 345.6 
L 460.8 345.6 
L 460.8 0 
L 0 0 
z
" style="fill:#ffffff;"/>
  </g>
  <g id="axes_1">
   <g id="patch_2">
    <path d="M 57.6 307.584 
L 414.72 307.584 
L 414.72 41.472 
L 57.6 41.472 
z
" style="fill:#ffffff;"/>
   </g>
   <g id="matplotlib.axis_1">
    <g id="xtick_1">
     <g id="line2d_1">
      <defs>
       <path d="M 0 0 
L 0 3.5 
" id="m39c003cba1" style="stroke:#000000;stroke-width:0.8;"/>
      </defs>
      <g>
       <use style="stroke:#000000;stroke-width:0.8;" x="73.832727" xlink:href="#m39c003cba1" y="307.584"/>
      </g>
     </g>
     <g id="text_1">
      <!-- 0 -->
      <defs>
       <path d="M 31.78125 66.40625 
Q 24.171875 66.40625 20.328125 58.90625 
Q 16.5 51.421875 16.5 36.375 
Q 16.5 21.390625 20.328125 13.890625 
Q 24.171875 6.390625 31.78125 6.390625 
Q 39.453125 6.390625 43.28125 13.890625 
Q 47.125 21.390625 47.125 36.375 
Q 47.125 51.421875 43.28125 58.90625 
Q 39.453125 66.40625 31.78125 66.40625 
z
M 31.78125 74.21875 
Q 44.046875 74.21875 50.515625 64.515625 
Q 56.984375 54.828125 56.984375 36.375 
Q 56.984375 17.96875 50.515625 8.265625 
Q 44.046875 -1.421875 31.78125 -1.421875 
Q 19.53125 -1.421875 13.0625 8.265625 
Q 6.59375 17.96875 6.59375 36.375 
Q 6.59375 54.828125 13.0625 64.515625 
Q 19.53125 74.21875 31.78125 74.21875 
z
" id="DejaVuSans-48"/>
      </defs>
      <g transform="translate(70.651477 322.182437)scale(0.1 -0.1)">
       <use xlink:href="#DejaVuSans-48"/>
      </g>
     </g>
    </g>
    <g id="xtick_2">
     <g id="line2d_2">
      <g>
       <use style="stroke:#000000;stroke-width:0.8;" x="117.148877" xlink:href="#m39c003cba1" y="307.584"/>
      </g>
     </g>
     <g id="text_2">
      <!-- 200 -->
      <defs>
       <path d="M 19.1875 8.296875 
L 53.609375 8.296875 
L 53.609375 0 
L 7.328125 0 
L 7.328125 8.296875 
Q 12.9375 14.109375 22.625 23.890625 
Q 32.328125 33.6875 34.8125 36.53125 
Q 39.546875 41.84375 41.421875 45.53125 
Q 43.3125 49.21875 43.3125 52.78125 
Q 43.3125 58.59375 39.234375 62.25 
Q 35.15625 65.921875 28.609375 65.921875 
Q 23.96875 65.921875 18.8125 64.3125 
Q 13.671875 62.703125 7.8125 59.421875 
L 7.8125 69.390625 
Q 13.765625 71.78125 18.9375 73 
Q 24.125 74.21875 28.421875 74.21875 
Q 39.75 74.21875 46.484375 68.546875 
Q 53.21875 62.890625 53.21875 53.421875 
Q 53.21875 48.921875 51.53125 44.890625 
Q 49.859375 40.875 45.40625 35.40625 
Q 44.1875 33.984375 37.640625 27.21875 
Q 31.109375 20.453125 19.1875 8.296875 
z
" id="DejaVuSans-50"/>
      </defs>
      <g transform="translate(107.605127 322.182437)scale(0.1 -0.1)">
       <use xlink:href="#DejaVuSans-50"/>
       <use x="63.623047" xlink:href="#DejaVuSans-48"/>
       <use x="127.246094" xlink:href="#DejaVuSans-48"/>
      </g>
     </g>
    </g>
    <g id="xtick_3">
     <g id="line2d_3">
      <g>
       <use style="stroke:#000000;stroke-width:0.8;" x="160.465028" xlink:href="#m39c003cba1" y="307.584"/>
      </g>
     </g>
     <g id="text_3">
      <!-- 400 -->
      <defs>
       <path d="M 37.796875 64.3125 
L 12.890625 25.390625 
L 37.796875 25.390625 
z
M 35.203125 72.90625 
L 47.609375 72.90625 
L 47.609375 25.390625 
L 58.015625 25.390625 
L 58.015625 17.1875 
L 47.609375 17.1875 
L 47.609375 0 
L 37.796875 0 
L 37.796875 17.1875 
L 4.890625 17.1875 
L 4.890625 26.703125 
z
" id="DejaVuSans-52"/>
      </defs>
      <g transform="translate(150.921278 322.182437)scale(0.1 -0.1)">
       <use xlink:href="#DejaVuSans-52"/>
       <use x="63.623047" xlink:href="#DejaVuSans-48"/>
       <use x="127.246094" xlink:href="#DejaVuSans-48"/>
      </g>
     </g>
    </g>
    <g id="xtick_4">
     <g id="line2d_4">
      <g>
       <use style="stroke:#000000;stroke-width:0.8;" x="203.781178" xlink:href="#m39c003cba1" y="307.584"/>
      </g>
     </g>
     <g id="text_4">
      <!-- 600 -->
      <defs>
       <path d="M 33.015625 40.375 
Q 26.375 40.375 22.484375 35.828125 
Q 18.609375 31.296875 18.609375 23.390625 
Q 18.609375 15.53125 22.484375 10.953125 
Q 26.375 6.390625 33.015625 6.390625 
Q 39.65625 6.390625 43.53125 10.953125 
Q 47.40625 15.53125 47.40625 23.390625 
Q 47.40625 31.296875 43.53125 35.828125 
Q 39.65625 40.375 33.015625 40.375 
z
M 52.59375 71.296875 
L 52.59375 62.3125 
Q 48.875 64.0625 45.09375 64.984375 
Q 41.3125 65.921875 37.59375 65.921875 
Q 27.828125 65.921875 22.671875 59.328125 
Q 17.53125 52.734375 16.796875 39.40625 
Q 19.671875 43.65625 24.015625 45.921875 
Q 28.375 48.1875 33.59375 48.1875 
Q 44.578125 48.1875 50.953125 41.515625 
Q 57.328125 34.859375 57.328125 23.390625 
Q 57.328125 12.15625 50.6875 5.359375 
Q 44.046875 -1.421875 33.015625 -1.421875 
Q 20.359375 -1.421875 13.671875 8.265625 
Q 6.984375 17.96875 6.984375 36.375 
Q 6.984375 53.65625 15.1875 63.9375 
Q 23.390625 74.21875 37.203125 74.21875 
Q 40.921875 74.21875 44.703125 73.484375 
Q 48.484375 72.75 52.59375 71.296875 
z
" id="DejaVuSans-54"/>
      </defs>
      <g transform="translate(194.237428 322.182437)scale(0.1 -0.1)">
       <use xlink:href="#DejaVuSans-54"/>
       <use x="63.623047" xlink:href="#DejaVuSans-48"/>
       <use x="127.246094" xlink:href="#DejaVuSans-48"/>
      </g>
     </g>
    </g>
    <g id="xtick_5">
     <g id="line2d_5">
      <g>
       <use style="stroke:#000000;stroke-width:0.8;" x="247.097328" xlink:href="#m39c003cba1" y="307.584"/>
      </g>
     </g>
     <g id="text_5">
      <!-- 800 -->
      <defs>
       <path d="M 31.78125 34.625 
Q 24.75 34.625 20.71875 30.859375 
Q 16.703125 27.09375 16.703125 20.515625 
Q 16.703125 13.921875 20.71875 10.15625 
Q 24.75 6.390625 31.78125 6.390625 
Q 38.8125 6.390625 42.859375 10.171875 
Q 46.921875 13.96875 46.921875 20.515625 
Q 46.921875 27.09375 42.890625 30.859375 
Q 38.875 34.625 31.78125 34.625 
z
M 21.921875 38.8125 
Q 15.578125 40.375 12.03125 44.71875 
Q 8.5 49.078125 8.5 55.328125 
Q 8.5 64.0625 14.71875 69.140625 
Q 20.953125 74.21875 31.78125 74.21875 
Q 42.671875 74.21875 48.875 69.140625 
Q 55.078125 64.0625 55.078125 55.328125 
Q 55.078125 49.078125 51.53125 44.71875 
Q 48 40.375 41.703125 38.8125 
Q 48.828125 37.15625 52.796875 32.3125 
Q 56.78125 27.484375 56.78125 20.515625 
Q 56.78125 9.90625 50.3125 4.234375 
Q 43.84375 -1.421875 31.78125 -1.421875 
Q 19.734375 -1.421875 13.25 4.234375 
Q 6.78125 9.90625 6.78125 20.515625 
Q 6.78125 27.484375 10.78125 32.3125 
Q 14.796875 37.15625 21.921875 38.8125 
z
M 18.3125 54.390625 
Q 18.3125 48.734375 21.84375 45.5625 
Q 25.390625 42.390625 31.78125 42.390625 
Q 38.140625 42.390625 41.71875 45.5625 
Q 45.3125 48.734375 45.3125 54.390625 
Q 45.3125 60.0625 41.71875 63.234375 
Q 38.140625 66.40625 31.78125 66.40625 
Q 25.390625 66.40625 21.84375 63.234375 
Q 18.3125 60.0625 18.3125 54.390625 
z
" id="DejaVuSans-56"/>
      </defs>
      <g transform="translate(237.553578 322.182437)scale(0.1 -0.1)">
       <use xlink:href="#DejaVuSans-56"/>
       <use x="63.623047" xlink:href="#DejaVuSans-48"/>
       <use x="127.246094" xlink:href="#DejaVuSans-48"/>
      </g>
     </g>
    </g>
    <g id="xtick_6">
     <g id="line2d_6">
      <g>
       <use style="stroke:#000000;stroke-width:0.8;" x="290.413478" xlink:href="#m39c003cba1" y="307.584"/>
      </g>
     </g>
     <g id="text_6">
      <!-- 1000 -->
      <defs>
       <path d="M 12.40625 8.296875 
L 28.515625 8.296875 
L 28.515625 63.921875 
L 10.984375 60.40625 
L 10.984375 69.390625 
L 28.421875 72.90625 
L 38.28125 72.90625 
L 38.28125 8.296875 
L 54.390625 8.296875 
L 54.390625 0 
L 12.40625 0 
z
" id="DejaVuSans-49"/>
      </defs>
      <g transform="translate(277.688478 322.182437)scale(0.1 -0.1)">
       <use xlink:href="#DejaVuSans-49"/>
       <use x="63.623047" xlink:href="#DejaVuSans-48"/>
       <use x="127.246094" xlink:href="#DejaVuSans-48"/>
       <use x="190.869141" xlink:href="#DejaVuSans-48"/>
      </g>
     </g>
    </g>
    <g id="xtick_7">
     <g id="line2d_7">
      <g>
       <use style="stroke:#000000;stroke-width:0.8;" x="333.729628" xlink:href="#m39c003cba1" y="307.584"/>
      </g>
     </g>
     <g id="text_7">
      <!-- 1200 -->
      <g transform="translate(321.004628 322.182437)scale(0.1 -0.1)">
       <use xlink:href="#DejaVuSans-49"/>
       <use x="63.623047" xlink:href="#DejaVuSans-50"/>
       <use x="127.246094" xlink:href="#DejaVuSans-48"/>
       <use x="190.869141" xlink:href="#DejaVuSans-48"/>
      </g>
     </g>
    </g>
    <g id="xtick_8">
     <g id="line2d_8">
      <g>
       <use style="stroke:#000000;stroke-width:0.8;" x="377.045778" xlink:href="#m39c003cba1" y="307.584"/>
      </g>
     </g>
     <g id="text_8">
      <!-- 1400 -->
      <g transform="translate(364.320778 322.182437)scale(0.1 -0.1)">
       <use xlink:href="#DejaVuSans-49"/>
       <use x="63.623047" xlink:href="#DejaVuSans-52"/>
       <use x="127.246094" xlink:href="#DejaVuSans-48"/>
       <use x="190.869141" xlink:href="#DejaVuSans-48"/>
      </g>
     </g>
    </g>
    <g id="text_9">
     <!-- Step -->
     <defs>
      <path d="M 53.515625 70.515625 
L 53.515625 60.890625 
Q 47.90625 63.578125 42.921875 64.890625 
Q 37.9375 66.21875 33.296875 66.21875 
Q 25.25 66.21875 20.875 63.09375 
Q 16.5 59.96875 16.5 54.203125 
Q 16.5 49.359375 19.40625 46.890625 
Q 22.3125 44.4375 30.421875 42.921875 
L 36.375 41.703125 
Q 47.40625 39.59375 52.65625 34.296875 
Q 57.90625 29 57.90625 20.125 
Q 57.90625 9.515625 50.796875 4.046875 
Q 43.703125 -1.421875 29.984375 -1.421875 
Q 24.8125 -1.421875 18.96875 -0.25 
Q 13.140625 0.921875 6.890625 3.21875 
L 6.890625 13.375 
Q 12.890625 10.015625 18.65625 8.296875 
Q 24.421875 6.59375 29.984375 6.59375 
Q 38.421875 6.59375 43.015625 9.90625 
Q 47.609375 13.234375 47.609375 19.390625 
Q 47.609375 24.75 44.3125 27.78125 
Q 41.015625 30.8125 33.5 32.328125 
L 27.484375 33.5 
Q 16.453125 35.6875 11.515625 40.375 
Q 6.59375 45.0625 6.59375 53.421875 
Q 6.59375 63.09375 13.40625 68.65625 
Q 20.21875 74.21875 32.171875 74.21875 
Q 37.3125 74.21875 42.625 73.28125 
Q 47.953125 72.359375 53.515625 70.515625 
z
" id="DejaVuSans-83"/>
      <path d="M 18.3125 70.21875 
L 18.3125 54.6875 
L 36.8125 54.6875 
L 36.8125 47.703125 
L 18.3125 47.703125 
L 18.3125 18.015625 
Q 18.3125 11.328125 20.140625 9.421875 
Q 21.96875 7.515625 27.59375 7.515625 
L 36.8125 7.515625 
L 36.8125 0 
L 27.59375 0 
Q 17.1875 0 13.234375 3.875 
Q 9.28125 7.765625 9.28125 18.015625 
L 9.28125 47.703125 
L 2.6875 47.703125 
L 2.6875 54.6875 
L 9.28125 54.6875 
L 9.28125 70.21875 
z
" id="DejaVuSans-116"/>
      <path d="M 56.203125 29.59375 
L 56.203125 25.203125 
L 14.890625 25.203125 
Q 15.484375 15.921875 20.484375 11.0625 
Q 25.484375 6.203125 34.421875 6.203125 
Q 39.59375 6.203125 44.453125 7.46875 
Q 49.3125 8.734375 54.109375 11.28125 
L 54.109375 2.78125 
Q 49.265625 0.734375 44.1875 -0.34375 
Q 39.109375 -1.421875 33.890625 -1.421875 
Q 20.796875 -1.421875 13.15625 6.1875 
Q 5.515625 13.8125 5.515625 26.8125 
Q 5.515625 40.234375 12.765625 48.109375 
Q 20.015625 56 32.328125 56 
Q 43.359375 56 49.78125 48.890625 
Q 56.203125 41.796875 56.203125 29.59375 
z
M 47.21875 32.234375 
Q 47.125 39.59375 43.09375 43.984375 
Q 39.0625 48.390625 32.421875 48.390625 
Q 24.90625 48.390625 20.390625 44.140625 
Q 15.875 39.890625 15.1875 32.171875 
z
" id="DejaVuSans-101"/>
      <path d="M 18.109375 8.203125 
L 18.109375 -20.796875 
L 9.078125 -20.796875 
L 9.078125 54.6875 
L 18.109375 54.6875 
L 18.109375 46.390625 
Q 20.953125 51.265625 25.265625 53.625 
Q 29.59375 56 35.59375 56 
Q 45.5625 56 51.78125 48.09375 
Q 58.015625 40.1875 58.015625 27.296875 
Q 58.015625 14.40625 51.78125 6.484375 
Q 45.5625 -1.421875 35.59375 -1.421875 
Q 29.59375 -1.421875 25.265625 0.953125 
Q 20.953125 3.328125 18.109375 8.203125 
z
M 48.6875 27.296875 
Q 48.6875 37.203125 44.609375 42.84375 
Q 40.53125 48.484375 33.40625 48.484375 
Q 26.265625 48.484375 22.1875 42.84375 
Q 18.109375 37.203125 18.109375 27.296875 
Q 18.109375 17.390625 22.1875 11.75 
Q 26.265625 6.109375 33.40625 6.109375 
Q 40.53125 6.109375 44.609375 11.75 
Q 48.6875 17.390625 48.6875 27.296875 
z
" id="DejaVuSans-112"/>
     </defs>
     <g transform="translate(224.774844 335.860562)scale(0.1 -0.1)">
      <use xlink:href="#DejaVuSans-83"/>
      <use x="63.476562" xlink:href="#DejaVuSans-116"/>
      <use x="102.685547" xlink:href="#DejaVuSans-101"/>
      <use x="164.208984" xlink:href="#DejaVuSans-112"/>
     </g>
    </g>
   </g>
   <g id="matplotlib.axis_2">
    <g id="ytick_1">
     <g id="line2d_9">
      <defs>
       <path d="M 0 0 
L -3.5 0 
" id="mcaecc9fc91" style="stroke:#000000;stroke-width:0.8;"/>
      </defs>
      <g>
       <use style="stroke:#000000;stroke-width:0.8;" x="57.6" xlink:href="#mcaecc9fc91" y="293.30854"/>
      </g>
     </g>
     <g id="text_10">
      <!-- 0.1 -->
      <defs>
       <path d="M 10.6875 12.40625 
L 21 12.40625 
L 21 0 
L 10.6875 0 
z
" id="DejaVuSans-46"/>
      </defs>
      <g transform="translate(34.696875 297.107759)scale(0.1 -0.1)">
       <use xlink:href="#DejaVuSans-48"/>
       <use x="63.623047" xlink:href="#DejaVuSans-46"/>
       <use x="95.410156" xlink:href="#DejaVuSans-49"/>
      </g>
     </g>
    </g>
    <g id="ytick_2">
     <g id="line2d_10">
      <g>
       <use style="stroke:#000000;stroke-width:0.8;" x="57.6" xlink:href="#mcaecc9fc91" y="249.719349"/>
      </g>
     </g>
     <g id="text_11">
      <!-- 0.2 -->
      <g transform="translate(34.696875 253.518568)scale(0.1 -0.1)">
       <use xlink:href="#DejaVuSans-48"/>
       <use x="63.623047" xlink:href="#DejaVuSans-46"/>
       <use x="95.410156" xlink:href="#DejaVuSans-50"/>
      </g>
     </g>
    </g>
    <g id="ytick_3">
     <g id="line2d_11">
      <g>
       <use style="stroke:#000000;stroke-width:0.8;" x="57.6" xlink:href="#mcaecc9fc91" y="206.130158"/>
      </g>
     </g>
     <g id="text_12">
      <!-- 0.3 -->
      <defs>
       <path d="M 40.578125 39.3125 
Q 47.65625 37.796875 51.625 33 
Q 55.609375 28.21875 55.609375 21.1875 
Q 55.609375 10.40625 48.1875 4.484375 
Q 40.765625 -1.421875 27.09375 -1.421875 
Q 22.515625 -1.421875 17.65625 -0.515625 
Q 12.796875 0.390625 7.625 2.203125 
L 7.625 11.71875 
Q 11.71875 9.328125 16.59375 8.109375 
Q 21.484375 6.890625 26.8125 6.890625 
Q 36.078125 6.890625 40.9375 10.546875 
Q 45.796875 14.203125 45.796875 21.1875 
Q 45.796875 27.640625 41.28125 31.265625 
Q 36.765625 34.90625 28.71875 34.90625 
L 20.21875 34.90625 
L 20.21875 43.015625 
L 29.109375 43.015625 
Q 36.375 43.015625 40.234375 45.921875 
Q 44.09375 48.828125 44.09375 54.296875 
Q 44.09375 59.90625 40.109375 62.90625 
Q 36.140625 65.921875 28.71875 65.921875 
Q 24.65625 65.921875 20.015625 65.03125 
Q 15.375 64.15625 9.8125 62.3125 
L 9.8125 71.09375 
Q 15.4375 72.65625 20.34375 73.4375 
Q 25.25 74.21875 29.59375 74.21875 
Q 40.828125 74.21875 47.359375 69.109375 
Q 53.90625 64.015625 53.90625 55.328125 
Q 53.90625 49.265625 50.4375 45.09375 
Q 46.96875 40.921875 40.578125 39.3125 
z
" id="DejaVuSans-51"/>
      </defs>
      <g transform="translate(34.696875 209.929377)scale(0.1 -0.1)">
       <use xlink:href="#DejaVuSans-48"/>
       <use x="63.623047" xlink:href="#DejaVuSans-46"/>
       <use x="95.410156" xlink:href="#DejaVuSans-51"/>
      </g>
     </g>
    </g>
    <g id="ytick_4">
     <g id="line2d_12">
      <g>
       <use style="stroke:#000000;stroke-width:0.8;" x="57.6" xlink:href="#mcaecc9fc91" y="162.540967"/>
      </g>
     </g>
     <g id="text_13">
      <!-- 0.4 -->
      <g transform="translate(34.696875 166.340186)scale(0.1 -0.1)">
       <use xlink:href="#DejaVuSans-48"/>
       <use x="63.623047" xlink:href="#DejaVuSans-46"/>
       <use x="95.410156" xlink:href="#DejaVuSans-52"/>
      </g>
     </g>
    </g>
    <g id="ytick_5">
     <g id="line2d_13">
      <g>
       <use style="stroke:#000000;stroke-width:0.8;" x="57.6" xlink:href="#mcaecc9fc91" y="118.951776"/>
      </g>
     </g>
     <g id="text_14">
      <!-- 0.5 -->
      <defs>
       <path d="M 10.796875 72.90625 
L 49.515625 72.90625 
L 49.515625 64.59375 
L 19.828125 64.59375 
L 19.828125 46.734375 
Q 21.96875 47.46875 24.109375 47.828125 
Q 26.265625 48.1875 28.421875 48.1875 
Q 40.625 48.1875 47.75 41.5 
Q 54.890625 34.8125 54.890625 23.390625 
Q 54.890625 11.625 47.5625 5.09375 
Q 40.234375 -1.421875 26.90625 -1.421875 
Q 22.3125 -1.421875 17.546875 -0.640625 
Q 12.796875 0.140625 7.71875 1.703125 
L 7.71875 11.625 
Q 12.109375 9.234375 16.796875 8.0625 
Q 21.484375 6.890625 26.703125 6.890625 
Q 35.15625 6.890625 40.078125 11.328125 
Q 45.015625 15.765625 45.015625 23.390625 
Q 45.015625 31 40.078125 35.4375 
Q 35.15625 39.890625 26.703125 39.890625 
Q 22.75 39.890625 18.8125 39.015625 
Q 14.890625 38.140625 10.796875 36.28125 
z
" id="DejaVuSans-53"/>
      </defs>
      <g transform="translate(34.696875 122.750995)scale(0.1 -0.1)">
       <use xlink:href="#DejaVuSans-48"/>
       <use x="63.623047" xlink:href="#DejaVuSans-46"/>
       <use x="95.410156" xlink:href="#DejaVuSans-53"/>
      </g>
     </g>
    </g>
    <g id="ytick_6">
     <g id="line2d_14">
      <g>
       <use style="stroke:#000000;stroke-width:0.8;" x="57.6" xlink:href="#mcaecc9fc91" y="75.362585"/>
      </g>
     </g>
     <g id="text_15">
      <!-- 0.6 -->
      <g transform="translate(34.696875 79.161804)scale(0.1 -0.1)">
       <use xlink:href="#DejaVuSans-48"/>
       <use x="63.623047" xlink:href="#DejaVuSans-46"/>
       <use x="95.410156" xlink:href="#DejaVuSans-54"/>
      </g>
     </g>
    </g>
    <g id="text_16">
     <!-- Accuracy -->
     <defs>
      <path d="M 34.1875 63.1875 
L 20.796875 26.90625 
L 47.609375 26.90625 
z
M 28.609375 72.90625 
L 39.796875 72.90625 
L 67.578125 0 
L 57.328125 0 
L 50.6875 18.703125 
L 17.828125 18.703125 
L 11.1875 0 
L 0.78125 0 
z
" id="DejaVuSans-65"/>
      <path d="M 48.78125 52.59375 
L 48.78125 44.1875 
Q 44.96875 46.296875 41.140625 47.34375 
Q 37.3125 48.390625 33.40625 48.390625 
Q 24.65625 48.390625 19.8125 42.84375 
Q 14.984375 37.3125 14.984375 27.296875 
Q 14.984375 17.28125 19.8125 11.734375 
Q 24.65625 6.203125 33.40625 6.203125 
Q 37.3125 6.203125 41.140625 7.25 
Q 44.96875 8.296875 48.78125 10.40625 
L 48.78125 2.09375 
Q 45.015625 0.34375 40.984375 -0.53125 
Q 36.96875 -1.421875 32.421875 -1.421875 
Q 20.0625 -1.421875 12.78125 6.34375 
Q 5.515625 14.109375 5.515625 27.296875 
Q 5.515625 40.671875 12.859375 48.328125 
Q 20.21875 56 33.015625 56 
Q 37.15625 56 41.109375 55.140625 
Q 45.0625 54.296875 48.78125 52.59375 
z
" id="DejaVuSans-99"/>
      <path d="M 8.5 21.578125 
L 8.5 54.6875 
L 17.484375 54.6875 
L 17.484375 21.921875 
Q 17.484375 14.15625 20.5 10.265625 
Q 23.53125 6.390625 29.59375 6.390625 
Q 36.859375 6.390625 41.078125 11.03125 
Q 45.3125 15.671875 45.3125 23.6875 
L 45.3125 54.6875 
L 54.296875 54.6875 
L 54.296875 0 
L 45.3125 0 
L 45.3125 8.40625 
Q 42.046875 3.421875 37.71875 1 
Q 33.40625 -1.421875 27.6875 -1.421875 
Q 18.265625 -1.421875 13.375 4.4375 
Q 8.5 10.296875 8.5 21.578125 
z
M 31.109375 56 
z
" id="DejaVuSans-117"/>
      <path d="M 41.109375 46.296875 
Q 39.59375 47.171875 37.8125 47.578125 
Q 36.03125 48 33.890625 48 
Q 26.265625 48 22.1875 43.046875 
Q 18.109375 38.09375 18.109375 28.8125 
L 18.109375 0 
L 9.078125 0 
L 9.078125 54.6875 
L 18.109375 54.6875 
L 18.109375 46.1875 
Q 20.953125 51.171875 25.484375 53.578125 
Q 30.03125 56 36.53125 56 
Q 37.453125 56 38.578125 55.875 
Q 39.703125 55.765625 41.0625 55.515625 
z
" id="DejaVuSans-114"/>
      <path d="M 34.28125 27.484375 
Q 23.390625 27.484375 19.1875 25 
Q 14.984375 22.515625 14.984375 16.5 
Q 14.984375 11.71875 18.140625 8.90625 
Q 21.296875 6.109375 26.703125 6.109375 
Q 34.1875 6.109375 38.703125 11.40625 
Q 43.21875 16.703125 43.21875 25.484375 
L 43.21875 27.484375 
z
M 52.203125 31.203125 
L 52.203125 0 
L 43.21875 0 
L 43.21875 8.296875 
Q 40.140625 3.328125 35.546875 0.953125 
Q 30.953125 -1.421875 24.3125 -1.421875 
Q 15.921875 -1.421875 10.953125 3.296875 
Q 6 8.015625 6 15.921875 
Q 6 25.140625 12.171875 29.828125 
Q 18.359375 34.515625 30.609375 34.515625 
L 43.21875 34.515625 
L 43.21875 35.40625 
Q 43.21875 41.609375 39.140625 45 
Q 35.0625 48.390625 27.6875 48.390625 
Q 23 48.390625 18.546875 47.265625 
Q 14.109375 46.140625 10.015625 43.890625 
L 10.015625 52.203125 
Q 14.9375 54.109375 19.578125 55.046875 
Q 24.21875 56 28.609375 56 
Q 40.484375 56 46.34375 49.84375 
Q 52.203125 43.703125 52.203125 31.203125 
z
" id="DejaVuSans-97"/>
      <path d="M 32.171875 -5.078125 
Q 28.375 -14.84375 24.75 -17.8125 
Q 21.140625 -20.796875 15.09375 -20.796875 
L 7.90625 -20.796875 
L 7.90625 -13.28125 
L 13.1875 -13.28125 
Q 16.890625 -13.28125 18.9375 -11.515625 
Q 21 -9.765625 23.484375 -3.21875 
L 25.09375 0.875 
L 2.984375 54.6875 
L 12.5 54.6875 
L 29.59375 11.921875 
L 46.6875 54.6875 
L 56.203125 54.6875 
z
" id="DejaVuSans-121"/>
     </defs>
     <g transform="translate(28.617187 197.442844)rotate(-90)scale(0.1 -0.1)">
      <use xlink:href="#DejaVuSans-65"/>
      <use x="68.392578" xlink:href="#DejaVuSans-99"/>
      <use x="123.373047" xlink:href="#DejaVuSans-99"/>
      <use x="178.353516" xlink:href="#DejaVuSans-117"/>
      <use x="241.732422" xlink:href="#DejaVuSans-114"/>
      <use x="282.845703" xlink:href="#DejaVuSans-97"/>
      <use x="344.125" xlink:href="#DejaVuSans-99"/>
      <use x="399.105469" xlink:href="#DejaVuSans-121"/>
     </g>
    </g>
   </g>
   <g id="line2d_15">
    <path clip-path="url(#pb6703dc4c8)" d="M 73.832727 295.488 
L 74.265889 243.180975 
L 74.48247 232.283675 
L 74.69905 245.360433 
L 74.915631 236.642596 
L 75.132212 249.719354 
L 75.565373 225.745296 
L 75.781954 234.463132 
L 75.998535 236.642596 
L 76.215116 232.283675 
L 76.431696 212.668538 
L 76.648277 223.565839 
L 76.864858 223.565839 
L 77.298019 217.027453 
L 77.5146 227.924753 
L 77.947762 217.027453 
L 78.380923 238.822054 
L 78.597504 214.847996 
L 78.814085 219.206924 
L 79.030665 201.771238 
L 79.247246 234.463132 
L 79.463827 217.027453 
L 79.680408 251.898812 
L 79.896988 214.847996 
L 80.113569 217.027453 
L 80.33015 206.130166 
L 80.546731 208.309623 
L 80.763311 193.053408 
L 80.979892 197.412323 
L 81.196473 221.386381 
L 81.413054 214.847996 
L 81.629634 197.412323 
L 82.062796 217.027453 
L 82.279377 210.489081 
L 82.495957 221.386381 
L 82.712538 201.771238 
L 82.929119 171.258807 
L 83.36228 227.924753 
L 83.578861 225.745296 
L 83.795442 203.950695 
L 84.012023 214.847996 
L 84.228603 208.309623 
L 84.445184 217.027453 
L 84.661765 201.771238 
L 84.878346 223.565839 
L 85.094926 217.027453 
L 85.311507 186.515023 
L 85.528088 210.489081 
L 85.744669 214.847996 
L 85.961249 227.924753 
L 86.17783 197.412323 
L 86.394411 214.847996 
L 86.610992 203.950695 
L 87.044153 230.104217 
L 87.260734 223.565839 
L 87.477315 232.283675 
L 87.910476 190.873951 
L 88.127057 230.104217 
L 88.343638 197.412323 
L 88.560218 201.771238 
L 88.776799 212.668538 
L 88.99338 199.59178 
L 89.209961 177.797193 
L 89.426541 188.69448 
L 89.643122 212.668538 
L 89.859703 217.027453 
L 90.076284 208.309623 
L 90.292864 188.69448 
L 90.509445 238.822054 
L 90.726026 223.565839 
L 91.159187 160.361507 
L 91.375768 203.950695 
L 91.592349 188.69448 
L 91.80893 210.489081 
L 92.02551 199.59178 
L 92.242091 212.668538 
L 92.458672 184.335565 
L 92.675253 214.847996 
L 92.891833 225.745296 
L 93.108414 206.130166 
L 93.324995 217.027453 
L 93.541576 214.847996 
L 93.758156 241.001511 
L 93.974737 197.412323 
L 94.407899 169.07935 
L 94.624479 210.489081 
L 94.84106 197.412323 
L 95.057641 206.130166 
L 95.274222 197.412323 
L 95.490802 210.489081 
L 95.707383 206.130166 
L 95.923964 221.386381 
L 96.140545 184.335565 
L 96.357125 219.206924 
L 96.573706 164.720435 
L 96.790287 223.565839 
L 97.006868 188.69448 
L 97.223448 219.206924 
L 97.873191 197.412323 
L 98.089771 206.130166 
L 98.306352 184.335565 
L 98.522933 210.489081 
L 98.739514 208.309623 
L 98.956094 193.053408 
L 99.172675 199.59178 
L 99.389256 195.232865 
L 99.605837 164.720435 
L 99.822417 184.335565 
L 100.038998 190.873951 
L 100.255579 164.720435 
L 100.47216 206.130166 
L 100.68874 219.206924 
L 100.905321 188.69448 
L 101.121902 227.924753 
L 101.338483 206.130166 
L 101.555063 219.206924 
L 101.771644 179.97665 
L 101.988225 188.69448 
L 102.204806 203.950695 
L 102.421386 184.335565 
L 102.637967 208.309623 
L 102.854548 208.309623 
L 103.071129 210.489081 
L 103.287709 208.309623 
L 103.50429 197.412323 
L 103.720871 177.797193 
L 103.937452 212.668538 
L 104.154032 206.130166 
L 104.370613 210.489081 
L 104.587194 221.386381 
L 104.803775 214.847996 
L 105.020355 169.07935 
L 105.236936 190.873951 
L 105.453517 171.258807 
L 105.670098 210.489081 
L 105.886678 208.309623 
L 106.103259 175.617722 
L 106.31984 190.873951 
L 106.536421 195.232865 
L 106.753001 190.873951 
L 106.969582 210.489081 
L 107.402744 186.515023 
L 107.835905 203.950695 
L 108.052486 190.873951 
L 108.269067 217.027453 
L 108.485647 190.873951 
L 108.702228 219.206924 
L 108.918809 210.489081 
L 109.13539 188.69448 
L 109.35197 201.771238 
L 109.568551 169.07935 
L 109.785132 208.309623 
L 110.001713 197.412323 
L 110.218293 212.668538 
L 110.434874 188.69448 
L 110.651455 186.515023 
L 111.084616 179.97665 
L 111.301197 188.69448 
L 111.517778 206.130166 
L 111.734359 179.97665 
L 111.950939 199.59178 
L 112.16752 177.797193 
L 112.384101 203.950695 
L 112.600682 210.489081 
L 112.817262 190.873951 
L 113.033843 195.232865 
L 113.250424 206.130166 
L 113.683585 179.97665 
L 113.900166 208.309623 
L 114.116747 173.438265 
L 114.333328 203.950695 
L 114.549908 197.412323 
L 114.766489 177.797193 
L 114.98307 210.489081 
L 115.199651 197.412323 
L 115.416231 208.309623 
L 115.632812 175.617722 
L 115.849393 199.59178 
L 116.065974 206.130166 
L 116.282554 179.97665 
L 116.499135 190.873951 
L 116.715716 193.053408 
L 116.932297 169.07935 
L 117.148877 210.489081 
L 117.582039 188.69448 
L 117.79862 186.515023 
L 118.0152 201.771238 
L 118.231781 195.232865 
L 118.448362 184.335565 
L 118.664943 212.668538 
L 118.881523 186.515023 
L 119.098104 201.771238 
L 119.531266 188.69448 
L 119.747846 197.412323 
L 119.964427 184.335565 
L 120.181008 184.335565 
L 120.397589 193.053408 
L 120.614169 219.206924 
L 120.83075 182.156108 
L 121.047331 190.873951 
L 121.263912 206.130166 
L 121.480492 169.07935 
L 121.697073 190.873951 
L 122.130235 177.797193 
L 122.346815 223.565839 
L 122.563396 171.258807 
L 122.779977 214.847996 
L 122.996558 173.438265 
L 123.213138 186.515023 
L 123.429719 217.027453 
L 123.6463 171.258807 
L 123.862881 227.924753 
L 124.079461 219.206924 
L 124.296042 184.335565 
L 124.512623 208.309623 
L 124.729204 210.489081 
L 124.945784 186.515023 
L 125.162365 223.565839 
L 125.378946 173.438265 
L 125.595527 201.771238 
L 125.812107 210.489081 
L 126.028688 179.97665 
L 126.46185 208.309623 
L 126.67843 190.873951 
L 127.111592 206.130166 
L 127.328173 177.797193 
L 127.544753 184.335565 
L 127.761334 171.258807 
L 127.977915 171.258807 
L 128.411076 184.335565 
L 128.627657 179.97665 
L 128.844238 171.258807 
L 129.277399 177.797193 
L 129.49398 179.97665 
L 129.710561 179.97665 
L 129.927142 175.617722 
L 130.143722 164.720435 
L 130.360303 184.335565 
L 130.576884 162.540977 
L 130.793465 193.053408 
L 131.010045 179.97665 
L 131.226626 197.412323 
L 131.443207 179.97665 
L 131.659788 195.232865 
L 131.876368 158.182049 
L 132.092949 203.950695 
L 132.30953 186.515023 
L 132.526111 184.335565 
L 132.742691 156.002592 
L 132.959272 166.899892 
L 133.175853 203.950695 
L 133.392434 162.540977 
L 133.609014 164.720435 
L 133.825595 206.130166 
L 134.042176 156.002592 
L 134.258757 158.182049 
L 134.475337 147.284749 
L 134.691918 201.771238 
L 134.908499 184.335565 
L 135.12508 184.335565 
L 135.341661 160.361507 
L 135.558241 179.97665 
L 135.774822 158.182049 
L 135.991403 182.156108 
L 136.207984 177.797193 
L 136.424564 188.69448 
L 136.641145 160.361507 
L 137.074307 175.617722 
L 137.290887 171.258807 
L 137.507468 171.258807 
L 137.724049 186.515023 
L 137.94063 166.899892 
L 138.373791 195.232865 
L 138.590372 193.053408 
L 138.806953 197.412323 
L 139.023533 173.438265 
L 139.240114 169.07935 
L 139.456695 197.412323 
L 139.673276 162.540977 
L 139.889856 177.797193 
L 140.106437 166.899892 
L 140.539599 190.873951 
L 140.97276 166.899892 
L 141.189341 175.617722 
L 141.405922 173.438265 
L 141.839083 193.053408 
L 142.055664 173.438265 
L 142.272245 175.617722 
L 142.488825 182.156108 
L 142.705406 153.823135 
L 143.138568 169.07935 
L 143.355148 193.053408 
L 143.571729 166.899892 
L 143.78831 171.258807 
L 144.221471 190.873951 
L 144.438052 147.284749 
L 144.654633 206.130166 
L 145.087794 169.07935 
L 145.304375 199.59178 
L 145.520956 162.540977 
L 145.737537 166.899892 
L 145.954117 199.59178 
L 146.170698 186.515023 
L 146.387279 184.335565 
L 146.82044 156.002592 
L 147.037021 160.361507 
L 147.253602 184.335565 
L 147.470183 177.797193 
L 147.686763 197.412323 
L 147.903344 175.617722 
L 148.119925 184.335565 
L 148.336506 186.515023 
L 148.553086 164.720435 
L 148.769667 166.899892 
L 148.986248 175.617722 
L 149.202829 166.899892 
L 149.419409 164.720435 
L 149.852571 186.515023 
L 150.069152 153.823135 
L 150.502313 186.515023 
L 150.718894 158.182049 
L 150.935475 193.053408 
L 151.152055 171.258807 
L 151.368636 169.07935 
L 151.585217 212.668538 
L 151.801798 129.849076 
L 152.234959 160.361507 
L 152.45154 162.540977 
L 152.668121 177.797193 
L 153.101282 160.361507 
L 153.317863 197.412323 
L 153.534444 175.617722 
L 153.751024 182.156108 
L 153.967605 147.284749 
L 154.184186 186.515023 
L 154.400767 160.361507 
L 154.617347 149.46422 
L 155.26709 195.232865 
L 155.48367 162.540977 
L 155.700251 193.053408 
L 155.916832 145.105292 
L 156.133413 160.361507 
L 156.349993 184.335565 
L 156.566574 175.617722 
L 156.783155 175.617722 
L 156.999736 182.156108 
L 157.216316 179.97665 
L 157.432897 184.335565 
L 157.649478 166.899892 
L 157.866059 201.771238 
L 158.29922 156.002592 
L 158.515801 156.002592 
L 158.732382 162.540977 
L 158.948962 188.69448 
L 159.165543 175.617722 
L 159.382124 182.156108 
L 159.598705 158.182049 
L 159.815285 162.540977 
L 160.031866 153.823135 
L 160.248447 164.720435 
L 160.681608 197.412323 
L 161.11477 158.182049 
L 161.331351 171.258807 
L 161.547931 199.59178 
L 161.764512 177.797193 
L 161.981093 193.053408 
L 162.197674 156.002592 
L 162.630835 186.515023 
L 162.847416 169.07935 
L 163.063997 138.566919 
L 163.280577 169.07935 
L 163.497158 175.617722 
L 163.713739 190.873951 
L 164.1469 166.899892 
L 164.363481 182.156108 
L 164.580062 151.643677 
L 164.796643 177.797193 
L 165.013223 166.899892 
L 165.229804 171.258807 
L 165.446385 158.182049 
L 165.662966 162.540977 
L 165.879546 151.643677 
L 166.096127 171.258807 
L 166.312708 177.797193 
L 166.529289 173.438265 
L 166.745869 184.335565 
L 166.96245 179.97665 
L 167.179031 184.335565 
L 167.395612 147.284749 
L 167.612192 160.361507 
L 167.828773 160.361507 
L 168.045354 217.027453 
L 168.478515 156.002592 
L 168.695096 153.823135 
L 168.911677 164.720435 
L 169.128258 186.515023 
L 169.561419 142.925834 
L 169.994581 175.617722 
L 170.211161 169.07935 
L 170.427742 197.412323 
L 170.644323 193.053408 
L 170.860904 173.438265 
L 171.077484 164.720435 
L 171.294065 177.797193 
L 171.727227 145.105292 
L 171.943807 162.540977 
L 172.160388 158.182049 
L 172.376969 149.46422 
L 172.59355 179.97665 
L 173.459873 162.540977 
L 173.676453 190.873951 
L 173.893034 164.720435 
L 174.109615 158.182049 
L 174.326196 173.438265 
L 174.542776 158.182049 
L 174.759357 166.899892 
L 174.975938 160.361507 
L 175.192519 166.899892 
L 175.409099 190.873951 
L 175.842261 190.873951 
L 176.058842 169.07935 
L 176.275422 175.617722 
L 176.492003 171.258807 
L 176.708584 134.207991 
L 176.925165 147.284749 
L 177.141745 175.617722 
L 177.358326 171.258807 
L 177.574907 160.361507 
L 177.791488 179.97665 
L 178.008068 164.720435 
L 178.224649 166.899892 
L 178.44123 184.335565 
L 178.657811 147.284749 
L 178.874391 147.284749 
L 179.090972 186.515023 
L 179.307553 193.053408 
L 179.524134 169.07935 
L 179.740714 188.69448 
L 179.957295 188.69448 
L 180.173876 149.46422 
L 180.390457 147.284749 
L 180.607037 156.002592 
L 180.823618 158.182049 
L 181.040199 166.899892 
L 181.25678 169.07935 
L 181.47336 123.310704 
L 181.689941 195.232865 
L 182.123103 142.925834 
L 182.339683 164.720435 
L 182.556264 162.540977 
L 182.772845 151.643677 
L 182.989426 149.46422 
L 183.206006 160.361507 
L 183.422587 142.925834 
L 183.639168 147.284749 
L 183.855749 169.07935 
L 184.28891 134.207991 
L 184.505491 140.746377 
L 184.722072 134.207991 
L 185.155233 147.284749 
L 185.371814 127.669619 
L 185.588395 158.182049 
L 185.804975 160.361507 
L 186.021556 129.849076 
L 186.238137 153.823135 
L 186.454718 160.361507 
L 186.671298 147.284749 
L 186.887879 173.438265 
L 187.10446 138.566919 
L 187.321041 158.182049 
L 187.537621 156.002592 
L 187.754202 147.284749 
L 187.970783 169.07935 
L 188.187364 166.899892 
L 188.403944 142.925834 
L 188.620525 138.566919 
L 188.837106 145.105292 
L 189.053687 132.028534 
L 189.270267 132.028534 
L 189.486848 123.310704 
L 189.703429 153.823135 
L 189.92001 160.361507 
L 190.13659 149.46422 
L 190.353171 129.849076 
L 190.569752 138.566919 
L 190.786333 138.566919 
L 191.002913 125.490161 
L 191.219494 136.387462 
L 191.436075 129.849076 
L 191.652656 160.361507 
L 191.869236 138.566919 
L 192.085817 151.643677 
L 192.302398 151.643677 
L 192.518979 145.105292 
L 192.735559 169.07935 
L 193.168721 118.951776 
L 193.385302 151.643677 
L 193.818463 125.490161 
L 194.035044 169.07935 
L 194.468205 140.746377 
L 194.684786 151.643677 
L 194.901367 125.490161 
L 195.117948 162.540977 
L 195.334528 149.46422 
L 195.551109 127.669619 
L 195.76769 156.002592 
L 195.984271 121.131247 
L 196.200851 147.284749 
L 196.417432 138.566919 
L 196.634013 147.284749 
L 196.850594 136.387462 
L 197.283755 164.720435 
L 197.500336 140.746377 
L 197.716917 151.643677 
L 197.933497 142.925834 
L 198.150078 158.182049 
L 198.366659 147.284749 
L 198.58324 125.490161 
L 199.016401 166.899892 
L 199.232982 149.46422 
L 199.449563 147.284749 
L 199.666143 129.849076 
L 199.882724 145.105292 
L 200.099305 169.07935 
L 200.315886 123.310704 
L 200.749047 149.46422 
L 200.965628 125.490161 
L 201.182209 156.002592 
L 201.398789 138.566919 
L 201.831951 158.182049 
L 202.048532 147.284749 
L 202.265112 158.182049 
L 202.481693 114.592861 
L 202.698274 140.746377 
L 202.914855 147.284749 
L 203.131436 160.361507 
L 203.348016 158.182049 
L 203.781178 147.284749 
L 204.214339 156.002592 
L 204.43092 145.105292 
L 204.647501 158.182049 
L 204.864082 151.643677 
L 205.080662 149.46422 
L 205.297243 166.899892 
L 205.513824 136.387462 
L 205.730405 127.669619 
L 205.946985 175.617722 
L 206.163566 140.746377 
L 206.380147 136.387462 
L 206.596728 156.002592 
L 207.029889 171.258807 
L 207.24647 147.284749 
L 207.463051 162.540977 
L 207.679631 162.540977 
L 207.896212 138.566919 
L 208.112793 138.566919 
L 208.329374 127.669619 
L 208.545954 140.746377 
L 208.762535 140.746377 
L 208.979116 156.002592 
L 209.195697 138.566919 
L 209.412277 138.566919 
L 209.628858 175.617722 
L 209.845439 136.387462 
L 210.06202 169.07935 
L 210.2786 156.002592 
L 210.495181 156.002592 
L 210.711762 160.361507 
L 210.928343 129.849076 
L 211.361504 182.156108 
L 211.578085 147.284749 
L 211.794666 164.720435 
L 212.011246 125.490161 
L 212.227827 151.643677 
L 212.444408 158.182049 
L 212.660989 151.643677 
L 212.877569 123.310704 
L 213.09415 136.387462 
L 213.310731 125.490161 
L 213.527312 142.925834 
L 213.743892 149.46422 
L 213.960473 116.772319 
L 214.177054 132.028534 
L 214.393635 127.669619 
L 214.610215 129.849076 
L 214.826796 156.002592 
L 215.043377 153.823135 
L 215.259958 158.182049 
L 215.476538 127.669619 
L 215.693119 158.182049 
L 216.126281 108.054489 
L 216.342861 149.46422 
L 216.559442 151.643677 
L 216.776023 129.849076 
L 216.992604 142.925834 
L 217.209184 123.310704 
L 217.425765 134.207991 
L 217.642346 121.131247 
L 217.858927 166.899892 
L 218.292088 129.849076 
L 218.508669 147.284749 
L 218.72525 123.310704 
L 218.94183 142.925834 
L 219.374992 158.182049 
L 219.591573 127.669619 
L 219.808153 153.823135 
L 220.024734 142.925834 
L 220.241315 160.361507 
L 220.457896 149.46422 
L 221.107638 160.361507 
L 221.324219 151.643677 
L 221.540799 149.46422 
L 221.75738 149.46422 
L 221.973961 132.028534 
L 222.190542 177.797193 
L 222.407122 147.284749 
L 222.623703 138.566919 
L 223.056865 160.361507 
L 223.490026 112.413404 
L 223.706607 114.592861 
L 223.923188 112.413404 
L 224.356349 171.258807 
L 224.57293 138.566919 
L 224.789511 134.207991 
L 225.006091 138.566919 
L 225.439253 125.490161 
L 225.655834 138.566919 
L 225.872414 110.233946 
L 226.088995 188.69448 
L 226.305576 145.105292 
L 226.522157 149.46422 
L 226.738737 145.105292 
L 226.955318 175.617722 
L 227.171899 112.413404 
L 227.60506 145.105292 
L 227.821641 149.46422 
L 228.038222 134.207991 
L 228.254803 134.207991 
L 228.471383 162.540977 
L 228.687964 158.182049 
L 228.904545 129.849076 
L 229.121126 153.823135 
L 229.337706 147.284749 
L 229.554287 129.849076 
L 229.770868 142.925834 
L 229.987449 140.746377 
L 230.204029 118.951776 
L 230.42061 127.669619 
L 230.637191 129.849076 
L 230.853772 153.823135 
L 231.070352 134.207991 
L 231.286933 149.46422 
L 231.503514 147.284749 
L 231.720095 129.849076 
L 231.936675 129.849076 
L 232.369837 149.46422 
L 232.802998 149.46422 
L 233.019579 125.490161 
L 233.23616 142.925834 
L 233.452741 132.028534 
L 233.669321 129.849076 
L 233.885902 105.875031 
L 234.102483 127.669619 
L 234.319064 129.849076 
L 234.535644 156.002592 
L 234.968806 108.054489 
L 235.185387 158.182049 
L 235.618548 142.925834 
L 235.835129 166.899892 
L 236.05171 145.105292 
L 236.26829 147.284749 
L 236.484871 132.028534 
L 236.701452 147.284749 
L 236.918033 116.772319 
L 237.134613 118.951776 
L 237.567775 134.207991 
L 237.784356 127.669619 
L 238.000936 132.028534 
L 238.217517 105.875031 
L 238.434098 136.387462 
L 238.650679 118.951776 
L 238.867259 123.310704 
L 239.08384 118.951776 
L 239.300421 156.002592 
L 239.517002 116.772319 
L 239.733582 136.387462 
L 239.950163 110.233946 
L 240.166744 125.490161 
L 240.383325 108.054489 
L 240.599905 103.695574 
L 240.816486 90.618803 
L 241.033067 123.310704 
L 241.249648 97.157175 
L 241.466228 145.105292 
L 241.682809 132.028534 
L 241.89939 127.669619 
L 242.115971 116.772319 
L 242.332551 127.669619 
L 242.549132 123.310704 
L 242.765713 129.849076 
L 243.198874 110.233946 
L 243.415455 134.207991 
L 243.632036 103.695574 
L 243.848617 101.516116 
L 244.065197 145.105292 
L 244.498359 88.439345 
L 244.71494 110.233946 
L 244.93152 145.105292 
L 245.148101 147.284749 
L 245.364682 112.413404 
L 245.581263 121.131247 
L 245.797843 116.772319 
L 246.014424 147.284749 
L 246.231005 110.233946 
L 246.447586 118.951776 
L 246.664166 114.592861 
L 246.880747 129.849076 
L 247.097328 153.823135 
L 247.74707 103.695574 
L 247.963651 116.772319 
L 248.180232 140.746377 
L 248.396812 92.79826 
L 248.613393 132.028534 
L 248.829974 127.669619 
L 249.046555 114.592861 
L 249.263135 138.566919 
L 249.479716 125.490161 
L 249.696297 149.46422 
L 249.912878 145.105292 
L 250.129458 129.849076 
L 250.346039 142.925834 
L 250.779201 125.490161 
L 250.995781 125.490161 
L 251.212362 140.746377 
L 251.428943 142.925834 
L 251.645524 132.028534 
L 251.862104 132.028534 
L 252.078685 103.695574 
L 252.295266 149.46422 
L 252.511847 118.951776 
L 252.728427 127.669619 
L 252.945008 129.849076 
L 253.161589 108.054489 
L 253.37817 138.566919 
L 253.59475 116.772319 
L 253.811331 140.746377 
L 254.027912 103.695574 
L 254.461073 149.46422 
L 254.677654 123.310704 
L 255.110816 142.925834 
L 255.327396 108.054489 
L 255.543977 169.07935 
L 255.760558 136.387462 
L 255.977139 123.310704 
L 256.193719 129.849076 
L 256.4103 121.131247 
L 256.626881 145.105292 
L 256.843462 108.054489 
L 257.060042 127.669619 
L 257.276623 118.951776 
L 257.493204 151.643677 
L 257.926365 121.131247 
L 258.142946 127.669619 
L 258.359527 142.925834 
L 258.576108 121.131247 
L 259.009269 108.054489 
L 259.22585 132.028534 
L 259.442431 132.028534 
L 259.659011 136.387462 
L 259.875592 132.028534 
L 260.308754 145.105292 
L 260.525334 123.310704 
L 260.741915 147.284749 
L 261.175077 103.695574 
L 261.391657 127.669619 
L 261.608238 132.028534 
L 261.824819 105.875031 
L 262.0414 123.310704 
L 262.25798 125.490161 
L 262.474561 151.643677 
L 262.691142 99.336633 
L 262.907723 112.413404 
L 263.124303 140.746377 
L 263.340884 121.131247 
L 263.557465 142.925834 
L 263.774046 138.566919 
L 263.990626 103.695574 
L 264.207207 108.054489 
L 264.423788 129.849076 
L 264.640369 166.899892 
L 264.856949 142.925834 
L 265.07353 149.46422 
L 265.290111 147.284749 
L 265.506692 114.592861 
L 265.723272 149.46422 
L 265.939853 145.105292 
L 266.156434 169.07935 
L 266.373015 112.413404 
L 266.589595 86.259888 
L 266.806176 132.028534 
L 267.022757 142.925834 
L 267.455918 123.310704 
L 267.672499 134.207991 
L 267.88908 123.310704 
L 268.105661 151.643677 
L 268.322241 134.207991 
L 268.538822 129.849076 
L 268.755403 101.516116 
L 268.971984 140.746377 
L 269.188564 136.387462 
L 269.405145 94.977718 
L 269.621726 147.284749 
L 269.838307 132.028534 
L 270.054888 156.002592 
L 270.488049 112.413404 
L 270.921211 140.746377 
L 271.137791 103.695574 
L 271.570953 156.002592 
L 271.787534 127.669619 
L 272.004114 125.490161 
L 272.220695 127.669619 
L 272.437276 145.105292 
L 272.870437 129.849076 
L 273.087018 121.131247 
L 273.303599 121.131247 
L 273.52018 147.284749 
L 273.73676 53.568 
L 273.953341 134.207991 
L 274.169922 140.746377 
L 274.386503 138.566919 
L 274.603083 105.875031 
L 274.819664 127.669619 
L 275.036245 121.131247 
L 275.252826 127.669619 
L 275.469406 156.002592 
L 275.685987 129.849076 
L 275.902568 142.925834 
L 276.119149 114.592861 
L 276.335729 121.131247 
L 276.55231 123.310704 
L 276.768891 121.131247 
L 276.985472 125.490161 
L 277.202052 114.592861 
L 277.418633 138.566919 
L 277.635214 116.772319 
L 277.851795 127.669619 
L 278.068375 127.669619 
L 278.284956 129.849076 
L 278.718118 136.387462 
L 278.934698 138.566919 
L 279.151279 112.413404 
L 279.584441 153.823135 
L 279.801021 121.131247 
L 280.017602 110.233946 
L 280.234183 136.387462 
L 280.450764 125.490161 
L 280.667344 138.566919 
L 280.883925 140.746377 
L 281.100506 118.951776 
L 281.533667 145.105292 
L 281.750248 134.207991 
L 281.966829 140.746377 
L 282.18341 116.772319 
L 282.39999 121.131247 
L 282.616571 132.028534 
L 282.833152 114.592861 
L 283.049733 125.490161 
L 283.266313 112.413404 
L 283.482894 149.46422 
L 283.699475 112.413404 
L 283.916056 127.669619 
L 284.132636 151.643677 
L 284.565798 116.772319 
L 284.782379 160.361507 
L 284.998959 136.387462 
L 285.21554 160.361507 
L 285.432121 116.772319 
L 285.648702 149.46422 
L 285.865282 118.951776 
L 286.081863 140.746377 
L 286.298444 136.387462 
L 286.515025 125.490161 
L 286.731605 132.028534 
L 286.948186 129.849076 
L 287.164767 138.566919 
L 287.381348 132.028534 
L 287.597928 160.361507 
L 287.814509 125.490161 
L 288.247671 140.746377 
L 288.464251 138.566919 
L 288.680832 140.746377 
L 288.897413 132.028534 
L 289.113994 132.028534 
L 289.330574 127.669619 
L 289.547155 110.233946 
L 289.980317 147.284749 
L 290.196897 153.823135 
L 290.413478 112.413404 
L 290.630059 125.490161 
L 290.84664 125.490161 
L 291.06322 145.105292 
L 291.496382 110.233946 
L 291.712963 110.233946 
L 291.929543 103.695574 
L 292.146124 114.592861 
L 292.362705 114.592861 
L 292.579286 81.900973 
L 293.012447 118.951776 
L 293.229028 105.875031 
L 293.445609 136.387462 
L 293.662189 125.490161 
L 293.87877 147.284749 
L 294.095351 116.772319 
L 294.311932 140.746377 
L 294.528512 116.772319 
L 294.745093 145.105292 
L 294.961674 145.105292 
L 295.178255 121.131247 
L 295.611416 127.669619 
L 295.827997 114.592861 
L 296.261158 114.592861 
L 296.477739 129.849076 
L 296.69432 103.695574 
L 296.910901 92.79826 
L 297.344062 127.669619 
L 297.560643 132.028534 
L 297.777224 129.849076 
L 297.993804 112.413404 
L 298.210385 134.207991 
L 298.643547 94.977718 
L 298.860127 123.310704 
L 299.076708 97.157175 
L 299.293289 105.875031 
L 299.50987 140.746377 
L 299.943031 134.207991 
L 300.159612 105.875031 
L 300.376193 101.516116 
L 300.592773 134.207991 
L 300.809354 125.490161 
L 301.242516 142.925834 
L 301.459096 145.105292 
L 301.675677 129.849076 
L 301.892258 94.977718 
L 302.108839 116.772319 
L 302.325419 125.490161 
L 302.542 140.746377 
L 302.758581 132.028534 
L 303.191742 142.925834 
L 303.408323 129.849076 
L 303.624904 88.439345 
L 303.841485 138.566919 
L 304.058065 129.849076 
L 304.274646 132.028534 
L 304.491227 103.695574 
L 304.707808 121.131247 
L 304.924388 112.413404 
L 305.35755 149.46422 
L 305.790711 110.233946 
L 306.007292 127.669619 
L 306.223873 125.490161 
L 306.440454 116.772319 
L 306.657034 114.592861 
L 306.873615 140.746377 
L 307.090196 99.336633 
L 307.306777 138.566919 
L 307.523357 103.695574 
L 307.739938 105.875031 
L 307.956519 105.875031 
L 308.1731 92.79826 
L 308.38968 125.490161 
L 308.606261 134.207991 
L 308.822842 108.054489 
L 309.256003 123.310704 
L 309.472584 145.105292 
L 309.689165 145.105292 
L 309.905746 156.002592 
L 310.122326 136.387462 
L 310.338907 136.387462 
L 310.555488 149.46422 
L 310.772069 112.413404 
L 311.20523 138.566919 
L 311.421811 142.925834 
L 311.638392 151.643677 
L 312.071553 110.233946 
L 312.288134 112.413404 
L 312.721295 125.490161 
L 312.937876 182.156108 
L 313.154457 132.028534 
L 313.587618 127.669619 
L 313.804199 129.849076 
L 314.02078 118.951776 
L 314.237361 125.490161 
L 314.453941 127.669619 
L 314.887103 156.002592 
L 315.320264 129.849076 
L 315.536845 123.310704 
L 315.753426 140.746377 
L 315.970007 134.207991 
L 316.186587 118.951776 
L 316.403168 125.490161 
L 316.619749 156.002592 
L 316.83633 121.131247 
L 317.05291 134.207991 
L 317.269491 97.157175 
L 317.486072 138.566919 
L 317.919233 116.772319 
L 318.568976 138.566919 
L 318.785556 145.105292 
L 319.002137 121.131247 
L 319.435299 140.746377 
L 319.651879 123.310704 
L 319.86846 132.028534 
L 320.085041 110.233946 
L 320.518202 151.643677 
L 320.734783 156.002592 
L 321.167945 123.310704 
L 321.384525 110.233946 
L 321.601106 162.540977 
L 321.817687 99.336633 
L 322.034268 123.310704 
L 322.250848 125.490161 
L 322.467429 134.207991 
L 322.68401 129.849076 
L 322.900591 158.182049 
L 323.117171 105.875031 
L 323.333752 116.772319 
L 323.550333 116.772319 
L 323.766914 151.643677 
L 323.983494 114.592861 
L 324.200075 116.772319 
L 324.416656 127.669619 
L 324.633237 121.131247 
L 324.849817 129.849076 
L 325.066398 129.849076 
L 325.49956 156.002592 
L 325.932721 88.439345 
L 326.149302 97.157175 
L 326.365883 114.592861 
L 326.799044 125.490161 
L 327.015625 136.387462 
L 327.232206 129.849076 
L 327.448786 138.566919 
L 327.665367 118.951776 
L 327.881948 116.772319 
L 328.098529 136.387462 
L 328.315109 136.387462 
L 328.53169 114.592861 
L 328.748271 110.233946 
L 328.964852 94.977718 
L 329.614594 145.105292 
L 329.831175 147.284749 
L 330.047755 142.925834 
L 330.264336 105.875031 
L 330.480917 156.002592 
L 330.697498 132.028534 
L 330.914078 127.669619 
L 331.130659 105.875031 
L 331.34724 158.182049 
L 331.563821 127.669619 
L 331.996982 103.695574 
L 332.213563 134.207991 
L 332.430144 147.284749 
L 332.646724 134.207991 
L 332.863305 164.720435 
L 333.079886 127.669619 
L 333.296467 136.387462 
L 333.513047 134.207991 
L 333.729628 142.925834 
L 333.946209 105.875031 
L 334.37937 129.849076 
L 334.595951 123.310704 
L 334.812532 110.233946 
L 335.029113 153.823135 
L 335.245693 116.772319 
L 335.462274 112.413404 
L 335.678855 136.387462 
L 335.895436 127.669619 
L 336.112016 142.925834 
L 336.328597 125.490161 
L 336.545178 132.028534 
L 336.761759 110.233946 
L 336.978339 136.387462 
L 337.19492 140.746377 
L 337.628082 101.516116 
L 337.844663 142.925834 
L 338.061243 149.46422 
L 338.277824 138.566919 
L 338.494405 112.413404 
L 338.710986 138.566919 
L 338.927566 114.592861 
L 339.144147 132.028534 
L 339.360728 136.387462 
L 339.577309 123.310704 
L 339.793889 123.310704 
L 340.01047 110.233946 
L 340.227051 116.772319 
L 340.443632 116.772319 
L 340.660212 112.413404 
L 340.876793 129.849076 
L 341.093374 103.695574 
L 341.309955 147.284749 
L 341.526535 108.054489 
L 341.743116 138.566919 
L 341.959697 145.105292 
L 342.392858 108.054489 
L 342.82602 121.131247 
L 343.042601 142.925834 
L 343.259181 112.413404 
L 343.475762 112.413404 
L 343.692343 105.875031 
L 344.125504 169.07935 
L 344.342085 129.849076 
L 344.558666 129.849076 
L 344.775247 114.592861 
L 344.991827 121.131247 
L 345.424989 105.875031 
L 345.64157 129.849076 
L 345.85815 134.207991 
L 346.074731 169.07935 
L 346.291312 123.310704 
L 346.507893 118.951776 
L 346.724473 108.054489 
L 346.941054 108.054489 
L 347.157635 105.875031 
L 347.374216 151.643677 
L 347.590796 129.849076 
L 347.807377 129.849076 
L 348.023958 118.951776 
L 348.240539 125.490161 
L 348.457119 123.310704 
L 348.6737 129.849076 
L 348.890281 101.516116 
L 349.106862 140.746377 
L 349.323442 110.233946 
L 349.756604 116.772319 
L 349.973185 105.875031 
L 350.189765 134.207991 
L 350.406346 123.310704 
L 350.622927 103.695574 
L 350.839508 116.772319 
L 351.056088 94.977718 
L 351.272669 140.746377 
L 351.48925 112.413404 
L 351.705831 134.207991 
L 351.922411 112.413404 
L 352.138992 142.925834 
L 352.355573 134.207991 
L 352.788734 103.695574 
L 353.005315 92.79826 
L 353.221896 118.951776 
L 353.438477 97.157175 
L 353.655057 145.105292 
L 353.871638 138.566919 
L 354.3048 105.875031 
L 354.52138 121.131247 
L 354.737961 127.669619 
L 354.954542 114.592861 
L 355.171123 112.413404 
L 355.387703 99.336633 
L 355.604284 129.849076 
L 355.820865 123.310704 
L 356.037446 147.284749 
L 356.470607 110.233946 
L 356.903769 123.310704 
L 357.120349 151.643677 
L 357.33693 123.310704 
L 357.553511 138.566919 
L 357.770092 136.387462 
L 357.986672 149.46422 
L 358.419834 132.028534 
L 358.636415 153.823135 
L 358.852995 140.746377 
L 359.069576 112.413404 
L 359.286157 132.028534 
L 359.502738 132.028534 
L 359.719318 136.387462 
L 359.935899 112.413404 
L 360.15248 138.566919 
L 360.369061 103.695574 
L 360.585641 112.413404 
L 360.802222 108.054489 
L 361.018803 134.207991 
L 361.235384 114.592861 
L 361.451964 134.207991 
L 361.668545 127.669619 
L 361.885126 145.105292 
L 362.101707 127.669619 
L 362.318287 127.669619 
L 362.534868 134.207991 
L 362.751449 127.669619 
L 362.96803 136.387462 
L 363.18461 112.413404 
L 363.401191 118.951776 
L 363.617772 132.028534 
L 363.834353 108.054489 
L 364.050933 121.131247 
L 364.267514 103.695574 
L 364.484095 73.183143 
L 364.700676 118.951776 
L 364.917256 127.669619 
L 365.133837 129.849076 
L 365.350418 129.849076 
L 365.566999 142.925834 
L 365.783579 145.105292 
L 366.00016 97.157175 
L 366.216741 97.157175 
L 366.433322 118.951776 
L 366.649902 153.823135 
L 366.866483 127.669619 
L 367.083064 116.772319 
L 367.516225 121.131247 
L 367.732806 132.028534 
L 367.949387 121.131247 
L 368.165968 169.07935 
L 368.382548 145.105292 
L 368.599129 138.566919 
L 368.81571 160.361507 
L 369.032291 136.387462 
L 369.465452 118.951776 
L 369.682033 129.849076 
L 369.898614 105.875031 
L 370.115194 108.054489 
L 370.331775 138.566919 
L 370.548356 134.207991 
L 370.764937 136.387462 
L 370.981517 112.413404 
L 371.414679 103.695574 
L 371.63126 142.925834 
L 371.84784 160.361507 
L 372.064421 108.054489 
L 372.281002 86.259888 
L 372.714163 136.387462 
L 372.930744 118.951776 
L 373.147325 147.284749 
L 373.363906 118.951776 
L 373.580486 125.490161 
L 374.013648 97.157175 
L 374.230229 153.823135 
L 374.446809 123.310704 
L 374.66339 125.490161 
L 374.879971 112.413404 
L 375.096552 149.46422 
L 375.313132 121.131247 
L 375.529713 132.028534 
L 375.746294 151.643677 
L 375.962875 147.284749 
L 376.179455 136.387462 
L 376.396036 118.951776 
L 376.612617 162.540977 
L 376.829198 125.490161 
L 377.045778 108.054489 
L 377.262359 103.695574 
L 377.47894 142.925834 
L 377.912101 90.618803 
L 378.128682 142.925834 
L 378.345263 110.233946 
L 378.561844 123.310704 
L 378.778424 121.131247 
L 378.995005 103.695574 
L 379.211586 108.054489 
L 379.428167 88.439345 
L 379.861328 151.643677 
L 380.077909 118.951776 
L 380.29449 134.207991 
L 380.51107 105.875031 
L 380.727651 112.413404 
L 381.160813 136.387462 
L 381.593974 114.592861 
L 381.810555 171.258807 
L 382.027136 121.131247 
L 382.243716 105.875031 
L 382.460297 138.566919 
L 382.676878 112.413404 
L 382.893459 138.566919 
L 383.32662 132.028534 
L 383.543201 145.105292 
L 383.759782 142.925834 
L 383.976362 136.387462 
L 384.192943 140.746377 
L 384.409524 127.669619 
L 384.626105 125.490161 
L 384.842685 162.540977 
L 385.059266 132.028534 
L 385.275847 134.207991 
L 385.492428 116.772319 
L 385.709008 147.284749 
L 385.925589 136.387462 
L 386.14217 118.951776 
L 386.358751 114.592861 
L 386.575331 118.951776 
L 386.791912 136.387462 
L 387.008493 136.387462 
L 387.225074 108.054489 
L 387.441654 147.284749 
L 387.658235 114.592861 
L 387.874816 147.284749 
L 388.091397 118.951776 
L 388.307977 108.054489 
L 388.524558 116.772319 
L 388.741139 147.284749 
L 388.95772 136.387462 
L 389.1743 103.695574 
L 389.390881 125.490161 
L 389.607462 97.157175 
L 389.824043 123.310704 
L 390.040623 123.310704 
L 390.257204 121.131247 
L 390.473785 145.105292 
L 390.690366 134.207991 
L 390.906946 134.207991 
L 391.123527 145.105292 
L 391.340108 132.028534 
L 391.556689 110.233946 
L 391.98985 134.207991 
L 392.206431 125.490161 
L 392.423012 151.643677 
L 392.639592 123.310704 
L 392.856173 142.925834 
L 393.072754 138.566919 
L 393.289335 129.849076 
L 393.505915 147.284749 
L 393.722496 127.669619 
L 393.939077 127.669619 
L 394.155658 103.695574 
L 394.372238 123.310704 
L 394.588819 129.849076 
L 394.8054 121.131247 
L 395.021981 153.823135 
L 395.238561 108.054489 
L 395.455142 156.002592 
L 395.671723 116.772319 
L 395.888304 162.540977 
L 396.321465 123.310704 
L 396.538046 125.490161 
L 396.754627 118.951776 
L 396.971207 134.207991 
L 397.187788 125.490161 
L 397.404369 108.054489 
L 397.62095 151.643677 
L 397.83753 112.413404 
L 398.054111 118.951776 
L 398.270692 134.207991 
L 398.487273 158.182049 
L 398.487273 158.182049 
" style="fill:none;stroke:#1f77b4;stroke-linecap:square;stroke-width:1.5;"/>
   </g>
   <g id="line2d_16">
    <path clip-path="url(#pb6703dc4c8)" d="M 73.832727 295.139287 
L 74.265889 241.786117 
L 74.48247 245.316843 
L 74.69905 235.073385 
L 74.915631 235.945164 
L 75.348793 233.983656 
L 75.565373 229.973448 
L 75.781954 228.491416 
L 75.998535 225.13505 
L 76.215116 227.270924 
L 76.431696 232.240085 
L 76.648277 225.832476 
L 76.864858 216.068501 
L 77.298019 219.076147 
L 77.5146 223.391479 
L 77.731181 224.306848 
L 78.164342 218.683844 
L 78.380923 217.07105 
L 78.597504 213.758267 
L 78.814085 212.624955 
L 79.247246 217.986419 
L 79.463827 219.512047 
L 79.680408 227.445271 
L 79.896988 222.824816 
L 80.113569 222.737636 
L 80.33015 213.758267 
L 80.546731 212.276235 
L 80.763311 205.868626 
L 80.979892 214.32493 
L 81.196473 211.796753 
L 81.629634 205.781446 
L 81.846215 203.994292 
L 82.279377 202.860967 
L 82.495957 210.314721 
L 82.712538 201.771238 
L 82.929119 199.504601 
L 83.1457 205.214784 
L 83.36228 207.786544 
L 83.578861 204.909661 
L 83.795442 199.330254 
L 84.012023 200.986632 
L 84.661765 215.109535 
L 85.094926 205.214784 
L 85.311507 201.509711 
L 85.528088 204.604538 
L 85.744669 205.25838 
L 86.17783 211.186507 
L 86.394411 211.186507 
L 86.610992 206.958355 
L 87.044153 222.432513 
L 87.477315 207.699377 
L 87.693895 211.099327 
L 87.910476 204.691718 
L 88.127057 203.732752 
L 88.560218 213.235201 
L 88.776799 206.173749 
L 88.99338 206.696815 
L 89.426541 203.950695 
L 89.643122 203.645572 
L 89.859703 207.132715 
L 90.076284 207.786544 
L 90.509445 214.891592 
L 90.726026 212.581358 
L 91.375768 198.632815 
L 91.80893 206.304513 
L 92.02551 203.863528 
L 92.242091 208.222443 
L 92.458672 207.960904 
L 92.675253 209.094229 
L 92.891833 215.894141 
L 93.108414 210.576261 
L 93.324995 209.181409 
L 93.541576 203.209686 
L 93.758156 203.732752 
L 93.974737 203.819932 
L 94.191318 198.763591 
L 94.624479 195.668752 
L 94.84106 196.235414 
L 95.057641 197.543086 
L 95.274222 197.02002 
L 95.490802 198.327692 
L 95.707383 196.889257 
L 95.923964 200.594329 
L 96.357125 194.753383 
L 96.573706 196.322594 
L 96.790287 201.858418 
L 97.006868 211.31727 
L 97.223448 211.665989 
L 97.65661 196.235414 
L 97.873191 195.276449 
L 98.089771 203.296866 
L 98.306352 205.127604 
L 98.522933 209.224992 
L 98.739514 209.791655 
L 99.172675 205.99939 
L 99.605837 197.150783 
L 99.822417 196.84566 
L 100.038998 193.445711 
L 100.905321 208.09168 
L 101.121902 205.25838 
L 101.338483 204.822481 
L 101.555063 208.048084 
L 101.988225 196.061055 
L 102.204806 194.18672 
L 102.637967 200.245623 
L 102.854548 211.23009 
L 103.071129 211.186507 
L 103.287709 198.196929 
L 103.50429 195.494405 
L 103.937452 210.401901 
L 104.154032 211.31727 
L 104.370613 211.535226 
L 104.587194 212.406999 
L 105.236936 194.44826 
L 105.453517 197.761042 
L 105.886678 195.973875 
L 106.103259 192.181622 
L 106.31984 192.355982 
L 106.536421 200.637926 
L 106.969582 208.832689 
L 107.402744 190.917534 
L 107.619324 190.568815 
L 108.052486 195.276449 
L 108.485647 189.086783 
L 108.918809 197.237963 
L 109.13539 195.407225 
L 109.35197 192.399566 
L 109.568551 192.530329 
L 109.785132 193.750834 
L 110.001713 190.438051 
L 110.218293 189.566266 
L 110.651455 204.037875 
L 111.084616 190.220108 
L 111.517778 199.67896 
L 111.734359 203.863528 
L 112.16752 193.227755 
L 112.384101 185.338114 
L 112.817262 200.550746 
L 113.250424 194.143137 
L 113.467005 193.968777 
L 113.683585 191.222657 
L 113.900166 191.876499 
L 114.116747 199.59178 
L 114.333328 200.245623 
L 114.549908 203.776349 
L 114.766489 202.904563 
L 114.98307 198.284109 
L 115.199651 196.148234 
L 115.416231 195.232865 
L 115.632812 192.050859 
L 115.849393 193.271351 
L 116.065974 193.053408 
L 116.282554 189.653445 
L 116.499135 189.566266 
L 116.715716 190.045748 
L 116.932297 192.791868 
L 117.365458 194.2739 
L 117.79862 198.196929 
L 118.0152 196.889257 
L 118.231781 191.876499 
L 118.448362 192.268802 
L 118.881523 200.507149 
L 119.098104 199.199478 
L 119.314685 189.827805 
L 119.747846 185.294531 
L 119.964427 183.420196 
L 120.397589 193.532891 
L 120.614169 190.743174 
L 120.83075 191.35342 
L 121.047331 190.438051 
L 121.263912 192.094443 
L 121.480492 197.804626 
L 121.913654 192.661105 
L 122.130235 204.212235 
L 122.346815 197.02002 
L 122.563396 198.937951 
L 122.779977 197.630266 
L 122.996558 194.709799 
L 123.213138 193.402114 
L 123.429719 190.568815 
L 123.6463 190.132928 
L 123.862881 193.489294 
L 124.296042 192.225206 
L 124.512623 195.843111 
L 124.729204 195.930291 
L 124.945784 193.096991 
L 125.162365 195.407225 
L 125.378946 193.053408 
L 125.595527 192.355982 
L 125.812107 186.602202 
L 126.028688 184.858631 
L 126.245269 189.173963 
L 126.46185 197.02002 
L 126.67843 190.873951 
L 126.895011 191.004714 
L 127.328173 193.271351 
L 127.544753 182.766354 
L 127.761334 179.671527 
L 127.977915 181.981748 
L 128.411076 192.268802 
L 128.627657 185.55607 
L 128.844238 185.207351 
L 129.060819 187.038102 
L 129.49398 192.486745 
L 129.710561 190.961117 
L 129.927142 182.679174 
L 130.143722 181.371502 
L 130.360303 181.109962 
L 130.576884 184.945811 
L 130.793465 198.153345 
L 131.226626 192.443162 
L 131.443207 191.52778 
L 131.659788 187.168865 
L 131.876368 189.697042 
L 132.092949 197.891806 
L 132.742691 179.715111 
L 132.959272 180.412536 
L 133.392434 188.520133 
L 133.609014 191.52778 
L 133.825595 188.258594 
L 134.042176 178.058719 
L 134.258757 183.638139 
L 134.691918 198.502052 
L 134.908499 188.432953 
L 135.12508 187.343225 
L 135.341661 184.989408 
L 135.558241 179.845874 
L 135.991403 187.343225 
L 136.207984 187.648348 
L 136.424564 185.817597 
L 136.641145 185.599654 
L 136.857726 184.989408 
L 137.074307 181.763805 
L 137.724049 188.476537 
L 137.94063 187.997054 
L 138.15721 187.081685 
L 138.373791 189.784209 
L 138.590372 188.86884 
L 138.806953 182.286871 
L 139.456695 190.525231 
L 139.673276 189.479086 
L 139.889856 186.079136 
L 140.106437 185.338114 
L 140.323018 181.022782 
L 140.539599 181.327918 
L 140.756179 180.325357 
L 141.189341 171.433167 
L 141.622502 190.220108 
L 141.839083 190.307288 
L 142.272245 184.597105 
L 142.488825 182.80995 
L 142.705406 179.366404 
L 143.138568 195.102102 
L 143.571729 188.69448 
L 144.221471 198.589232 
L 144.438052 192.617509 
L 144.654633 193.489294 
L 144.871214 190.045748 
L 145.304375 176.794631 
L 145.737537 184.815048 
L 145.954117 184.597105 
L 146.170698 183.071477 
L 146.387279 183.856082 
L 146.60386 183.333016 
L 146.82044 178.494619 
L 147.037021 184.161205 
L 147.253602 185.338114 
L 147.470183 187.909874 
L 147.686763 195.843111 
L 147.903344 183.594556 
L 148.119925 180.761256 
L 148.336506 183.899679 
L 148.553086 181.109962 
L 148.986248 185.774013 
L 149.202829 177.753596 
L 149.419409 176.358745 
L 149.63599 179.497167 
L 149.852571 180.194593 
L 150.069152 174.135691 
L 150.285732 176.140801 
L 150.502313 180.674076 
L 150.718894 176.838227 
L 150.935475 176.925407 
L 151.152055 169.776776 
L 151.585217 184.422745 
L 151.801798 176.140801 
L 152.234959 174.266467 
L 152.45154 177.23053 
L 152.668121 173.220322 
L 152.884701 171.56393 
L 153.101282 174.179287 
L 153.534444 181.981748 
L 154.184186 178.189496 
L 154.400767 173.874164 
L 154.617347 176.184385 
L 155.050509 188.12783 
L 155.26709 177.099767 
L 155.48367 175.138253 
L 155.700251 176.315161 
L 155.916832 171.73829 
L 156.133413 173.438265 
L 156.349993 185.032991 
L 156.566574 185.599654 
L 156.783155 189.784209 
L 156.999736 176.968991 
L 157.216316 175.922858 
L 157.432897 181.807388 
L 157.649478 181.720221 
L 157.866059 185.250934 
L 158.29922 180.543313 
L 158.515801 180.848436 
L 158.732382 183.158657 
L 158.948962 177.05617 
L 159.382124 172.653659 
L 159.815285 178.668965 
L 160.031866 177.622833 
L 160.248447 173.612624 
L 160.465028 183.420196 
L 160.681608 177.49207 
L 160.898189 176.620284 
L 161.11477 174.702353 
L 161.331351 182.156108 
L 161.547931 183.158657 
L 161.764512 182.548411 
L 161.981093 183.027893 
L 162.414254 173.220322 
L 162.630835 172.566479 
L 162.847416 172.348536 
L 163.063997 178.538202 
L 163.280577 178.276675 
L 163.497158 173.569041 
L 163.713739 172.915199 
L 163.93032 174.440827 
L 164.1469 168.251161 
L 164.363481 170.256258 
L 164.796643 171.433167 
L 165.013223 171.433167 
L 165.229804 167.815261 
L 165.446385 168.99217 
L 165.662966 164.284536 
L 166.096127 170.735741 
L 166.529289 176.576688 
L 166.745869 180.06383 
L 166.96245 180.107413 
L 167.179031 181.415085 
L 167.612192 169.210113 
L 167.828773 172.217773 
L 168.045354 178.189496 
L 168.261935 174.266467 
L 168.695096 172.566479 
L 168.911677 173.176738 
L 169.128258 172.348536 
L 169.344838 171.040864 
L 169.561419 176.925407 
L 169.778 188.302177 
L 169.994581 185.94836 
L 170.211161 190.873951 
L 170.427742 189.566266 
L 171.077484 171.91265 
L 171.294065 174.920296 
L 171.510646 172.740839 
L 171.943807 163.58711 
L 172.376969 170.953684 
L 172.59355 167.117836 
L 172.81013 167.946025 
L 173.026711 178.625382 
L 173.243292 175.181836 
L 173.459873 178.233079 
L 173.676453 175.486959 
L 173.893034 168.90499 
L 174.109615 177.622833 
L 174.326196 174.963893 
L 174.542776 170.343438 
L 174.759357 171.215224 
L 174.975938 170.648561 
L 175.192519 165.243501 
L 175.409099 169.776776 
L 175.62568 171.128044 
L 175.842261 169.384473 
L 176.058842 170.125495 
L 176.275422 174.266467 
L 176.492003 171.520347 
L 176.708584 166.551173 
L 177.141745 169.25371 
L 177.358326 161.364069 
L 177.574907 166.376826 
L 177.791488 176.925407 
L 178.008068 179.80229 
L 178.224649 171.956233 
L 178.657811 182.243287 
L 178.874391 179.017685 
L 179.090972 173.438265 
L 179.307553 176.620284 
L 179.524134 187.561168 
L 179.740714 188.95602 
L 180.173876 164.153772 
L 180.390457 160.75381 
L 180.607037 165.156321 
L 180.823618 165.505041 
L 181.040199 172.217773 
L 181.25678 173.351085 
L 181.47336 169.07935 
L 181.689941 168.81781 
L 181.906522 164.240952 
L 182.123103 162.497381 
L 182.339683 168.033205 
L 182.772845 165.59222 
L 182.989426 167.510138 
L 183.206006 173.525445 
L 183.422587 169.994719 
L 183.639168 168.381924 
L 183.855749 173.394681 
L 184.072329 165.243501 
L 184.28891 165.853747 
L 184.505491 171.084448 
L 184.722072 164.720435 
L 185.155233 174.833117 
L 185.371814 169.558833 
L 185.588395 160.18716 
L 185.804975 160.361507 
L 186.021556 162.148675 
L 186.454718 170.299842 
L 186.671298 170.997281 
L 186.887879 174.135691 
L 187.321041 169.863956 
L 187.537621 170.735741 
L 187.754202 169.384473 
L 187.970783 168.861407 
L 188.187364 167.815261 
L 188.403944 164.328132 
L 188.837106 167.466555 
L 189.053687 162.410201 
L 189.270267 168.90499 
L 189.486848 166.638353 
L 189.703429 165.722984 
L 190.13659 154.825683 
L 190.353171 154.651324 
L 190.569752 161.407652 
L 190.786333 160.797406 
L 191.002913 157.092321 
L 191.436075 162.671741 
L 191.869236 161.233293 
L 192.085817 173.525445 
L 192.302398 172.304953 
L 192.518979 156.351311 
L 192.735559 156.787198 
L 192.95214 156.961557 
L 193.168721 158.661532 
L 193.385302 162.802504 
L 193.601882 163.892233 
L 193.818463 156.002592 
L 194.251625 168.774227 
L 194.468205 161.102529 
L 194.684786 166.899892 
L 195.117948 164.720435 
L 195.76769 148.548838 
L 195.984271 154.041078 
L 196.200851 155.217986 
L 196.417432 158.09487 
L 196.634013 156.569255 
L 197.067174 160.92817 
L 197.283755 157.964106 
L 197.500336 159.446138 
L 197.716917 159.576901 
L 198.150078 151.469317 
L 198.58324 152.733406 
L 199.016401 165.984523 
L 199.232982 156.307715 
L 199.449563 153.212889 
L 199.666143 159.925621 
L 199.882724 160.971766 
L 200.099305 158.312826 
L 200.315886 158.312826 
L 200.532466 161.930718 
L 200.749047 160.971766 
L 200.965628 156.133355 
L 201.398789 169.340889 
L 201.61537 166.15887 
L 201.831951 159.969204 
L 202.048532 159.620498 
L 202.265112 157.615387 
L 202.481693 152.559046 
L 202.698274 154.52056 
L 202.914855 155.435929 
L 203.348016 152.166743 
L 203.781178 160.492283 
L 203.997759 163.67429 
L 204.214339 168.81781 
L 204.43092 169.733192 
L 204.864082 160.492283 
L 205.080662 162.453798 
L 205.297243 163.238403 
L 205.730405 154.171841 
L 205.946985 153.430832 
L 206.380147 160.18716 
L 206.596728 159.969204 
L 206.813308 166.987072 
L 207.24647 161.669192 
L 207.463051 166.202466 
L 207.896212 156.700018 
L 208.112793 158.356409 
L 208.329374 158.356409 
L 208.545954 157.005141 
L 208.762535 149.812926 
L 209.195697 166.289646 
L 209.412277 165.940927 
L 209.628858 159.358958 
L 210.06202 170.910101 
L 210.2786 169.428069 
L 210.495181 164.240952 
L 210.711762 150.466768 
L 210.928343 158.705129 
L 211.144923 171.607527 
L 211.578085 167.117836 
L 212.011246 157.44104 
L 212.227827 160.317924 
L 212.444408 159.271778 
L 212.660989 162.061495 
L 212.877569 160.012801 
L 213.09415 159.882037 
L 213.310731 159.228195 
L 213.960473 145.497595 
L 214.177054 145.584774 
L 214.393635 149.769343 
L 214.610215 151.294958 
L 214.826796 153.997494 
L 215.043377 154.128258 
L 215.259958 155.043627 
L 215.476538 154.651324 
L 215.693119 155.087223 
L 216.126281 149.856522 
L 216.342861 150.989835 
L 216.776023 157.484624 
L 217.425765 151.294958 
L 217.858927 144.930945 
L 218.075507 145.105292 
L 218.72525 149.594983 
L 218.94183 150.902655 
L 219.158411 154.651324 
L 219.374992 154.956447 
L 219.591573 152.689809 
L 220.024734 157.484624 
L 220.241315 151.77444 
L 220.457896 151.164194 
L 220.674476 153.648775 
L 221.107638 150.771891 
L 221.540799 160.143564 
L 221.973961 153.212889 
L 222.190542 160.448687 
L 222.407122 156.176952 
L 222.623703 147.415525 
L 223.056865 152.079563 
L 223.273445 146.54374 
L 223.490026 147.110402 
L 223.923188 152.689809 
L 224.356349 148.723197 
L 224.57293 151.905204 
L 225.222672 145.715538 
L 225.872414 158.966655 
L 226.305576 154.171841 
L 226.522157 155.653886 
L 226.955318 153.343652 
L 227.171899 148.984737 
L 227.38848 147.371929 
L 227.60506 148.200131 
L 227.821641 149.987286 
L 228.038222 148.897557 
L 228.471383 153.038529 
L 228.687964 153.430832 
L 228.904545 149.28986 
L 229.121126 148.330894 
L 229.337706 149.071917 
L 229.770868 152.733406 
L 229.987449 152.253923 
L 230.204029 151.120598 
L 230.42061 151.600081 
L 230.637191 152.602643 
L 230.853772 156.438491 
L 231.070352 155.784649 
L 231.503514 145.497595 
L 231.720095 145.497595 
L 232.153256 152.776989 
L 232.369837 150.641128 
L 232.586418 146.936043 
L 232.802998 147.459109 
L 233.23616 155.828232 
L 233.452741 153.430832 
L 233.669321 149.071917 
L 233.885902 149.420623 
L 234.102483 153.997494 
L 234.319064 162.976864 
L 234.535644 164.502479 
L 234.968806 152.907766 
L 235.185387 154.69492 
L 235.401967 155.174403 
L 235.618548 147.764232 
L 235.835129 146.63092 
L 236.484871 155.610289 
L 236.918033 148.025771 
L 237.134613 146.107841 
L 237.351194 150.292409 
L 237.784356 140.528434 
L 238.000936 139.438705 
L 238.217517 139.089985 
L 238.650679 143.100194 
L 238.867259 148.069355 
L 239.08384 148.853961 
L 239.300421 145.715538 
L 239.517002 145.236068 
L 239.950163 150.510352 
L 240.166744 151.512901 
L 240.383325 151.425734 
L 240.599905 152.079563 
L 240.816486 152.341103 
L 241.466228 145.671954 
L 241.89939 148.374491 
L 242.115971 148.723197 
L 242.332551 149.507803 
L 242.765713 144.930945 
L 242.982294 146.674503 
L 243.198874 146.587323 
L 243.415455 142.271992 
L 244.065197 150.510352 
L 244.281778 144.495046 
L 244.498359 142.446351 
L 244.93152 149.551386 
L 245.148101 149.856522 
L 245.364682 146.325797 
L 245.581263 146.674503 
L 245.797843 146.2822 
L 246.014424 148.330894 
L 246.231005 147.895008 
L 246.447586 150.815475 
L 246.664166 144.712989 
L 246.880747 144.712989 
L 247.097328 149.02832 
L 247.313909 146.674503 
L 247.530489 141.443803 
L 247.74707 140.572017 
L 247.963651 142.402768 
L 248.180232 142.315588 
L 248.396812 144.233506 
L 248.613393 144.756585 
L 248.829974 144.930945 
L 249.046555 146.674503 
L 249.263135 151.77444 
L 249.479716 154.215437 
L 249.912878 146.412977 
L 250.129458 146.63092 
L 250.56262 154.041078 
L 250.779201 153.823135 
L 250.995781 147.066806 
L 251.212362 146.63092 
L 251.428943 151.294958 
L 251.645524 151.9488 
L 251.862104 149.987286 
L 252.078685 151.338554 
L 252.295266 151.469317 
L 252.728427 146.064257 
L 252.945008 145.759134 
L 253.161589 143.143777 
L 253.37817 143.187374 
L 253.59475 144.582226 
L 253.811331 144.538642 
L 254.027912 146.761683 
L 254.461073 160.971766 
L 254.677654 154.128258 
L 254.894235 150.989835 
L 255.110816 150.771891 
L 255.543977 153.997494 
L 255.977139 148.330894 
L 256.193719 156.307715 
L 256.4103 155.523109 
L 256.843462 151.425734 
L 257.060042 149.682163 
L 257.276623 149.856522 
L 257.493204 153.823135 
L 257.709785 151.730857 
L 257.926365 145.105292 
L 258.142946 144.930945 
L 258.359527 146.805279 
L 258.576108 145.192472 
L 259.009269 147.677052 
L 259.22585 151.9488 
L 259.442431 152.12316 
L 259.659011 154.86928 
L 260.308754 146.7181 
L 260.525334 147.502705 
L 260.741915 153.256472 
L 260.958496 154.041078 
L 261.175077 154.084674 
L 261.391657 151.905204 
L 261.608238 144.582226 
L 261.824819 142.228408 
L 262.0414 142.969431 
L 262.25798 140.266894 
L 262.691142 144.102743 
L 262.907723 145.236068 
L 263.124303 142.489948 
L 263.340884 142.838654 
L 263.557465 144.146339 
L 263.774046 148.112951 
L 263.990626 149.507803 
L 264.207207 146.7181 
L 264.423788 147.153986 
L 264.640369 143.97198 
L 264.856949 143.62326 
L 265.07353 138.784862 
L 265.939853 146.674503 
L 266.156434 151.294958 
L 266.806176 139.831008 
L 267.022757 141.13868 
L 267.239338 138.479739 
L 267.455918 137.477191 
L 267.672499 138.13102 
L 268.105661 149.1155 
L 268.322241 148.243715 
L 268.538822 146.064257 
L 268.755403 145.061708 
L 268.971984 148.94114 
L 269.188564 150.292409 
L 269.405145 147.153986 
L 269.621726 149.37704 
L 269.838307 144.756585 
L 270.054888 147.546289 
L 270.271468 144.495046 
L 270.488049 146.412977 
L 270.70463 157.048737 
L 270.921211 161.189709 
L 271.354372 148.418074 
L 271.570953 149.46422 
L 271.787534 147.502705 
L 272.004114 148.766794 
L 272.220695 146.54374 
L 272.653857 151.164194 
L 272.870437 147.110402 
L 273.087018 147.371929 
L 273.303599 152.602643 
L 273.52018 152.776989 
L 273.73676 145.628371 
L 273.953341 146.761683 
L 274.169922 152.951349 
L 274.386503 153.256472 
L 274.819664 141.356623 
L 275.036245 144.233506 
L 275.252826 145.279651 
L 275.902568 139.525885 
L 276.119149 138.479739 
L 276.768891 146.761683 
L 276.985472 145.105292 
L 277.202052 141.618162 
L 277.418633 141.836105 
L 278.068375 147.851412 
L 278.284956 147.764232 
L 278.501537 152.384686 
L 278.718118 150.815475 
L 279.151279 138.261796 
L 279.36786 143.62326 
L 279.584441 145.061708 
L 279.801021 144.320686 
L 280.017602 143.056598 
L 280.234183 143.79762 
L 280.450764 143.53608 
L 280.883925 139.395108 
L 281.100506 140.136131 
L 281.533667 142.925834 
L 281.750248 145.454011 
L 281.966829 143.143777 
L 282.18341 145.541191 
L 282.39999 149.333443 
L 282.833152 143.187374 
L 283.049733 147.982188 
L 283.266313 149.420623 
L 283.482894 142.664295 
L 283.699475 140.354074 
L 283.916056 141.879702 
L 284.132636 148.243715 
L 284.349217 144.538642 
L 284.565798 143.405317 
L 284.782379 147.677052 
L 285.21554 149.507803 
L 285.432121 141.225859 
L 285.648702 137.215651 
L 285.865282 142.010465 
L 286.081863 141.400219 
L 286.298444 142.533531 
L 286.515025 142.489948 
L 286.731605 142.620711 
L 286.948186 141.443803 
L 287.164767 146.7181 
L 287.381348 146.45656 
L 287.597928 146.805279 
L 287.814509 139.525885 
L 288.03109 137.041291 
L 288.464251 147.110402 
L 288.680832 145.541191 
L 288.897413 142.097645 
L 289.330574 153.474415 
L 289.763736 137.956673 
L 289.980317 142.489948 
L 290.196897 144.407866 
L 290.413478 143.274554 
L 291.06322 150.292409 
L 291.279801 148.330894 
L 291.496382 147.807828 
L 291.712963 147.982188 
L 291.929543 147.546289 
L 292.579286 144.059159 
L 293.012447 136.169506 
L 293.445609 141.0515 
L 293.662189 148.810377 
L 293.87877 150.902655 
L 294.095351 144.582226 
L 294.528512 140.179714 
L 294.961674 147.371929 
L 295.611416 148.723197 
L 295.827997 148.330894 
L 296.261158 141.879702 
L 296.477739 137.913077 
L 296.69432 140.354074 
L 296.910901 144.320686 
L 297.127481 144.669405 
L 297.344062 143.187374 
L 297.560643 142.577128 
L 297.993804 147.153986 
L 298.210385 142.446351 
L 298.426966 142.707891 
L 298.643547 142.707891 
L 298.860127 141.443803 
L 299.076708 143.71044 
L 299.293289 141.0515 
L 299.50987 141.225859 
L 299.72645 142.751474 
L 299.943031 141.836105 
L 300.159612 140.005354 
L 300.376193 142.969431 
L 300.592773 148.112951 
L 301.025935 142.751474 
L 301.459096 151.033431 
L 302.108839 143.143777 
L 302.325419 143.361733 
L 302.542 146.19502 
L 302.975162 141.269443 
L 303.191742 145.061708 
L 303.408323 143.361733 
L 303.624904 142.707891 
L 303.841485 146.500143 
L 304.058065 146.2822 
L 304.274646 145.759134 
L 304.491227 142.359172 
L 304.707808 144.102743 
L 304.924388 153.430832 
L 305.140969 152.776989 
L 305.574131 144.015563 
L 305.790711 146.63092 
L 306.007292 143.8848 
L 306.223873 143.361733 
L 306.657034 152.079563 
L 306.873615 151.033431 
L 307.306777 155.174403 
L 307.956519 140.441254 
L 308.38968 144.102743 
L 309.039423 139.177165 
L 309.472584 143.318137 
L 309.905746 150.423172 
L 310.122326 151.033431 
L 310.338907 148.200131 
L 310.555488 147.851412 
L 310.772069 144.015563 
L 311.20523 142.010465 
L 311.421811 144.930945 
L 311.638392 143.187374 
L 312.071553 145.061708 
L 312.288134 143.405317 
L 312.504715 144.364282 
L 312.721295 152.428283 
L 312.937876 152.864169 
L 313.371038 140.223311 
L 313.587618 139.613052 
L 314.02078 139.613052 
L 314.453941 150.728295 
L 314.887103 142.577128 
L 315.103684 142.402768 
L 315.320264 145.279651 
L 315.536845 144.582226 
L 315.753426 143.361733 
L 315.970007 146.151437 
L 316.186587 146.107841 
L 316.403168 143.97198 
L 316.619749 144.407866 
L 317.269491 138.479739 
L 317.702653 143.230957 
L 318.135814 139.743828 
L 318.785556 150.771891 
L 319.002137 152.297507 
L 319.218718 151.382138 
L 319.435299 146.761683 
L 319.651879 144.800169 
L 320.085041 145.977077 
L 320.301622 144.582226 
L 320.518202 141.443803 
L 320.951364 152.079563 
L 321.384525 144.277103 
L 321.817687 143.71044 
L 322.034268 149.943689 
L 322.250848 149.769343 
L 322.467429 148.069355 
L 322.68401 141.879702 
L 322.900591 142.533531 
L 323.117171 140.31049 
L 323.333752 135.079777 
L 323.550333 134.513127 
L 323.983494 138.348976 
L 324.200075 136.300282 
L 324.416656 135.341316 
L 324.633237 137.825897 
L 324.849817 145.584774 
L 325.066398 146.805279 
L 325.49956 140.397657 
L 325.71614 141.705342 
L 326.149302 141.007916 
L 326.582463 144.930945 
L 326.799044 144.582226 
L 327.015625 142.925834 
L 327.232206 143.318137 
L 327.665367 140.833557 
L 327.881948 149.638566 
L 328.098529 150.902655 
L 328.53169 140.78996 
L 328.748271 141.618162 
L 328.964852 143.8848 
L 329.181432 142.184825 
L 329.398013 142.838654 
L 329.831175 147.720648 
L 330.047755 143.62326 
L 330.264336 141.792522 
L 330.480917 144.233506 
L 330.697498 143.230957 
L 330.914078 141.356623 
L 331.34724 148.461658 
L 331.780401 141.966869 
L 331.996982 142.141228 
L 332.213563 146.36938 
L 332.430144 146.936043 
L 332.646724 142.141228 
L 332.863305 143.79762 
L 333.079886 149.46422 
L 333.296467 142.969431 
L 333.513047 150.771891 
L 333.729628 149.943689 
L 333.946209 147.546289 
L 334.16279 149.987286 
L 334.37937 141.661746 
L 334.595951 139.613052 
L 335.029113 145.715538 
L 335.245693 145.323248 
L 335.462274 139.743828 
L 335.678855 141.966869 
L 335.895436 145.977077 
L 336.112016 146.761683 
L 336.328597 143.71044 
L 336.545178 145.628371 
L 336.761759 146.19502 
L 336.978339 149.507803 
L 337.411501 150.510352 
L 337.844663 145.410415 
L 338.061243 147.938592 
L 338.277824 146.54374 
L 338.494405 139.700231 
L 338.710986 139.787411 
L 338.927566 142.446351 
L 339.144147 143.274554 
L 339.360728 140.397657 
L 339.577309 141.487399 
L 340.01047 153.038529 
L 340.227051 150.335992 
L 340.660212 141.313039 
L 340.876793 140.266894 
L 341.093374 140.659197 
L 341.309955 138.523323 
L 341.526535 134.513127 
L 341.959697 147.938592 
L 342.609439 145.497595 
L 343.042601 140.179714 
L 343.259181 137.782314 
L 343.475762 145.105292 
L 343.692343 144.407866 
L 343.908924 139.046402 
L 344.125504 140.397657 
L 344.342085 144.538642 
L 344.558666 144.669405 
L 344.775247 142.925834 
L 344.991827 144.625809 
L 345.424989 137.56437 
L 345.85815 141.225859 
L 346.074731 147.153986 
L 346.291312 143.666857 
L 346.507893 142.446351 
L 346.724473 145.541191 
L 346.941054 146.54374 
L 347.157635 145.759134 
L 347.374216 145.410415 
L 347.590796 145.323248 
L 347.807377 148.287311 
L 348.023958 147.938592 
L 348.457119 143.274554 
L 348.890281 151.77444 
L 349.323442 142.446351 
L 349.540023 143.492497 
L 349.756604 147.066806 
L 349.973185 143.754036 
L 350.189765 143.056598 
L 350.406346 150.771891 
L 350.622927 151.77444 
L 350.839508 150.205229 
L 351.056088 145.148888 
L 351.272669 149.856522 
L 351.48925 147.110402 
L 351.705831 142.664295 
L 351.922411 144.102743 
L 352.138992 148.461658 
L 352.355573 147.982188 
L 352.572154 145.323248 
L 353.005315 148.897557 
L 353.221896 150.161645 
L 353.438477 156.002592 
L 353.871638 145.977077 
L 354.3048 156.351311 
L 354.954542 150.902655 
L 355.171123 151.251374 
L 355.604284 140.746377 
L 356.037446 154.564144 
L 356.470607 150.205229 
L 356.687188 148.200131 
L 356.903769 151.338554 
L 357.33693 153.125709 
L 357.553511 152.994932 
L 357.770092 144.625809 
L 358.203253 148.156535 
L 358.419834 148.025771 
L 358.636415 151.425734 
L 358.852995 149.20268 
L 359.286157 156.438491 
L 359.502738 152.079563 
L 359.719318 152.384686 
L 359.935899 151.905204 
L 360.15248 153.735955 
L 360.585641 141.879702 
L 360.802222 143.100194 
L 361.018803 147.415525 
L 361.235384 141.182263 
L 361.451964 138.174616 
L 361.668545 141.269443 
L 361.885126 147.153986 
L 362.101707 146.936043 
L 362.318287 145.759134 
L 362.534868 146.500143 
L 362.751449 151.687261 
L 363.18461 153.082112 
L 363.401191 153.038529 
L 363.617772 150.553948 
L 363.834353 144.059159 
L 364.050933 146.064257 
L 364.267514 144.974528 
L 364.484095 140.96432 
L 364.700676 142.054049 
L 364.917256 150.553948 
L 365.133837 151.512901 
L 365.350418 145.410415 
L 365.566999 142.969431 
L 365.783579 146.54374 
L 366.216741 142.795071 
L 366.433322 143.056598 
L 366.649902 147.895008 
L 366.866483 147.633469 
L 367.299645 141.792522 
L 367.516225 140.833557 
L 368.165968 148.679614 
L 368.382548 147.589885 
L 368.81571 141.356623 
L 369.032291 150.989835 
L 369.248871 151.600081 
L 369.465452 145.148888 
L 369.682033 142.882251 
L 369.898614 141.836105 
L 370.115194 141.966869 
L 370.764937 150.335992 
L 370.981517 149.02832 
L 371.198098 142.359172 
L 371.414679 142.184825 
L 371.63126 147.415525 
L 371.84784 146.979626 
L 372.064421 144.407866 
L 372.281002 137.869493 
L 372.497583 136.648988 
L 372.714163 142.707891 
L 372.930744 145.628371 
L 373.147325 144.189923 
L 373.363906 138.915626 
L 373.580486 140.528434 
L 373.797067 150.946251 
L 374.013648 154.259021 
L 374.230229 153.779538 
L 374.446809 145.715538 
L 374.879971 151.818037 
L 375.529713 148.461658 
L 375.746294 146.936043 
L 375.962875 146.63092 
L 376.179455 142.664295 
L 376.396036 142.010465 
L 376.829198 150.597532 
L 377.262359 144.538642 
L 377.47894 145.410415 
L 377.695521 145.628371 
L 377.912101 142.228408 
L 378.128682 141.0515 
L 378.345263 141.007916 
L 378.561844 140.136131 
L 378.995005 143.579677 
L 379.211586 139.613052 
L 379.428167 138.523323 
L 379.644747 140.223311 
L 379.861328 140.005354 
L 380.077909 140.746377 
L 380.51107 150.030869 
L 380.727651 150.597532 
L 380.944232 149.071917 
L 381.377393 142.751474 
L 381.593974 141.13868 
L 381.810555 144.233506 
L 382.027136 141.530982 
L 382.243716 145.323248 
L 382.460297 142.359172 
L 382.676878 143.230957 
L 382.893459 143.361733 
L 383.110039 138.654099 
L 383.543201 151.382138 
L 383.759782 150.292409 
L 383.976362 147.851412 
L 384.192943 151.469317 
L 384.409524 157.26668 
L 384.626105 158.487172 
L 384.842685 154.041078 
L 385.059266 145.323248 
L 385.275847 144.233506 
L 385.492428 145.279651 
L 385.709008 144.669405 
L 386.14217 140.441254 
L 386.358751 143.62326 
L 386.575331 144.364282 
L 386.791912 143.53608 
L 387.008493 143.230957 
L 387.225074 142.184825 
L 387.441654 142.925834 
L 387.658235 143.056598 
L 387.874816 145.105292 
L 388.091397 144.887349 
L 388.307977 141.13868 
L 388.741139 147.982188 
L 388.95772 146.63092 
L 389.1743 143.056598 
L 389.390881 141.400219 
L 389.607462 148.112951 
L 389.824043 150.902655 
L 390.257204 140.397657 
L 390.473785 150.597532 
L 390.690366 154.476977 
L 391.123527 138.959222 
L 391.340108 149.507803 
L 391.556689 152.079563 
L 391.773269 142.184825 
L 391.98985 138.566919 
L 392.206431 144.059159 
L 392.639592 162.192258 
L 392.856173 150.248825 
L 393.072754 150.205229 
L 393.289335 155.871829 
L 393.722496 147.459109 
L 394.155658 142.315588 
L 394.372238 143.274554 
L 394.588819 142.707891 
L 395.238561 155.130806 
L 395.455142 153.387235 
L 395.671723 146.805279 
L 395.888304 151.251374 
L 396.104884 148.112951 
L 396.321465 142.315588 
L 396.538046 147.938592 
L 396.754627 149.943689 
L 396.971207 146.2822 
L 397.187788 144.887349 
L 397.404369 145.279651 
L 397.62095 148.025771 
L 397.83753 143.056598 
L 398.054111 145.802718 
L 398.270692 150.815475 
L 398.487273 148.374491 
L 398.487273 148.374491 
" style="fill:none;stroke:#ff7f0e;stroke-linecap:square;stroke-width:1.5;"/>
   </g>
   <g id="patch_3">
    <path d="M 57.6 307.584 
L 57.6 41.472 
" style="fill:none;stroke:#000000;stroke-linecap:square;stroke-linejoin:miter;stroke-width:0.8;"/>
   </g>
   <g id="patch_4">
    <path d="M 414.72 307.584 
L 414.72 41.472 
" style="fill:none;stroke:#000000;stroke-linecap:square;stroke-linejoin:miter;stroke-width:0.8;"/>
   </g>
   <g id="patch_5">
    <path d="M 57.6 307.584 
L 414.72 307.584 
" style="fill:none;stroke:#000000;stroke-linecap:square;stroke-linejoin:miter;stroke-width:0.8;"/>
   </g>
   <g id="patch_6">
    <path d="M 57.6 41.472 
L 414.72 41.472 
" style="fill:none;stroke:#000000;stroke-linecap:square;stroke-linejoin:miter;stroke-width:0.8;"/>
   </g>
   <g id="text_17">
    <!-- PyTorch MLP -->
    <defs>
     <path d="M 19.671875 64.796875 
L 19.671875 37.40625 
L 32.078125 37.40625 
Q 38.96875 37.40625 42.71875 40.96875 
Q 46.484375 44.53125 46.484375 51.125 
Q 46.484375 57.671875 42.71875 61.234375 
Q 38.96875 64.796875 32.078125 64.796875 
z
M 9.8125 72.90625 
L 32.078125 72.90625 
Q 44.34375 72.90625 50.609375 67.359375 
Q 56.890625 61.8125 56.890625 51.125 
Q 56.890625 40.328125 50.609375 34.8125 
Q 44.34375 29.296875 32.078125 29.296875 
L 19.671875 29.296875 
L 19.671875 0 
L 9.8125 0 
z
" id="DejaVuSans-80"/>
     <path d="M -0.296875 72.90625 
L 61.375 72.90625 
L 61.375 64.59375 
L 35.5 64.59375 
L 35.5 0 
L 25.59375 0 
L 25.59375 64.59375 
L -0.296875 64.59375 
z
" id="DejaVuSans-84"/>
     <path d="M 30.609375 48.390625 
Q 23.390625 48.390625 19.1875 42.75 
Q 14.984375 37.109375 14.984375 27.296875 
Q 14.984375 17.484375 19.15625 11.84375 
Q 23.34375 6.203125 30.609375 6.203125 
Q 37.796875 6.203125 41.984375 11.859375 
Q 46.1875 17.53125 46.1875 27.296875 
Q 46.1875 37.015625 41.984375 42.703125 
Q 37.796875 48.390625 30.609375 48.390625 
z
M 30.609375 56 
Q 42.328125 56 49.015625 48.375 
Q 55.71875 40.765625 55.71875 27.296875 
Q 55.71875 13.875 49.015625 6.21875 
Q 42.328125 -1.421875 30.609375 -1.421875 
Q 18.84375 -1.421875 12.171875 6.21875 
Q 5.515625 13.875 5.515625 27.296875 
Q 5.515625 40.765625 12.171875 48.375 
Q 18.84375 56 30.609375 56 
z
" id="DejaVuSans-111"/>
     <path d="M 54.890625 33.015625 
L 54.890625 0 
L 45.90625 0 
L 45.90625 32.71875 
Q 45.90625 40.484375 42.875 44.328125 
Q 39.84375 48.1875 33.796875 48.1875 
Q 26.515625 48.1875 22.3125 43.546875 
Q 18.109375 38.921875 18.109375 30.90625 
L 18.109375 0 
L 9.078125 0 
L 9.078125 75.984375 
L 18.109375 75.984375 
L 18.109375 46.1875 
Q 21.34375 51.125 25.703125 53.5625 
Q 30.078125 56 35.796875 56 
Q 45.21875 56 50.046875 50.171875 
Q 54.890625 44.34375 54.890625 33.015625 
z
" id="DejaVuSans-104"/>
     <path id="DejaVuSans-32"/>
     <path d="M 9.8125 72.90625 
L 24.515625 72.90625 
L 43.109375 23.296875 
L 61.8125 72.90625 
L 76.515625 72.90625 
L 76.515625 0 
L 66.890625 0 
L 66.890625 64.015625 
L 48.09375 14.015625 
L 38.1875 14.015625 
L 19.390625 64.015625 
L 19.390625 0 
L 9.8125 0 
z
" id="DejaVuSans-77"/>
     <path d="M 9.8125 72.90625 
L 19.671875 72.90625 
L 19.671875 8.296875 
L 55.171875 8.296875 
L 55.171875 0 
L 9.8125 0 
z
" id="DejaVuSans-76"/>
    </defs>
    <g transform="translate(198.06 35.472)scale(0.12 -0.12)">
     <use xlink:href="#DejaVuSans-80"/>
     <use x="60.302734" xlink:href="#DejaVuSans-121"/>
     <use x="119.482422" xlink:href="#DejaVuSans-84"/>
     <use x="180.300781" xlink:href="#DejaVuSans-111"/>
     <use x="241.482422" xlink:href="#DejaVuSans-114"/>
     <use x="282.564453" xlink:href="#DejaVuSans-99"/>
     <use x="337.544922" xlink:href="#DejaVuSans-104"/>
     <use x="400.923828" xlink:href="#DejaVuSans-32"/>
     <use x="432.710938" xlink:href="#DejaVuSans-77"/>
     <use x="518.990234" xlink:href="#DejaVuSans-76"/>
     <use x="574.703125" xlink:href="#DejaVuSans-80"/>
    </g>
   </g>
   <g id="legend_1">
    <g id="patch_7">
     <path d="M 64.6 78.82825 
L 122.040625 78.82825 
Q 124.040625 78.82825 124.040625 76.82825 
L 124.040625 48.472 
Q 124.040625 46.472 122.040625 46.472 
L 64.6 46.472 
Q 62.6 46.472 62.6 48.472 
L 62.6 76.82825 
Q 62.6 78.82825 64.6 78.82825 
z
" style="fill:#ffffff;opacity:0.8;stroke:#cccccc;stroke-linejoin:miter;"/>
    </g>
    <g id="line2d_17">
     <path d="M 66.6 54.570437 
L 86.6 54.570437 
" style="fill:none;stroke:#1f77b4;stroke-linecap:square;stroke-width:1.5;"/>
    </g>
    <g id="line2d_18"/>
    <g id="text_18">
     <!-- Train -->
     <defs>
      <path d="M 9.421875 54.6875 
L 18.40625 54.6875 
L 18.40625 0 
L 9.421875 0 
z
M 9.421875 75.984375 
L 18.40625 75.984375 
L 18.40625 64.59375 
L 9.421875 64.59375 
z
" id="DejaVuSans-105"/>
      <path d="M 54.890625 33.015625 
L 54.890625 0 
L 45.90625 0 
L 45.90625 32.71875 
Q 45.90625 40.484375 42.875 44.328125 
Q 39.84375 48.1875 33.796875 48.1875 
Q 26.515625 48.1875 22.3125 43.546875 
Q 18.109375 38.921875 18.109375 30.90625 
L 18.109375 0 
L 9.078125 0 
L 9.078125 54.6875 
L 18.109375 54.6875 
L 18.109375 46.1875 
Q 21.34375 51.125 25.703125 53.5625 
Q 30.078125 56 35.796875 56 
Q 45.21875 56 50.046875 50.171875 
Q 54.890625 44.34375 54.890625 33.015625 
z
" id="DejaVuSans-110"/>
     </defs>
     <g transform="translate(94.6 58.070437)scale(0.1 -0.1)">
      <use xlink:href="#DejaVuSans-84"/>
      <use x="60.865234" xlink:href="#DejaVuSans-114"/>
      <use x="101.978516" xlink:href="#DejaVuSans-97"/>
      <use x="163.257812" xlink:href="#DejaVuSans-105"/>
      <use x="191.041016" xlink:href="#DejaVuSans-110"/>
     </g>
    </g>
    <g id="line2d_19">
     <path d="M 66.6 69.248562 
L 86.6 69.248562 
" style="fill:none;stroke:#ff7f0e;stroke-linecap:square;stroke-width:1.5;"/>
    </g>
    <g id="line2d_20"/>
    <g id="text_19">
     <!-- Test -->
     <defs>
      <path d="M 44.28125 53.078125 
L 44.28125 44.578125 
Q 40.484375 46.53125 36.375 47.5 
Q 32.28125 48.484375 27.875 48.484375 
Q 21.1875 48.484375 17.84375 46.4375 
Q 14.5 44.390625 14.5 40.28125 
Q 14.5 37.15625 16.890625 35.375 
Q 19.28125 33.59375 26.515625 31.984375 
L 29.59375 31.296875 
Q 39.15625 29.25 43.1875 25.515625 
Q 47.21875 21.78125 47.21875 15.09375 
Q 47.21875 7.46875 41.1875 3.015625 
Q 35.15625 -1.421875 24.609375 -1.421875 
Q 20.21875 -1.421875 15.453125 -0.5625 
Q 10.6875 0.296875 5.421875 2 
L 5.421875 11.28125 
Q 10.40625 8.6875 15.234375 7.390625 
Q 20.0625 6.109375 24.8125 6.109375 
Q 31.15625 6.109375 34.5625 8.28125 
Q 37.984375 10.453125 37.984375 14.40625 
Q 37.984375 18.0625 35.515625 20.015625 
Q 33.0625 21.96875 24.703125 23.78125 
L 21.578125 24.515625 
Q 13.234375 26.265625 9.515625 29.90625 
Q 5.8125 33.546875 5.8125 39.890625 
Q 5.8125 47.609375 11.28125 51.796875 
Q 16.75 56 26.8125 56 
Q 31.78125 56 36.171875 55.265625 
Q 40.578125 54.546875 44.28125 53.078125 
z
" id="DejaVuSans-115"/>
     </defs>
     <g transform="translate(94.6 72.748562)scale(0.1 -0.1)">
      <use xlink:href="#DejaVuSans-84"/>
      <use x="60.818359" xlink:href="#DejaVuSans-101"/>
      <use x="122.341797" xlink:href="#DejaVuSans-115"/>
      <use x="174.441406" xlink:href="#DejaVuSans-116"/>
     </g>
    </g>
   </g>
  </g>
 </g>
 <defs>
  <clipPath id="pb6703dc4c8">
   <rect height="266.112" width="357.12" x="57.6" y="41.472"/>
  </clipPath>
 </defs>
</svg>
