<?xml version="1.0" encoding="utf-8" standalone="no"?>
<!DOCTYPE svg PUBLIC "-//W3C//DTD SVG 1.1//EN"
  "http://www.w3.org/Graphics/SVG/1.1/DTD/svg11.dtd">
<!-- Created with matplotlib (https://matplotlib.org/) -->
<svg height="345.6pt" version="1.1" viewBox="0 0 460.8 345.6" width="460.8pt" xmlns="http://www.w3.org/2000/svg" xmlns:xlink="http://www.w3.org/1999/xlink">
 <defs>
  <style type="text/css">
*{stroke-linecap:butt;stroke-linejoin:round;}
  </style>
 </defs>
 <g id="figure_1">
  <g id="patch_1">
   <path d="M 0 345.6 
L 460.8 345.6 
L 460.8 0 
L 0 0 
z
" style="fill:#ffffff;"/>
  </g>
  <g id="axes_1">
   <g id="patch_2">
    <path d="M 57.6 307.584 
L 414.72 307.584 
L 414.72 41.472 
L 57.6 41.472 
z
" style="fill:#ffffff;"/>
   </g>
   <g id="matplotlib.axis_1">
    <g id="xtick_1">
     <g id="line2d_1">
      <defs>
       <path d="M 0 0 
L 0 3.5 
" id="me3df6e4cf7" style="stroke:#000000;stroke-width:0.8;"/>
      </defs>
      <g>
       <use style="stroke:#000000;stroke-width:0.8;" x="73.832727" xlink:href="#me3df6e4cf7" y="307.584"/>
      </g>
     </g>
     <g id="text_1">
      <!-- 0 -->
      <defs>
       <path d="M 31.78125 66.40625 
Q 24.171875 66.40625 20.328125 58.90625 
Q 16.5 51.421875 16.5 36.375 
Q 16.5 21.390625 20.328125 13.890625 
Q 24.171875 6.390625 31.78125 6.390625 
Q 39.453125 6.390625 43.28125 13.890625 
Q 47.125 21.390625 47.125 36.375 
Q 47.125 51.421875 43.28125 58.90625 
Q 39.453125 66.40625 31.78125 66.40625 
z
M 31.78125 74.21875 
Q 44.046875 74.21875 50.515625 64.515625 
Q 56.984375 54.828125 56.984375 36.375 
Q 56.984375 17.96875 50.515625 8.265625 
Q 44.046875 -1.421875 31.78125 -1.421875 
Q 19.53125 -1.421875 13.0625 8.265625 
Q 6.59375 17.96875 6.59375 36.375 
Q 6.59375 54.828125 13.0625 64.515625 
Q 19.53125 74.21875 31.78125 74.21875 
z
" id="DejaVuSans-48"/>
      </defs>
      <g transform="translate(70.651477 322.182437)scale(0.1 -0.1)">
       <use xlink:href="#DejaVuSans-48"/>
      </g>
     </g>
    </g>
    <g id="xtick_2">
     <g id="line2d_2">
      <g>
       <use style="stroke:#000000;stroke-width:0.8;" x="117.148877" xlink:href="#me3df6e4cf7" y="307.584"/>
      </g>
     </g>
     <g id="text_2">
      <!-- 200 -->
      <defs>
       <path d="M 19.1875 8.296875 
L 53.609375 8.296875 
L 53.609375 0 
L 7.328125 0 
L 7.328125 8.296875 
Q 12.9375 14.109375 22.625 23.890625 
Q 32.328125 33.6875 34.8125 36.53125 
Q 39.546875 41.84375 41.421875 45.53125 
Q 43.3125 49.21875 43.3125 52.78125 
Q 43.3125 58.59375 39.234375 62.25 
Q 35.15625 65.921875 28.609375 65.921875 
Q 23.96875 65.921875 18.8125 64.3125 
Q 13.671875 62.703125 7.8125 59.421875 
L 7.8125 69.390625 
Q 13.765625 71.78125 18.9375 73 
Q 24.125 74.21875 28.421875 74.21875 
Q 39.75 74.21875 46.484375 68.546875 
Q 53.21875 62.890625 53.21875 53.421875 
Q 53.21875 48.921875 51.53125 44.890625 
Q 49.859375 40.875 45.40625 35.40625 
Q 44.1875 33.984375 37.640625 27.21875 
Q 31.109375 20.453125 19.1875 8.296875 
z
" id="DejaVuSans-50"/>
      </defs>
      <g transform="translate(107.605127 322.182437)scale(0.1 -0.1)">
       <use xlink:href="#DejaVuSans-50"/>
       <use x="63.623047" xlink:href="#DejaVuSans-48"/>
       <use x="127.246094" xlink:href="#DejaVuSans-48"/>
      </g>
     </g>
    </g>
    <g id="xtick_3">
     <g id="line2d_3">
      <g>
       <use style="stroke:#000000;stroke-width:0.8;" x="160.465028" xlink:href="#me3df6e4cf7" y="307.584"/>
      </g>
     </g>
     <g id="text_3">
      <!-- 400 -->
      <defs>
       <path d="M 37.796875 64.3125 
L 12.890625 25.390625 
L 37.796875 25.390625 
z
M 35.203125 72.90625 
L 47.609375 72.90625 
L 47.609375 25.390625 
L 58.015625 25.390625 
L 58.015625 17.1875 
L 47.609375 17.1875 
L 47.609375 0 
L 37.796875 0 
L 37.796875 17.1875 
L 4.890625 17.1875 
L 4.890625 26.703125 
z
" id="DejaVuSans-52"/>
      </defs>
      <g transform="translate(150.921278 322.182437)scale(0.1 -0.1)">
       <use xlink:href="#DejaVuSans-52"/>
       <use x="63.623047" xlink:href="#DejaVuSans-48"/>
       <use x="127.246094" xlink:href="#DejaVuSans-48"/>
      </g>
     </g>
    </g>
    <g id="xtick_4">
     <g id="line2d_4">
      <g>
       <use style="stroke:#000000;stroke-width:0.8;" x="203.781178" xlink:href="#me3df6e4cf7" y="307.584"/>
      </g>
     </g>
     <g id="text_4">
      <!-- 600 -->
      <defs>
       <path d="M 33.015625 40.375 
Q 26.375 40.375 22.484375 35.828125 
Q 18.609375 31.296875 18.609375 23.390625 
Q 18.609375 15.53125 22.484375 10.953125 
Q 26.375 6.390625 33.015625 6.390625 
Q 39.65625 6.390625 43.53125 10.953125 
Q 47.40625 15.53125 47.40625 23.390625 
Q 47.40625 31.296875 43.53125 35.828125 
Q 39.65625 40.375 33.015625 40.375 
z
M 52.59375 71.296875 
L 52.59375 62.3125 
Q 48.875 64.0625 45.09375 64.984375 
Q 41.3125 65.921875 37.59375 65.921875 
Q 27.828125 65.921875 22.671875 59.328125 
Q 17.53125 52.734375 16.796875 39.40625 
Q 19.671875 43.65625 24.015625 45.921875 
Q 28.375 48.1875 33.59375 48.1875 
Q 44.578125 48.1875 50.953125 41.515625 
Q 57.328125 34.859375 57.328125 23.390625 
Q 57.328125 12.15625 50.6875 5.359375 
Q 44.046875 -1.421875 33.015625 -1.421875 
Q 20.359375 -1.421875 13.671875 8.265625 
Q 6.984375 17.96875 6.984375 36.375 
Q 6.984375 53.65625 15.1875 63.9375 
Q 23.390625 74.21875 37.203125 74.21875 
Q 40.921875 74.21875 44.703125 73.484375 
Q 48.484375 72.75 52.59375 71.296875 
z
" id="DejaVuSans-54"/>
      </defs>
      <g transform="translate(194.237428 322.182437)scale(0.1 -0.1)">
       <use xlink:href="#DejaVuSans-54"/>
       <use x="63.623047" xlink:href="#DejaVuSans-48"/>
       <use x="127.246094" xlink:href="#DejaVuSans-48"/>
      </g>
     </g>
    </g>
    <g id="xtick_5">
     <g id="line2d_5">
      <g>
       <use style="stroke:#000000;stroke-width:0.8;" x="247.097328" xlink:href="#me3df6e4cf7" y="307.584"/>
      </g>
     </g>
     <g id="text_5">
      <!-- 800 -->
      <defs>
       <path d="M 31.78125 34.625 
Q 24.75 34.625 20.71875 30.859375 
Q 16.703125 27.09375 16.703125 20.515625 
Q 16.703125 13.921875 20.71875 10.15625 
Q 24.75 6.390625 31.78125 6.390625 
Q 38.8125 6.390625 42.859375 10.171875 
Q 46.921875 13.96875 46.921875 20.515625 
Q 46.921875 27.09375 42.890625 30.859375 
Q 38.875 34.625 31.78125 34.625 
z
M 21.921875 38.8125 
Q 15.578125 40.375 12.03125 44.71875 
Q 8.5 49.078125 8.5 55.328125 
Q 8.5 64.0625 14.71875 69.140625 
Q 20.953125 74.21875 31.78125 74.21875 
Q 42.671875 74.21875 48.875 69.140625 
Q 55.078125 64.0625 55.078125 55.328125 
Q 55.078125 49.078125 51.53125 44.71875 
Q 48 40.375 41.703125 38.8125 
Q 48.828125 37.15625 52.796875 32.3125 
Q 56.78125 27.484375 56.78125 20.515625 
Q 56.78125 9.90625 50.3125 4.234375 
Q 43.84375 -1.421875 31.78125 -1.421875 
Q 19.734375 -1.421875 13.25 4.234375 
Q 6.78125 9.90625 6.78125 20.515625 
Q 6.78125 27.484375 10.78125 32.3125 
Q 14.796875 37.15625 21.921875 38.8125 
z
M 18.3125 54.390625 
Q 18.3125 48.734375 21.84375 45.5625 
Q 25.390625 42.390625 31.78125 42.390625 
Q 38.140625 42.390625 41.71875 45.5625 
Q 45.3125 48.734375 45.3125 54.390625 
Q 45.3125 60.0625 41.71875 63.234375 
Q 38.140625 66.40625 31.78125 66.40625 
Q 25.390625 66.40625 21.84375 63.234375 
Q 18.3125 60.0625 18.3125 54.390625 
z
" id="DejaVuSans-56"/>
      </defs>
      <g transform="translate(237.553578 322.182437)scale(0.1 -0.1)">
       <use xlink:href="#DejaVuSans-56"/>
       <use x="63.623047" xlink:href="#DejaVuSans-48"/>
       <use x="127.246094" xlink:href="#DejaVuSans-48"/>
      </g>
     </g>
    </g>
    <g id="xtick_6">
     <g id="line2d_6">
      <g>
       <use style="stroke:#000000;stroke-width:0.8;" x="290.413478" xlink:href="#me3df6e4cf7" y="307.584"/>
      </g>
     </g>
     <g id="text_6">
      <!-- 1000 -->
      <defs>
       <path d="M 12.40625 8.296875 
L 28.515625 8.296875 
L 28.515625 63.921875 
L 10.984375 60.40625 
L 10.984375 69.390625 
L 28.421875 72.90625 
L 38.28125 72.90625 
L 38.28125 8.296875 
L 54.390625 8.296875 
L 54.390625 0 
L 12.40625 0 
z
" id="DejaVuSans-49"/>
      </defs>
      <g transform="translate(277.688478 322.182437)scale(0.1 -0.1)">
       <use xlink:href="#DejaVuSans-49"/>
       <use x="63.623047" xlink:href="#DejaVuSans-48"/>
       <use x="127.246094" xlink:href="#DejaVuSans-48"/>
       <use x="190.869141" xlink:href="#DejaVuSans-48"/>
      </g>
     </g>
    </g>
    <g id="xtick_7">
     <g id="line2d_7">
      <g>
       <use style="stroke:#000000;stroke-width:0.8;" x="333.729628" xlink:href="#me3df6e4cf7" y="307.584"/>
      </g>
     </g>
     <g id="text_7">
      <!-- 1200 -->
      <g transform="translate(321.004628 322.182437)scale(0.1 -0.1)">
       <use xlink:href="#DejaVuSans-49"/>
       <use x="63.623047" xlink:href="#DejaVuSans-50"/>
       <use x="127.246094" xlink:href="#DejaVuSans-48"/>
       <use x="190.869141" xlink:href="#DejaVuSans-48"/>
      </g>
     </g>
    </g>
    <g id="xtick_8">
     <g id="line2d_8">
      <g>
       <use style="stroke:#000000;stroke-width:0.8;" x="377.045778" xlink:href="#me3df6e4cf7" y="307.584"/>
      </g>
     </g>
     <g id="text_8">
      <!-- 1400 -->
      <g transform="translate(364.320778 322.182437)scale(0.1 -0.1)">
       <use xlink:href="#DejaVuSans-49"/>
       <use x="63.623047" xlink:href="#DejaVuSans-52"/>
       <use x="127.246094" xlink:href="#DejaVuSans-48"/>
       <use x="190.869141" xlink:href="#DejaVuSans-48"/>
      </g>
     </g>
    </g>
    <g id="text_9">
     <!-- Step -->
     <defs>
      <path d="M 53.515625 70.515625 
L 53.515625 60.890625 
Q 47.90625 63.578125 42.921875 64.890625 
Q 37.9375 66.21875 33.296875 66.21875 
Q 25.25 66.21875 20.875 63.09375 
Q 16.5 59.96875 16.5 54.203125 
Q 16.5 49.359375 19.40625 46.890625 
Q 22.3125 44.4375 30.421875 42.921875 
L 36.375 41.703125 
Q 47.40625 39.59375 52.65625 34.296875 
Q 57.90625 29 57.90625 20.125 
Q 57.90625 9.515625 50.796875 4.046875 
Q 43.703125 -1.421875 29.984375 -1.421875 
Q 24.8125 -1.421875 18.96875 -0.25 
Q 13.140625 0.921875 6.890625 3.21875 
L 6.890625 13.375 
Q 12.890625 10.015625 18.65625 8.296875 
Q 24.421875 6.59375 29.984375 6.59375 
Q 38.421875 6.59375 43.015625 9.90625 
Q 47.609375 13.234375 47.609375 19.390625 
Q 47.609375 24.75 44.3125 27.78125 
Q 41.015625 30.8125 33.5 32.328125 
L 27.484375 33.5 
Q 16.453125 35.6875 11.515625 40.375 
Q 6.59375 45.0625 6.59375 53.421875 
Q 6.59375 63.09375 13.40625 68.65625 
Q 20.21875 74.21875 32.171875 74.21875 
Q 37.3125 74.21875 42.625 73.28125 
Q 47.953125 72.359375 53.515625 70.515625 
z
" id="DejaVuSans-83"/>
      <path d="M 18.3125 70.21875 
L 18.3125 54.6875 
L 36.8125 54.6875 
L 36.8125 47.703125 
L 18.3125 47.703125 
L 18.3125 18.015625 
Q 18.3125 11.328125 20.140625 9.421875 
Q 21.96875 7.515625 27.59375 7.515625 
L 36.8125 7.515625 
L 36.8125 0 
L 27.59375 0 
Q 17.1875 0 13.234375 3.875 
Q 9.28125 7.765625 9.28125 18.015625 
L 9.28125 47.703125 
L 2.6875 47.703125 
L 2.6875 54.6875 
L 9.28125 54.6875 
L 9.28125 70.21875 
z
" id="DejaVuSans-116"/>
      <path d="M 56.203125 29.59375 
L 56.203125 25.203125 
L 14.890625 25.203125 
Q 15.484375 15.921875 20.484375 11.0625 
Q 25.484375 6.203125 34.421875 6.203125 
Q 39.59375 6.203125 44.453125 7.46875 
Q 49.3125 8.734375 54.109375 11.28125 
L 54.109375 2.78125 
Q 49.265625 0.734375 44.1875 -0.34375 
Q 39.109375 -1.421875 33.890625 -1.421875 
Q 20.796875 -1.421875 13.15625 6.1875 
Q 5.515625 13.8125 5.515625 26.8125 
Q 5.515625 40.234375 12.765625 48.109375 
Q 20.015625 56 32.328125 56 
Q 43.359375 56 49.78125 48.890625 
Q 56.203125 41.796875 56.203125 29.59375 
z
M 47.21875 32.234375 
Q 47.125 39.59375 43.09375 43.984375 
Q 39.0625 48.390625 32.421875 48.390625 
Q 24.90625 48.390625 20.390625 44.140625 
Q 15.875 39.890625 15.1875 32.171875 
z
" id="DejaVuSans-101"/>
      <path d="M 18.109375 8.203125 
L 18.109375 -20.796875 
L 9.078125 -20.796875 
L 9.078125 54.6875 
L 18.109375 54.6875 
L 18.109375 46.390625 
Q 20.953125 51.265625 25.265625 53.625 
Q 29.59375 56 35.59375 56 
Q 45.5625 56 51.78125 48.09375 
Q 58.015625 40.1875 58.015625 27.296875 
Q 58.015625 14.40625 51.78125 6.484375 
Q 45.5625 -1.421875 35.59375 -1.421875 
Q 29.59375 -1.421875 25.265625 0.953125 
Q 20.953125 3.328125 18.109375 8.203125 
z
M 48.6875 27.296875 
Q 48.6875 37.203125 44.609375 42.84375 
Q 40.53125 48.484375 33.40625 48.484375 
Q 26.265625 48.484375 22.1875 42.84375 
Q 18.109375 37.203125 18.109375 27.296875 
Q 18.109375 17.390625 22.1875 11.75 
Q 26.265625 6.109375 33.40625 6.109375 
Q 40.53125 6.109375 44.609375 11.75 
Q 48.6875 17.390625 48.6875 27.296875 
z
" id="DejaVuSans-112"/>
     </defs>
     <g transform="translate(224.774844 335.860562)scale(0.1 -0.1)">
      <use xlink:href="#DejaVuSans-83"/>
      <use x="63.476562" xlink:href="#DejaVuSans-116"/>
      <use x="102.685547" xlink:href="#DejaVuSans-101"/>
      <use x="164.208984" xlink:href="#DejaVuSans-112"/>
     </g>
    </g>
   </g>
   <g id="matplotlib.axis_2">
    <g id="ytick_1">
     <g id="line2d_9">
      <defs>
       <path d="M 0 0 
L -3.5 0 
" id="meea5884897" style="stroke:#000000;stroke-width:0.8;"/>
      </defs>
      <g>
       <use style="stroke:#000000;stroke-width:0.8;" x="57.6" xlink:href="#meea5884897" y="295.487997"/>
      </g>
     </g>
     <g id="text_10">
      <!-- 0.1 -->
      <defs>
       <path d="M 10.6875 12.40625 
L 21 12.40625 
L 21 0 
L 10.6875 0 
z
" id="DejaVuSans-46"/>
      </defs>
      <g transform="translate(34.696875 299.287216)scale(0.1 -0.1)">
       <use xlink:href="#DejaVuSans-48"/>
       <use x="63.623047" xlink:href="#DejaVuSans-46"/>
       <use x="95.410156" xlink:href="#DejaVuSans-49"/>
      </g>
     </g>
    </g>
    <g id="ytick_2">
     <g id="line2d_10">
      <g>
       <use style="stroke:#000000;stroke-width:0.8;" x="57.6" xlink:href="#meea5884897" y="245.607583"/>
      </g>
     </g>
     <g id="text_11">
      <!-- 0.2 -->
      <g transform="translate(34.696875 249.406802)scale(0.1 -0.1)">
       <use xlink:href="#DejaVuSans-48"/>
       <use x="63.623047" xlink:href="#DejaVuSans-46"/>
       <use x="95.410156" xlink:href="#DejaVuSans-50"/>
      </g>
     </g>
    </g>
    <g id="ytick_3">
     <g id="line2d_11">
      <g>
       <use style="stroke:#000000;stroke-width:0.8;" x="57.6" xlink:href="#meea5884897" y="195.727169"/>
      </g>
     </g>
     <g id="text_12">
      <!-- 0.3 -->
      <defs>
       <path d="M 40.578125 39.3125 
Q 47.65625 37.796875 51.625 33 
Q 55.609375 28.21875 55.609375 21.1875 
Q 55.609375 10.40625 48.1875 4.484375 
Q 40.765625 -1.421875 27.09375 -1.421875 
Q 22.515625 -1.421875 17.65625 -0.515625 
Q 12.796875 0.390625 7.625 2.203125 
L 7.625 11.71875 
Q 11.71875 9.328125 16.59375 8.109375 
Q 21.484375 6.890625 26.8125 6.890625 
Q 36.078125 6.890625 40.9375 10.546875 
Q 45.796875 14.203125 45.796875 21.1875 
Q 45.796875 27.640625 41.28125 31.265625 
Q 36.765625 34.90625 28.71875 34.90625 
L 20.21875 34.90625 
L 20.21875 43.015625 
L 29.109375 43.015625 
Q 36.375 43.015625 40.234375 45.921875 
Q 44.09375 48.828125 44.09375 54.296875 
Q 44.09375 59.90625 40.109375 62.90625 
Q 36.140625 65.921875 28.71875 65.921875 
Q 24.65625 65.921875 20.015625 65.03125 
Q 15.375 64.15625 9.8125 62.3125 
L 9.8125 71.09375 
Q 15.4375 72.65625 20.34375 73.4375 
Q 25.25 74.21875 29.59375 74.21875 
Q 40.828125 74.21875 47.359375 69.109375 
Q 53.90625 64.015625 53.90625 55.328125 
Q 53.90625 49.265625 50.4375 45.09375 
Q 46.96875 40.921875 40.578125 39.3125 
z
" id="DejaVuSans-51"/>
      </defs>
      <g transform="translate(34.696875 199.526388)scale(0.1 -0.1)">
       <use xlink:href="#DejaVuSans-48"/>
       <use x="63.623047" xlink:href="#DejaVuSans-46"/>
       <use x="95.410156" xlink:href="#DejaVuSans-51"/>
      </g>
     </g>
    </g>
    <g id="ytick_4">
     <g id="line2d_12">
      <g>
       <use style="stroke:#000000;stroke-width:0.8;" x="57.6" xlink:href="#meea5884897" y="145.846755"/>
      </g>
     </g>
     <g id="text_13">
      <!-- 0.4 -->
      <g transform="translate(34.696875 149.645974)scale(0.1 -0.1)">
       <use xlink:href="#DejaVuSans-48"/>
       <use x="63.623047" xlink:href="#DejaVuSans-46"/>
       <use x="95.410156" xlink:href="#DejaVuSans-52"/>
      </g>
     </g>
    </g>
    <g id="ytick_5">
     <g id="line2d_13">
      <g>
       <use style="stroke:#000000;stroke-width:0.8;" x="57.6" xlink:href="#meea5884897" y="95.966341"/>
      </g>
     </g>
     <g id="text_14">
      <!-- 0.5 -->
      <defs>
       <path d="M 10.796875 72.90625 
L 49.515625 72.90625 
L 49.515625 64.59375 
L 19.828125 64.59375 
L 19.828125 46.734375 
Q 21.96875 47.46875 24.109375 47.828125 
Q 26.265625 48.1875 28.421875 48.1875 
Q 40.625 48.1875 47.75 41.5 
Q 54.890625 34.8125 54.890625 23.390625 
Q 54.890625 11.625 47.5625 5.09375 
Q 40.234375 -1.421875 26.90625 -1.421875 
Q 22.3125 -1.421875 17.546875 -0.640625 
Q 12.796875 0.140625 7.71875 1.703125 
L 7.71875 11.625 
Q 12.109375 9.234375 16.796875 8.0625 
Q 21.484375 6.890625 26.703125 6.890625 
Q 35.15625 6.890625 40.078125 11.328125 
Q 45.015625 15.765625 45.015625 23.390625 
Q 45.015625 31 40.078125 35.4375 
Q 35.15625 39.890625 26.703125 39.890625 
Q 22.75 39.890625 18.8125 39.015625 
Q 14.890625 38.140625 10.796875 36.28125 
z
" id="DejaVuSans-53"/>
      </defs>
      <g transform="translate(34.696875 99.76556)scale(0.1 -0.1)">
       <use xlink:href="#DejaVuSans-48"/>
       <use x="63.623047" xlink:href="#DejaVuSans-46"/>
       <use x="95.410156" xlink:href="#DejaVuSans-53"/>
      </g>
     </g>
    </g>
    <g id="ytick_6">
     <g id="line2d_14">
      <g>
       <use style="stroke:#000000;stroke-width:0.8;" x="57.6" xlink:href="#meea5884897" y="46.085927"/>
      </g>
     </g>
     <g id="text_15">
      <!-- 0.6 -->
      <g transform="translate(34.696875 49.885146)scale(0.1 -0.1)">
       <use xlink:href="#DejaVuSans-48"/>
       <use x="63.623047" xlink:href="#DejaVuSans-46"/>
       <use x="95.410156" xlink:href="#DejaVuSans-54"/>
      </g>
     </g>
    </g>
    <g id="text_16">
     <!-- Accuracy -->
     <defs>
      <path d="M 34.1875 63.1875 
L 20.796875 26.90625 
L 47.609375 26.90625 
z
M 28.609375 72.90625 
L 39.796875 72.90625 
L 67.578125 0 
L 57.328125 0 
L 50.6875 18.703125 
L 17.828125 18.703125 
L 11.1875 0 
L 0.78125 0 
z
" id="DejaVuSans-65"/>
      <path d="M 48.78125 52.59375 
L 48.78125 44.1875 
Q 44.96875 46.296875 41.140625 47.34375 
Q 37.3125 48.390625 33.40625 48.390625 
Q 24.65625 48.390625 19.8125 42.84375 
Q 14.984375 37.3125 14.984375 27.296875 
Q 14.984375 17.28125 19.8125 11.734375 
Q 24.65625 6.203125 33.40625 6.203125 
Q 37.3125 6.203125 41.140625 7.25 
Q 44.96875 8.296875 48.78125 10.40625 
L 48.78125 2.09375 
Q 45.015625 0.34375 40.984375 -0.53125 
Q 36.96875 -1.421875 32.421875 -1.421875 
Q 20.0625 -1.421875 12.78125 6.34375 
Q 5.515625 14.109375 5.515625 27.296875 
Q 5.515625 40.671875 12.859375 48.328125 
Q 20.21875 56 33.015625 56 
Q 37.15625 56 41.109375 55.140625 
Q 45.0625 54.296875 48.78125 52.59375 
z
" id="DejaVuSans-99"/>
      <path d="M 8.5 21.578125 
L 8.5 54.6875 
L 17.484375 54.6875 
L 17.484375 21.921875 
Q 17.484375 14.15625 20.5 10.265625 
Q 23.53125 6.390625 29.59375 6.390625 
Q 36.859375 6.390625 41.078125 11.03125 
Q 45.3125 15.671875 45.3125 23.6875 
L 45.3125 54.6875 
L 54.296875 54.6875 
L 54.296875 0 
L 45.3125 0 
L 45.3125 8.40625 
Q 42.046875 3.421875 37.71875 1 
Q 33.40625 -1.421875 27.6875 -1.421875 
Q 18.265625 -1.421875 13.375 4.4375 
Q 8.5 10.296875 8.5 21.578125 
z
M 31.109375 56 
z
" id="DejaVuSans-117"/>
      <path d="M 41.109375 46.296875 
Q 39.59375 47.171875 37.8125 47.578125 
Q 36.03125 48 33.890625 48 
Q 26.265625 48 22.1875 43.046875 
Q 18.109375 38.09375 18.109375 28.8125 
L 18.109375 0 
L 9.078125 0 
L 9.078125 54.6875 
L 18.109375 54.6875 
L 18.109375 46.1875 
Q 20.953125 51.171875 25.484375 53.578125 
Q 30.03125 56 36.53125 56 
Q 37.453125 56 38.578125 55.875 
Q 39.703125 55.765625 41.0625 55.515625 
z
" id="DejaVuSans-114"/>
      <path d="M 34.28125 27.484375 
Q 23.390625 27.484375 19.1875 25 
Q 14.984375 22.515625 14.984375 16.5 
Q 14.984375 11.71875 18.140625 8.90625 
Q 21.296875 6.109375 26.703125 6.109375 
Q 34.1875 6.109375 38.703125 11.40625 
Q 43.21875 16.703125 43.21875 25.484375 
L 43.21875 27.484375 
z
M 52.203125 31.203125 
L 52.203125 0 
L 43.21875 0 
L 43.21875 8.296875 
Q 40.140625 3.328125 35.546875 0.953125 
Q 30.953125 -1.421875 24.3125 -1.421875 
Q 15.921875 -1.421875 10.953125 3.296875 
Q 6 8.015625 6 15.921875 
Q 6 25.140625 12.171875 29.828125 
Q 18.359375 34.515625 30.609375 34.515625 
L 43.21875 34.515625 
L 43.21875 35.40625 
Q 43.21875 41.609375 39.140625 45 
Q 35.0625 48.390625 27.6875 48.390625 
Q 23 48.390625 18.546875 47.265625 
Q 14.109375 46.140625 10.015625 43.890625 
L 10.015625 52.203125 
Q 14.9375 54.109375 19.578125 55.046875 
Q 24.21875 56 28.609375 56 
Q 40.484375 56 46.34375 49.84375 
Q 52.203125 43.703125 52.203125 31.203125 
z
" id="DejaVuSans-97"/>
      <path d="M 32.171875 -5.078125 
Q 28.375 -14.84375 24.75 -17.8125 
Q 21.140625 -20.796875 15.09375 -20.796875 
L 7.90625 -20.796875 
L 7.90625 -13.28125 
L 13.1875 -13.28125 
Q 16.890625 -13.28125 18.9375 -11.515625 
Q 21 -9.765625 23.484375 -3.21875 
L 25.09375 0.875 
L 2.984375 54.6875 
L 12.5 54.6875 
L 29.59375 11.921875 
L 46.6875 54.6875 
L 56.203125 54.6875 
z
" id="DejaVuSans-121"/>
     </defs>
     <g transform="translate(28.617187 197.442844)rotate(-90)scale(0.1 -0.1)">
      <use xlink:href="#DejaVuSans-65"/>
      <use x="68.392578" xlink:href="#DejaVuSans-99"/>
      <use x="123.373047" xlink:href="#DejaVuSans-99"/>
      <use x="178.353516" xlink:href="#DejaVuSans-117"/>
      <use x="241.732422" xlink:href="#DejaVuSans-114"/>
      <use x="282.845703" xlink:href="#DejaVuSans-97"/>
      <use x="344.125" xlink:href="#DejaVuSans-99"/>
      <use x="399.105469" xlink:href="#DejaVuSans-121"/>
     </g>
    </g>
   </g>
   <g id="line2d_15">
    <path clip-path="url(#p4852b31d9d)" d="M 73.832727 280.523875 
L 74.049308 295.488 
L 74.48247 223.161402 
L 74.915631 210.691303 
L 75.132212 215.679339 
L 75.348793 180.763053 
L 75.565373 220.667376 
L 75.781954 200.715215 
L 76.215116 245.607589 
L 76.431696 215.679339 
L 76.648277 210.691303 
L 76.864858 185.75109 
L 77.298019 233.137483 
L 77.5146 210.691303 
L 77.731181 203.209233 
L 77.947762 205.703251 
L 78.164342 248.101607 
L 78.814085 195.727178 
L 79.030665 238.125527 
L 79.247246 250.595626 
L 79.463827 195.727178 
L 79.680408 228.149438 
L 79.896988 193.233145 
L 80.113569 203.209233 
L 80.33015 183.257072 
L 80.546731 208.19727 
L 80.979892 190.739127 
L 81.196473 205.703251 
L 81.413054 188.245108 
L 81.629634 193.233145 
L 82.062796 220.667376 
L 82.279377 208.19727 
L 82.495957 170.786965 
L 82.929119 195.727178 
L 83.1457 193.233145 
L 83.36228 205.703251 
L 83.578861 205.703251 
L 83.795442 225.65542 
L 84.228603 178.269035 
L 84.445184 208.19727 
L 84.661765 175.775002 
L 84.878346 220.667376 
L 85.094926 183.257072 
L 85.311507 183.257072 
L 85.528088 185.75109 
L 85.744669 233.137483 
L 85.961249 220.667376 
L 86.17783 178.269035 
L 86.394411 205.703251 
L 86.610992 183.257072 
L 87.260734 230.643464 
L 87.477315 183.257072 
L 87.693895 188.245108 
L 87.910476 210.691303 
L 88.127057 213.185321 
L 88.343638 218.173358 
L 88.560218 170.786965 
L 88.776799 188.245108 
L 88.99338 218.173358 
L 89.209961 208.19727 
L 89.426541 160.810877 
L 89.643122 190.739127 
L 89.859703 190.739127 
L 90.076284 205.703251 
L 90.292864 180.763053 
L 90.509445 195.727178 
L 90.726026 178.269035 
L 91.159187 218.173358 
L 91.375768 190.739127 
L 91.592349 185.75109 
L 91.80893 223.161402 
L 92.458672 160.810877 
L 92.675253 210.691303 
L 93.108414 178.269035 
L 93.324995 193.233145 
L 93.541576 190.739127 
L 93.758156 225.65542 
L 93.974737 185.75109 
L 94.191318 173.280983 
L 94.407899 188.245108 
L 94.624479 178.269035 
L 95.057641 225.65542 
L 95.274222 190.739127 
L 95.490802 215.679339 
L 95.707383 198.221196 
L 95.923964 203.209233 
L 96.140545 170.786965 
L 96.357125 180.763053 
L 96.573706 173.280983 
L 96.790287 173.280983 
L 97.006868 170.786965 
L 97.223448 188.245108 
L 97.440029 173.280983 
L 97.65661 208.19727 
L 97.873191 213.185321 
L 98.089771 198.221196 
L 98.306352 165.798928 
L 98.522933 200.715215 
L 98.739514 173.280983 
L 98.956094 178.269035 
L 99.172675 173.280983 
L 99.389256 180.763053 
L 99.605837 210.691303 
L 99.822417 175.775002 
L 100.038998 193.233145 
L 100.255579 150.834804 
L 100.47216 178.269035 
L 100.68874 180.763053 
L 100.905321 155.82284 
L 101.121902 183.257072 
L 101.338483 173.280983 
L 101.555063 193.233145 
L 101.988225 143.352734 
L 102.204806 195.727178 
L 102.421386 168.292947 
L 102.637967 185.75109 
L 102.854548 135.870679 
L 103.071129 180.763053 
L 103.287709 188.245108 
L 103.50429 190.739127 
L 103.720871 175.775002 
L 103.937452 210.691303 
L 104.154032 210.691303 
L 104.370613 203.209233 
L 104.587194 168.292947 
L 104.803775 218.173358 
L 105.020355 185.75109 
L 105.236936 188.245108 
L 105.670098 175.775002 
L 105.886678 170.786965 
L 106.103259 170.786965 
L 106.31984 205.703251 
L 106.536421 190.739127 
L 106.753001 208.19727 
L 106.969582 180.763053 
L 107.186163 205.703251 
L 107.402744 190.739127 
L 107.619324 235.631501 
L 107.835905 175.775002 
L 108.052486 218.173358 
L 108.485647 208.19727 
L 108.702228 163.30491 
L 108.918809 165.798928 
L 109.35197 200.715215 
L 109.568551 188.245108 
L 109.785132 183.257072 
L 110.218293 210.691303 
L 110.434874 205.703251 
L 110.868036 170.786965 
L 111.084616 200.715215 
L 111.301197 180.763053 
L 111.517778 185.75109 
L 111.734359 195.727178 
L 111.950939 180.763053 
L 112.16752 178.269035 
L 112.384101 193.233145 
L 112.600682 170.786965 
L 113.250424 213.185321 
L 113.467005 175.775002 
L 113.683585 188.245108 
L 113.900166 210.691303 
L 114.116747 190.739127 
L 114.333328 203.209233 
L 114.549908 185.75109 
L 114.766489 203.209233 
L 114.98307 210.691303 
L 115.416231 173.280983 
L 115.632812 205.703251 
L 115.849393 178.269035 
L 116.065974 215.679339 
L 116.282554 195.727178 
L 116.499135 200.715215 
L 116.715716 190.739127 
L 116.932297 160.810877 
L 117.365458 220.667376 
L 117.582039 193.233145 
L 117.79862 190.739127 
L 118.0152 205.703251 
L 118.231781 175.775002 
L 118.448362 180.763053 
L 118.664943 228.149438 
L 118.881523 190.739127 
L 119.098104 213.185321 
L 119.314685 175.775002 
L 119.531266 160.810877 
L 119.964427 195.727178 
L 120.181008 210.691303 
L 120.397589 183.257072 
L 120.614169 178.269035 
L 120.83075 183.257072 
L 121.047331 170.786965 
L 121.480492 200.715215 
L 121.913654 180.763053 
L 122.130235 190.739127 
L 122.346815 163.30491 
L 122.779977 175.775002 
L 122.996558 158.316859 
L 123.213138 220.667376 
L 123.429719 183.257072 
L 123.6463 178.269035 
L 123.862881 213.185321 
L 124.079461 203.209233 
L 124.296042 148.340785 
L 124.512623 170.786965 
L 124.729204 168.292947 
L 125.162365 205.703251 
L 125.378946 193.233145 
L 125.595527 205.703251 
L 125.812107 210.691303 
L 126.028688 180.763053 
L 126.245269 173.280983 
L 126.46185 203.209233 
L 126.67843 158.316859 
L 126.895011 170.786965 
L 127.111592 158.316859 
L 127.328173 168.292947 
L 127.544753 153.328822 
L 127.761334 168.292947 
L 127.977915 143.352734 
L 128.411076 163.30491 
L 128.627657 190.739127 
L 128.844238 188.245108 
L 129.060819 158.316859 
L 129.277399 173.280983 
L 129.710561 135.870679 
L 129.927142 135.870679 
L 130.360303 183.257072 
L 130.576884 163.30491 
L 130.793465 175.775002 
L 131.010045 213.185321 
L 131.226626 135.870679 
L 131.443207 178.269035 
L 131.659788 178.269035 
L 131.876368 165.798928 
L 132.092949 195.727178 
L 132.30953 168.292947 
L 132.526111 180.763053 
L 132.742691 178.269035 
L 132.959272 153.328822 
L 133.175853 163.30491 
L 133.392434 185.75109 
L 133.609014 150.834804 
L 133.825595 170.786965 
L 134.042176 155.82284 
L 134.258757 128.388609 
L 134.475337 140.858716 
L 134.908499 175.775002 
L 135.12508 165.798928 
L 135.341661 170.786965 
L 135.558241 153.328822 
L 135.774822 173.280983 
L 135.991403 158.316859 
L 136.207984 165.798928 
L 136.424564 160.810877 
L 136.641145 150.834804 
L 136.857726 180.763053 
L 137.074307 180.763053 
L 137.290887 155.82284 
L 137.507468 150.834804 
L 137.94063 183.257072 
L 138.15721 185.75109 
L 138.373791 193.233145 
L 138.590372 163.30491 
L 138.806953 150.834804 
L 139.023533 155.82284 
L 139.240114 188.245108 
L 139.456695 170.786965 
L 139.673276 165.798928 
L 139.889856 183.257072 
L 140.323018 145.846767 
L 140.539599 148.340785 
L 140.756179 185.75109 
L 140.97276 120.906554 
L 141.189341 168.292947 
L 141.405922 170.786965 
L 141.622502 160.810877 
L 141.839083 160.810877 
L 142.055664 183.257072 
L 142.272245 168.292947 
L 142.488825 135.870679 
L 142.705406 158.316859 
L 142.921987 123.400572 
L 143.138568 143.352734 
L 143.355148 143.352734 
L 143.571729 133.376661 
L 143.78831 163.30491 
L 144.004891 175.775002 
L 144.438052 153.328822 
L 144.654633 185.75109 
L 144.871214 175.775002 
L 145.087794 133.376661 
L 145.520956 155.82284 
L 145.737537 145.846767 
L 145.954117 160.810877 
L 146.170698 188.245108 
L 146.387279 148.340785 
L 146.60386 140.858716 
L 146.82044 140.858716 
L 147.037021 138.364697 
L 147.253602 175.775002 
L 147.470183 178.269035 
L 147.686763 158.316859 
L 147.903344 168.292947 
L 148.119925 140.858716 
L 148.336506 175.775002 
L 148.553086 138.364697 
L 148.769667 135.870679 
L 148.986248 143.352734 
L 149.202829 170.786965 
L 149.419409 155.82284 
L 149.63599 150.834804 
L 149.852571 165.798928 
L 150.069152 150.834804 
L 150.285732 153.328822 
L 150.502313 160.810877 
L 150.718894 163.30491 
L 150.935475 170.786965 
L 151.368636 135.870679 
L 151.585217 188.245108 
L 151.801798 120.906554 
L 152.018378 158.316859 
L 152.234959 153.328822 
L 152.45154 165.798928 
L 152.668121 193.233145 
L 152.884701 138.364697 
L 153.101282 155.82284 
L 153.317863 183.257072 
L 153.534444 148.340785 
L 153.751024 150.834804 
L 153.967605 148.340785 
L 154.184186 188.245108 
L 154.400767 153.328822 
L 154.833928 130.882642 
L 155.050509 150.834804 
L 155.48367 158.316859 
L 155.700251 160.810877 
L 155.916832 120.906554 
L 156.133413 133.376661 
L 156.349993 178.269035 
L 156.783155 155.82284 
L 157.216316 145.846767 
L 157.432897 130.882642 
L 157.866059 173.280983 
L 158.29922 120.906554 
L 158.515801 153.328822 
L 158.732382 150.834804 
L 158.948962 183.257072 
L 159.382124 140.858716 
L 159.815285 125.894591 
L 160.031866 125.894591 
L 160.248447 138.364697 
L 160.465028 188.245108 
L 161.11477 135.870679 
L 161.331351 155.82284 
L 161.547931 163.30491 
L 161.764512 128.388609 
L 161.981093 173.280983 
L 162.197674 155.82284 
L 162.414254 148.340785 
L 162.630835 153.328822 
L 162.847416 145.846767 
L 163.063997 128.388609 
L 163.280577 135.870679 
L 163.497158 110.930466 
L 163.713739 150.834804 
L 163.93032 140.858716 
L 164.1469 143.352734 
L 164.363481 155.82284 
L 164.580062 130.882642 
L 164.796643 138.364697 
L 165.013223 130.882642 
L 165.229804 133.376661 
L 165.446385 165.798928 
L 165.662966 133.376661 
L 165.879546 130.882642 
L 166.096127 108.436448 
L 166.529289 155.82284 
L 166.745869 108.436448 
L 166.96245 163.30491 
L 167.179031 133.376661 
L 167.395612 150.834804 
L 167.828773 145.846767 
L 168.045354 170.786965 
L 168.478515 120.906554 
L 168.695096 145.846767 
L 168.911677 153.328822 
L 169.344838 130.882642 
L 169.561419 135.870679 
L 169.778 130.882642 
L 169.994581 158.316859 
L 170.211161 130.882642 
L 170.644323 183.257072 
L 171.077484 115.918517 
L 171.294065 153.328822 
L 171.510646 150.834804 
L 171.727227 113.424484 
L 171.943807 148.340785 
L 172.160388 160.810877 
L 172.376969 148.340785 
L 172.59355 155.82284 
L 172.81013 155.82284 
L 173.026711 130.882642 
L 173.243292 140.858716 
L 173.459873 130.882642 
L 173.676453 128.388609 
L 173.893034 130.882642 
L 174.109615 115.918517 
L 174.326196 145.846767 
L 174.759357 130.882642 
L 174.975938 158.316859 
L 175.192519 145.846767 
L 175.409099 148.340785 
L 175.62568 143.352734 
L 175.842261 145.846767 
L 176.058842 165.798928 
L 176.275422 128.388609 
L 176.492003 140.858716 
L 176.708584 140.858716 
L 176.925165 128.388609 
L 177.141745 155.82284 
L 177.358326 150.834804 
L 177.574907 150.834804 
L 177.791488 160.810877 
L 178.008068 125.894591 
L 178.224649 128.388609 
L 178.44123 163.30491 
L 178.657811 103.448411 
L 178.874391 110.930466 
L 179.090972 140.858716 
L 179.307553 135.870679 
L 179.524134 143.352734 
L 179.740714 120.906554 
L 180.173876 140.858716 
L 180.390457 163.30491 
L 180.607037 140.858716 
L 180.823618 153.328822 
L 181.040199 153.328822 
L 181.25678 128.388609 
L 181.47336 128.388609 
L 181.689941 165.798928 
L 181.906522 138.364697 
L 182.123103 135.870679 
L 182.339683 113.424484 
L 182.556264 153.328822 
L 182.772845 130.882642 
L 182.989426 123.400572 
L 183.206006 128.388609 
L 183.422587 118.412536 
L 183.639168 115.918517 
L 183.855749 130.882642 
L 184.072329 120.906554 
L 184.28891 90.978305 
L 184.722072 128.388609 
L 185.155233 103.448411 
L 185.588395 115.918517 
L 185.804975 128.388609 
L 186.021556 125.894591 
L 186.238137 125.894591 
L 186.454718 138.364697 
L 186.671298 125.894591 
L 186.887879 130.882642 
L 187.10446 78.508213 
L 187.321041 138.364697 
L 187.537621 118.412536 
L 187.754202 115.918517 
L 187.970783 105.942429 
L 188.187364 125.894591 
L 188.403944 108.436448 
L 188.620525 133.376661 
L 188.837106 118.412536 
L 189.053687 173.280983 
L 189.270267 103.448411 
L 189.486848 120.906554 
L 189.703429 123.400572 
L 189.92001 118.412536 
L 190.13659 163.30491 
L 190.353171 113.424484 
L 190.569752 103.448411 
L 190.786333 128.388609 
L 191.219494 95.966341 
L 191.436075 88.484286 
L 191.652656 143.352734 
L 192.085817 100.954393 
L 192.302398 123.400572 
L 192.518979 113.424484 
L 192.735559 140.858716 
L 193.168721 95.966341 
L 193.385302 138.364697 
L 193.601882 90.978305 
L 194.035044 138.364697 
L 194.251625 135.870679 
L 194.468205 118.412536 
L 194.684786 133.376661 
L 194.901367 115.918517 
L 195.117948 125.894591 
L 195.334528 148.340785 
L 195.551109 145.846767 
L 195.76769 108.436448 
L 195.984271 110.930466 
L 196.417432 133.376661 
L 196.634013 145.846767 
L 196.850594 113.424484 
L 197.283755 150.834804 
L 197.500336 103.448411 
L 197.716917 130.882642 
L 198.150078 110.930466 
L 198.366659 110.930466 
L 198.58324 123.400572 
L 198.79982 105.942429 
L 199.016401 123.400572 
L 199.232982 105.942429 
L 199.449563 130.882642 
L 199.882724 120.906554 
L 200.099305 155.82284 
L 200.315886 108.436448 
L 201.182209 130.882642 
L 201.398789 115.918517 
L 201.61537 118.412536 
L 201.831951 103.448411 
L 202.048532 115.918517 
L 202.265112 100.954393 
L 202.481693 105.942429 
L 202.698274 100.954393 
L 202.914855 145.846767 
L 203.131436 100.954393 
L 203.348016 133.376661 
L 203.564597 108.436448 
L 203.781178 120.906554 
L 203.997759 100.954393 
L 204.43092 115.918517 
L 204.647501 110.930466 
L 204.864082 163.30491 
L 205.080662 130.882642 
L 205.297243 133.376661 
L 205.513824 128.388609 
L 205.730405 100.954393 
L 205.946985 123.400572 
L 206.163566 118.412536 
L 206.380147 118.412536 
L 206.596728 108.436448 
L 207.029889 145.846767 
L 207.24647 133.376661 
L 207.463051 108.436448 
L 207.679631 140.858716 
L 207.896212 108.436448 
L 208.112793 125.894591 
L 208.329374 85.990268 
L 208.545954 135.870679 
L 208.762535 140.858716 
L 208.979116 150.834804 
L 209.195697 98.460374 
L 209.628858 153.328822 
L 209.845439 108.436448 
L 210.06202 98.460374 
L 210.495181 140.858716 
L 210.711762 148.340785 
L 210.928343 90.978305 
L 211.144923 113.424484 
L 211.361504 115.918517 
L 211.578085 95.966341 
L 211.794666 108.436448 
L 212.011246 108.436448 
L 212.444408 133.376661 
L 212.660989 118.412536 
L 212.877569 125.894591 
L 213.09415 98.460374 
L 213.310731 105.942429 
L 213.527312 105.942429 
L 213.743892 138.364697 
L 213.960473 105.942429 
L 214.177054 113.424484 
L 214.393635 115.918517 
L 214.610215 108.436448 
L 215.043377 138.364697 
L 215.259958 98.460374 
L 215.476538 118.412536 
L 215.693119 125.894591 
L 215.9097 115.918517 
L 216.126281 98.460374 
L 216.342861 130.882642 
L 216.559442 125.894591 
L 216.776023 85.990268 
L 216.992604 113.424484 
L 217.209184 105.942429 
L 217.425765 128.388609 
L 217.642346 103.448411 
L 217.858927 160.810877 
L 218.075507 123.400572 
L 218.292088 113.424484 
L 218.508669 133.376661 
L 218.72525 81.002231 
L 218.94183 120.906554 
L 219.158411 120.906554 
L 219.374992 140.858716 
L 219.591573 100.954393 
L 219.808153 98.460374 
L 220.024734 128.388609 
L 220.457896 113.424484 
L 220.674476 128.388609 
L 220.891057 130.882642 
L 221.107638 145.846767 
L 221.324219 110.930466 
L 221.540799 130.882642 
L 221.75738 130.882642 
L 221.973961 125.894591 
L 222.190542 113.424484 
L 222.407122 135.870679 
L 222.623703 105.942429 
L 222.840284 110.930466 
L 223.056865 128.388609 
L 223.273445 108.436448 
L 223.490026 140.858716 
L 223.706607 95.966341 
L 223.923188 100.954393 
L 224.356349 153.328822 
L 224.57293 108.436448 
L 224.789511 105.942429 
L 225.006091 93.472323 
L 225.222672 115.918517 
L 225.655834 100.954393 
L 225.872414 98.460374 
L 226.088995 105.942429 
L 226.305576 100.954393 
L 226.522157 165.798928 
L 226.738737 103.448411 
L 226.955318 155.82284 
L 227.171899 113.424484 
L 227.38848 98.460374 
L 227.60506 118.412536 
L 227.821641 118.412536 
L 228.038222 128.388609 
L 228.254803 98.460374 
L 228.471383 105.942429 
L 228.687964 138.364697 
L 229.337706 98.460374 
L 229.554287 118.412536 
L 229.770868 153.328822 
L 229.987449 123.400572 
L 230.204029 125.894591 
L 230.42061 103.448411 
L 230.637191 100.954393 
L 230.853772 130.882642 
L 231.070352 108.436448 
L 231.286933 138.364697 
L 231.936675 88.484286 
L 232.153256 103.448411 
L 232.369837 128.388609 
L 232.586418 110.930466 
L 232.802998 118.412536 
L 233.019579 110.930466 
L 233.23616 120.906554 
L 233.452741 100.954393 
L 233.669321 113.424484 
L 233.885902 110.930466 
L 234.102483 125.894591 
L 234.319064 93.472323 
L 234.535644 130.882642 
L 234.752225 125.894591 
L 234.968806 103.448411 
L 235.185387 143.352734 
L 235.401967 115.918517 
L 235.618548 130.882642 
L 235.835129 133.376661 
L 236.05171 93.472323 
L 236.26829 135.870679 
L 236.484871 100.954393 
L 236.701452 125.894591 
L 237.134613 88.484286 
L 237.351194 98.460374 
L 237.567775 123.400572 
L 237.784356 81.002231 
L 238.000936 100.954393 
L 238.217517 61.050055 
L 238.650679 135.870679 
L 239.08384 76.014195 
L 239.300421 118.412536 
L 239.517002 103.448411 
L 239.733582 123.400572 
L 239.950163 93.472323 
L 240.166744 95.966341 
L 240.383325 95.966341 
L 240.599905 58.556037 
L 240.816486 66.038092 
L 241.033067 95.966341 
L 241.249648 90.978305 
L 241.466228 98.460374 
L 241.682809 85.990268 
L 241.89939 93.472323 
L 242.115971 68.53211 
L 242.549132 90.978305 
L 242.765713 125.894591 
L 242.982294 103.448411 
L 243.198874 103.448411 
L 243.415455 93.472323 
L 243.632036 95.966341 
L 243.848617 56.062018 
L 244.065197 103.448411 
L 244.281778 81.002231 
L 244.498359 76.014195 
L 244.71494 90.978305 
L 244.93152 120.906554 
L 245.148101 103.448411 
L 245.364682 95.966341 
L 245.581263 95.966341 
L 245.797843 83.49625 
L 246.014424 120.906554 
L 246.231005 133.376661 
L 246.447586 95.966341 
L 246.664166 100.954393 
L 247.097328 120.906554 
L 247.313909 90.978305 
L 247.530489 90.978305 
L 247.74707 93.472323 
L 247.963651 113.424484 
L 248.180232 115.918517 
L 248.396812 90.978305 
L 248.613393 125.894591 
L 248.829974 85.990268 
L 249.046555 138.364697 
L 249.263135 105.942429 
L 249.479716 113.424484 
L 249.696297 130.882642 
L 249.912878 110.930466 
L 250.129458 103.448411 
L 250.346039 125.894591 
L 250.56262 115.918517 
L 250.779201 118.412536 
L 250.995781 110.930466 
L 251.212362 98.460374 
L 251.428943 113.424484 
L 251.645524 85.990268 
L 251.862104 113.424484 
L 252.078685 78.508213 
L 252.511847 100.954393 
L 252.728427 100.954393 
L 252.945008 88.484286 
L 253.161589 108.436448 
L 253.37817 95.966341 
L 253.59475 95.966341 
L 253.811331 98.460374 
L 254.027912 95.966341 
L 254.244493 85.990268 
L 254.461073 115.918517 
L 254.677654 88.484286 
L 254.894235 83.49625 
L 255.327396 130.882642 
L 255.543977 133.376661 
L 255.977139 93.472323 
L 256.193719 76.014195 
L 256.4103 98.460374 
L 256.626881 108.436448 
L 256.843462 90.978305 
L 257.060042 88.484286 
L 257.276623 95.966341 
L 257.493204 115.918517 
L 257.926365 93.472323 
L 258.142946 93.472323 
L 258.359527 115.918517 
L 258.576108 110.930466 
L 258.792688 88.484286 
L 259.009269 93.472323 
L 259.22585 133.376661 
L 259.442431 90.978305 
L 259.659011 123.400572 
L 259.875592 90.978305 
L 260.092173 150.834804 
L 260.525334 103.448411 
L 260.741915 118.412536 
L 260.958496 88.484286 
L 261.175077 120.906554 
L 261.391657 88.484286 
L 261.608238 115.918517 
L 261.824819 81.002231 
L 262.0414 103.448411 
L 262.25798 100.954393 
L 262.474561 110.930466 
L 262.691142 73.520147 
L 262.907723 90.978305 
L 263.124303 90.978305 
L 263.340884 103.448411 
L 263.557465 108.436448 
L 263.774046 100.954393 
L 263.990626 85.990268 
L 264.207207 118.412536 
L 264.423788 100.954393 
L 264.640369 118.412536 
L 264.856949 93.472323 
L 265.07353 100.954393 
L 265.290111 120.906554 
L 265.506692 115.918517 
L 265.723272 115.918517 
L 265.939853 103.448411 
L 266.156434 115.918517 
L 266.373015 100.954393 
L 266.589595 53.568 
L 266.806176 113.424484 
L 267.022757 118.412536 
L 267.239338 98.460374 
L 267.455918 95.966341 
L 267.672499 120.906554 
L 267.88908 103.448411 
L 268.322241 125.894591 
L 268.538822 98.460374 
L 268.755403 108.436448 
L 268.971984 85.990268 
L 269.188564 123.400572 
L 269.405145 100.954393 
L 269.621726 118.412536 
L 269.838307 123.400572 
L 270.054888 113.424484 
L 270.271468 120.906554 
L 270.488049 120.906554 
L 270.70463 108.436448 
L 270.921211 123.400572 
L 271.137791 81.002231 
L 271.354372 85.990268 
L 271.570953 128.388609 
L 271.787534 113.424484 
L 272.004114 120.906554 
L 272.220695 95.966341 
L 272.437276 125.894591 
L 272.653857 98.460374 
L 272.870437 125.894591 
L 273.087018 93.472323 
L 273.303599 85.990268 
L 273.52018 130.882642 
L 273.73676 73.520147 
L 273.953341 113.424484 
L 274.386503 103.448411 
L 274.603083 120.906554 
L 274.819664 118.412536 
L 275.036245 95.966341 
L 275.252826 130.882642 
L 275.469406 125.894591 
L 275.685987 95.966341 
L 275.902568 98.460374 
L 276.119149 81.002231 
L 276.335729 115.918517 
L 276.55231 93.472323 
L 276.768891 95.966341 
L 276.985472 88.484286 
L 277.202052 93.472323 
L 277.418633 88.484286 
L 277.635214 105.942429 
L 277.851795 95.966341 
L 278.068375 113.424484 
L 278.284956 90.978305 
L 278.501537 133.376661 
L 278.718118 123.400572 
L 279.151279 76.014195 
L 279.36786 108.436448 
L 279.584441 115.918517 
L 279.801021 105.942429 
L 280.234183 118.412536 
L 280.450764 100.954393 
L 280.667344 133.376661 
L 280.883925 103.448411 
L 281.100506 108.436448 
L 281.317087 130.882642 
L 281.533667 125.894591 
L 281.750248 133.376661 
L 281.966829 98.460374 
L 282.18341 108.436448 
L 282.39999 103.448411 
L 282.616571 123.400572 
L 283.049733 93.472323 
L 283.266313 105.942429 
L 283.482894 103.448411 
L 283.699475 98.460374 
L 283.916056 108.436448 
L 284.132636 138.364697 
L 284.349217 110.930466 
L 284.565798 125.894591 
L 284.782379 128.388609 
L 284.998959 100.954393 
L 285.21554 115.918517 
L 285.432121 108.436448 
L 285.648702 145.846767 
L 285.865282 98.460374 
L 286.298444 113.424484 
L 286.515025 95.966341 
L 286.731605 115.918517 
L 286.948186 123.400572 
L 287.164767 160.810877 
L 287.381348 103.448411 
L 287.597928 125.894591 
L 287.814509 90.978305 
L 288.03109 113.424484 
L 288.247671 110.930466 
L 288.464251 105.942429 
L 288.680832 128.388609 
L 288.897413 138.364697 
L 289.113994 130.882642 
L 289.330574 85.990268 
L 289.547155 93.472323 
L 289.763736 120.906554 
L 289.980317 123.400572 
L 290.413478 71.026128 
L 290.630059 93.472323 
L 290.84664 68.53211 
L 291.279801 133.376661 
L 291.496382 61.050055 
L 291.712963 73.520147 
L 291.929543 73.520147 
L 292.146124 78.508213 
L 292.362705 98.460374 
L 292.579286 81.002231 
L 292.795866 90.978305 
L 293.012447 108.436448 
L 293.229028 68.53211 
L 293.445609 85.990268 
L 293.662189 76.014195 
L 293.87877 103.448411 
L 294.095351 100.954393 
L 294.311932 105.942429 
L 294.528512 95.966341 
L 294.745093 98.460374 
L 294.961674 98.460374 
L 295.178255 81.002231 
L 295.394835 120.906554 
L 295.611416 68.53211 
L 296.044578 105.942429 
L 296.261158 93.472323 
L 296.477739 90.978305 
L 296.910901 63.544073 
L 297.127481 125.894591 
L 297.344062 103.448411 
L 297.560643 95.966341 
L 297.777224 113.424484 
L 297.993804 105.942429 
L 298.210385 83.49625 
L 298.426966 83.49625 
L 298.643547 73.520147 
L 298.860127 85.990268 
L 299.076708 66.038092 
L 299.293289 105.942429 
L 299.50987 88.484286 
L 299.72645 100.954393 
L 299.943031 105.942429 
L 300.159612 58.556037 
L 300.376193 103.448411 
L 300.592773 78.508213 
L 300.809354 113.424484 
L 301.025935 113.424484 
L 301.242516 133.376661 
L 301.459096 100.954393 
L 301.675677 105.942429 
L 301.892258 73.520147 
L 302.108839 105.942429 
L 302.325419 108.436448 
L 302.542 98.460374 
L 302.758581 76.014195 
L 303.408323 148.340785 
L 303.624904 73.520147 
L 303.841485 113.424484 
L 304.058065 73.520147 
L 304.274646 125.894591 
L 304.491227 83.49625 
L 304.924388 56.062018 
L 305.140969 105.942429 
L 305.35755 125.894591 
L 305.790711 105.942429 
L 306.007292 108.436448 
L 306.223873 100.954393 
L 306.440454 98.460374 
L 306.657034 73.520147 
L 306.873615 98.460374 
L 307.090196 93.472323 
L 307.306777 100.954393 
L 307.523357 71.026128 
L 307.739938 73.520147 
L 307.956519 100.954393 
L 308.38968 78.508213 
L 308.606261 110.930466 
L 308.822842 83.49625 
L 309.256003 125.894591 
L 309.472584 120.906554 
L 309.689165 155.82284 
L 310.122326 110.930466 
L 310.338907 103.448411 
L 310.555488 115.918517 
L 310.772069 83.49625 
L 311.20523 118.412536 
L 311.421811 115.918517 
L 311.638392 88.484286 
L 311.854972 90.978305 
L 312.071553 108.436448 
L 312.288134 115.918517 
L 312.504715 108.436448 
L 312.721295 105.942429 
L 312.937876 163.30491 
L 313.154457 103.448411 
L 313.371038 108.436448 
L 313.587618 105.942429 
L 313.804199 125.894591 
L 314.02078 90.978305 
L 314.237361 93.472323 
L 314.453941 85.990268 
L 314.670522 113.424484 
L 314.887103 118.412536 
L 315.103684 85.990268 
L 315.320264 95.966341 
L 315.536845 93.472323 
L 315.753426 108.436448 
L 316.186587 83.49625 
L 316.403168 90.978305 
L 316.619749 128.388609 
L 316.83633 138.364697 
L 317.05291 105.942429 
L 317.269491 93.472323 
L 317.486072 100.954393 
L 317.702653 83.49625 
L 317.919233 103.448411 
L 318.135814 78.508213 
L 318.568976 103.448411 
L 318.785556 93.472323 
L 319.002137 110.930466 
L 319.218718 115.918517 
L 319.435299 125.894591 
L 319.651879 103.448411 
L 320.085041 90.978305 
L 320.301622 95.966341 
L 320.518202 78.508213 
L 320.734783 115.918517 
L 320.951364 88.484286 
L 321.167945 103.448411 
L 321.384525 103.448411 
L 321.601106 125.894591 
L 322.034268 81.002231 
L 322.467429 113.424484 
L 322.68401 95.966341 
L 322.900591 125.894591 
L 323.333752 88.484286 
L 323.550333 76.014195 
L 323.766914 125.894591 
L 323.983494 78.508213 
L 324.200075 113.424484 
L 324.416656 105.942429 
L 324.633237 113.424484 
L 324.849817 108.436448 
L 325.066398 110.930466 
L 325.282979 123.400572 
L 325.49956 125.894591 
L 325.71614 113.424484 
L 325.932721 76.014195 
L 326.149302 88.484286 
L 326.365883 118.412536 
L 326.582463 90.978305 
L 326.799044 95.966341 
L 327.015625 130.882642 
L 327.232206 110.930466 
L 327.448786 130.882642 
L 327.665367 81.002231 
L 327.881948 110.930466 
L 328.098529 123.400572 
L 328.53169 88.484286 
L 328.748271 108.436448 
L 328.964852 61.050055 
L 329.181432 73.520147 
L 329.614594 103.448411 
L 329.831175 113.424484 
L 330.264336 76.014195 
L 330.480917 118.412536 
L 330.914078 88.484286 
L 331.34724 128.388609 
L 331.563821 108.436448 
L 331.780401 115.918517 
L 331.996982 103.448411 
L 332.213563 113.424484 
L 332.430144 115.918517 
L 332.646724 135.870679 
L 332.863305 130.882642 
L 333.079886 110.930466 
L 333.296467 128.388609 
L 333.513047 130.882642 
L 333.729628 123.400572 
L 333.946209 85.990268 
L 334.16279 81.002231 
L 334.37937 110.930466 
L 334.595951 90.978305 
L 334.812532 88.484286 
L 335.245693 133.376661 
L 335.462274 110.930466 
L 335.678855 100.954393 
L 335.895436 103.448411 
L 336.112016 123.400572 
L 336.328597 88.484286 
L 336.545178 81.002231 
L 336.761759 93.472323 
L 336.978339 143.352734 
L 337.411501 98.460374 
L 337.628082 90.978305 
L 337.844663 145.846767 
L 338.061243 108.436448 
L 338.277824 120.906554 
L 338.494405 78.508213 
L 338.710986 83.49625 
L 339.144147 125.894591 
L 339.793889 108.436448 
L 340.01047 98.460374 
L 340.227051 98.460374 
L 340.443632 113.424484 
L 340.660212 81.002231 
L 340.876793 113.424484 
L 341.093374 100.954393 
L 341.309955 130.882642 
L 341.743116 90.978305 
L 341.959697 115.918517 
L 342.176278 120.906554 
L 342.392858 78.508213 
L 342.609439 90.978305 
L 342.82602 93.472323 
L 343.042601 130.882642 
L 343.259181 113.424484 
L 343.475762 123.400572 
L 343.692343 85.990268 
L 343.908924 125.894591 
L 344.125504 123.400572 
L 344.342085 93.472323 
L 344.558666 108.436448 
L 344.991827 85.990268 
L 345.208408 93.472323 
L 345.424989 95.966341 
L 345.64157 78.508213 
L 346.074731 145.846767 
L 346.291312 83.49625 
L 346.507893 76.014195 
L 346.724473 63.544073 
L 346.941054 105.942429 
L 347.157635 90.978305 
L 347.374216 120.906554 
L 347.807377 81.002231 
L 348.023958 130.882642 
L 348.457119 90.978305 
L 348.6737 103.448411 
L 348.890281 76.014195 
L 349.106862 130.882642 
L 349.323442 90.978305 
L 349.540023 120.906554 
L 349.756604 88.484286 
L 349.973185 83.49625 
L 350.189765 90.978305 
L 350.406346 110.930466 
L 350.622927 118.412536 
L 350.839508 83.49625 
L 351.056088 71.026128 
L 351.272669 98.460374 
L 351.705831 88.484286 
L 351.922411 78.508213 
L 352.138992 125.894591 
L 352.572154 83.49625 
L 352.788734 100.954393 
L 353.005315 56.062018 
L 353.221896 98.460374 
L 353.438477 85.990268 
L 353.655057 115.918517 
L 353.871638 78.508213 
L 354.3048 123.400572 
L 354.52138 95.966341 
L 354.954542 125.894591 
L 355.171123 83.49625 
L 355.387703 98.460374 
L 355.820865 90.978305 
L 356.037446 135.870679 
L 356.254026 123.400572 
L 356.687188 78.508213 
L 356.903769 95.966341 
L 357.120349 138.364697 
L 357.33693 105.942429 
L 357.553511 103.448411 
L 357.986672 118.412536 
L 358.203253 143.352734 
L 358.419834 83.49625 
L 358.636415 110.930466 
L 358.852995 108.436448 
L 359.069576 98.460374 
L 359.286157 78.508213 
L 359.502738 103.448411 
L 359.719318 105.942429 
L 359.935899 81.002231 
L 360.15248 103.448411 
L 360.369061 76.014195 
L 360.585641 95.966341 
L 360.802222 98.460374 
L 361.018803 120.906554 
L 361.235384 130.882642 
L 361.451964 118.412536 
L 361.668545 98.460374 
L 362.101707 128.388609 
L 362.318287 85.990268 
L 362.534868 88.484286 
L 362.751449 120.906554 
L 362.96803 115.918517 
L 363.401191 100.954393 
L 363.617772 120.906554 
L 363.834353 71.026128 
L 364.050933 81.002231 
L 364.267514 56.062018 
L 364.484095 63.544073 
L 364.700676 83.49625 
L 364.917256 76.014195 
L 365.133837 113.424484 
L 365.566999 98.460374 
L 365.783579 138.364697 
L 366.00016 95.966341 
L 366.216741 83.49625 
L 366.433322 123.400572 
L 366.649902 140.858716 
L 366.866483 93.472323 
L 367.299645 98.460374 
L 367.516225 113.424484 
L 367.732806 95.966341 
L 367.949387 103.448411 
L 368.165968 120.906554 
L 368.382548 115.918517 
L 368.599129 115.918517 
L 368.81571 125.894591 
L 369.248871 95.966341 
L 369.465452 90.978305 
L 369.682033 123.400572 
L 369.898614 93.472323 
L 370.115194 100.954393 
L 370.331775 123.400572 
L 370.548356 90.978305 
L 370.764937 133.376661 
L 371.198098 76.014195 
L 371.414679 78.508213 
L 371.63126 143.352734 
L 371.84784 135.870679 
L 372.064421 88.484286 
L 372.281002 103.448411 
L 372.714163 90.978305 
L 372.930744 118.412536 
L 373.147325 120.906554 
L 373.580486 95.966341 
L 373.797067 118.412536 
L 374.013648 95.966341 
L 374.230229 120.906554 
L 374.446809 98.460374 
L 374.66339 88.484286 
L 374.879971 113.424484 
L 375.313132 95.966341 
L 375.529713 140.858716 
L 375.746294 118.412536 
L 375.962875 120.906554 
L 376.396036 83.49625 
L 376.612617 153.328822 
L 377.045778 83.49625 
L 377.262359 68.53211 
L 377.47894 150.834804 
L 377.912101 63.544073 
L 378.128682 108.436448 
L 378.345263 90.978305 
L 378.561844 130.882642 
L 378.778424 95.966341 
L 378.995005 98.460374 
L 379.211586 81.002231 
L 379.428167 73.520147 
L 379.861328 110.930466 
L 380.077909 100.954393 
L 380.29449 115.918517 
L 380.727651 83.49625 
L 381.160813 128.388609 
L 381.377393 105.942429 
L 381.593974 98.460374 
L 381.810555 125.894591 
L 382.460297 110.930466 
L 382.676878 100.954393 
L 382.893459 108.436448 
L 383.110039 108.436448 
L 383.32662 98.460374 
L 383.759782 113.424484 
L 384.192943 90.978305 
L 384.409524 103.448411 
L 384.626105 125.894591 
L 384.842685 123.400572 
L 385.059266 108.436448 
L 385.275847 130.882642 
L 385.492428 95.966341 
L 385.709008 128.388609 
L 386.14217 110.930466 
L 386.358751 88.484286 
L 386.575331 105.942429 
L 386.791912 88.484286 
L 387.008493 100.954393 
L 387.225074 83.49625 
L 387.441654 100.954393 
L 387.658235 90.978305 
L 388.091397 118.412536 
L 388.307977 85.990268 
L 388.524558 88.484286 
L 388.741139 113.424484 
L 388.95772 98.460374 
L 389.1743 71.026128 
L 389.390881 130.882642 
L 389.607462 100.954393 
L 389.824043 113.424484 
L 390.040623 100.954393 
L 390.257204 125.894591 
L 390.473785 85.990268 
L 390.690366 150.834804 
L 390.906946 103.448411 
L 391.123527 115.918517 
L 391.340108 100.954393 
L 391.556689 73.520147 
L 391.773269 118.412536 
L 391.98985 103.448411 
L 392.206431 113.424484 
L 392.423012 88.484286 
L 392.639592 108.436448 
L 392.856173 115.918517 
L 393.072754 90.978305 
L 393.289335 130.882642 
L 393.722496 115.918517 
L 393.939077 88.484286 
L 394.155658 105.942429 
L 394.372238 90.978305 
L 394.588819 98.460374 
L 394.8054 78.508213 
L 395.455142 135.870679 
L 395.671723 108.436448 
L 395.888304 140.858716 
L 396.321465 100.954393 
L 396.538046 123.400572 
L 396.754627 108.436448 
L 396.971207 108.436448 
L 397.404369 83.49625 
L 397.62095 105.942429 
L 397.83753 105.942429 
L 398.054111 88.484286 
L 398.487273 135.870679 
L 398.487273 135.870679 
" style="fill:none;stroke:#1f77b4;stroke-linecap:square;stroke-width:1.5;"/>
   </g>
   <g id="line2d_16">
    <path clip-path="url(#p4852b31d9d)" d="M 73.832727 290.499956 
L 74.049308 289.003544 
L 74.265889 256.58128 
L 74.69905 229.945134 
L 74.915631 222.712478 
L 75.348793 227.750396 
L 75.565373 223.111521 
L 75.781954 215.080779 
L 75.998535 227.201717 
L 76.215116 231.391668 
L 76.431696 226.104344 
L 76.648277 214.03328 
L 77.081439 210.541652 
L 77.298019 204.955055 
L 77.5146 203.408758 
L 77.947762 219.470256 
L 78.164342 221.265944 
L 78.380923 219.819417 
L 78.597504 210.392015 
L 78.814085 209.893203 
L 79.030665 214.831365 
L 79.247246 205.653377 
L 79.463827 210.042854 
L 79.680408 208.496557 
L 79.896988 205.553615 
L 80.113569 200.964614 
L 80.33015 206.900387 
L 80.546731 208.696082 
L 80.979892 204.805404 
L 81.196473 203.408758 
L 81.413054 206.251938 
L 81.629634 202.361274 
L 81.846215 193.582321 
L 82.062796 194.929093 
L 82.279377 187.846073 
L 82.495957 187.247498 
L 82.712538 194.729568 
L 82.929119 194.978967 
L 83.578861 201.114265 
L 83.795442 194.530043 
L 84.012023 193.332907 
L 84.228603 201.662936 
L 84.661765 195.128603 
L 84.878346 201.91235 
L 85.094926 196.325738 
L 85.311507 200.066766 
L 85.744669 196.026451 
L 85.961249 194.579917 
L 86.17783 194.43028 
L 86.610992 197.822146 
L 86.827572 195.677289 
L 87.044153 197.123824 
L 87.260734 194.530043 
L 87.477315 181.810537 
L 87.693895 184.603843 
L 87.910476 193.731957 
L 88.127057 210.342127 
L 88.343638 210.19249 
L 88.560218 202.959834 
L 88.776799 187.297387 
L 88.99338 188.893557 
L 89.209961 185.850852 
L 89.426541 190.938652 
L 89.643122 188.644158 
L 89.859703 195.128603 
L 90.076284 194.879204 
L 90.292864 183.257072 
L 90.509445 184.055157 
L 90.726026 187.696422 
L 90.942607 193.582321 
L 91.592349 199.168918 
L 91.80893 196.974187 
L 92.02551 197.27346 
L 92.242091 194.530043 
L 92.458672 187.147735 
L 92.675253 192.43506 
L 92.891833 192.83411 
L 93.108414 190.489728 
L 93.324995 185.202403 
L 93.541576 189.342481 
L 93.758156 189.192845 
L 93.974737 195.128603 
L 94.191318 188.644158 
L 94.624479 195.078729 
L 95.057641 202.11186 
L 95.274222 201.762699 
L 95.707383 183.50647 
L 96.140545 176.273814 
L 96.790287 183.705995 
L 97.223448 187.846073 
L 97.440029 186.898337 
L 97.65661 189.941041 
L 97.873191 191.287813 
L 98.089771 180.06473 
L 98.306352 184.354444 
L 98.522933 177.171662 
L 98.739514 175.974527 
L 98.956094 178.967358 
L 99.172675 185.252292 
L 99.389256 187.197624 
L 99.605837 182.758259 
L 99.822417 171.535177 
L 100.255579 182.209587 
L 100.68874 188.793795 
L 101.338483 179.516044 
L 101.555063 184.853242 
L 101.771644 185.75109 
L 101.988225 180.114604 
L 102.204806 180.214367 
L 102.421386 178.418671 
L 102.637967 179.466155 
L 102.854548 181.960174 
L 103.287709 194.879204 
L 103.720871 190.98854 
L 103.937452 188.644158 
L 104.154032 181.361613 
L 104.803775 205.503741 
L 105.020355 204.705641 
L 105.453517 184.853242 
L 105.670098 183.955394 
L 105.886678 182.109825 
L 106.103259 189.342481 
L 106.31984 192.185661 
L 106.536421 192.634585 
L 106.753001 193.532432 
L 107.402744 205.104691 
L 107.619324 207.698472 
L 107.835905 193.083508 
L 108.052486 193.981356 
L 108.269067 192.085898 
L 108.485647 188.245108 
L 108.702228 187.197624 
L 108.918809 187.34726 
L 109.13539 190.888778 
L 109.35197 192.484948 
L 109.568551 188.095472 
L 109.785132 180.364003 
L 110.218293 197.223586 
L 110.434874 196.176102 
L 110.651455 192.335312 
L 111.084616 198.171308 
L 111.301197 199.218807 
L 111.517778 183.855632 
L 111.734359 188.344871 
L 111.950939 189.841279 
L 112.384101 182.758259 
L 112.600682 181.31174 
L 113.033843 195.42789 
L 113.250424 192.83411 
L 113.467005 193.033635 
L 113.683585 185.252292 
L 113.900166 183.855632 
L 114.116747 179.216757 
L 114.549908 190.489728 
L 114.766489 185.651327 
L 114.98307 188.59427 
L 115.199651 186.698811 
L 115.416231 188.843683 
L 115.632812 195.826941 
L 115.849393 198.969393 
L 116.065974 198.869645 
L 116.499135 187.097862 
L 116.715716 196.874425 
L 116.932297 195.627415 
L 117.365458 199.26868 
L 117.79862 183.107435 
L 118.0152 181.611012 
L 118.231781 182.558749 
L 118.448362 185.651327 
L 118.664943 205.304216 
L 118.881523 212.43711 
L 119.098104 202.061986 
L 119.314685 183.855632 
L 119.531266 182.858021 
L 119.747846 184.304556 
L 119.964427 190.240329 
L 120.397589 179.565918 
L 120.83075 174.976916 
L 121.047331 175.276204 
L 121.263912 175.874764 
L 121.697073 190.090692 
L 121.913654 196.176102 
L 122.130235 193.881594 
L 122.346815 182.608623 
L 122.779977 184.803368 
L 123.213138 196.525263 
L 123.429719 198.171308 
L 123.862881 193.981356 
L 124.079461 188.59427 
L 124.296042 175.42584 
L 124.512623 174.877154 
L 124.729204 179.26663 
L 124.945784 178.169272 
L 125.162365 184.005283 
L 125.378946 185.052767 
L 125.595527 178.717959 
L 125.812107 176.423451 
L 126.028688 186.249888 
L 126.67843 159.46412 
L 127.111592 174.029195 
L 127.328173 171.335651 
L 127.544753 162.90586 
L 127.761334 168.392709 
L 127.977915 167.245463 
L 128.411076 199.019282 
L 128.844238 184.354444 
L 129.060819 180.713165 
L 129.277399 179.765443 
L 129.49398 173.131347 
L 129.710561 171.235889 
L 130.143722 178.867595 
L 130.360303 175.924653 
L 130.576884 180.713165 
L 130.793465 179.565918 
L 131.010045 177.770222 
L 131.226626 173.23111 
L 132.092949 189.691642 
L 132.30953 185.800964 
L 132.526111 186.449413 
L 132.959272 178.019621 
L 133.175853 176.822501 
L 133.392434 169.190795 
L 133.609014 170.487678 
L 133.825595 182.808148 
L 134.042176 168.592234 
L 134.258757 165.848802 
L 134.908499 177.570697 
L 135.12508 187.247498 
L 135.341661 185.701216 
L 135.558241 176.473339 
L 135.774822 178.468545 
L 135.991403 173.280983 
L 136.207984 172.881948 
L 136.424564 171.285778 
L 136.857726 187.147735 
L 137.290887 170.936601 
L 137.507468 180.613402 
L 137.724049 184.005283 
L 137.94063 179.316519 
L 138.15721 185.651327 
L 138.373791 183.90552 
L 138.590372 165.599403 
L 138.806953 173.82967 
L 139.240114 178.219146 
L 139.456695 179.765443 
L 139.673276 186.449413 
L 140.323018 170.288167 
L 140.539599 172.233499 
L 140.756179 178.169272 
L 140.97276 174.627755 
L 141.189341 176.772612 
L 141.405922 180.663291 
L 141.622502 177.421061 
L 141.839083 176.074289 
L 142.055664 171.385525 
L 142.272245 171.535177 
L 142.488825 176.772612 
L 142.921987 172.782186 
L 143.138568 172.183625 
L 143.355148 170.38793 
L 143.78831 185.850852 
L 144.438052 171.734702 
L 144.871214 180.413892 
L 145.087794 170.737091 
L 145.304375 168.193184 
L 145.520956 163.753834 
L 145.954117 167.943785 
L 146.170698 178.618196 
L 146.60386 166.646888 
L 146.82044 163.454546 
L 147.037021 169.440193 
L 147.253602 178.568308 
L 147.470183 181.561138 
L 147.686763 180.763053 
L 148.119925 160.411842 
L 148.336506 157.119738 
L 148.553086 159.015196 
L 148.769667 158.815671 
L 148.986248 158.167222 
L 149.202829 159.863155 
L 149.419409 156.920213 
L 149.63599 157.818061 
L 149.852571 161.110164 
L 150.069152 161.509215 
L 150.285732 164.502031 
L 150.502313 164.950954 
L 150.718894 166.14809 
L 151.152055 157.319248 
L 151.368636 160.761003 
L 151.585217 155.074644 
L 151.801798 155.623315 
L 152.018378 165.350005 
L 152.234959 169.889117 
L 152.45154 169.041158 
L 152.668121 164.053107 
L 152.884701 162.955749 
L 153.101282 159.46412 
L 153.317863 169.041158 
L 153.534444 172.682423 
L 153.751024 173.729907 
L 153.967605 166.896301 
L 154.184186 166.098201 
L 154.400767 164.053107 
L 154.617347 159.364358 
L 155.26709 164.950954 
L 155.48367 156.920213 
L 155.700251 154.077033 
L 156.133413 156.670814 
L 156.566574 164.352394 
L 156.783155 164.901081 
L 156.999736 150.086592 
L 157.216316 151.98205 
L 157.649478 160.910639 
L 157.866059 160.611367 
L 158.082639 154.077033 
L 158.29922 155.324043 
L 158.515801 164.003233 
L 158.732382 167.295336 
L 159.165543 157.069849 
L 159.382124 154.22667 
L 159.598705 156.770577 
L 159.815285 157.419011 
L 160.031866 157.568662 
L 160.248447 155.473679 
L 160.465028 165.699166 
L 160.681608 167.245463 
L 160.898189 163.30491 
L 161.11477 162.257411 
L 161.331351 159.713519 
L 161.764512 162.955749 
L 161.981093 169.939006 
L 162.197674 164.502031 
L 162.630835 147.043887 
L 162.847416 146.54509 
L 163.280577 154.077033 
L 163.497158 156.22189 
L 163.713739 165.15048 
L 163.93032 169.490082 
L 164.1469 161.010402 
L 164.363481 157.119738 
L 164.580062 160.711129 
L 165.013223 149.537906 
L 165.229804 154.476069 
L 165.446385 163.454546 
L 166.096127 145.497591 
L 166.312708 146.644852 
L 166.529289 148.739821 
L 166.745869 147.991624 
L 166.96245 153.029534 
L 167.179031 152.730262 
L 167.395612 151.632889 
L 167.612192 155.473679 
L 167.828773 161.608977 
L 168.045354 159.513994 
L 168.261935 159.164833 
L 168.478515 158.167222 
L 168.695096 155.373916 
L 168.911677 150.685167 
L 169.128258 154.775356 
L 169.344838 162.556699 
L 169.778 152.830024 
L 170.211161 147.193539 
L 171.077484 161.30969 
L 171.294065 158.266985 
L 171.727227 147.642448 
L 171.943807 157.169612 
L 172.160388 148.490422 
L 172.59355 154.62572 
L 173.026711 148.739821 
L 173.243292 151.533126 
L 173.459873 158.566272 
L 173.893034 149.188744 
L 174.109615 143.402623 
L 174.326196 143.402623 
L 174.542776 144.250582 
L 174.759357 148.590184 
L 174.975938 156.670814 
L 175.409099 144.599743 
L 175.62568 148.191134 
L 176.058842 161.010402 
L 176.492003 147.692336 
L 176.708584 153.328822 
L 176.925165 149.438143 
L 177.141745 143.352734 
L 177.358326 147.14365 
L 177.791488 145.347954 
L 178.008068 142.90381 
L 178.224649 144.699506 
L 178.657811 156.072239 
L 178.874391 155.024755 
L 179.090972 148.440548 
L 179.307553 153.328822 
L 179.524134 155.124518 
L 179.740714 155.922603 
L 180.173876 142.554649 
L 180.390457 142.804062 
L 180.607037 148.490422 
L 181.47336 155.523568 
L 181.689941 153.428585 
L 182.123103 144.998793 
L 182.339683 142.7043 
L 182.772845 151.583 
L 182.989426 147.343175 
L 183.206006 147.692336 
L 183.422587 146.096166 
L 183.639168 145.647242 
L 183.855749 147.193539 
L 184.072329 141.656801 
L 184.28891 142.754174 
L 184.505491 145.796878 
L 184.938652 138.264935 
L 185.155233 142.355138 
L 185.371814 152.580611 
L 185.588395 148.590184 
L 185.804975 140.65919 
L 186.021556 142.105725 
L 186.238137 144.749394 
L 186.454718 148.939346 
L 186.671298 145.098556 
L 186.887879 136.169966 
L 187.10446 140.110519 
L 187.321041 147.692336 
L 187.537621 143.951309 
L 187.754202 137.566612 
L 188.403944 134.723432 
L 188.837106 143.30286 
L 189.053687 141.557038 
L 189.270267 142.754174 
L 189.486848 143.053461 
L 189.703429 143.751784 
L 189.92001 142.504775 
L 190.13659 144.450107 
L 190.353171 140.160393 
L 190.569752 140.359918 
L 190.786333 142.953699 
L 191.219494 135.371866 
L 191.436075 134.324382 
L 192.302398 145.148429 
L 192.518979 142.405012 
L 192.735559 134.823195 
L 192.95214 133.825584 
L 193.168721 140.359918 
L 193.385302 139.511944 
L 193.601882 136.61889 
L 194.035044 145.298081 
L 194.468205 135.321992 
L 194.684786 147.891861 
L 194.901367 153.777746 
L 195.117948 146.195928 
L 195.334528 146.644852 
L 195.551109 145.298081 
L 195.984271 131.38144 
L 196.200851 132.97761 
L 196.417432 135.870679 
L 196.634013 131.730601 
L 196.850594 132.528687 
L 197.067174 132.578575 
L 197.283755 135.62128 
L 197.500336 141.457291 
L 197.716917 143.652021 
L 198.150078 130.78288 
L 198.58324 134.124857 
L 198.79982 133.925347 
L 199.016401 135.321992 
L 199.232982 134.62367 
L 199.449563 131.930126 
L 199.666143 131.830364 
L 199.882724 133.526297 
L 200.099305 138.364697 
L 200.315886 137.566612 
L 200.749047 147.293286 
L 201.182209 134.374271 
L 201.398789 140.858716 
L 201.61537 137.816011 
L 201.831951 130.732991 
L 202.048532 130.633229 
L 202.265112 133.476423 
L 202.481693 132.079763 
L 202.698274 129.336346 
L 203.131436 130.932516 
L 203.348016 128.039448 
L 203.564597 128.438498 
L 203.781178 134.474033 
L 203.997759 131.580965 
L 204.214339 130.683117 
L 204.43092 132.628449 
L 204.647501 137.367087 
L 205.080662 135.920553 
L 205.297243 136.569002 
L 205.513824 140.509554 
L 205.730405 138.913384 
L 205.946985 133.426534 
L 206.163566 132.428924 
L 206.380147 137.017926 
L 206.596728 137.716248 
L 206.813308 135.172356 
L 207.029889 134.823195 
L 207.24647 139.611706 
L 207.463051 148.590184 
L 207.679631 145.298081 
L 208.112793 132.179525 
L 208.329374 134.523907 
L 208.545954 145.447717 
L 208.762535 144.250582 
L 208.979116 133.027499 
L 209.195697 135.122467 
L 209.412277 149.488032 
L 209.628858 148.290897 
L 209.845439 137.367087 
L 210.06202 132.678338 
L 210.495181 147.841973 
L 210.711762 148.540296 
L 210.928343 139.861105 
L 211.144923 143.402623 
L 211.361504 151.483253 
L 211.794666 133.276898 
L 212.011246 129.436108 
L 212.227827 129.535871 
L 212.444408 131.032279 
L 212.660989 135.920553 
L 212.877569 137.716248 
L 213.09415 135.421755 
L 213.310731 130.533481 
L 213.527312 131.082152 
L 213.743892 137.117688 
L 213.960473 131.431314 
L 214.393635 135.571391 
L 214.826796 127.889811 
L 215.043377 126.243752 
L 215.259958 126.792439 
L 215.476538 127.889811 
L 215.693119 131.481202 
L 215.9097 128.887422 
L 216.126281 132.528687 
L 216.342861 129.585744 
L 216.559442 130.533481 
L 216.776023 132.029889 
L 216.992604 134.773306 
L 217.209184 134.573781 
L 217.425765 128.388609 
L 217.642346 125.495556 
L 217.858927 126.393403 
L 218.292088 124.597708 
L 218.508669 124.398183 
L 218.72525 128.039448 
L 219.374992 131.880238 
L 219.808153 124.847107 
L 220.241315 135.321992 
L 220.674476 130.333956 
L 220.891057 133.077373 
L 221.324219 130.284067 
L 221.540799 134.922942 
L 221.75738 135.172356 
L 221.973961 130.882642 
L 222.190542 130.433718 
L 222.407122 132.578575 
L 222.840284 129.685507 
L 223.056865 126.692676 
L 223.273445 126.144004 
L 223.490026 129.186709 
L 223.923188 128.13921 
L 224.139768 128.388609 
L 224.356349 128.039448 
L 224.57293 125.545429 
L 224.789511 124.69747 
L 225.222672 119.709419 
L 225.655834 127.391014 
L 225.872414 126.692676 
L 226.088995 122.602487 
L 226.522157 130.234193 
L 226.955318 132.97761 
L 227.38848 134.124857 
L 227.821641 127.590524 
L 228.254803 126.144004 
L 228.471383 123.899385 
L 228.687964 125.395793 
L 228.904545 128.238973 
L 229.121126 128.488372 
L 229.337706 124.597708 
L 229.554287 123.999133 
L 229.770868 126.243752 
L 229.987449 126.642802 
L 230.637191 123.649971 
L 230.853772 125.296031 
L 231.286933 132.029889 
L 231.503514 131.580965 
L 231.720095 130.284067 
L 231.936675 131.930126 
L 232.153256 135.571391 
L 232.802998 131.331566 
L 233.019579 127.989574 
L 233.23616 126.742565 
L 233.452741 128.039448 
L 233.669321 128.588134 
L 233.885902 127.889811 
L 234.102483 128.438498 
L 234.319064 130.184305 
L 234.535644 134.025109 
L 234.752225 132.678338 
L 234.968806 130.234193 
L 235.401967 134.873069 
L 235.835129 124.946869 
L 236.05171 129.635633 
L 236.26829 139.013146 
L 236.484871 136.21984 
L 236.701452 129.485982 
L 236.918033 129.436108 
L 237.134613 131.98 
L 237.784356 126.443277 
L 238.000936 123.649971 
L 238.217517 123.051411 
L 238.434098 124.398183 
L 238.867259 131.431314 
L 239.517002 118.213011 
L 239.950163 124.547819 
L 240.166744 123.649971 
L 240.383325 121.006317 
L 240.599905 121.555003 
L 240.816486 124.198658 
L 241.466228 125.944479 
L 241.682809 125.046632 
L 241.89939 124.69747 
L 242.115971 125.096505 
L 242.332551 127.1416 
L 242.549132 125.196268 
L 242.765713 118.761697 
L 242.982294 118.761697 
L 243.198874 120.258105 
L 243.415455 119.908944 
L 243.632036 120.956428 
L 243.848617 123.30081 
L 244.065197 122.3032 
L 244.498359 115.818755 
L 244.93152 121.305604 
L 245.148101 121.954038 
L 245.364682 123.250936 
L 245.581263 128.189099 
L 245.797843 130.583355 
L 246.447586 126.293641 
L 246.664166 121.654766 
L 246.880747 119.509909 
L 247.313909 127.740175 
L 247.530489 125.695081 
L 247.74707 120.45763 
L 248.180232 127.839938 
L 248.396812 124.996743 
L 248.613393 120.158343 
L 248.829974 118.262885 
L 249.263135 126.343515 
L 249.479716 125.994353 
L 249.696297 123.69986 
L 249.912878 124.597708 
L 250.129458 124.049021 
L 250.346039 122.3032 
L 250.56262 123.999133 
L 250.779201 128.588134 
L 250.995781 128.987184 
L 251.212362 128.388609 
L 251.645524 124.747344 
L 252.295266 132.778085 
L 252.728427 121.604877 
L 252.945008 119.360257 
L 253.161589 123.201047 
L 253.37817 119.509909 
L 253.59475 118.163137 
L 253.811331 115.22018 
L 254.244493 131.281677 
L 254.461073 130.633229 
L 254.894235 118.412536 
L 255.110816 121.405352 
L 255.327396 127.091726 
L 255.543977 127.939685 
L 255.760558 119.958832 
L 255.977139 118.512298 
L 256.4103 131.38144 
L 256.626881 132.079763 
L 257.060042 121.704639 
L 257.276623 121.305604 
L 257.493204 122.502725 
L 257.709785 124.497945 
L 257.926365 125.196268 
L 258.142946 119.908944 
L 258.792688 130.38383 
L 259.009269 130.533481 
L 259.22585 128.687897 
L 259.442431 127.839938 
L 259.659011 132.678338 
L 259.875592 133.626059 
L 260.092173 132.179525 
L 260.525334 126.443277 
L 260.741915 132.478813 
L 260.958496 132.778085 
L 261.175077 130.483592 
L 261.391657 130.034668 
L 261.824819 122.452851 
L 262.0414 123.201047 
L 262.25798 120.806792 
L 262.474561 115.768866 
L 262.691142 115.519467 
L 262.907723 121.754528 
L 263.124303 123.30081 
L 263.340884 122.502725 
L 263.557465 123.799622 
L 263.774046 132.528687 
L 263.990626 132.029889 
L 264.423788 122.003927 
L 264.640369 118.86146 
L 264.856949 118.86146 
L 265.07353 115.419705 
L 265.506692 123.30081 
L 265.723272 123.649971 
L 266.156434 126.692676 
L 266.373015 123.350699 
L 266.589595 123.400572 
L 267.022757 120.906554 
L 267.239338 122.3032 
L 267.455918 122.3032 
L 267.672499 121.804402 
L 267.88908 128.937295 
L 268.105661 130.882642 
L 268.322241 124.996743 
L 268.538822 124.448057 
L 268.971984 128.987184 
L 269.188564 126.842327 
L 269.405145 129.286457 
L 269.621726 133.027499 
L 269.838307 132.329162 
L 270.054888 128.837533 
L 270.488049 133.227009 
L 270.70463 139.511944 
L 270.921211 140.110519 
L 271.354372 127.939685 
L 271.570953 126.592913 
L 271.787534 127.391014 
L 272.004114 131.281677 
L 272.220695 126.991964 
L 272.437276 125.046632 
L 272.653857 125.794828 
L 272.870437 128.13921 
L 273.087018 126.144004 
L 273.303599 128.039448 
L 273.52018 126.592913 
L 273.73676 121.405352 
L 273.953341 121.604877 
L 274.169922 125.096505 
L 274.386503 126.393403 
L 274.603083 126.792439 
L 274.819664 123.250936 
L 275.036245 121.854276 
L 275.252826 125.894591 
L 275.469406 127.740175 
L 275.685987 122.203452 
L 275.902568 119.958832 
L 276.119149 119.908944 
L 276.335729 122.203452 
L 276.55231 123.151174 
L 276.768891 127.939685 
L 276.985472 127.54065 
L 277.418633 123.849496 
L 277.851795 125.645192 
L 278.284956 131.331566 
L 278.501537 132.329162 
L 278.934698 126.193878 
L 279.151279 115.22018 
L 279.801021 125.545429 
L 280.234183 120.607267 
L 280.450764 122.003927 
L 280.667344 127.989574 
L 280.883925 126.094116 
L 281.100506 119.310384 
L 281.533667 123.799622 
L 281.966829 122.652361 
L 282.18341 121.405352 
L 282.39999 127.241362 
L 282.616571 126.692676 
L 282.833152 124.547819 
L 283.266313 131.082152 
L 283.699475 116.816365 
L 283.916056 121.505114 
L 284.132636 129.13682 
L 284.349217 128.737785 
L 284.565798 125.645192 
L 284.998959 128.787659 
L 285.21554 139.661595 
L 285.432121 135.272119 
L 285.865282 120.85668 
L 286.081863 121.006317 
L 286.298444 124.248546 
L 286.515025 130.284067 
L 286.731605 130.533481 
L 286.948186 122.851886 
L 287.164767 128.987184 
L 287.381348 124.647582 
L 287.597928 127.939685 
L 287.814509 123.051411 
L 288.03109 122.003927 
L 288.247671 117.863849 
L 288.464251 117.2154 
L 288.680832 124.248546 
L 288.897413 125.096505 
L 289.113994 119.85907 
L 289.330574 121.305604 
L 289.547155 125.595318 
L 289.980317 122.103689 
L 290.196897 121.904164 
L 290.630059 126.094116 
L 290.84664 125.894591 
L 291.279801 130.084557 
L 291.496382 128.13921 
L 291.929543 121.255715 
L 292.146124 123.999133 
L 292.579286 122.70225 
L 292.795866 120.108469 
L 293.012447 119.060985 
L 293.229028 118.86146 
L 293.445609 122.652361 
L 293.662189 124.098895 
L 293.87877 122.851886 
L 294.095351 116.666714 
L 294.311932 115.818755 
L 294.528512 119.410146 
L 294.745093 125.994353 
L 294.961674 127.191489 
L 295.178255 124.747344 
L 295.611416 128.787659 
L 295.827997 127.640412 
L 296.69432 118.661935 
L 296.910901 118.711808 
L 297.344062 121.405352 
L 297.560643 119.011096 
L 297.777224 118.612061 
L 297.993804 122.3032 
L 298.210385 116.317553 
L 298.643547 124.248546 
L 298.860127 123.001537 
L 299.076708 126.692676 
L 299.293289 126.343515 
L 299.50987 130.683117 
L 299.72645 127.54065 
L 300.159612 129.336346 
L 300.376193 133.326772 
L 300.592773 130.234193 
L 300.809354 123.101285 
L 301.025935 125.046632 
L 301.459096 133.127262 
L 301.675677 127.191489 
L 301.892258 117.165527 
L 302.108839 126.742565 
L 302.325419 130.832754 
L 302.542 130.084557 
L 302.758581 119.908944 
L 302.975162 117.714213 
L 303.408323 125.645192 
L 303.841485 117.464799 
L 304.274646 131.531076 
L 304.707808 124.398183 
L 305.140969 125.944479 
L 305.35755 125.345904 
L 305.574131 124.248546 
L 306.007292 118.163137 
L 306.223873 122.402962 
L 306.657034 134.424145 
L 306.873615 131.580965 
L 307.090196 132.778085 
L 307.523357 125.345904 
L 307.739938 124.946869 
L 307.956519 123.051411 
L 308.1731 124.996743 
L 308.38968 121.255715 
L 308.606261 120.756918 
L 308.822842 122.053801 
L 309.256003 130.134431 
L 309.472584 130.533481 
L 309.689165 129.436108 
L 309.905746 129.485982 
L 310.122326 130.882642 
L 310.338907 128.737785 
L 310.772069 127.091726 
L 310.988649 128.488372 
L 311.20523 123.151174 
L 311.421811 123.450461 
L 311.638392 120.906554 
L 311.854972 124.797233 
L 312.071553 126.293641 
L 312.288134 120.607267 
L 312.721295 137.666374 
L 313.154457 132.827974 
L 313.804199 124.89698 
L 314.02078 120.158343 
L 314.237361 128.189099 
L 314.453941 131.331566 
L 314.887103 121.555003 
L 315.103684 120.407756 
L 315.536845 124.497945 
L 315.753426 127.091726 
L 315.970007 126.592913 
L 316.403168 121.804402 
L 316.83633 125.495556 
L 317.05291 124.348309 
L 317.269491 121.604877 
L 317.486072 121.155953 
L 317.702653 122.70225 
L 318.135814 120.05858 
L 318.352395 121.405352 
L 318.568976 127.1416 
L 318.785556 129.785269 
L 319.002137 129.585744 
L 319.218718 140.06063 
L 319.651879 128.588134 
L 319.86846 125.844717 
L 320.085041 131.181915 
L 320.301622 128.039448 
L 320.518202 121.006317 
L 320.734783 133.526297 
L 320.951364 132.827974 
L 321.384525 121.405352 
L 321.601106 119.060985 
L 321.817687 119.809181 
L 322.034268 129.13682 
L 322.250848 132.329162 
L 322.68401 121.255715 
L 322.900591 127.490761 
L 323.117171 125.595318 
L 323.333752 118.412536 
L 323.550333 116.966002 
L 323.766914 113.723772 
L 323.983494 120.607267 
L 324.200075 120.357868 
L 324.416656 118.711808 
L 324.633237 119.659545 
L 324.849817 123.500335 
L 325.066398 124.69747 
L 325.282979 122.353088 
L 325.49956 118.711808 
L 325.71614 117.414925 
L 325.932721 119.659545 
L 326.365883 126.792439 
L 326.582463 123.849496 
L 326.799044 123.899385 
L 327.015625 125.395793 
L 327.232206 122.253326 
L 327.448786 116.966002 
L 327.665367 116.716603 
L 327.881948 126.144004 
L 328.098529 126.144004 
L 328.53169 121.106079 
L 328.748271 123.69986 
L 328.964852 120.806792 
L 329.181432 119.85907 
L 329.398013 119.709419 
L 329.614594 119.958832 
L 329.831175 121.654766 
L 330.047755 120.407756 
L 330.264336 121.854276 
L 330.480917 120.707029 
L 330.697498 117.714213 
L 330.914078 116.317553 
L 331.34724 124.198658 
L 331.563821 125.296031 
L 331.780401 121.555003 
L 331.996982 120.208231 
L 332.213563 125.395793 
L 332.430144 126.443277 
L 332.646724 124.448057 
L 332.863305 124.348309 
L 333.079886 132.678338 
L 333.296467 124.098895 
L 333.513047 123.899385 
L 333.729628 124.797233 
L 334.37937 120.258105 
L 335.029113 131.032279 
L 335.245693 126.094116 
L 335.462274 116.566952 
L 335.678855 118.362647 
L 335.895436 129.535871 
L 336.112016 131.78049 
L 336.328597 126.343515 
L 336.545178 124.049021 
L 336.978339 137.367087 
L 337.411501 127.740175 
L 337.844663 130.583355 
L 338.061243 125.246157 
L 338.494405 125.545429 
L 338.710986 120.806792 
L 338.927566 123.649971 
L 339.144147 123.69986 
L 339.360728 126.343515 
L 339.577309 124.847107 
L 339.793889 128.039448 
L 340.01047 133.576186 
L 340.227051 134.22462 
L 340.660212 118.362647 
L 340.876793 118.761697 
L 341.309955 117.863849 
L 341.526535 118.213011 
L 341.743116 117.963612 
L 342.176278 128.13921 
L 342.82602 120.307994 
L 343.042601 119.559782 
L 343.475762 126.842327 
L 343.692343 123.201047 
L 343.908924 123.350699 
L 344.125504 122.353088 
L 344.558666 126.54304 
L 344.775247 126.243752 
L 344.991827 128.737785 
L 345.208408 125.744954 
L 345.424989 124.398183 
L 345.64157 120.258105 
L 345.85815 119.809181 
L 346.074731 127.939685 
L 346.291312 127.790049 
L 346.507893 120.756918 
L 346.724473 124.098895 
L 347.157635 133.426534 
L 347.590796 129.835143 
L 347.807377 131.630839 
L 348.023958 132.129651 
L 348.240539 124.996743 
L 348.457119 125.495556 
L 348.890281 131.680728 
L 349.323442 136.469239 
L 349.540023 138.414586 
L 349.756604 137.566612 
L 349.973185 139.212671 
L 350.189765 132.728212 
L 350.622927 135.721043 
L 350.839508 136.21984 
L 351.272669 128.638023 
L 351.48925 128.737785 
L 351.705831 129.386219 
L 351.922411 127.54065 
L 352.138992 128.438498 
L 352.355573 128.338735 
L 352.572154 125.894591 
L 352.788734 128.887422 
L 353.005315 128.53826 
L 353.221896 122.502725 
L 353.655057 131.132041 
L 353.871638 131.281677 
L 354.3048 144.250582 
L 354.954542 129.885032 
L 355.171123 133.476423 
L 355.604284 127.191489 
L 355.820865 127.091726 
L 356.037446 138.663985 
L 356.254026 136.020315 
L 356.687188 118.512298 
L 357.120349 138.514334 
L 357.33693 136.718638 
L 357.553511 132.478813 
L 357.770092 125.645192 
L 357.986672 134.424145 
L 358.203253 134.922942 
L 358.636415 125.096505 
L 358.852995 127.241362 
L 359.069576 138.713859 
L 359.286157 140.509554 
L 359.719318 124.547819 
L 360.15248 139.46207 
L 360.585641 123.849496 
L 360.802222 125.196268 
L 361.018803 131.830364 
L 361.235384 127.839938 
L 361.451964 125.994353 
L 361.668545 125.246157 
L 361.885126 125.645192 
L 362.101707 128.588134 
L 362.318287 125.894591 
L 362.534868 129.485982 
L 362.751449 135.371866 
L 362.96803 136.768527 
L 363.18461 129.885032 
L 363.401191 128.887422 
L 363.617772 128.638023 
L 364.267514 118.163137 
L 364.700676 122.452851 
L 364.917256 122.552613 
L 365.133837 125.794828 
L 365.350418 122.203452 
L 365.566999 122.203452 
L 365.783579 129.386219 
L 366.00016 123.749734 
L 366.216741 122.552613 
L 366.433322 122.802012 
L 366.866483 128.687897 
L 367.083064 126.343515 
L 367.299645 126.044242 
L 367.516225 124.29842 
L 367.732806 121.155953 
L 368.165968 128.039448 
L 368.382548 126.293641 
L 369.032291 135.571391 
L 369.248871 132.877848 
L 369.465452 133.027499 
L 369.682033 128.987184 
L 369.898614 122.053801 
L 370.331775 135.072594 
L 370.548356 135.870679 
L 370.764937 133.775696 
L 371.198098 119.908944 
L 371.414679 120.258105 
L 371.63126 129.785269 
L 371.84784 133.725822 
L 372.064421 131.531076 
L 372.281002 122.103689 
L 372.497583 124.547819 
L 372.930744 132.179525 
L 373.147325 130.084557 
L 373.363906 120.258105 
L 373.580486 122.003927 
L 373.797067 139.761343 
L 374.013648 139.013146 
L 374.230229 130.034668 
L 374.446809 128.488372 
L 374.66339 136.968052 
L 374.879971 137.516738 
L 375.313132 126.094116 
L 375.529713 127.790049 
L 375.746294 131.98 
L 375.962875 132.129651 
L 376.179455 125.545429 
L 376.396036 125.994353 
L 376.612617 136.718638 
L 376.829198 138.314823 
L 377.045778 124.89698 
L 377.47894 139.511944 
L 377.695521 132.877848 
L 377.912101 119.709419 
L 378.128682 126.393403 
L 378.345263 129.436108 
L 378.561844 125.545429 
L 378.995005 134.523907 
L 379.211586 130.084557 
L 379.428167 129.885032 
L 379.861328 125.395793 
L 380.077909 127.091726 
L 380.29449 130.084557 
L 380.51107 130.084557 
L 380.727651 126.094116 
L 380.944232 127.440887 
L 381.593974 120.607267 
L 381.810555 124.89698 
L 382.027136 125.096505 
L 382.243716 128.089336 
L 382.460297 129.037058 
L 382.676878 128.687897 
L 383.110039 134.22462 
L 383.32662 125.645192 
L 383.543201 124.647582 
L 383.759782 128.987184 
L 383.976362 126.493166 
L 384.409524 134.723432 
L 384.626105 135.62128 
L 384.842685 132.129651 
L 385.059266 131.680728 
L 385.275847 131.630839 
L 385.492428 127.590524 
L 385.709008 127.041837 
L 385.925589 123.999133 
L 386.14217 125.595318 
L 386.358751 126.144004 
L 386.575331 126.144004 
L 387.008493 130.184305 
L 387.225074 129.635633 
L 387.441654 128.488372 
L 387.658235 128.887422 
L 388.091397 127.091726 
L 388.307977 127.590524 
L 388.524558 125.944479 
L 388.741139 127.191489 
L 388.95772 125.196268 
L 389.1743 127.790049 
L 389.390881 132.728212 
L 389.607462 132.678338 
L 389.824043 131.38144 
L 390.040623 123.849496 
L 390.257204 121.704639 
L 390.690366 137.666374 
L 391.123527 121.555003 
L 391.773269 124.049021 
L 392.206431 126.842327 
L 392.423012 135.970441 
L 392.639592 138.963257 
L 392.856173 131.78049 
L 393.072754 130.882642 
L 393.289335 135.62128 
L 393.505915 134.424145 
L 393.722496 134.823195 
L 394.155658 129.037058 
L 394.372238 129.336346 
L 394.588819 134.025109 
L 394.8054 128.687897 
L 395.021981 132.329162 
L 395.238561 138.414586 
L 395.455142 137.566612 
L 395.671723 126.54304 
L 395.888304 128.837533 
L 396.104884 122.851886 
L 396.321465 121.455241 
L 396.538046 128.937295 
L 396.754627 131.082152 
L 396.971207 127.191489 
L 397.187788 126.343515 
L 397.404369 127.191489 
L 397.62095 133.875458 
L 398.054111 130.184305 
L 398.270692 127.091726 
L 398.487273 130.932516 
L 398.487273 130.932516 
" style="fill:none;stroke:#ff7f0e;stroke-linecap:square;stroke-width:1.5;"/>
   </g>
   <g id="patch_3">
    <path d="M 57.6 307.584 
L 57.6 41.472 
" style="fill:none;stroke:#000000;stroke-linecap:square;stroke-linejoin:miter;stroke-width:0.8;"/>
   </g>
   <g id="patch_4">
    <path d="M 414.72 307.584 
L 414.72 41.472 
" style="fill:none;stroke:#000000;stroke-linecap:square;stroke-linejoin:miter;stroke-width:0.8;"/>
   </g>
   <g id="patch_5">
    <path d="M 57.6 307.584 
L 414.72 307.584 
" style="fill:none;stroke:#000000;stroke-linecap:square;stroke-linejoin:miter;stroke-width:0.8;"/>
   </g>
   <g id="patch_6">
    <path d="M 57.6 41.472 
L 414.72 41.472 
" style="fill:none;stroke:#000000;stroke-linecap:square;stroke-linejoin:miter;stroke-width:0.8;"/>
   </g>
   <g id="text_17">
    <!-- PyTorch -->
    <defs>
     <path d="M 19.671875 64.796875 
L 19.671875 37.40625 
L 32.078125 37.40625 
Q 38.96875 37.40625 42.71875 40.96875 
Q 46.484375 44.53125 46.484375 51.125 
Q 46.484375 57.671875 42.71875 61.234375 
Q 38.96875 64.796875 32.078125 64.796875 
z
M 9.8125 72.90625 
L 32.078125 72.90625 
Q 44.34375 72.90625 50.609375 67.359375 
Q 56.890625 61.8125 56.890625 51.125 
Q 56.890625 40.328125 50.609375 34.8125 
Q 44.34375 29.296875 32.078125 29.296875 
L 19.671875 29.296875 
L 19.671875 0 
L 9.8125 0 
z
" id="DejaVuSans-80"/>
     <path d="M -0.296875 72.90625 
L 61.375 72.90625 
L 61.375 64.59375 
L 35.5 64.59375 
L 35.5 0 
L 25.59375 0 
L 25.59375 64.59375 
L -0.296875 64.59375 
z
" id="DejaVuSans-84"/>
     <path d="M 30.609375 48.390625 
Q 23.390625 48.390625 19.1875 42.75 
Q 14.984375 37.109375 14.984375 27.296875 
Q 14.984375 17.484375 19.15625 11.84375 
Q 23.34375 6.203125 30.609375 6.203125 
Q 37.796875 6.203125 41.984375 11.859375 
Q 46.1875 17.53125 46.1875 27.296875 
Q 46.1875 37.015625 41.984375 42.703125 
Q 37.796875 48.390625 30.609375 48.390625 
z
M 30.609375 56 
Q 42.328125 56 49.015625 48.375 
Q 55.71875 40.765625 55.71875 27.296875 
Q 55.71875 13.875 49.015625 6.21875 
Q 42.328125 -1.421875 30.609375 -1.421875 
Q 18.84375 -1.421875 12.171875 6.21875 
Q 5.515625 13.875 5.515625 27.296875 
Q 5.515625 40.765625 12.171875 48.375 
Q 18.84375 56 30.609375 56 
z
" id="DejaVuSans-111"/>
     <path d="M 54.890625 33.015625 
L 54.890625 0 
L 45.90625 0 
L 45.90625 32.71875 
Q 45.90625 40.484375 42.875 44.328125 
Q 39.84375 48.1875 33.796875 48.1875 
Q 26.515625 48.1875 22.3125 43.546875 
Q 18.109375 38.921875 18.109375 30.90625 
L 18.109375 0 
L 9.078125 0 
L 9.078125 75.984375 
L 18.109375 75.984375 
L 18.109375 46.1875 
Q 21.34375 51.125 25.703125 53.5625 
Q 30.078125 56 35.796875 56 
Q 45.21875 56 50.046875 50.171875 
Q 54.890625 44.34375 54.890625 33.015625 
z
" id="DejaVuSans-104"/>
    </defs>
    <g transform="translate(212.104688 35.472)scale(0.12 -0.12)">
     <use xlink:href="#DejaVuSans-80"/>
     <use x="60.302734" xlink:href="#DejaVuSans-121"/>
     <use x="119.482422" xlink:href="#DejaVuSans-84"/>
     <use x="180.300781" xlink:href="#DejaVuSans-111"/>
     <use x="241.482422" xlink:href="#DejaVuSans-114"/>
     <use x="282.564453" xlink:href="#DejaVuSans-99"/>
     <use x="337.544922" xlink:href="#DejaVuSans-104"/>
    </g>
   </g>
   <g id="legend_1">
    <g id="patch_7">
     <path d="M 64.6 78.82825 
L 122.040625 78.82825 
Q 124.040625 78.82825 124.040625 76.82825 
L 124.040625 48.472 
Q 124.040625 46.472 122.040625 46.472 
L 64.6 46.472 
Q 62.6 46.472 62.6 48.472 
L 62.6 76.82825 
Q 62.6 78.82825 64.6 78.82825 
z
" style="fill:#ffffff;opacity:0.8;stroke:#cccccc;stroke-linejoin:miter;"/>
    </g>
    <g id="line2d_17">
     <path d="M 66.6 54.570437 
L 86.6 54.570437 
" style="fill:none;stroke:#1f77b4;stroke-linecap:square;stroke-width:1.5;"/>
    </g>
    <g id="line2d_18"/>
    <g id="text_18">
     <!-- Train -->
     <defs>
      <path d="M 9.421875 54.6875 
L 18.40625 54.6875 
L 18.40625 0 
L 9.421875 0 
z
M 9.421875 75.984375 
L 18.40625 75.984375 
L 18.40625 64.59375 
L 9.421875 64.59375 
z
" id="DejaVuSans-105"/>
      <path d="M 54.890625 33.015625 
L 54.890625 0 
L 45.90625 0 
L 45.90625 32.71875 
Q 45.90625 40.484375 42.875 44.328125 
Q 39.84375 48.1875 33.796875 48.1875 
Q 26.515625 48.1875 22.3125 43.546875 
Q 18.109375 38.921875 18.109375 30.90625 
L 18.109375 0 
L 9.078125 0 
L 9.078125 54.6875 
L 18.109375 54.6875 
L 18.109375 46.1875 
Q 21.34375 51.125 25.703125 53.5625 
Q 30.078125 56 35.796875 56 
Q 45.21875 56 50.046875 50.171875 
Q 54.890625 44.34375 54.890625 33.015625 
z
" id="DejaVuSans-110"/>
     </defs>
     <g transform="translate(94.6 58.070437)scale(0.1 -0.1)">
      <use xlink:href="#DejaVuSans-84"/>
      <use x="60.865234" xlink:href="#DejaVuSans-114"/>
      <use x="101.978516" xlink:href="#DejaVuSans-97"/>
      <use x="163.257812" xlink:href="#DejaVuSans-105"/>
      <use x="191.041016" xlink:href="#DejaVuSans-110"/>
     </g>
    </g>
    <g id="line2d_19">
     <path d="M 66.6 69.248562 
L 86.6 69.248562 
" style="fill:none;stroke:#ff7f0e;stroke-linecap:square;stroke-width:1.5;"/>
    </g>
    <g id="line2d_20"/>
    <g id="text_19">
     <!-- Test -->
     <defs>
      <path d="M 44.28125 53.078125 
L 44.28125 44.578125 
Q 40.484375 46.53125 36.375 47.5 
Q 32.28125 48.484375 27.875 48.484375 
Q 21.1875 48.484375 17.84375 46.4375 
Q 14.5 44.390625 14.5 40.28125 
Q 14.5 37.15625 16.890625 35.375 
Q 19.28125 33.59375 26.515625 31.984375 
L 29.59375 31.296875 
Q 39.15625 29.25 43.1875 25.515625 
Q 47.21875 21.78125 47.21875 15.09375 
Q 47.21875 7.46875 41.1875 3.015625 
Q 35.15625 -1.421875 24.609375 -1.421875 
Q 20.21875 -1.421875 15.453125 -0.5625 
Q 10.6875 0.296875 5.421875 2 
L 5.421875 11.28125 
Q 10.40625 8.6875 15.234375 7.390625 
Q 20.0625 6.109375 24.8125 6.109375 
Q 31.15625 6.109375 34.5625 8.28125 
Q 37.984375 10.453125 37.984375 14.40625 
Q 37.984375 18.0625 35.515625 20.015625 
Q 33.0625 21.96875 24.703125 23.78125 
L 21.578125 24.515625 
Q 13.234375 26.265625 9.515625 29.90625 
Q 5.8125 33.546875 5.8125 39.890625 
Q 5.8125 47.609375 11.28125 51.796875 
Q 16.75 56 26.8125 56 
Q 31.78125 56 36.171875 55.265625 
Q 40.578125 54.546875 44.28125 53.078125 
z
" id="DejaVuSans-115"/>
     </defs>
     <g transform="translate(94.6 72.748562)scale(0.1 -0.1)">
      <use xlink:href="#DejaVuSans-84"/>
      <use x="60.818359" xlink:href="#DejaVuSans-101"/>
      <use x="122.341797" xlink:href="#DejaVuSans-115"/>
      <use x="174.441406" xlink:href="#DejaVuSans-116"/>
     </g>
    </g>
   </g>
  </g>
 </g>
 <defs>
  <clipPath id="p4852b31d9d">
   <rect height="266.112" width="357.12" x="57.6" y="41.472"/>
  </clipPath>
 </defs>
</svg>
