<?xml version="1.0" encoding="utf-8" standalone="no"?>
<!DOCTYPE svg PUBLIC "-//W3C//DTD SVG 1.1//EN"
  "http://www.w3.org/Graphics/SVG/1.1/DTD/svg11.dtd">
<!-- Created with matplotlib (https://matplotlib.org/) -->
<svg height="345.6pt" version="1.1" viewBox="0 0 460.8 345.6" width="460.8pt" xmlns="http://www.w3.org/2000/svg" xmlns:xlink="http://www.w3.org/1999/xlink">
 <defs>
  <style type="text/css">
*{stroke-linecap:butt;stroke-linejoin:round;}
  </style>
 </defs>
 <g id="figure_1">
  <g id="patch_1">
   <path d="M 0 345.6 
L 460.8 345.6 
L 460.8 0 
L 0 0 
z
" style="fill:#ffffff;"/>
  </g>
  <g id="axes_1">
   <g id="patch_2">
    <path d="M 57.6 307.584 
L 414.72 307.584 
L 414.72 41.472 
L 57.6 41.472 
z
" style="fill:#ffffff;"/>
   </g>
   <g id="matplotlib.axis_1">
    <g id="xtick_1">
     <g id="line2d_1">
      <defs>
       <path d="M 0 0 
L 0 3.5 
" id="m9887296249" style="stroke:#000000;stroke-width:0.8;"/>
      </defs>
      <g>
       <use style="stroke:#000000;stroke-width:0.8;" x="73.832727" xlink:href="#m9887296249" y="307.584"/>
      </g>
     </g>
     <g id="text_1">
      <!-- 0 -->
      <defs>
       <path d="M 31.78125 66.40625 
Q 24.171875 66.40625 20.328125 58.90625 
Q 16.5 51.421875 16.5 36.375 
Q 16.5 21.390625 20.328125 13.890625 
Q 24.171875 6.390625 31.78125 6.390625 
Q 39.453125 6.390625 43.28125 13.890625 
Q 47.125 21.390625 47.125 36.375 
Q 47.125 51.421875 43.28125 58.90625 
Q 39.453125 66.40625 31.78125 66.40625 
z
M 31.78125 74.21875 
Q 44.046875 74.21875 50.515625 64.515625 
Q 56.984375 54.828125 56.984375 36.375 
Q 56.984375 17.96875 50.515625 8.265625 
Q 44.046875 -1.421875 31.78125 -1.421875 
Q 19.53125 -1.421875 13.0625 8.265625 
Q 6.59375 17.96875 6.59375 36.375 
Q 6.59375 54.828125 13.0625 64.515625 
Q 19.53125 74.21875 31.78125 74.21875 
z
" id="DejaVuSans-48"/>
      </defs>
      <g transform="translate(70.651477 322.182437)scale(0.1 -0.1)">
       <use xlink:href="#DejaVuSans-48"/>
      </g>
     </g>
    </g>
    <g id="xtick_2">
     <g id="line2d_2">
      <g>
       <use style="stroke:#000000;stroke-width:0.8;" x="117.148877" xlink:href="#m9887296249" y="307.584"/>
      </g>
     </g>
     <g id="text_2">
      <!-- 200 -->
      <defs>
       <path d="M 19.1875 8.296875 
L 53.609375 8.296875 
L 53.609375 0 
L 7.328125 0 
L 7.328125 8.296875 
Q 12.9375 14.109375 22.625 23.890625 
Q 32.328125 33.6875 34.8125 36.53125 
Q 39.546875 41.84375 41.421875 45.53125 
Q 43.3125 49.21875 43.3125 52.78125 
Q 43.3125 58.59375 39.234375 62.25 
Q 35.15625 65.921875 28.609375 65.921875 
Q 23.96875 65.921875 18.8125 64.3125 
Q 13.671875 62.703125 7.8125 59.421875 
L 7.8125 69.390625 
Q 13.765625 71.78125 18.9375 73 
Q 24.125 74.21875 28.421875 74.21875 
Q 39.75 74.21875 46.484375 68.546875 
Q 53.21875 62.890625 53.21875 53.421875 
Q 53.21875 48.921875 51.53125 44.890625 
Q 49.859375 40.875 45.40625 35.40625 
Q 44.1875 33.984375 37.640625 27.21875 
Q 31.109375 20.453125 19.1875 8.296875 
z
" id="DejaVuSans-50"/>
      </defs>
      <g transform="translate(107.605127 322.182437)scale(0.1 -0.1)">
       <use xlink:href="#DejaVuSans-50"/>
       <use x="63.623047" xlink:href="#DejaVuSans-48"/>
       <use x="127.246094" xlink:href="#DejaVuSans-48"/>
      </g>
     </g>
    </g>
    <g id="xtick_3">
     <g id="line2d_3">
      <g>
       <use style="stroke:#000000;stroke-width:0.8;" x="160.465028" xlink:href="#m9887296249" y="307.584"/>
      </g>
     </g>
     <g id="text_3">
      <!-- 400 -->
      <defs>
       <path d="M 37.796875 64.3125 
L 12.890625 25.390625 
L 37.796875 25.390625 
z
M 35.203125 72.90625 
L 47.609375 72.90625 
L 47.609375 25.390625 
L 58.015625 25.390625 
L 58.015625 17.1875 
L 47.609375 17.1875 
L 47.609375 0 
L 37.796875 0 
L 37.796875 17.1875 
L 4.890625 17.1875 
L 4.890625 26.703125 
z
" id="DejaVuSans-52"/>
      </defs>
      <g transform="translate(150.921278 322.182437)scale(0.1 -0.1)">
       <use xlink:href="#DejaVuSans-52"/>
       <use x="63.623047" xlink:href="#DejaVuSans-48"/>
       <use x="127.246094" xlink:href="#DejaVuSans-48"/>
      </g>
     </g>
    </g>
    <g id="xtick_4">
     <g id="line2d_4">
      <g>
       <use style="stroke:#000000;stroke-width:0.8;" x="203.781178" xlink:href="#m9887296249" y="307.584"/>
      </g>
     </g>
     <g id="text_4">
      <!-- 600 -->
      <defs>
       <path d="M 33.015625 40.375 
Q 26.375 40.375 22.484375 35.828125 
Q 18.609375 31.296875 18.609375 23.390625 
Q 18.609375 15.53125 22.484375 10.953125 
Q 26.375 6.390625 33.015625 6.390625 
Q 39.65625 6.390625 43.53125 10.953125 
Q 47.40625 15.53125 47.40625 23.390625 
Q 47.40625 31.296875 43.53125 35.828125 
Q 39.65625 40.375 33.015625 40.375 
z
M 52.59375 71.296875 
L 52.59375 62.3125 
Q 48.875 64.0625 45.09375 64.984375 
Q 41.3125 65.921875 37.59375 65.921875 
Q 27.828125 65.921875 22.671875 59.328125 
Q 17.53125 52.734375 16.796875 39.40625 
Q 19.671875 43.65625 24.015625 45.921875 
Q 28.375 48.1875 33.59375 48.1875 
Q 44.578125 48.1875 50.953125 41.515625 
Q 57.328125 34.859375 57.328125 23.390625 
Q 57.328125 12.15625 50.6875 5.359375 
Q 44.046875 -1.421875 33.015625 -1.421875 
Q 20.359375 -1.421875 13.671875 8.265625 
Q 6.984375 17.96875 6.984375 36.375 
Q 6.984375 53.65625 15.1875 63.9375 
Q 23.390625 74.21875 37.203125 74.21875 
Q 40.921875 74.21875 44.703125 73.484375 
Q 48.484375 72.75 52.59375 71.296875 
z
" id="DejaVuSans-54"/>
      </defs>
      <g transform="translate(194.237428 322.182437)scale(0.1 -0.1)">
       <use xlink:href="#DejaVuSans-54"/>
       <use x="63.623047" xlink:href="#DejaVuSans-48"/>
       <use x="127.246094" xlink:href="#DejaVuSans-48"/>
      </g>
     </g>
    </g>
    <g id="xtick_5">
     <g id="line2d_5">
      <g>
       <use style="stroke:#000000;stroke-width:0.8;" x="247.097328" xlink:href="#m9887296249" y="307.584"/>
      </g>
     </g>
     <g id="text_5">
      <!-- 800 -->
      <defs>
       <path d="M 31.78125 34.625 
Q 24.75 34.625 20.71875 30.859375 
Q 16.703125 27.09375 16.703125 20.515625 
Q 16.703125 13.921875 20.71875 10.15625 
Q 24.75 6.390625 31.78125 6.390625 
Q 38.8125 6.390625 42.859375 10.171875 
Q 46.921875 13.96875 46.921875 20.515625 
Q 46.921875 27.09375 42.890625 30.859375 
Q 38.875 34.625 31.78125 34.625 
z
M 21.921875 38.8125 
Q 15.578125 40.375 12.03125 44.71875 
Q 8.5 49.078125 8.5 55.328125 
Q 8.5 64.0625 14.71875 69.140625 
Q 20.953125 74.21875 31.78125 74.21875 
Q 42.671875 74.21875 48.875 69.140625 
Q 55.078125 64.0625 55.078125 55.328125 
Q 55.078125 49.078125 51.53125 44.71875 
Q 48 40.375 41.703125 38.8125 
Q 48.828125 37.15625 52.796875 32.3125 
Q 56.78125 27.484375 56.78125 20.515625 
Q 56.78125 9.90625 50.3125 4.234375 
Q 43.84375 -1.421875 31.78125 -1.421875 
Q 19.734375 -1.421875 13.25 4.234375 
Q 6.78125 9.90625 6.78125 20.515625 
Q 6.78125 27.484375 10.78125 32.3125 
Q 14.796875 37.15625 21.921875 38.8125 
z
M 18.3125 54.390625 
Q 18.3125 48.734375 21.84375 45.5625 
Q 25.390625 42.390625 31.78125 42.390625 
Q 38.140625 42.390625 41.71875 45.5625 
Q 45.3125 48.734375 45.3125 54.390625 
Q 45.3125 60.0625 41.71875 63.234375 
Q 38.140625 66.40625 31.78125 66.40625 
Q 25.390625 66.40625 21.84375 63.234375 
Q 18.3125 60.0625 18.3125 54.390625 
z
" id="DejaVuSans-56"/>
      </defs>
      <g transform="translate(237.553578 322.182437)scale(0.1 -0.1)">
       <use xlink:href="#DejaVuSans-56"/>
       <use x="63.623047" xlink:href="#DejaVuSans-48"/>
       <use x="127.246094" xlink:href="#DejaVuSans-48"/>
      </g>
     </g>
    </g>
    <g id="xtick_6">
     <g id="line2d_6">
      <g>
       <use style="stroke:#000000;stroke-width:0.8;" x="290.413478" xlink:href="#m9887296249" y="307.584"/>
      </g>
     </g>
     <g id="text_6">
      <!-- 1000 -->
      <defs>
       <path d="M 12.40625 8.296875 
L 28.515625 8.296875 
L 28.515625 63.921875 
L 10.984375 60.40625 
L 10.984375 69.390625 
L 28.421875 72.90625 
L 38.28125 72.90625 
L 38.28125 8.296875 
L 54.390625 8.296875 
L 54.390625 0 
L 12.40625 0 
z
" id="DejaVuSans-49"/>
      </defs>
      <g transform="translate(277.688478 322.182437)scale(0.1 -0.1)">
       <use xlink:href="#DejaVuSans-49"/>
       <use x="63.623047" xlink:href="#DejaVuSans-48"/>
       <use x="127.246094" xlink:href="#DejaVuSans-48"/>
       <use x="190.869141" xlink:href="#DejaVuSans-48"/>
      </g>
     </g>
    </g>
    <g id="xtick_7">
     <g id="line2d_7">
      <g>
       <use style="stroke:#000000;stroke-width:0.8;" x="333.729628" xlink:href="#m9887296249" y="307.584"/>
      </g>
     </g>
     <g id="text_7">
      <!-- 1200 -->
      <g transform="translate(321.004628 322.182437)scale(0.1 -0.1)">
       <use xlink:href="#DejaVuSans-49"/>
       <use x="63.623047" xlink:href="#DejaVuSans-50"/>
       <use x="127.246094" xlink:href="#DejaVuSans-48"/>
       <use x="190.869141" xlink:href="#DejaVuSans-48"/>
      </g>
     </g>
    </g>
    <g id="xtick_8">
     <g id="line2d_8">
      <g>
       <use style="stroke:#000000;stroke-width:0.8;" x="377.045778" xlink:href="#m9887296249" y="307.584"/>
      </g>
     </g>
     <g id="text_8">
      <!-- 1400 -->
      <g transform="translate(364.320778 322.182437)scale(0.1 -0.1)">
       <use xlink:href="#DejaVuSans-49"/>
       <use x="63.623047" xlink:href="#DejaVuSans-52"/>
       <use x="127.246094" xlink:href="#DejaVuSans-48"/>
       <use x="190.869141" xlink:href="#DejaVuSans-48"/>
      </g>
     </g>
    </g>
    <g id="text_9">
     <!-- Step -->
     <defs>
      <path d="M 53.515625 70.515625 
L 53.515625 60.890625 
Q 47.90625 63.578125 42.921875 64.890625 
Q 37.9375 66.21875 33.296875 66.21875 
Q 25.25 66.21875 20.875 63.09375 
Q 16.5 59.96875 16.5 54.203125 
Q 16.5 49.359375 19.40625 46.890625 
Q 22.3125 44.4375 30.421875 42.921875 
L 36.375 41.703125 
Q 47.40625 39.59375 52.65625 34.296875 
Q 57.90625 29 57.90625 20.125 
Q 57.90625 9.515625 50.796875 4.046875 
Q 43.703125 -1.421875 29.984375 -1.421875 
Q 24.8125 -1.421875 18.96875 -0.25 
Q 13.140625 0.921875 6.890625 3.21875 
L 6.890625 13.375 
Q 12.890625 10.015625 18.65625 8.296875 
Q 24.421875 6.59375 29.984375 6.59375 
Q 38.421875 6.59375 43.015625 9.90625 
Q 47.609375 13.234375 47.609375 19.390625 
Q 47.609375 24.75 44.3125 27.78125 
Q 41.015625 30.8125 33.5 32.328125 
L 27.484375 33.5 
Q 16.453125 35.6875 11.515625 40.375 
Q 6.59375 45.0625 6.59375 53.421875 
Q 6.59375 63.09375 13.40625 68.65625 
Q 20.21875 74.21875 32.171875 74.21875 
Q 37.3125 74.21875 42.625 73.28125 
Q 47.953125 72.359375 53.515625 70.515625 
z
" id="DejaVuSans-83"/>
      <path d="M 18.3125 70.21875 
L 18.3125 54.6875 
L 36.8125 54.6875 
L 36.8125 47.703125 
L 18.3125 47.703125 
L 18.3125 18.015625 
Q 18.3125 11.328125 20.140625 9.421875 
Q 21.96875 7.515625 27.59375 7.515625 
L 36.8125 7.515625 
L 36.8125 0 
L 27.59375 0 
Q 17.1875 0 13.234375 3.875 
Q 9.28125 7.765625 9.28125 18.015625 
L 9.28125 47.703125 
L 2.6875 47.703125 
L 2.6875 54.6875 
L 9.28125 54.6875 
L 9.28125 70.21875 
z
" id="DejaVuSans-116"/>
      <path d="M 56.203125 29.59375 
L 56.203125 25.203125 
L 14.890625 25.203125 
Q 15.484375 15.921875 20.484375 11.0625 
Q 25.484375 6.203125 34.421875 6.203125 
Q 39.59375 6.203125 44.453125 7.46875 
Q 49.3125 8.734375 54.109375 11.28125 
L 54.109375 2.78125 
Q 49.265625 0.734375 44.1875 -0.34375 
Q 39.109375 -1.421875 33.890625 -1.421875 
Q 20.796875 -1.421875 13.15625 6.1875 
Q 5.515625 13.8125 5.515625 26.8125 
Q 5.515625 40.234375 12.765625 48.109375 
Q 20.015625 56 32.328125 56 
Q 43.359375 56 49.78125 48.890625 
Q 56.203125 41.796875 56.203125 29.59375 
z
M 47.21875 32.234375 
Q 47.125 39.59375 43.09375 43.984375 
Q 39.0625 48.390625 32.421875 48.390625 
Q 24.90625 48.390625 20.390625 44.140625 
Q 15.875 39.890625 15.1875 32.171875 
z
" id="DejaVuSans-101"/>
      <path d="M 18.109375 8.203125 
L 18.109375 -20.796875 
L 9.078125 -20.796875 
L 9.078125 54.6875 
L 18.109375 54.6875 
L 18.109375 46.390625 
Q 20.953125 51.265625 25.265625 53.625 
Q 29.59375 56 35.59375 56 
Q 45.5625 56 51.78125 48.09375 
Q 58.015625 40.1875 58.015625 27.296875 
Q 58.015625 14.40625 51.78125 6.484375 
Q 45.5625 -1.421875 35.59375 -1.421875 
Q 29.59375 -1.421875 25.265625 0.953125 
Q 20.953125 3.328125 18.109375 8.203125 
z
M 48.6875 27.296875 
Q 48.6875 37.203125 44.609375 42.84375 
Q 40.53125 48.484375 33.40625 48.484375 
Q 26.265625 48.484375 22.1875 42.84375 
Q 18.109375 37.203125 18.109375 27.296875 
Q 18.109375 17.390625 22.1875 11.75 
Q 26.265625 6.109375 33.40625 6.109375 
Q 40.53125 6.109375 44.609375 11.75 
Q 48.6875 17.390625 48.6875 27.296875 
z
" id="DejaVuSans-112"/>
     </defs>
     <g transform="translate(224.774844 335.860562)scale(0.1 -0.1)">
      <use xlink:href="#DejaVuSans-83"/>
      <use x="63.476562" xlink:href="#DejaVuSans-116"/>
      <use x="102.685547" xlink:href="#DejaVuSans-101"/>
      <use x="164.208984" xlink:href="#DejaVuSans-112"/>
     </g>
    </g>
   </g>
   <g id="matplotlib.axis_2">
    <g id="ytick_1">
     <g id="line2d_9">
      <defs>
       <path d="M 0 0 
L -3.5 0 
" id="m1bd425e2a6" style="stroke:#000000;stroke-width:0.8;"/>
      </defs>
      <g>
       <use style="stroke:#000000;stroke-width:0.8;" x="57.6" xlink:href="#m1bd425e2a6" y="297.347874"/>
      </g>
     </g>
     <g id="text_10">
      <!-- 0 -->
      <g transform="translate(44.2375 301.147093)scale(0.1 -0.1)">
       <use xlink:href="#DejaVuSans-48"/>
      </g>
     </g>
    </g>
    <g id="ytick_2">
     <g id="line2d_10">
      <g>
       <use style="stroke:#000000;stroke-width:0.8;" x="57.6" xlink:href="#m1bd425e2a6" y="265.434893"/>
      </g>
     </g>
     <g id="text_11">
      <!-- 20 -->
      <g transform="translate(37.875 269.234112)scale(0.1 -0.1)">
       <use xlink:href="#DejaVuSans-50"/>
       <use x="63.623047" xlink:href="#DejaVuSans-48"/>
      </g>
     </g>
    </g>
    <g id="ytick_3">
     <g id="line2d_11">
      <g>
       <use style="stroke:#000000;stroke-width:0.8;" x="57.6" xlink:href="#m1bd425e2a6" y="233.521912"/>
      </g>
     </g>
     <g id="text_12">
      <!-- 40 -->
      <g transform="translate(37.875 237.321131)scale(0.1 -0.1)">
       <use xlink:href="#DejaVuSans-52"/>
       <use x="63.623047" xlink:href="#DejaVuSans-48"/>
      </g>
     </g>
    </g>
    <g id="ytick_4">
     <g id="line2d_12">
      <g>
       <use style="stroke:#000000;stroke-width:0.8;" x="57.6" xlink:href="#m1bd425e2a6" y="201.608931"/>
      </g>
     </g>
     <g id="text_13">
      <!-- 60 -->
      <g transform="translate(37.875 205.40815)scale(0.1 -0.1)">
       <use xlink:href="#DejaVuSans-54"/>
       <use x="63.623047" xlink:href="#DejaVuSans-48"/>
      </g>
     </g>
    </g>
    <g id="ytick_5">
     <g id="line2d_13">
      <g>
       <use style="stroke:#000000;stroke-width:0.8;" x="57.6" xlink:href="#m1bd425e2a6" y="169.695951"/>
      </g>
     </g>
     <g id="text_14">
      <!-- 80 -->
      <g transform="translate(37.875 173.495169)scale(0.1 -0.1)">
       <use xlink:href="#DejaVuSans-56"/>
       <use x="63.623047" xlink:href="#DejaVuSans-48"/>
      </g>
     </g>
    </g>
    <g id="ytick_6">
     <g id="line2d_14">
      <g>
       <use style="stroke:#000000;stroke-width:0.8;" x="57.6" xlink:href="#m1bd425e2a6" y="137.78297"/>
      </g>
     </g>
     <g id="text_15">
      <!-- 100 -->
      <g transform="translate(31.5125 141.582189)scale(0.1 -0.1)">
       <use xlink:href="#DejaVuSans-49"/>
       <use x="63.623047" xlink:href="#DejaVuSans-48"/>
       <use x="127.246094" xlink:href="#DejaVuSans-48"/>
      </g>
     </g>
    </g>
    <g id="ytick_7">
     <g id="line2d_15">
      <g>
       <use style="stroke:#000000;stroke-width:0.8;" x="57.6" xlink:href="#m1bd425e2a6" y="105.869989"/>
      </g>
     </g>
     <g id="text_16">
      <!-- 120 -->
      <g transform="translate(31.5125 109.669208)scale(0.1 -0.1)">
       <use xlink:href="#DejaVuSans-49"/>
       <use x="63.623047" xlink:href="#DejaVuSans-50"/>
       <use x="127.246094" xlink:href="#DejaVuSans-48"/>
      </g>
     </g>
    </g>
    <g id="ytick_8">
     <g id="line2d_16">
      <g>
       <use style="stroke:#000000;stroke-width:0.8;" x="57.6" xlink:href="#m1bd425e2a6" y="73.957008"/>
      </g>
     </g>
     <g id="text_17">
      <!-- 140 -->
      <g transform="translate(31.5125 77.756227)scale(0.1 -0.1)">
       <use xlink:href="#DejaVuSans-49"/>
       <use x="63.623047" xlink:href="#DejaVuSans-52"/>
       <use x="127.246094" xlink:href="#DejaVuSans-48"/>
      </g>
     </g>
    </g>
    <g id="ytick_9">
     <g id="line2d_17">
      <g>
       <use style="stroke:#000000;stroke-width:0.8;" x="57.6" xlink:href="#m1bd425e2a6" y="42.044028"/>
      </g>
     </g>
     <g id="text_18">
      <!-- 160 -->
      <g transform="translate(31.5125 45.843246)scale(0.1 -0.1)">
       <use xlink:href="#DejaVuSans-49"/>
       <use x="63.623047" xlink:href="#DejaVuSans-54"/>
       <use x="127.246094" xlink:href="#DejaVuSans-48"/>
      </g>
     </g>
    </g>
    <g id="text_19">
     <!-- Loss -->
     <defs>
      <path d="M 9.8125 72.90625 
L 19.671875 72.90625 
L 19.671875 8.296875 
L 55.171875 8.296875 
L 55.171875 0 
L 9.8125 0 
z
" id="DejaVuSans-76"/>
      <path d="M 30.609375 48.390625 
Q 23.390625 48.390625 19.1875 42.75 
Q 14.984375 37.109375 14.984375 27.296875 
Q 14.984375 17.484375 19.15625 11.84375 
Q 23.34375 6.203125 30.609375 6.203125 
Q 37.796875 6.203125 41.984375 11.859375 
Q 46.1875 17.53125 46.1875 27.296875 
Q 46.1875 37.015625 41.984375 42.703125 
Q 37.796875 48.390625 30.609375 48.390625 
z
M 30.609375 56 
Q 42.328125 56 49.015625 48.375 
Q 55.71875 40.765625 55.71875 27.296875 
Q 55.71875 13.875 49.015625 6.21875 
Q 42.328125 -1.421875 30.609375 -1.421875 
Q 18.84375 -1.421875 12.171875 6.21875 
Q 5.515625 13.875 5.515625 27.296875 
Q 5.515625 40.765625 12.171875 48.375 
Q 18.84375 56 30.609375 56 
z
" id="DejaVuSans-111"/>
      <path d="M 44.28125 53.078125 
L 44.28125 44.578125 
Q 40.484375 46.53125 36.375 47.5 
Q 32.28125 48.484375 27.875 48.484375 
Q 21.1875 48.484375 17.84375 46.4375 
Q 14.5 44.390625 14.5 40.28125 
Q 14.5 37.15625 16.890625 35.375 
Q 19.28125 33.59375 26.515625 31.984375 
L 29.59375 31.296875 
Q 39.15625 29.25 43.1875 25.515625 
Q 47.21875 21.78125 47.21875 15.09375 
Q 47.21875 7.46875 41.1875 3.015625 
Q 35.15625 -1.421875 24.609375 -1.421875 
Q 20.21875 -1.421875 15.453125 -0.5625 
Q 10.6875 0.296875 5.421875 2 
L 5.421875 11.28125 
Q 10.40625 8.6875 15.234375 7.390625 
Q 20.0625 6.109375 24.8125 6.109375 
Q 31.15625 6.109375 34.5625 8.28125 
Q 37.984375 10.453125 37.984375 14.40625 
Q 37.984375 18.0625 35.515625 20.015625 
Q 33.0625 21.96875 24.703125 23.78125 
L 21.578125 24.515625 
Q 13.234375 26.265625 9.515625 29.90625 
Q 5.8125 33.546875 5.8125 39.890625 
Q 5.8125 47.609375 11.28125 51.796875 
Q 16.75 56 26.8125 56 
Q 31.78125 56 36.171875 55.265625 
Q 40.578125 54.546875 44.28125 53.078125 
z
" id="DejaVuSans-115"/>
     </defs>
     <g transform="translate(25.432812 185.581906)rotate(-90)scale(0.1 -0.1)">
      <use xlink:href="#DejaVuSans-76"/>
      <use x="55.697266" xlink:href="#DejaVuSans-111"/>
      <use x="116.878906" xlink:href="#DejaVuSans-115"/>
      <use x="168.978516" xlink:href="#DejaVuSans-115"/>
     </g>
    </g>
   </g>
   <g id="line2d_18">
    <path clip-path="url(#p54fba74291)" d="M 73.832727 262.873579 
L 74.049308 70.057315 
L 74.265889 84.915677 
L 74.48247 87.726494 
L 74.69905 138.710872 
L 75.565373 183.934542 
L 75.998535 193.391263 
L 76.215116 187.45188 
L 76.648277 214.585249 
L 76.864858 211.092192 
L 77.081439 195.496071 
L 77.298019 195.388868 
L 77.5146 222.713068 
L 77.731181 217.14103 
L 77.947762 217.849717 
L 78.164342 216.441089 
L 78.380923 218.081002 
L 78.597504 223.756487 
L 78.814085 234.732332 
L 79.030665 225.414466 
L 79.247246 223.437776 
L 79.463827 232.061338 
L 79.680408 215.875182 
L 79.896988 228.62506 
L 80.113569 223.740101 
L 80.33015 240.505305 
L 80.546731 228.294936 
L 80.979892 245.599045 
L 81.196473 244.084091 
L 81.413054 232.421124 
L 81.629634 238.438931 
L 82.062796 235.70266 
L 82.279377 245.881558 
L 82.495957 246.072541 
L 82.712538 238.028575 
L 82.929119 247.021823 
L 83.1457 245.479273 
L 83.36228 241.190321 
L 83.578861 252.039376 
L 83.795442 245.868014 
L 84.012023 245.725404 
L 84.228603 255.590335 
L 84.445184 247.85763 
L 84.661765 251.752518 
L 84.878346 241.339213 
L 85.311507 255.183558 
L 85.744669 243.785448 
L 85.961249 247.746133 
L 86.17783 257.91009 
L 86.394411 249.927203 
L 86.610992 250.037233 
L 86.827572 257.377168 
L 87.044153 255.247383 
L 87.260734 246.106707 
L 87.477315 256.02107 
L 87.693895 259.147557 
L 87.910476 256.486442 
L 88.127057 247.74091 
L 88.776799 267.275979 
L 88.99338 252.809374 
L 89.209961 249.041916 
L 89.643122 262.381168 
L 89.859703 261.983562 
L 90.076284 257.081748 
L 90.292864 260.657031 
L 90.509445 257.669392 
L 90.726026 260.913332 
L 90.942607 253.115443 
L 91.159187 259.302567 
L 91.375768 262.279675 
L 91.592349 262.290479 
L 91.80893 254.536303 
L 92.02551 258.013738 
L 92.242091 252.717532 
L 92.458672 268.238707 
L 92.675253 254.785723 
L 92.891833 257.555082 
L 93.108414 258.063848 
L 93.324995 261.970502 
L 93.541576 262.343643 
L 93.758156 253.966859 
L 94.191318 262.623242 
L 94.407899 263.374681 
L 94.624479 264.985943 
L 94.84106 261.721417 
L 95.057641 256.316985 
L 95.274222 262.849727 
L 95.490802 263.95656 
L 95.707383 261.215801 
L 95.923964 261.235464 
L 96.140545 272.173822 
L 96.573706 265.461088 
L 96.790287 266.074038 
L 97.006868 268.158524 
L 97.440029 266.845427 
L 97.65661 261.96006 
L 97.873191 265.081739 
L 98.089771 273.126348 
L 98.306352 267.029343 
L 98.522933 268.348409 
L 98.739514 266.299205 
L 98.956094 271.28045 
L 99.172675 263.817203 
L 99.822417 273.008221 
L 100.038998 267.234989 
L 100.255579 270.354307 
L 100.47216 269.425486 
L 100.68874 272.950458 
L 100.905321 274.511768 
L 101.121902 271.529681 
L 101.338483 273.295192 
L 101.555063 265.207754 
L 101.988225 277.637756 
L 102.204806 271.518871 
L 102.421386 274.448456 
L 102.637967 271.517258 
L 102.854548 273.644811 
L 103.071129 271.39293 
L 103.287709 271.488674 
L 103.50429 274.751198 
L 103.720871 274.851801 
L 103.937452 269.021037 
L 104.154032 268.564117 
L 104.370613 273.00468 
L 104.587194 273.521893 
L 104.803775 267.986949 
L 105.020355 274.895411 
L 105.236936 269.937584 
L 105.670098 275.591756 
L 105.886678 274.379971 
L 106.103259 270.067744 
L 106.31984 271.181823 
L 106.536421 274.058431 
L 106.753001 273.442342 
L 106.969582 268.905711 
L 107.186163 278.555233 
L 107.619324 269.970438 
L 107.835905 274.835753 
L 108.052486 275.396105 
L 108.485647 270.528864 
L 108.702228 274.811918 
L 108.918809 276.854257 
L 109.13539 273.955916 
L 109.35197 274.035959 
L 109.568551 274.962041 
L 109.785132 277.311631 
L 110.001713 273.042478 
L 110.218293 273.036206 
L 110.434874 272.559396 
L 110.651455 279.081821 
L 110.868036 277.281894 
L 111.084616 269.332812 
L 111.517778 278.199781 
L 111.734359 280.563033 
L 111.950939 275.008716 
L 112.16752 274.788007 
L 112.384101 278.671818 
L 112.600682 280.206767 
L 112.817262 275.665366 
L 113.250424 279.599023 
L 113.467005 279.108043 
L 113.900166 275.798874 
L 114.116747 277.981967 
L 114.333328 277.081915 
L 114.549908 274.045204 
L 114.766489 278.806108 
L 114.98307 276.298423 
L 115.199651 276.437597 
L 115.416231 276.278357 
L 115.632812 272.412969 
L 115.849393 274.149903 
L 116.282554 270.022722 
L 116.499135 275.530491 
L 116.715716 273.542325 
L 116.932297 280.274589 
L 117.365458 273.673156 
L 117.582039 276.249128 
L 117.79862 276.968101 
L 118.0152 276.722688 
L 118.231781 275.093843 
L 118.448362 276.732563 
L 118.664943 273.87864 
L 118.881523 276.811802 
L 119.098104 273.056529 
L 119.314685 280.99094 
L 119.531266 284.764688 
L 119.964427 276.973243 
L 120.181008 278.335174 
L 120.397589 278.825735 
L 120.614169 282.646501 
L 120.83075 282.407263 
L 121.047331 284.39563 
L 121.263912 281.34135 
L 121.480492 280.278482 
L 121.697073 280.226299 
L 121.913654 283.966959 
L 122.130235 279.714564 
L 122.346815 283.41966 
L 122.563396 284.264139 
L 122.779977 280.419475 
L 122.996558 282.135054 
L 123.213138 281.21941 
L 123.6463 284.318251 
L 123.862881 278.902844 
L 124.079461 280.040868 
L 124.296042 285.372693 
L 124.512623 284.980877 
L 124.729204 279.359193 
L 125.378946 284.628525 
L 125.595527 281.82191 
L 125.812107 276.024621 
L 126.028688 283.379483 
L 126.245269 286.002648 
L 126.46185 281.971054 
L 126.67843 285.551612 
L 126.895011 285.122413 
L 127.111592 285.351573 
L 127.328173 285.269078 
L 127.544753 287.038787 
L 127.761334 281.423395 
L 127.977915 286.784051 
L 128.194496 286.895983 
L 128.411076 285.440574 
L 128.627657 285.800937 
L 128.844238 285.789926 
L 129.060819 287.88336 
L 129.277399 284.609822 
L 129.710561 288.170968 
L 130.143722 285.049436 
L 130.360303 287.415894 
L 130.576884 286.216614 
L 130.793465 286.189719 
L 131.010045 285.419987 
L 131.226626 288.24333 
L 131.659788 285.71249 
L 131.876368 288.957745 
L 132.092949 284.770723 
L 132.742691 287.268025 
L 133.175853 287.944947 
L 133.392434 286.576174 
L 133.609014 288.353861 
L 133.825595 286.097701 
L 134.042176 288.960841 
L 134.258757 288.820579 
L 134.475337 287.680993 
L 134.691918 283.415509 
L 134.908499 286.366511 
L 135.12508 286.22896 
L 135.558241 289.393271 
L 135.774822 287.093794 
L 135.991403 287.576929 
L 136.207984 288.705184 
L 136.424564 289.112887 
L 136.641145 287.380298 
L 136.857726 287.650895 
L 137.074307 287.518855 
L 137.290887 288.530353 
L 137.507468 288.763651 
L 137.724049 285.271085 
L 137.94063 287.468269 
L 138.15721 287.033291 
L 138.373791 287.695666 
L 138.590372 289.333325 
L 138.806953 288.303411 
L 139.023533 288.898185 
L 139.240114 287.18438 
L 139.673276 288.793577 
L 139.889856 287.301742 
L 140.106437 289.861144 
L 140.323018 290.787815 
L 140.539599 289.12453 
L 140.756179 288.703299 
L 140.97276 289.90661 
L 141.189341 288.710544 
L 141.405922 288.999201 
L 141.622502 287.588113 
L 141.839083 288.572823 
L 142.272245 289.178416 
L 142.488825 290.056827 
L 142.705406 288.645587 
L 142.921987 290.321638 
L 143.138568 289.890026 
L 143.355148 289.739143 
L 143.571729 289.984688 
L 144.004891 289.715161 
L 144.221471 289.961071 
L 144.438052 291.681857 
L 144.654633 288.826446 
L 144.871214 289.881494 
L 145.087794 290.279487 
L 145.304375 289.124206 
L 145.520956 290.476127 
L 145.737537 290.660624 
L 145.954117 289.418764 
L 146.170698 288.830643 
L 146.387279 290.434769 
L 146.60386 290.961605 
L 146.82044 290.946166 
L 147.037021 290.645028 
L 147.253602 289.220845 
L 147.686763 290.565194 
L 147.903344 291.089749 
L 148.119925 292.053138 
L 148.336506 290.43984 
L 148.553086 291.252005 
L 148.986248 291.238535 
L 149.202829 290.676354 
L 149.63599 291.151014 
L 149.852571 291.242773 
L 150.069152 292.491619 
L 150.285732 291.840268 
L 150.502313 291.962281 
L 150.718894 291.225328 
L 150.935475 291.73545 
L 151.368636 291.869977 
L 151.585217 291.314668 
L 151.801798 292.760656 
L 152.018378 291.816663 
L 152.234959 292.161961 
L 152.45154 290.954206 
L 152.884701 291.953146 
L 153.101282 291.543517 
L 153.317863 290.871114 
L 153.534444 292.598201 
L 153.751024 291.023765 
L 153.967605 292.874322 
L 154.184186 291.64732 
L 154.400767 291.28254 
L 154.833928 292.763591 
L 155.050509 291.990312 
L 155.26709 292.091494 
L 155.48367 292.437114 
L 155.700251 291.779271 
L 155.916832 292.848426 
L 156.133413 292.632927 
L 156.349993 291.12313 
L 156.566574 291.978285 
L 156.783155 291.633826 
L 156.999736 292.221559 
L 157.216316 292.358935 
L 157.432897 292.917965 
L 157.866059 291.354498 
L 158.082639 292.40458 
L 158.29922 292.252918 
L 158.732382 292.493809 
L 158.948962 292.740317 
L 159.165543 293.245209 
L 159.598705 293.104073 
L 159.815285 293.42398 
L 160.465028 292.475202 
L 160.681608 293.046861 
L 160.898189 292.605676 
L 161.11477 293.558933 
L 161.331351 293.399464 
L 161.547931 292.631194 
L 161.764512 293.894678 
L 161.981093 292.702695 
L 162.197674 292.904751 
L 162.414254 293.290375 
L 162.847416 292.634464 
L 163.063997 293.774179 
L 163.280577 293.545497 
L 163.497158 293.838538 
L 163.713739 292.76515 
L 163.93032 292.857123 
L 164.1469 293.337435 
L 164.580062 293.012659 
L 165.013223 293.748477 
L 165.229804 292.439762 
L 165.446385 292.896295 
L 165.662966 294.005618 
L 165.879546 293.636452 
L 166.096127 294.209347 
L 166.529289 293.409162 
L 166.745869 294.120585 
L 166.96245 293.389942 
L 167.179031 293.7395 
L 167.828773 293.457235 
L 168.045354 292.818047 
L 168.261935 293.235265 
L 168.478515 292.997248 
L 168.695096 293.972644 
L 169.128258 293.285693 
L 169.344838 293.627162 
L 169.561419 293.41596 
L 169.778 293.846628 
L 169.994581 293.824428 
L 170.211161 293.208066 
L 170.427742 293.574075 
L 170.644323 293.153546 
L 171.077484 294.12578 
L 171.294065 293.767999 
L 171.510646 293.177395 
L 171.727227 293.480006 
L 171.943807 293.480596 
L 172.160388 293.217051 
L 172.376969 293.809171 
L 172.59355 293.730098 
L 172.81013 293.963559 
L 173.026711 293.666687 
L 173.243292 293.051698 
L 173.676453 293.922027 
L 173.893034 294.006407 
L 174.109615 293.903782 
L 174.326196 293.432703 
L 174.542776 293.828066 
L 174.759357 293.9089 
L 174.975938 293.657212 
L 175.192519 293.872069 
L 175.409099 293.639642 
L 175.62568 293.709385 
L 175.842261 293.9565 
L 176.058842 293.335479 
L 176.275422 294.171413 
L 176.492003 294.138938 
L 176.708584 293.777597 
L 176.925165 294.187722 
L 177.358326 293.499099 
L 177.791488 293.587603 
L 178.224649 294.477494 
L 178.44123 293.426243 
L 178.657811 294.496368 
L 179.090972 293.954563 
L 179.524134 294.288903 
L 179.740714 293.918909 
L 179.957295 294.07965 
L 180.173876 293.485485 
L 180.390457 293.959218 
L 180.607037 293.340895 
L 180.823618 293.590811 
L 181.040199 294.023348 
L 181.47336 294.2654 
L 181.689941 293.800421 
L 182.123103 294.485782 
L 182.339683 294.493929 
L 182.556264 294.089025 
L 182.772845 294.137105 
L 182.989426 294.430135 
L 183.206006 294.374772 
L 183.639168 294.695223 
L 183.855749 294.138726 
L 184.28891 294.869456 
L 184.505491 294.321998 
L 184.722072 294.281638 
L 184.938652 294.675521 
L 185.155233 294.472248 
L 185.371814 294.539069 
L 186.454718 293.857921 
L 186.887879 294.556945 
L 187.10446 294.754023 
L 187.321041 294.345302 
L 187.537621 294.403701 
L 187.754202 294.665476 
L 187.970783 294.409119 
L 188.403944 294.508414 
L 188.620525 294.751272 
L 189.053687 294.236543 
L 189.270267 294.709619 
L 189.486848 294.473457 
L 190.353171 294.517206 
L 190.569752 294.27185 
L 190.786333 294.305418 
L 191.002913 294.779951 
L 191.436075 294.939652 
L 191.652656 294.345528 
L 191.869236 294.544269 
L 192.735559 294.45426 
L 192.95214 294.669615 
L 193.168721 294.644787 
L 193.385302 293.815304 
L 193.601882 294.523974 
L 193.818463 294.745262 
L 194.035044 294.378235 
L 194.468205 294.646954 
L 194.684786 294.369042 
L 194.901367 294.525481 
L 195.117948 294.278296 
L 195.334528 294.417866 
L 195.551109 294.394858 
L 195.76769 294.670312 
L 196.200851 294.632928 
L 196.634013 294.065423 
L 196.850594 294.574222 
L 197.283755 294.231617 
L 197.500336 294.709115 
L 197.716917 294.526368 
L 198.150078 294.748102 
L 198.366659 294.774072 
L 198.58324 294.507684 
L 198.79982 294.78165 
L 199.016401 294.479729 
L 199.232982 294.59836 
L 199.449563 294.330585 
L 199.882724 294.486152 
L 200.099305 294.347745 
L 200.315886 294.557884 
L 200.532466 294.42553 
L 200.965628 294.710475 
L 201.182209 294.505666 
L 201.398789 294.713687 
L 201.831951 294.689502 
L 202.048532 294.502287 
L 202.481693 294.619975 
L 202.698274 294.859568 
L 202.914855 294.250842 
L 203.131436 294.697638 
L 203.348016 294.61738 
L 203.564597 294.933945 
L 203.781178 294.858574 
L 203.997759 294.646395 
L 204.214339 294.629305 
L 204.647501 294.842433 
L 204.864082 294.221416 
L 205.513824 294.685138 
L 205.730405 294.815338 
L 205.946985 294.601667 
L 206.380147 294.619399 
L 206.596728 294.513769 
L 206.813308 294.732113 
L 207.24647 294.464357 
L 207.463051 294.432659 
L 207.896212 294.675478 
L 208.112793 294.608107 
L 208.329374 294.985931 
L 208.545954 294.378364 
L 208.762535 294.181142 
L 209.195697 294.64453 
L 209.412277 294.59573 
L 209.628858 294.12525 
L 210.06202 294.811928 
L 210.2786 294.664776 
L 210.495181 294.21595 
L 210.928343 294.668265 
L 211.144923 294.806232 
L 211.361504 294.575185 
L 211.578085 294.698921 
L 211.794666 294.655051 
L 212.011246 294.858589 
L 212.227827 294.549613 
L 212.444408 294.57895 
L 212.660989 294.804115 
L 212.877569 294.676129 
L 213.310731 294.982338 
L 213.527312 294.942821 
L 213.743892 294.484143 
L 213.960473 294.860447 
L 214.177054 294.566294 
L 214.610215 294.845345 
L 214.826796 294.750002 
L 215.043377 294.528029 
L 215.259958 294.777454 
L 215.476538 294.623071 
L 215.693119 294.318366 
L 216.126281 294.802956 
L 216.342861 294.59429 
L 216.776023 294.861436 
L 216.992604 294.672191 
L 217.209184 294.851528 
L 217.425765 294.767553 
L 217.642346 294.96066 
L 217.858927 294.651081 
L 218.292088 294.874612 
L 218.508669 294.743057 
L 218.94183 294.790122 
L 219.158411 294.374178 
L 219.374992 294.659163 
L 220.024734 294.588002 
L 220.241315 294.527696 
L 220.457896 294.739596 
L 220.674476 294.538648 
L 221.107638 294.55329 
L 221.324219 294.904889 
L 221.540799 294.37795 
L 221.973961 294.774471 
L 222.190542 295.032476 
L 222.407122 294.65467 
L 222.840284 294.920337 
L 223.056865 294.758575 
L 223.273445 294.865236 
L 223.490026 294.670794 
L 223.706607 294.914954 
L 223.923188 294.946761 
L 224.139768 294.574439 
L 224.356349 294.647531 
L 224.789511 294.98643 
L 225.222672 294.793233 
L 225.439253 294.98304 
L 225.655834 294.92275 
L 225.872414 295.091414 
L 226.088995 294.672557 
L 226.305576 294.87344 
L 226.522157 294.693122 
L 226.738737 294.916943 
L 226.955318 294.507593 
L 227.171899 294.863126 
L 227.38848 294.980825 
L 227.821641 294.637708 
L 228.254803 295.009873 
L 228.687964 294.795617 
L 229.121126 294.848043 
L 229.337706 295.097359 
L 229.554287 295.012528 
L 229.770868 294.793717 
L 230.204029 294.758633 
L 230.42061 295.038799 
L 230.637191 295.081835 
L 230.853772 294.645457 
L 231.070352 294.893535 
L 231.286933 294.656679 
L 231.503514 294.893575 
L 231.936675 294.915071 
L 232.153256 294.63748 
L 232.586418 294.801105 
L 232.802998 294.652738 
L 233.019579 294.929646 
L 233.23616 294.962535 
L 233.669321 294.6887 
L 233.885902 294.840984 
L 234.535644 294.901907 
L 234.752225 294.708124 
L 234.968806 294.917356 
L 235.185387 294.658405 
L 235.401967 294.663967 
L 235.618548 294.801576 
L 236.26829 294.739346 
L 236.484871 295.069338 
L 236.701452 294.89701 
L 237.134613 295.098849 
L 237.567775 295.0306 
L 237.784356 295.144427 
L 238.000936 294.876533 
L 238.217517 295.32541 
L 238.434098 294.787997 
L 238.650679 294.714516 
L 238.867259 294.906277 
L 239.08384 295.260356 
L 239.300421 294.761319 
L 239.517002 295.00224 
L 239.733582 294.651928 
L 239.950163 295.168082 
L 240.383325 295.078774 
L 240.816486 295.488 
L 241.033067 295.17696 
L 241.249648 295.210117 
L 241.466228 294.860017 
L 241.682809 295.02285 
L 241.89939 294.955456 
L 242.115971 295.128201 
L 242.332551 295.023437 
L 242.549132 295.062045 
L 242.765713 294.669723 
L 242.982294 294.812595 
L 243.198874 295.110181 
L 243.632036 295.062685 
L 243.848617 295.17513 
L 244.065197 294.922098 
L 244.498359 295.046957 
L 244.71494 295.14972 
L 244.93152 294.723832 
L 245.148101 294.992412 
L 245.797843 295.018642 
L 246.014424 294.59665 
L 246.231005 295.002668 
L 246.447586 294.940508 
L 246.664166 295.082128 
L 246.880747 294.692553 
L 247.097328 294.55089 
L 247.313909 294.942238 
L 247.530489 295.080217 
L 247.74707 295.038096 
L 247.963651 294.823636 
L 248.180232 294.784168 
L 248.396812 294.961716 
L 248.613393 294.841965 
L 248.829974 295.088449 
L 249.046555 294.857605 
L 249.263135 294.909253 
L 249.479716 294.748413 
L 249.696297 294.987082 
L 249.912878 294.756036 
L 250.129458 294.952437 
L 250.346039 294.864832 
L 250.56262 294.941762 
L 250.779201 294.798275 
L 250.995781 294.878082 
L 251.212362 295.082295 
L 251.428943 294.942333 
L 251.645524 295.112974 
L 251.862104 294.938033 
L 252.078685 295.260103 
L 252.295266 294.937709 
L 252.511847 295.165123 
L 252.728427 294.900818 
L 253.161589 295.033075 
L 253.37817 294.827673 
L 253.811331 295.004967 
L 254.027912 295.110818 
L 254.244493 294.959647 
L 254.461073 294.58941 
L 254.677654 295.197302 
L 254.894235 295.16553 
L 255.543977 294.691495 
L 255.760558 295.012187 
L 256.193719 295.06509 
L 256.4103 294.90517 
L 257.276623 295.005147 
L 257.493204 294.744732 
L 257.926365 294.888655 
L 258.142946 294.983045 
L 258.576108 294.68992 
L 258.792688 294.884578 
L 259.009269 294.834486 
L 259.22585 294.592451 
L 259.442431 294.98083 
L 259.659011 294.776837 
L 259.875592 294.962564 
L 260.092173 294.280592 
L 260.525334 294.923188 
L 260.741915 294.662345 
L 260.958496 295.009687 
L 261.175077 294.817589 
L 261.824819 294.983842 
L 262.0414 294.908077 
L 262.25798 294.707857 
L 262.691142 295.254106 
L 262.907723 294.967668 
L 263.124303 295.114361 
L 263.557465 294.712033 
L 263.774046 294.988883 
L 263.990626 295.081338 
L 264.423788 294.890377 
L 264.640369 294.928655 
L 264.856949 294.820232 
L 265.07353 294.925166 
L 265.290111 294.720875 
L 265.506692 294.991745 
L 265.723272 294.853669 
L 265.939853 294.950937 
L 266.156434 294.783126 
L 266.373015 295.006243 
L 266.589595 295.434962 
L 266.806176 294.880049 
L 267.022757 294.891427 
L 267.239338 294.693292 
L 267.455918 294.754154 
L 267.88908 295.051975 
L 268.105661 294.884021 
L 268.538822 295.047222 
L 268.971984 294.86056 
L 269.838307 294.901416 
L 270.054888 294.641417 
L 270.271468 294.893973 
L 270.70463 294.877303 
L 270.921211 294.50519 
L 271.137791 294.835743 
L 271.354372 294.934904 
L 271.570953 294.560801 
L 271.787534 294.776885 
L 272.004114 294.612832 
L 272.220695 295.10479 
L 272.437276 294.795794 
L 272.653857 294.988387 
L 272.870437 294.846077 
L 273.303599 295.261822 
L 273.52018 294.718922 
L 273.73676 295.448835 
L 273.953341 294.895134 
L 274.386503 295.160191 
L 274.603083 294.816474 
L 274.819664 294.825853 
L 275.036245 295.015788 
L 275.252826 294.919563 
L 275.469406 294.609001 
L 275.685987 295.06511 
L 276.119149 294.992077 
L 276.335729 294.668447 
L 276.768891 295.079898 
L 276.985472 295.160035 
L 277.202052 295.053358 
L 277.418633 295.118302 
L 277.635214 294.778889 
L 277.851795 294.886515 
L 278.068375 294.57095 
L 278.284956 295.015502 
L 278.501537 294.369255 
L 278.718118 294.718784 
L 279.151279 294.974627 
L 279.584441 294.886547 
L 279.801021 295.107953 
L 280.017602 295.044847 
L 280.234183 294.830703 
L 280.450764 294.991464 
L 280.667344 294.81951 
L 280.883925 294.930155 
L 281.100506 294.804781 
L 281.533667 294.893686 
L 281.750248 294.668009 
L 282.18341 294.986207 
L 283.482894 294.928391 
L 283.699475 295.087184 
L 283.916056 295.085406 
L 284.132636 294.493324 
L 284.565798 294.922681 
L 284.782379 294.623235 
L 284.998959 295.035744 
L 285.21554 294.81807 
L 285.432121 294.829528 
L 285.648702 294.673953 
L 285.865282 295.007568 
L 286.081863 295.024507 
L 286.298444 294.578708 
L 286.515025 294.823768 
L 286.731605 294.894464 
L 286.948186 295.121025 
L 287.164767 294.583532 
L 287.381348 294.897146 
L 287.597928 294.621056 
L 287.814509 294.989381 
L 288.897413 294.643064 
L 289.330574 295.050814 
L 289.763736 294.767437 
L 289.980317 294.530834 
L 290.196897 294.93459 
L 290.413478 294.978717 
L 290.84664 295.378797 
L 291.279801 294.854502 
L 291.496382 295.160225 
L 291.712963 295.238473 
L 292.362705 294.983072 
L 292.579286 295.259179 
L 292.795866 295.17556 
L 293.012447 294.907341 
L 293.229028 295.382836 
L 293.445609 294.887785 
L 293.662189 295.264869 
L 293.87877 294.931337 
L 294.095351 294.985659 
L 294.311932 294.897497 
L 294.528512 295.032571 
L 295.394835 294.892457 
L 295.611416 295.083801 
L 295.827997 294.967746 
L 296.69432 295.114184 
L 296.910901 295.340868 
L 297.127481 295.022907 
L 297.560643 294.763788 
L 298.210385 295.112348 
L 299.50987 295.104613 
L 299.72645 294.812722 
L 299.943031 295.104079 
L 300.159612 295.188828 
L 300.809354 294.899977 
L 301.025935 294.997162 
L 301.242516 294.764595 
L 301.459096 294.799154 
L 301.892258 295.162701 
L 302.325419 294.799971 
L 302.542 294.757386 
L 302.758581 295.160476 
L 303.191742 294.697602 
L 303.408323 294.875613 
L 303.624904 295.217194 
L 303.841485 295.093381 
L 304.058065 295.162414 
L 304.274646 294.864927 
L 304.491227 295.188596 
L 304.707808 294.944984 
L 304.924388 295.382309 
L 305.140969 294.828506 
L 305.35755 294.594141 
L 306.007292 294.963001 
L 306.223873 294.863156 
L 306.440454 295.038333 
L 306.657034 294.955458 
L 306.873615 295.073712 
L 307.739938 295.04019 
L 307.956519 295.113388 
L 308.1731 295.031805 
L 308.38968 295.239852 
L 308.606261 294.857624 
L 308.822842 295.049796 
L 309.039423 294.696371 
L 309.256003 294.928172 
L 309.689165 294.583031 
L 309.905746 294.676239 
L 310.122326 295.205997 
L 310.338907 295.117337 
L 310.555488 294.835827 
L 310.772069 295.134791 
L 310.988649 294.868777 
L 311.421811 294.695394 
L 311.638392 295.021422 
L 311.854972 294.801558 
L 312.504715 295.078534 
L 312.937876 294.437554 
L 313.371038 294.954182 
L 313.804199 294.806164 
L 314.02078 295.136443 
L 314.670522 294.831064 
L 315.103684 295.028313 
L 315.536845 294.973479 
L 315.970007 294.931191 
L 316.186587 295.105802 
L 316.619749 294.744457 
L 316.83633 294.584702 
L 317.05291 294.777209 
L 317.269491 295.154894 
L 317.486072 295.038167 
L 317.702653 295.115794 
L 318.135814 294.825526 
L 318.352395 294.989175 
L 318.568976 294.737195 
L 318.785556 294.960348 
L 319.002137 295.01601 
L 319.218718 294.813213 
L 319.435299 294.794778 
L 319.651879 294.991355 
L 319.86846 295.027706 
L 320.085041 294.919195 
L 320.518202 295.055952 
L 320.734783 294.699959 
L 320.951364 294.986017 
L 321.167945 295.072824 
L 321.601106 294.708835 
L 321.817687 294.976372 
L 322.034268 295.064839 
L 322.467429 294.849893 
L 322.68401 295.011959 
L 322.900591 294.695725 
L 323.117171 294.828681 
L 323.333752 295.102787 
L 323.550333 295.061174 
L 323.766914 294.784524 
L 323.983494 295.055066 
L 324.200075 294.970928 
L 324.633237 295.025412 
L 325.282979 294.836813 
L 325.49956 295.072335 
L 325.71614 294.992281 
L 326.149302 295.21192 
L 326.365883 294.869647 
L 327.232206 294.943626 
L 327.448786 294.757007 
L 327.665367 295.093242 
L 328.098529 294.893359 
L 328.53169 295.066017 
L 328.748271 294.951401 
L 328.964852 295.317249 
L 329.181432 295.197836 
L 329.398013 294.916879 
L 329.614594 295.079713 
L 329.831175 294.680336 
L 330.047755 294.701891 
L 330.264336 295.203635 
L 330.480917 294.798859 
L 330.697498 295.247827 
L 330.914078 295.089915 
L 331.130659 294.772526 
L 331.34724 294.763142 
L 331.780401 294.959586 
L 331.996982 294.894943 
L 332.430144 294.652022 
L 332.863305 294.887569 
L 333.079886 294.721897 
L 333.296467 294.945445 
L 333.513047 294.93278 
L 333.729628 294.702499 
L 334.16279 295.030716 
L 334.37937 294.899023 
L 334.812532 295.150642 
L 335.029113 294.64341 
L 335.462274 294.936055 
L 335.678855 294.9773 
L 336.112016 294.735764 
L 336.545178 295.085387 
L 336.761759 294.904629 
L 336.978339 294.428532 
L 337.628082 295.225058 
L 337.844663 294.431936 
L 338.061243 294.780245 
L 338.277824 294.791114 
L 338.494405 295.183072 
L 338.710986 295.207551 
L 338.927566 295.016564 
L 339.144147 294.608279 
L 339.360728 294.60179 
L 339.793889 295.023609 
L 340.01047 295.113323 
L 340.443632 294.901568 
L 340.660212 295.072011 
L 340.876793 294.72996 
L 341.093374 294.904822 
L 341.309955 294.547163 
L 341.743116 295.118629 
L 341.959697 294.604928 
L 342.392858 295.117103 
L 342.82602 294.917162 
L 343.042601 294.782982 
L 343.259181 295.042437 
L 343.475762 294.90631 
L 343.692343 295.031646 
L 344.125504 294.69656 
L 344.342085 295.041048 
L 344.558666 294.836805 
L 344.991827 295.046594 
L 345.424989 295.157747 
L 345.64157 294.801161 
L 345.85815 294.775055 
L 346.074731 294.612738 
L 346.291312 295.238559 
L 346.507893 294.964661 
L 346.724473 295.263487 
L 346.941054 294.894013 
L 347.157635 295.274798 
L 347.374216 294.648642 
L 347.807377 295.116523 
L 348.023958 294.736247 
L 348.240539 294.922839 
L 348.890281 295.004261 
L 349.106862 294.810844 
L 349.323442 295.117893 
L 349.540023 294.636964 
L 349.973185 295.010547 
L 350.189765 294.713934 
L 350.406346 294.867496 
L 350.622927 294.78849 
L 350.839508 295.08224 
L 351.705831 295.007461 
L 351.922411 294.917849 
L 352.138992 294.550987 
L 352.572154 294.951174 
L 352.788734 295.014983 
L 353.005315 295.238555 
L 353.221896 294.81727 
L 353.438477 294.974239 
L 353.655057 294.86817 
L 353.871638 295.08278 
L 354.3048 294.850107 
L 354.52138 294.934199 
L 354.737961 294.7985 
L 355.171123 295.09825 
L 355.604284 294.949089 
L 355.820865 294.855911 
L 356.037446 294.482112 
L 356.254026 294.630258 
L 356.470607 295.143094 
L 356.687188 294.988206 
L 356.903769 295.044447 
L 357.120349 294.533057 
L 357.33693 294.969751 
L 357.770092 294.867962 
L 357.986672 294.864852 
L 358.203253 294.649858 
L 358.419834 295.027114 
L 358.636415 294.747593 
L 358.852995 294.672145 
L 359.286157 294.928344 
L 359.502738 294.89585 
L 359.935899 295.158368 
L 360.15248 294.759071 
L 360.369061 295.173352 
L 360.585641 295.175787 
L 360.802222 294.802056 
L 361.235384 294.925972 
L 361.451964 294.851927 
L 361.668545 294.960277 
L 361.885126 294.831581 
L 362.101707 294.880185 
L 362.318287 295.294662 
L 362.534868 294.946144 
L 362.751449 294.848483 
L 362.96803 294.616617 
L 363.18461 295.001688 
L 363.401191 294.986932 
L 363.617772 294.716034 
L 363.834353 295.040189 
L 364.050933 295.000712 
L 364.267514 295.202384 
L 364.484095 295.25038 
L 364.700676 295.050603 
L 364.917256 295.036747 
L 365.133837 294.815529 
L 365.566999 295.056415 
L 365.783579 294.618959 
L 366.00016 295.096724 
L 366.216741 295.152134 
L 366.649902 294.568984 
L 367.083064 295.21406 
L 367.516225 294.672892 
L 367.732806 294.950482 
L 367.949387 294.963064 
L 368.165968 294.616398 
L 368.382548 294.645165 
L 368.599129 294.819604 
L 368.81571 294.542619 
L 369.032291 294.931512 
L 369.248871 294.916285 
L 369.465452 294.742677 
L 369.682033 294.730823 
L 369.898614 294.991028 
L 370.331775 294.840277 
L 370.548356 295.105822 
L 370.764937 294.810537 
L 371.414679 295.197774 
L 371.63126 294.706792 
L 371.84784 294.801893 
L 372.064421 295.141218 
L 372.497583 294.99624 
L 373.363906 294.79253 
L 373.580486 294.827837 
L 373.797067 294.521349 
L 374.013648 295.05738 
L 374.230229 294.838588 
L 374.446809 295.07983 
L 374.66339 294.883769 
L 374.879971 294.982721 
L 375.096552 294.672313 
L 375.313132 295.114049 
L 375.529713 294.691483 
L 375.746294 294.605261 
L 375.962875 294.674972 
L 376.179455 294.920251 
L 376.396036 294.990216 
L 376.612617 294.286306 
L 376.829198 294.532501 
L 377.045778 295.124159 
L 377.262359 295.149331 
L 377.47894 294.404252 
L 377.912101 295.19509 
L 378.561844 294.735387 
L 378.778424 294.959701 
L 378.995005 294.939695 
L 379.211586 295.157885 
L 379.428167 295.124219 
L 379.861328 294.62881 
L 380.077909 294.938285 
L 380.29449 294.920679 
L 380.51107 295.207627 
L 381.160813 294.731109 
L 381.593974 295.000519 
L 381.810555 294.492382 
L 382.027136 294.960359 
L 382.460297 294.732875 
L 382.676878 295.0486 
L 383.110039 294.711458 
L 383.543201 294.932583 
L 383.759782 294.784026 
L 384.192943 295.057712 
L 384.842685 294.517768 
L 385.059266 294.853732 
L 385.275847 294.661984 
L 385.492428 294.802373 
L 386.14217 294.749372 
L 386.358751 295.104187 
L 387.008493 294.704289 
L 387.225074 295.218223 
L 387.441654 294.912766 
L 387.658235 294.922769 
L 387.874816 294.799066 
L 388.524558 295.052563 
L 388.95772 294.738496 
L 389.1743 295.232919 
L 389.390881 294.79305 
L 389.607462 294.958102 
L 389.824043 294.806796 
L 390.040623 295.025876 
L 390.257204 294.761189 
L 390.473785 294.905607 
L 390.690366 294.472911 
L 391.123527 294.810513 
L 391.340108 294.767872 
L 391.556689 295.029122 
L 391.773269 294.760271 
L 391.98985 294.684023 
L 392.639592 294.945325 
L 392.856173 295.023155 
L 393.505915 294.725189 
L 393.939077 295.02293 
L 394.155658 294.956654 
L 394.372238 294.697238 
L 394.588819 294.718283 
L 394.8054 295.177796 
L 395.021981 294.842749 
L 395.238561 295.022465 
L 395.455142 294.506579 
L 395.671723 294.915401 
L 395.888304 294.467642 
L 396.321465 295.032349 
L 396.538046 294.773323 
L 396.971207 294.680865 
L 397.404369 295.283364 
L 397.62095 294.870056 
L 398.270692 294.782587 
L 398.487273 294.55734 
L 398.487273 294.55734 
" style="fill:none;stroke:#1f77b4;stroke-linecap:square;stroke-width:1.5;"/>
   </g>
   <g id="line2d_19">
    <path clip-path="url(#p54fba74291)" d="M 73.832727 263.904587 
L 74.049308 53.568 
L 74.265889 65.598039 
L 74.48247 85.265942 
L 74.69905 137.393578 
L 75.132212 164.112689 
L 75.348793 171.372933 
L 75.781954 195.077815 
L 75.998535 193.408976 
L 76.215116 195.334402 
L 76.648277 211.6655 
L 77.081439 203.085137 
L 77.5146 218.271693 
L 77.731181 217.235961 
L 77.947762 218.570762 
L 78.164342 224.838857 
L 78.380923 225.870029 
L 78.597504 225.311774 
L 78.814085 230.954079 
L 79.030665 232.35698 
L 79.247246 236.772917 
L 79.680408 222.886301 
L 79.896988 225.316595 
L 80.33015 233.883146 
L 80.763311 236.247677 
L 80.979892 236.07885 
L 81.196473 235.013956 
L 81.413054 232.186911 
L 82.279377 247.262664 
L 82.495957 246.996097 
L 82.712538 243.74298 
L 83.1457 250.299854 
L 83.578861 246.173145 
L 84.012023 251.023116 
L 84.228603 249.076094 
L 84.445184 250.481877 
L 84.661765 249.828263 
L 84.878346 248.136791 
L 85.094926 252.962661 
L 85.311507 250.098069 
L 85.528088 250.923248 
L 85.744669 252.302532 
L 85.961249 251.800492 
L 86.17783 252.310719 
L 86.394411 251.205435 
L 86.610992 253.554285 
L 86.827572 257.543542 
L 87.044153 255.083748 
L 87.260734 254.126903 
L 87.693895 259.164731 
L 87.910476 259.648988 
L 88.127057 251.103844 
L 88.343638 252.670693 
L 88.560218 258.440422 
L 88.776799 260.289722 
L 88.99338 255.9959 
L 89.209961 255.746431 
L 89.426541 256.535152 
L 89.643122 258.346622 
L 90.076284 257.007969 
L 90.292864 259.945281 
L 90.942607 256.547767 
L 91.159187 260.295529 
L 91.375768 260.105495 
L 91.592349 259.608294 
L 92.02551 257.310154 
L 92.242091 258.632981 
L 92.458672 263.062794 
L 92.675253 261.471083 
L 93.108414 260.054897 
L 93.324995 263.250116 
L 93.541576 260.677878 
L 93.974737 259.571173 
L 94.191318 263.001508 
L 94.407899 264.19462 
L 94.624479 264.393269 
L 94.84106 260.911363 
L 95.057641 260.894913 
L 95.274222 262.381832 
L 95.490802 264.804982 
L 95.923964 264.498515 
L 96.140545 266.517695 
L 96.573706 263.303872 
L 96.790287 263.364227 
L 97.006868 266.358729 
L 97.65661 264.418837 
L 97.873191 264.639652 
L 98.089771 267.347865 
L 98.306352 265.397903 
L 98.522933 267.134029 
L 98.739514 267.137422 
L 99.172675 262.73725 
L 99.822417 270.496774 
L 100.255579 267.387141 
L 100.47216 267.96972 
L 100.905321 271.591771 
L 101.121902 271.510139 
L 101.338483 271.288417 
L 101.555063 269.617482 
L 101.771644 269.814123 
L 101.988225 272.340817 
L 102.204806 271.956205 
L 102.421386 270.684924 
L 102.637967 270.243437 
L 102.854548 271.10619 
L 103.071129 271.413138 
L 103.287709 271.121057 
L 103.720871 272.316621 
L 103.937452 273.763535 
L 104.154032 273.269647 
L 104.370613 270.909148 
L 104.587194 271.408476 
L 104.803775 270.298891 
L 105.453517 272.436104 
L 105.670098 271.687759 
L 105.886678 272.051301 
L 106.103259 271.035996 
L 106.31984 271.92375 
L 106.536421 274.151819 
L 106.753001 274.799309 
L 107.186163 273.262467 
L 107.402744 273.061485 
L 107.619324 273.094611 
L 107.835905 275.252456 
L 108.269067 273.637491 
L 108.485647 274.174228 
L 108.702228 274.178856 
L 108.918809 274.687129 
L 109.13539 273.79659 
L 109.35197 273.421804 
L 109.568551 274.491991 
L 109.785132 276.643542 
L 110.001713 275.832002 
L 110.218293 273.372242 
L 110.434874 273.797258 
L 110.651455 276.462327 
L 111.084616 270.880192 
L 111.301197 273.218329 
L 111.517778 277.049388 
L 111.734359 276.405542 
L 111.950939 275.006421 
L 112.16752 275.626944 
L 112.384101 277.879426 
L 112.600682 278.32967 
L 113.033843 276.000466 
L 113.467005 277.581377 
L 113.683585 276.889374 
L 113.900166 275.679456 
L 114.116747 276.767709 
L 114.333328 277.114108 
L 114.549908 276.111834 
L 114.766489 277.832717 
L 115.199651 273.544917 
L 115.849393 274.37317 
L 116.065974 273.062168 
L 116.282554 274.248412 
L 116.499135 276.138999 
L 116.715716 275.168771 
L 116.932297 275.977423 
L 117.365458 276.691055 
L 117.582039 278.783051 
L 117.79862 279.135203 
L 118.231781 276.892454 
L 118.448362 277.678106 
L 118.664943 275.56945 
L 118.881523 274.648726 
L 119.098104 277.066441 
L 119.314685 281.375101 
L 119.531266 282.795404 
L 119.964427 279.160896 
L 120.614169 282.016807 
L 120.83075 282.284503 
L 121.047331 282.244864 
L 121.263912 282.636402 
L 121.480492 280.815126 
L 121.697073 280.354127 
L 121.913654 281.880609 
L 122.346815 282.680375 
L 122.996558 280.664004 
L 123.429719 282.593481 
L 123.6463 282.15312 
L 123.862881 280.453164 
L 124.079461 280.302349 
L 124.296042 283.33112 
L 124.512623 283.080421 
L 124.729204 281.054736 
L 124.945784 281.857842 
L 125.162365 283.339514 
L 125.378946 282.925871 
L 125.812107 281.287646 
L 126.028688 282.632823 
L 126.245269 285.096965 
L 126.46185 285.154082 
L 126.67843 286.336816 
L 126.895011 286.025997 
L 127.328173 284.924374 
L 127.544753 285.388752 
L 127.761334 284.282481 
L 127.977915 285.858674 
L 128.194496 285.575265 
L 128.411076 283.223966 
L 128.627657 284.663681 
L 128.844238 284.960535 
L 129.060819 285.448985 
L 129.277399 285.030654 
L 129.710561 286.869073 
L 130.143722 286.344013 
L 130.360303 286.676445 
L 130.576884 286.571242 
L 130.793465 285.901911 
L 131.010045 285.831491 
L 131.226626 286.61068 
L 131.659788 284.669166 
L 131.876368 285.182819 
L 132.092949 285.138572 
L 132.30953 285.447693 
L 132.526111 285.022884 
L 132.742691 286.388268 
L 132.959272 286.453083 
L 133.175853 286.396127 
L 133.392434 287.281153 
L 133.609014 287.540539 
L 133.825595 286.31504 
L 134.042176 287.696355 
L 134.258757 287.112403 
L 134.475337 285.984436 
L 134.691918 285.790714 
L 134.908499 286.56116 
L 135.12508 286.214338 
L 135.341661 286.580975 
L 135.558241 287.493017 
L 135.774822 287.24639 
L 135.991403 287.32248 
L 136.207984 287.614236 
L 136.424564 288.549278 
L 136.857726 286.165146 
L 137.290887 288.255926 
L 137.724049 286.51998 
L 137.94063 287.688111 
L 138.15721 287.475008 
L 138.373791 288.030941 
L 138.590372 289.404122 
L 139.023533 287.337934 
L 139.240114 287.07633 
L 139.456695 287.234013 
L 139.673276 286.649055 
L 139.889856 287.234388 
L 140.106437 287.409251 
L 140.323018 287.956001 
L 140.539599 287.919702 
L 140.756179 287.615556 
L 140.97276 288.349931 
L 141.405922 287.893815 
L 141.622502 287.452141 
L 141.839083 287.709597 
L 142.055664 288.849562 
L 142.272245 289.322915 
L 142.488825 288.898019 
L 142.705406 289.015681 
L 142.921987 289.505473 
L 143.138568 289.13303 
L 143.355148 289.04845 
L 143.78831 288.018781 
L 144.438052 290.189851 
L 144.871214 288.859737 
L 145.087794 289.170036 
L 145.304375 289.051668 
L 145.954117 289.546004 
L 146.170698 288.726108 
L 146.60386 290.050717 
L 146.82044 290.079018 
L 147.253602 289.078251 
L 147.470183 289.158161 
L 148.119925 290.757975 
L 148.769667 290.483721 
L 148.986248 290.495153 
L 149.852571 291.086098 
L 150.069152 291.386934 
L 150.502313 291.326304 
L 150.718894 291.227405 
L 151.152055 291.486112 
L 151.368636 291.224208 
L 151.801798 291.65674 
L 152.018378 291.071879 
L 152.234959 291.103551 
L 152.668121 291.501974 
L 152.884701 291.379347 
L 153.101282 291.468702 
L 153.534444 291.464084 
L 153.751024 291.478514 
L 153.967605 291.887912 
L 154.400767 291.745908 
L 154.833928 291.95514 
L 155.050509 291.784974 
L 155.26709 291.78673 
L 155.48367 291.945446 
L 155.700251 291.896856 
L 156.566574 292.090571 
L 156.783155 292.108723 
L 156.999736 292.546159 
L 157.649478 292.248343 
L 158.29922 292.447529 
L 158.515801 292.177452 
L 158.732382 292.21406 
L 159.165543 292.748384 
L 159.382124 292.797129 
L 159.815285 292.440369 
L 160.031866 292.474836 
L 160.248447 292.743212 
L 160.681608 292.582105 
L 160.898189 292.750244 
L 161.764512 292.643552 
L 161.981093 292.183197 
L 162.197674 292.323225 
L 162.630835 293.09088 
L 163.280577 293.057967 
L 163.497158 293.154865 
L 163.93032 292.713078 
L 164.1469 292.919978 
L 164.363481 292.840265 
L 164.580062 292.625065 
L 165.013223 293.143666 
L 165.446385 292.838243 
L 166.096127 293.295512 
L 166.529289 293.218114 
L 166.745869 293.269704 
L 166.96245 293.038476 
L 167.179031 293.054892 
L 167.395612 293.256752 
L 167.612192 293.293984 
L 168.045354 293.107358 
L 168.478515 293.106854 
L 168.911677 293.588593 
L 169.778 293.338014 
L 170.427742 293.391847 
L 170.860904 293.194145 
L 171.294065 293.245246 
L 171.727227 293.550754 
L 171.943807 293.416457 
L 172.160388 293.569698 
L 172.59355 293.366501 
L 173.243292 293.560835 
L 173.459873 293.40594 
L 173.893034 293.611616 
L 174.759357 293.586258 
L 174.975938 293.460884 
L 175.409099 293.785556 
L 176.058842 293.624138 
L 176.275422 293.825758 
L 176.492003 293.869208 
L 176.708584 293.663887 
L 177.141745 293.800793 
L 177.358326 293.647026 
L 177.791488 293.761974 
L 178.008068 293.864381 
L 178.224649 293.83819 
L 178.657811 293.479699 
L 179.307553 293.889895 
L 179.740714 293.652272 
L 180.173876 293.790985 
L 181.25678 293.900006 
L 181.47336 293.79331 
L 182.339683 294.064491 
L 182.772845 293.866767 
L 183.206006 293.987253 
L 183.639168 294.01803 
L 183.855749 293.965023 
L 184.28891 294.027337 
L 184.505491 293.982175 
L 184.938652 294.092305 
L 185.371814 293.756274 
L 186.021556 294.044489 
L 186.454718 293.870753 
L 187.10446 294.174507 
L 187.321041 293.97768 
L 188.187364 294.097473 
L 188.620525 294.202863 
L 189.703429 293.962448 
L 190.569752 294.272488 
L 191.002913 294.250612 
L 191.436075 294.322439 
L 192.302398 294.116122 
L 192.518979 294.147637 
L 192.735559 294.311285 
L 192.95214 294.335079 
L 193.385302 294.151355 
L 193.818463 294.206013 
L 194.035044 294.14335 
L 194.468205 294.354237 
L 194.901367 293.94955 
L 195.334528 294.195232 
L 196.200851 294.34643 
L 196.634013 294.291589 
L 197.500336 294.256795 
L 197.716917 294.196195 
L 198.150078 294.396929 
L 199.016401 294.309691 
L 200.315886 294.470896 
L 200.749047 294.340871 
L 201.182209 294.41905 
L 201.61537 294.339 
L 202.048532 294.434284 
L 202.481693 294.384792 
L 202.914855 294.374655 
L 204.43092 294.438307 
L 204.864082 294.325095 
L 205.080662 294.432567 
L 205.513824 294.308259 
L 207.029889 294.467483 
L 207.679631 294.322726 
L 207.896212 294.48499 
L 208.329374 294.444792 
L 208.545954 294.273718 
L 208.762535 294.311276 
L 208.979116 294.492971 
L 209.195697 294.490476 
L 209.412277 294.238121 
L 209.628858 294.211086 
L 210.06202 294.460062 
L 210.495181 294.18393 
L 210.711762 294.228806 
L 210.928343 294.408459 
L 211.144923 294.412882 
L 211.361504 294.298498 
L 212.011246 294.501261 
L 213.09415 294.437512 
L 213.527312 294.550606 
L 213.743892 294.393915 
L 213.960473 294.539963 
L 214.393635 294.446812 
L 214.826796 294.544316 
L 215.693119 294.508768 
L 220.024734 294.553606 
L 220.241315 294.492631 
L 220.674476 294.542824 
L 221.75738 294.53211 
L 222.190542 294.656336 
L 223.923188 294.602401 
L 225.222672 294.710747 
L 225.655834 294.623438 
L 226.305576 294.671899 
L 227.38848 294.527406 
L 228.471383 294.649278 
L 230.42061 294.661686 
L 231.070352 294.594709 
L 231.503514 294.600745 
L 231.936675 294.583369 
L 232.369837 294.500755 
L 234.319064 294.605596 
L 234.752225 294.564653 
L 238.434098 294.677749 
L 238.867259 294.585616 
L 239.733582 294.668926 
L 240.166744 294.653839 
L 240.816486 294.697555 
L 243.415455 294.634315 
L 244.065197 294.591269 
L 244.498359 294.668047 
L 254.027912 294.663331 
L 254.461073 294.539564 
L 254.894235 294.732367 
L 255.760558 294.643299 
L 256.193719 294.584117 
L 256.626881 294.506457 
L 257.276623 294.642745 
L 257.709785 294.574178 
L 258.359527 294.636968 
L 259.009269 294.632252 
L 259.442431 294.692211 
L 259.875592 294.562899 
L 261.391657 294.591493 
L 262.691142 294.761375 
L 263.124303 294.68051 
L 265.506692 294.747428 
L 267.239338 294.67932 
L 267.672499 294.741685 
L 268.105661 294.660999 
L 268.755403 294.636745 
L 269.838307 294.581937 
L 270.271468 294.597422 
L 270.921211 294.339797 
L 271.570953 294.608007 
L 272.220695 294.6583 
L 272.653857 294.689987 
L 273.303599 294.67694 
L 278.934698 294.701945 
L 279.36786 294.777618 
L 280.883925 294.690388 
L 281.317087 294.742348 
L 282.18341 294.699646 
L 283.266313 294.627522 
L 283.699475 294.805726 
L 284.565798 294.701905 
L 284.998959 294.700602 
L 285.21554 294.575105 
L 287.381348 294.684857 
L 287.814509 294.637753 
L 288.464251 294.749597 
L 288.897413 294.693844 
L 291.06322 294.701766 
L 291.496382 294.668019 
L 293.012447 294.768297 
L 293.87877 294.698199 
L 294.311932 294.820986 
L 295.394835 294.659769 
L 296.477739 294.750927 
L 297.127481 294.742205 
L 300.159612 294.637547 
L 300.592773 294.625886 
L 300.809354 294.707216 
L 301.675677 294.625308 
L 301.892258 294.744962 
L 302.325419 294.605106 
L 303.191742 294.718669 
L 303.408323 294.645839 
L 303.841485 294.783902 
L 304.491227 294.625083 
L 304.924388 294.614614 
L 305.574131 294.54963 
L 306.223873 294.669377 
L 306.657034 294.536266 
L 307.739938 294.655051 
L 308.822842 294.669838 
L 309.256003 294.621487 
L 310.122326 294.61971 
L 312.071553 294.624278 
L 312.504715 294.638873 
L 312.721295 294.499517 
L 313.587618 294.61767 
L 314.02078 294.75011 
L 314.453941 294.635896 
L 315.536845 294.681057 
L 316.186587 294.697176 
L 316.619749 294.598312 
L 317.05291 294.605776 
L 317.486072 294.720823 
L 317.919233 294.693556 
L 318.352395 294.66952 
L 319.218718 294.512387 
L 319.86846 294.646002 
L 320.301622 294.681597 
L 320.518202 294.747766 
L 320.951364 294.545995 
L 321.384525 294.710185 
L 321.817687 294.717112 
L 322.250848 294.597129 
L 322.68401 294.75364 
L 323.117171 294.668276 
L 323.766914 294.772595 
L 324.200075 294.691921 
L 326.149302 294.718143 
L 326.799044 294.697549 
L 327.232206 294.686346 
L 327.665367 294.747931 
L 328.098529 294.697719 
L 328.748271 294.755564 
L 329.831175 294.669684 
L 330.914078 294.795783 
L 331.780401 294.709415 
L 332.863305 294.679241 
L 333.079886 294.599277 
L 333.296467 294.726027 
L 335.245693 294.665026 
L 335.462274 294.772083 
L 336.112016 294.569366 
L 336.545178 294.700284 
L 336.978339 294.570241 
L 337.411501 294.682535 
L 338.061243 294.706874 
L 338.927566 294.667833 
L 339.144147 294.57502 
L 340.01047 294.673527 
L 340.443632 294.673196 
L 340.876793 294.74854 
L 341.309955 294.734226 
L 341.959697 294.700829 
L 342.609439 294.682416 
L 343.259181 294.689271 
L 343.692343 294.679757 
L 349.756604 294.469983 
L 349.973185 294.419838 
L 350.406346 294.494346 
L 355.820865 294.570329 
L 356.037446 294.401726 
L 356.254026 294.424737 
L 356.687188 294.66787 
L 357.120349 294.336368 
L 357.33693 294.358757 
L 357.770092 294.636377 
L 358.203253 294.533645 
L 358.636415 294.622199 
L 359.502738 294.602383 
L 359.719318 294.706635 
L 360.15248 294.471224 
L 360.802222 294.667008 
L 361.235384 294.661714 
L 363.834353 294.580219 
L 364.484095 294.723901 
L 366.00016 294.645156 
L 367.949387 294.635488 
L 369.032291 294.511807 
L 369.898614 294.663487 
L 370.764937 294.513571 
L 371.414679 294.693168 
L 371.84784 294.539802 
L 372.497583 294.677739 
L 372.930744 294.428549 
L 373.147325 294.514374 
L 373.363906 294.720952 
L 373.580486 294.70548 
L 373.797067 294.435241 
L 374.446809 294.604377 
L 374.879971 294.365635 
L 375.529713 294.539274 
L 375.962875 294.491367 
L 376.396036 294.55735 
L 376.612617 294.332078 
L 376.829198 294.346348 
L 377.045778 294.625888 
L 377.47894 294.395734 
L 377.912101 294.691206 
L 378.345263 294.513524 
L 378.778424 294.625237 
L 378.995005 294.541384 
L 379.644747 294.589917 
L 382.676878 294.659602 
L 383.110039 294.552458 
L 383.32662 294.680784 
L 384.192943 294.583351 
L 384.626105 294.497577 
L 385.059266 294.606889 
L 385.492428 294.605975 
L 390.473785 294.594499 
L 390.690366 294.47644 
L 391.340108 294.674861 
L 392.206431 294.644773 
L 392.639592 294.533528 
L 393.072754 294.664519 
L 393.505915 294.536445 
L 397.404369 294.598562 
L 397.83753 294.552726 
L 398.270692 294.592054 
L 398.487273 294.591944 
L 398.487273 294.591944 
" style="fill:none;stroke:#ff7f0e;stroke-linecap:square;stroke-width:1.5;"/>
   </g>
   <g id="patch_3">
    <path d="M 57.6 307.584 
L 57.6 41.472 
" style="fill:none;stroke:#000000;stroke-linecap:square;stroke-linejoin:miter;stroke-width:0.8;"/>
   </g>
   <g id="patch_4">
    <path d="M 414.72 307.584 
L 414.72 41.472 
" style="fill:none;stroke:#000000;stroke-linecap:square;stroke-linejoin:miter;stroke-width:0.8;"/>
   </g>
   <g id="patch_5">
    <path d="M 57.6 307.584 
L 414.72 307.584 
" style="fill:none;stroke:#000000;stroke-linecap:square;stroke-linejoin:miter;stroke-width:0.8;"/>
   </g>
   <g id="patch_6">
    <path d="M 57.6 41.472 
L 414.72 41.472 
" style="fill:none;stroke:#000000;stroke-linecap:square;stroke-linejoin:miter;stroke-width:0.8;"/>
   </g>
   <g id="text_20">
    <!-- PyTorch -->
    <defs>
     <path d="M 19.671875 64.796875 
L 19.671875 37.40625 
L 32.078125 37.40625 
Q 38.96875 37.40625 42.71875 40.96875 
Q 46.484375 44.53125 46.484375 51.125 
Q 46.484375 57.671875 42.71875 61.234375 
Q 38.96875 64.796875 32.078125 64.796875 
z
M 9.8125 72.90625 
L 32.078125 72.90625 
Q 44.34375 72.90625 50.609375 67.359375 
Q 56.890625 61.8125 56.890625 51.125 
Q 56.890625 40.328125 50.609375 34.8125 
Q 44.34375 29.296875 32.078125 29.296875 
L 19.671875 29.296875 
L 19.671875 0 
L 9.8125 0 
z
" id="DejaVuSans-80"/>
     <path d="M 32.171875 -5.078125 
Q 28.375 -14.84375 24.75 -17.8125 
Q 21.140625 -20.796875 15.09375 -20.796875 
L 7.90625 -20.796875 
L 7.90625 -13.28125 
L 13.1875 -13.28125 
Q 16.890625 -13.28125 18.9375 -11.515625 
Q 21 -9.765625 23.484375 -3.21875 
L 25.09375 0.875 
L 2.984375 54.6875 
L 12.5 54.6875 
L 29.59375 11.921875 
L 46.6875 54.6875 
L 56.203125 54.6875 
z
" id="DejaVuSans-121"/>
     <path d="M -0.296875 72.90625 
L 61.375 72.90625 
L 61.375 64.59375 
L 35.5 64.59375 
L 35.5 0 
L 25.59375 0 
L 25.59375 64.59375 
L -0.296875 64.59375 
z
" id="DejaVuSans-84"/>
     <path d="M 41.109375 46.296875 
Q 39.59375 47.171875 37.8125 47.578125 
Q 36.03125 48 33.890625 48 
Q 26.265625 48 22.1875 43.046875 
Q 18.109375 38.09375 18.109375 28.8125 
L 18.109375 0 
L 9.078125 0 
L 9.078125 54.6875 
L 18.109375 54.6875 
L 18.109375 46.1875 
Q 20.953125 51.171875 25.484375 53.578125 
Q 30.03125 56 36.53125 56 
Q 37.453125 56 38.578125 55.875 
Q 39.703125 55.765625 41.0625 55.515625 
z
" id="DejaVuSans-114"/>
     <path d="M 48.78125 52.59375 
L 48.78125 44.1875 
Q 44.96875 46.296875 41.140625 47.34375 
Q 37.3125 48.390625 33.40625 48.390625 
Q 24.65625 48.390625 19.8125 42.84375 
Q 14.984375 37.3125 14.984375 27.296875 
Q 14.984375 17.28125 19.8125 11.734375 
Q 24.65625 6.203125 33.40625 6.203125 
Q 37.3125 6.203125 41.140625 7.25 
Q 44.96875 8.296875 48.78125 10.40625 
L 48.78125 2.09375 
Q 45.015625 0.34375 40.984375 -0.53125 
Q 36.96875 -1.421875 32.421875 -1.421875 
Q 20.0625 -1.421875 12.78125 6.34375 
Q 5.515625 14.109375 5.515625 27.296875 
Q 5.515625 40.671875 12.859375 48.328125 
Q 20.21875 56 33.015625 56 
Q 37.15625 56 41.109375 55.140625 
Q 45.0625 54.296875 48.78125 52.59375 
z
" id="DejaVuSans-99"/>
     <path d="M 54.890625 33.015625 
L 54.890625 0 
L 45.90625 0 
L 45.90625 32.71875 
Q 45.90625 40.484375 42.875 44.328125 
Q 39.84375 48.1875 33.796875 48.1875 
Q 26.515625 48.1875 22.3125 43.546875 
Q 18.109375 38.921875 18.109375 30.90625 
L 18.109375 0 
L 9.078125 0 
L 9.078125 75.984375 
L 18.109375 75.984375 
L 18.109375 46.1875 
Q 21.34375 51.125 25.703125 53.5625 
Q 30.078125 56 35.796875 56 
Q 45.21875 56 50.046875 50.171875 
Q 54.890625 44.34375 54.890625 33.015625 
z
" id="DejaVuSans-104"/>
    </defs>
    <g transform="translate(212.104688 35.472)scale(0.12 -0.12)">
     <use xlink:href="#DejaVuSans-80"/>
     <use x="60.302734" xlink:href="#DejaVuSans-121"/>
     <use x="119.482422" xlink:href="#DejaVuSans-84"/>
     <use x="180.300781" xlink:href="#DejaVuSans-111"/>
     <use x="241.482422" xlink:href="#DejaVuSans-114"/>
     <use x="282.564453" xlink:href="#DejaVuSans-99"/>
     <use x="337.544922" xlink:href="#DejaVuSans-104"/>
    </g>
   </g>
   <g id="legend_1">
    <g id="patch_7">
     <path d="M 350.279375 78.82825 
L 407.72 78.82825 
Q 409.72 78.82825 409.72 76.82825 
L 409.72 48.472 
Q 409.72 46.472 407.72 46.472 
L 350.279375 46.472 
Q 348.279375 46.472 348.279375 48.472 
L 348.279375 76.82825 
Q 348.279375 78.82825 350.279375 78.82825 
z
" style="fill:#ffffff;opacity:0.8;stroke:#cccccc;stroke-linejoin:miter;"/>
    </g>
    <g id="line2d_20">
     <path d="M 352.279375 54.570437 
L 372.279375 54.570437 
" style="fill:none;stroke:#1f77b4;stroke-linecap:square;stroke-width:1.5;"/>
    </g>
    <g id="line2d_21"/>
    <g id="text_21">
     <!-- Train -->
     <defs>
      <path d="M 34.28125 27.484375 
Q 23.390625 27.484375 19.1875 25 
Q 14.984375 22.515625 14.984375 16.5 
Q 14.984375 11.71875 18.140625 8.90625 
Q 21.296875 6.109375 26.703125 6.109375 
Q 34.1875 6.109375 38.703125 11.40625 
Q 43.21875 16.703125 43.21875 25.484375 
L 43.21875 27.484375 
z
M 52.203125 31.203125 
L 52.203125 0 
L 43.21875 0 
L 43.21875 8.296875 
Q 40.140625 3.328125 35.546875 0.953125 
Q 30.953125 -1.421875 24.3125 -1.421875 
Q 15.921875 -1.421875 10.953125 3.296875 
Q 6 8.015625 6 15.921875 
Q 6 25.140625 12.171875 29.828125 
Q 18.359375 34.515625 30.609375 34.515625 
L 43.21875 34.515625 
L 43.21875 35.40625 
Q 43.21875 41.609375 39.140625 45 
Q 35.0625 48.390625 27.6875 48.390625 
Q 23 48.390625 18.546875 47.265625 
Q 14.109375 46.140625 10.015625 43.890625 
L 10.015625 52.203125 
Q 14.9375 54.109375 19.578125 55.046875 
Q 24.21875 56 28.609375 56 
Q 40.484375 56 46.34375 49.84375 
Q 52.203125 43.703125 52.203125 31.203125 
z
" id="DejaVuSans-97"/>
      <path d="M 9.421875 54.6875 
L 18.40625 54.6875 
L 18.40625 0 
L 9.421875 0 
z
M 9.421875 75.984375 
L 18.40625 75.984375 
L 18.40625 64.59375 
L 9.421875 64.59375 
z
" id="DejaVuSans-105"/>
      <path d="M 54.890625 33.015625 
L 54.890625 0 
L 45.90625 0 
L 45.90625 32.71875 
Q 45.90625 40.484375 42.875 44.328125 
Q 39.84375 48.1875 33.796875 48.1875 
Q 26.515625 48.1875 22.3125 43.546875 
Q 18.109375 38.921875 18.109375 30.90625 
L 18.109375 0 
L 9.078125 0 
L 9.078125 54.6875 
L 18.109375 54.6875 
L 18.109375 46.1875 
Q 21.34375 51.125 25.703125 53.5625 
Q 30.078125 56 35.796875 56 
Q 45.21875 56 50.046875 50.171875 
Q 54.890625 44.34375 54.890625 33.015625 
z
" id="DejaVuSans-110"/>
     </defs>
     <g transform="translate(380.279375 58.070437)scale(0.1 -0.1)">
      <use xlink:href="#DejaVuSans-84"/>
      <use x="60.865234" xlink:href="#DejaVuSans-114"/>
      <use x="101.978516" xlink:href="#DejaVuSans-97"/>
      <use x="163.257812" xlink:href="#DejaVuSans-105"/>
      <use x="191.041016" xlink:href="#DejaVuSans-110"/>
     </g>
    </g>
    <g id="line2d_22">
     <path d="M 352.279375 69.248562 
L 372.279375 69.248562 
" style="fill:none;stroke:#ff7f0e;stroke-linecap:square;stroke-width:1.5;"/>
    </g>
    <g id="line2d_23"/>
    <g id="text_22">
     <!-- Test -->
     <g transform="translate(380.279375 72.748562)scale(0.1 -0.1)">
      <use xlink:href="#DejaVuSans-84"/>
      <use x="60.818359" xlink:href="#DejaVuSans-101"/>
      <use x="122.341797" xlink:href="#DejaVuSans-115"/>
      <use x="174.441406" xlink:href="#DejaVuSans-116"/>
     </g>
    </g>
   </g>
  </g>
 </g>
 <defs>
  <clipPath id="p54fba74291">
   <rect height="266.112" width="357.12" x="57.6" y="41.472"/>
  </clipPath>
 </defs>
</svg>
