<?xml version="1.0" encoding="utf-8" standalone="no"?>
<!DOCTYPE svg PUBLIC "-//W3C//DTD SVG 1.1//EN"
  "http://www.w3.org/Graphics/SVG/1.1/DTD/svg11.dtd">
<!-- Created with matplotlib (https://matplotlib.org/) -->
<svg height="345.6pt" version="1.1" viewBox="0 0 460.8 345.6" width="460.8pt" xmlns="http://www.w3.org/2000/svg" xmlns:xlink="http://www.w3.org/1999/xlink">
 <defs>
  <style type="text/css">
*{stroke-linecap:butt;stroke-linejoin:round;}
  </style>
 </defs>
 <g id="figure_1">
  <g id="patch_1">
   <path d="M 0 345.6 
L 460.8 345.6 
L 460.8 0 
L 0 0 
z
" style="fill:#ffffff;"/>
  </g>
  <g id="axes_1">
   <g id="patch_2">
    <path d="M 57.6 307.584 
L 414.72 307.584 
L 414.72 41.472 
L 57.6 41.472 
z
" style="fill:#ffffff;"/>
   </g>
   <g id="matplotlib.axis_1">
    <g id="xtick_1">
     <g id="line2d_1">
      <defs>
       <path d="M 0 0 
L 0 3.5 
" id="mff438bf241" style="stroke:#000000;stroke-width:0.8;"/>
      </defs>
      <g>
       <use style="stroke:#000000;stroke-width:0.8;" x="73.832727" xlink:href="#mff438bf241" y="307.584"/>
      </g>
     </g>
     <g id="text_1">
      <!-- 0 -->
      <defs>
       <path d="M 31.78125 66.40625 
Q 24.171875 66.40625 20.328125 58.90625 
Q 16.5 51.421875 16.5 36.375 
Q 16.5 21.390625 20.328125 13.890625 
Q 24.171875 6.390625 31.78125 6.390625 
Q 39.453125 6.390625 43.28125 13.890625 
Q 47.125 21.390625 47.125 36.375 
Q 47.125 51.421875 43.28125 58.90625 
Q 39.453125 66.40625 31.78125 66.40625 
z
M 31.78125 74.21875 
Q 44.046875 74.21875 50.515625 64.515625 
Q 56.984375 54.828125 56.984375 36.375 
Q 56.984375 17.96875 50.515625 8.265625 
Q 44.046875 -1.421875 31.78125 -1.421875 
Q 19.53125 -1.421875 13.0625 8.265625 
Q 6.59375 17.96875 6.59375 36.375 
Q 6.59375 54.828125 13.0625 64.515625 
Q 19.53125 74.21875 31.78125 74.21875 
z
" id="DejaVuSans-48"/>
      </defs>
      <g transform="translate(70.651477 322.182437)scale(0.1 -0.1)">
       <use xlink:href="#DejaVuSans-48"/>
      </g>
     </g>
    </g>
    <g id="xtick_2">
     <g id="line2d_2">
      <g>
       <use style="stroke:#000000;stroke-width:0.8;" x="117.148877" xlink:href="#mff438bf241" y="307.584"/>
      </g>
     </g>
     <g id="text_2">
      <!-- 200 -->
      <defs>
       <path d="M 19.1875 8.296875 
L 53.609375 8.296875 
L 53.609375 0 
L 7.328125 0 
L 7.328125 8.296875 
Q 12.9375 14.109375 22.625 23.890625 
Q 32.328125 33.6875 34.8125 36.53125 
Q 39.546875 41.84375 41.421875 45.53125 
Q 43.3125 49.21875 43.3125 52.78125 
Q 43.3125 58.59375 39.234375 62.25 
Q 35.15625 65.921875 28.609375 65.921875 
Q 23.96875 65.921875 18.8125 64.3125 
Q 13.671875 62.703125 7.8125 59.421875 
L 7.8125 69.390625 
Q 13.765625 71.78125 18.9375 73 
Q 24.125 74.21875 28.421875 74.21875 
Q 39.75 74.21875 46.484375 68.546875 
Q 53.21875 62.890625 53.21875 53.421875 
Q 53.21875 48.921875 51.53125 44.890625 
Q 49.859375 40.875 45.40625 35.40625 
Q 44.1875 33.984375 37.640625 27.21875 
Q 31.109375 20.453125 19.1875 8.296875 
z
" id="DejaVuSans-50"/>
      </defs>
      <g transform="translate(107.605127 322.182437)scale(0.1 -0.1)">
       <use xlink:href="#DejaVuSans-50"/>
       <use x="63.623047" xlink:href="#DejaVuSans-48"/>
       <use x="127.246094" xlink:href="#DejaVuSans-48"/>
      </g>
     </g>
    </g>
    <g id="xtick_3">
     <g id="line2d_3">
      <g>
       <use style="stroke:#000000;stroke-width:0.8;" x="160.465028" xlink:href="#mff438bf241" y="307.584"/>
      </g>
     </g>
     <g id="text_3">
      <!-- 400 -->
      <defs>
       <path d="M 37.796875 64.3125 
L 12.890625 25.390625 
L 37.796875 25.390625 
z
M 35.203125 72.90625 
L 47.609375 72.90625 
L 47.609375 25.390625 
L 58.015625 25.390625 
L 58.015625 17.1875 
L 47.609375 17.1875 
L 47.609375 0 
L 37.796875 0 
L 37.796875 17.1875 
L 4.890625 17.1875 
L 4.890625 26.703125 
z
" id="DejaVuSans-52"/>
      </defs>
      <g transform="translate(150.921278 322.182437)scale(0.1 -0.1)">
       <use xlink:href="#DejaVuSans-52"/>
       <use x="63.623047" xlink:href="#DejaVuSans-48"/>
       <use x="127.246094" xlink:href="#DejaVuSans-48"/>
      </g>
     </g>
    </g>
    <g id="xtick_4">
     <g id="line2d_4">
      <g>
       <use style="stroke:#000000;stroke-width:0.8;" x="203.781178" xlink:href="#mff438bf241" y="307.584"/>
      </g>
     </g>
     <g id="text_4">
      <!-- 600 -->
      <defs>
       <path d="M 33.015625 40.375 
Q 26.375 40.375 22.484375 35.828125 
Q 18.609375 31.296875 18.609375 23.390625 
Q 18.609375 15.53125 22.484375 10.953125 
Q 26.375 6.390625 33.015625 6.390625 
Q 39.65625 6.390625 43.53125 10.953125 
Q 47.40625 15.53125 47.40625 23.390625 
Q 47.40625 31.296875 43.53125 35.828125 
Q 39.65625 40.375 33.015625 40.375 
z
M 52.59375 71.296875 
L 52.59375 62.3125 
Q 48.875 64.0625 45.09375 64.984375 
Q 41.3125 65.921875 37.59375 65.921875 
Q 27.828125 65.921875 22.671875 59.328125 
Q 17.53125 52.734375 16.796875 39.40625 
Q 19.671875 43.65625 24.015625 45.921875 
Q 28.375 48.1875 33.59375 48.1875 
Q 44.578125 48.1875 50.953125 41.515625 
Q 57.328125 34.859375 57.328125 23.390625 
Q 57.328125 12.15625 50.6875 5.359375 
Q 44.046875 -1.421875 33.015625 -1.421875 
Q 20.359375 -1.421875 13.671875 8.265625 
Q 6.984375 17.96875 6.984375 36.375 
Q 6.984375 53.65625 15.1875 63.9375 
Q 23.390625 74.21875 37.203125 74.21875 
Q 40.921875 74.21875 44.703125 73.484375 
Q 48.484375 72.75 52.59375 71.296875 
z
" id="DejaVuSans-54"/>
      </defs>
      <g transform="translate(194.237428 322.182437)scale(0.1 -0.1)">
       <use xlink:href="#DejaVuSans-54"/>
       <use x="63.623047" xlink:href="#DejaVuSans-48"/>
       <use x="127.246094" xlink:href="#DejaVuSans-48"/>
      </g>
     </g>
    </g>
    <g id="xtick_5">
     <g id="line2d_5">
      <g>
       <use style="stroke:#000000;stroke-width:0.8;" x="247.097328" xlink:href="#mff438bf241" y="307.584"/>
      </g>
     </g>
     <g id="text_5">
      <!-- 800 -->
      <defs>
       <path d="M 31.78125 34.625 
Q 24.75 34.625 20.71875 30.859375 
Q 16.703125 27.09375 16.703125 20.515625 
Q 16.703125 13.921875 20.71875 10.15625 
Q 24.75 6.390625 31.78125 6.390625 
Q 38.8125 6.390625 42.859375 10.171875 
Q 46.921875 13.96875 46.921875 20.515625 
Q 46.921875 27.09375 42.890625 30.859375 
Q 38.875 34.625 31.78125 34.625 
z
M 21.921875 38.8125 
Q 15.578125 40.375 12.03125 44.71875 
Q 8.5 49.078125 8.5 55.328125 
Q 8.5 64.0625 14.71875 69.140625 
Q 20.953125 74.21875 31.78125 74.21875 
Q 42.671875 74.21875 48.875 69.140625 
Q 55.078125 64.0625 55.078125 55.328125 
Q 55.078125 49.078125 51.53125 44.71875 
Q 48 40.375 41.703125 38.8125 
Q 48.828125 37.15625 52.796875 32.3125 
Q 56.78125 27.484375 56.78125 20.515625 
Q 56.78125 9.90625 50.3125 4.234375 
Q 43.84375 -1.421875 31.78125 -1.421875 
Q 19.734375 -1.421875 13.25 4.234375 
Q 6.78125 9.90625 6.78125 20.515625 
Q 6.78125 27.484375 10.78125 32.3125 
Q 14.796875 37.15625 21.921875 38.8125 
z
M 18.3125 54.390625 
Q 18.3125 48.734375 21.84375 45.5625 
Q 25.390625 42.390625 31.78125 42.390625 
Q 38.140625 42.390625 41.71875 45.5625 
Q 45.3125 48.734375 45.3125 54.390625 
Q 45.3125 60.0625 41.71875 63.234375 
Q 38.140625 66.40625 31.78125 66.40625 
Q 25.390625 66.40625 21.84375 63.234375 
Q 18.3125 60.0625 18.3125 54.390625 
z
" id="DejaVuSans-56"/>
      </defs>
      <g transform="translate(237.553578 322.182437)scale(0.1 -0.1)">
       <use xlink:href="#DejaVuSans-56"/>
       <use x="63.623047" xlink:href="#DejaVuSans-48"/>
       <use x="127.246094" xlink:href="#DejaVuSans-48"/>
      </g>
     </g>
    </g>
    <g id="xtick_6">
     <g id="line2d_6">
      <g>
       <use style="stroke:#000000;stroke-width:0.8;" x="290.413478" xlink:href="#mff438bf241" y="307.584"/>
      </g>
     </g>
     <g id="text_6">
      <!-- 1000 -->
      <defs>
       <path d="M 12.40625 8.296875 
L 28.515625 8.296875 
L 28.515625 63.921875 
L 10.984375 60.40625 
L 10.984375 69.390625 
L 28.421875 72.90625 
L 38.28125 72.90625 
L 38.28125 8.296875 
L 54.390625 8.296875 
L 54.390625 0 
L 12.40625 0 
z
" id="DejaVuSans-49"/>
      </defs>
      <g transform="translate(277.688478 322.182437)scale(0.1 -0.1)">
       <use xlink:href="#DejaVuSans-49"/>
       <use x="63.623047" xlink:href="#DejaVuSans-48"/>
       <use x="127.246094" xlink:href="#DejaVuSans-48"/>
       <use x="190.869141" xlink:href="#DejaVuSans-48"/>
      </g>
     </g>
    </g>
    <g id="xtick_7">
     <g id="line2d_7">
      <g>
       <use style="stroke:#000000;stroke-width:0.8;" x="333.729628" xlink:href="#mff438bf241" y="307.584"/>
      </g>
     </g>
     <g id="text_7">
      <!-- 1200 -->
      <g transform="translate(321.004628 322.182437)scale(0.1 -0.1)">
       <use xlink:href="#DejaVuSans-49"/>
       <use x="63.623047" xlink:href="#DejaVuSans-50"/>
       <use x="127.246094" xlink:href="#DejaVuSans-48"/>
       <use x="190.869141" xlink:href="#DejaVuSans-48"/>
      </g>
     </g>
    </g>
    <g id="xtick_8">
     <g id="line2d_8">
      <g>
       <use style="stroke:#000000;stroke-width:0.8;" x="377.045778" xlink:href="#mff438bf241" y="307.584"/>
      </g>
     </g>
     <g id="text_8">
      <!-- 1400 -->
      <g transform="translate(364.320778 322.182437)scale(0.1 -0.1)">
       <use xlink:href="#DejaVuSans-49"/>
       <use x="63.623047" xlink:href="#DejaVuSans-52"/>
       <use x="127.246094" xlink:href="#DejaVuSans-48"/>
       <use x="190.869141" xlink:href="#DejaVuSans-48"/>
      </g>
     </g>
    </g>
    <g id="text_9">
     <!-- Step -->
     <defs>
      <path d="M 53.515625 70.515625 
L 53.515625 60.890625 
Q 47.90625 63.578125 42.921875 64.890625 
Q 37.9375 66.21875 33.296875 66.21875 
Q 25.25 66.21875 20.875 63.09375 
Q 16.5 59.96875 16.5 54.203125 
Q 16.5 49.359375 19.40625 46.890625 
Q 22.3125 44.4375 30.421875 42.921875 
L 36.375 41.703125 
Q 47.40625 39.59375 52.65625 34.296875 
Q 57.90625 29 57.90625 20.125 
Q 57.90625 9.515625 50.796875 4.046875 
Q 43.703125 -1.421875 29.984375 -1.421875 
Q 24.8125 -1.421875 18.96875 -0.25 
Q 13.140625 0.921875 6.890625 3.21875 
L 6.890625 13.375 
Q 12.890625 10.015625 18.65625 8.296875 
Q 24.421875 6.59375 29.984375 6.59375 
Q 38.421875 6.59375 43.015625 9.90625 
Q 47.609375 13.234375 47.609375 19.390625 
Q 47.609375 24.75 44.3125 27.78125 
Q 41.015625 30.8125 33.5 32.328125 
L 27.484375 33.5 
Q 16.453125 35.6875 11.515625 40.375 
Q 6.59375 45.0625 6.59375 53.421875 
Q 6.59375 63.09375 13.40625 68.65625 
Q 20.21875 74.21875 32.171875 74.21875 
Q 37.3125 74.21875 42.625 73.28125 
Q 47.953125 72.359375 53.515625 70.515625 
z
" id="DejaVuSans-83"/>
      <path d="M 18.3125 70.21875 
L 18.3125 54.6875 
L 36.8125 54.6875 
L 36.8125 47.703125 
L 18.3125 47.703125 
L 18.3125 18.015625 
Q 18.3125 11.328125 20.140625 9.421875 
Q 21.96875 7.515625 27.59375 7.515625 
L 36.8125 7.515625 
L 36.8125 0 
L 27.59375 0 
Q 17.1875 0 13.234375 3.875 
Q 9.28125 7.765625 9.28125 18.015625 
L 9.28125 47.703125 
L 2.6875 47.703125 
L 2.6875 54.6875 
L 9.28125 54.6875 
L 9.28125 70.21875 
z
" id="DejaVuSans-116"/>
      <path d="M 56.203125 29.59375 
L 56.203125 25.203125 
L 14.890625 25.203125 
Q 15.484375 15.921875 20.484375 11.0625 
Q 25.484375 6.203125 34.421875 6.203125 
Q 39.59375 6.203125 44.453125 7.46875 
Q 49.3125 8.734375 54.109375 11.28125 
L 54.109375 2.78125 
Q 49.265625 0.734375 44.1875 -0.34375 
Q 39.109375 -1.421875 33.890625 -1.421875 
Q 20.796875 -1.421875 13.15625 6.1875 
Q 5.515625 13.8125 5.515625 26.8125 
Q 5.515625 40.234375 12.765625 48.109375 
Q 20.015625 56 32.328125 56 
Q 43.359375 56 49.78125 48.890625 
Q 56.203125 41.796875 56.203125 29.59375 
z
M 47.21875 32.234375 
Q 47.125 39.59375 43.09375 43.984375 
Q 39.0625 48.390625 32.421875 48.390625 
Q 24.90625 48.390625 20.390625 44.140625 
Q 15.875 39.890625 15.1875 32.171875 
z
" id="DejaVuSans-101"/>
      <path d="M 18.109375 8.203125 
L 18.109375 -20.796875 
L 9.078125 -20.796875 
L 9.078125 54.6875 
L 18.109375 54.6875 
L 18.109375 46.390625 
Q 20.953125 51.265625 25.265625 53.625 
Q 29.59375 56 35.59375 56 
Q 45.5625 56 51.78125 48.09375 
Q 58.015625 40.1875 58.015625 27.296875 
Q 58.015625 14.40625 51.78125 6.484375 
Q 45.5625 -1.421875 35.59375 -1.421875 
Q 29.59375 -1.421875 25.265625 0.953125 
Q 20.953125 3.328125 18.109375 8.203125 
z
M 48.6875 27.296875 
Q 48.6875 37.203125 44.609375 42.84375 
Q 40.53125 48.484375 33.40625 48.484375 
Q 26.265625 48.484375 22.1875 42.84375 
Q 18.109375 37.203125 18.109375 27.296875 
Q 18.109375 17.390625 22.1875 11.75 
Q 26.265625 6.109375 33.40625 6.109375 
Q 40.53125 6.109375 44.609375 11.75 
Q 48.6875 17.390625 48.6875 27.296875 
z
" id="DejaVuSans-112"/>
     </defs>
     <g transform="translate(224.774844 335.860562)scale(0.1 -0.1)">
      <use xlink:href="#DejaVuSans-83"/>
      <use x="63.476562" xlink:href="#DejaVuSans-116"/>
      <use x="102.685547" xlink:href="#DejaVuSans-101"/>
      <use x="164.208984" xlink:href="#DejaVuSans-112"/>
     </g>
    </g>
   </g>
   <g id="matplotlib.axis_2">
    <g id="ytick_1">
     <g id="line2d_9">
      <defs>
       <path d="M 0 0 
L -3.5 0 
" id="m4848736dc3" style="stroke:#000000;stroke-width:0.8;"/>
      </defs>
      <g>
       <use style="stroke:#000000;stroke-width:0.8;" x="57.6" xlink:href="#m4848736dc3" y="297.066021"/>
      </g>
     </g>
     <g id="text_10">
      <!-- 0 -->
      <g transform="translate(44.2375 300.865239)scale(0.1 -0.1)">
       <use xlink:href="#DejaVuSans-48"/>
      </g>
     </g>
    </g>
    <g id="ytick_2">
     <g id="line2d_10">
      <g>
       <use style="stroke:#000000;stroke-width:0.8;" x="57.6" xlink:href="#m4848736dc3" y="261.63843"/>
      </g>
     </g>
     <g id="text_11">
      <!-- 25 -->
      <defs>
       <path d="M 10.796875 72.90625 
L 49.515625 72.90625 
L 49.515625 64.59375 
L 19.828125 64.59375 
L 19.828125 46.734375 
Q 21.96875 47.46875 24.109375 47.828125 
Q 26.265625 48.1875 28.421875 48.1875 
Q 40.625 48.1875 47.75 41.5 
Q 54.890625 34.8125 54.890625 23.390625 
Q 54.890625 11.625 47.5625 5.09375 
Q 40.234375 -1.421875 26.90625 -1.421875 
Q 22.3125 -1.421875 17.546875 -0.640625 
Q 12.796875 0.140625 7.71875 1.703125 
L 7.71875 11.625 
Q 12.109375 9.234375 16.796875 8.0625 
Q 21.484375 6.890625 26.703125 6.890625 
Q 35.15625 6.890625 40.078125 11.328125 
Q 45.015625 15.765625 45.015625 23.390625 
Q 45.015625 31 40.078125 35.4375 
Q 35.15625 39.890625 26.703125 39.890625 
Q 22.75 39.890625 18.8125 39.015625 
Q 14.890625 38.140625 10.796875 36.28125 
z
" id="DejaVuSans-53"/>
      </defs>
      <g transform="translate(37.875 265.437649)scale(0.1 -0.1)">
       <use xlink:href="#DejaVuSans-50"/>
       <use x="63.623047" xlink:href="#DejaVuSans-53"/>
      </g>
     </g>
    </g>
    <g id="ytick_3">
     <g id="line2d_11">
      <g>
       <use style="stroke:#000000;stroke-width:0.8;" x="57.6" xlink:href="#m4848736dc3" y="226.21084"/>
      </g>
     </g>
     <g id="text_12">
      <!-- 50 -->
      <g transform="translate(37.875 230.010058)scale(0.1 -0.1)">
       <use xlink:href="#DejaVuSans-53"/>
       <use x="63.623047" xlink:href="#DejaVuSans-48"/>
      </g>
     </g>
    </g>
    <g id="ytick_4">
     <g id="line2d_12">
      <g>
       <use style="stroke:#000000;stroke-width:0.8;" x="57.6" xlink:href="#m4848736dc3" y="190.783249"/>
      </g>
     </g>
     <g id="text_13">
      <!-- 75 -->
      <defs>
       <path d="M 8.203125 72.90625 
L 55.078125 72.90625 
L 55.078125 68.703125 
L 28.609375 0 
L 18.3125 0 
L 43.21875 64.59375 
L 8.203125 64.59375 
z
" id="DejaVuSans-55"/>
      </defs>
      <g transform="translate(37.875 194.582468)scale(0.1 -0.1)">
       <use xlink:href="#DejaVuSans-55"/>
       <use x="63.623047" xlink:href="#DejaVuSans-53"/>
      </g>
     </g>
    </g>
    <g id="ytick_5">
     <g id="line2d_13">
      <g>
       <use style="stroke:#000000;stroke-width:0.8;" x="57.6" xlink:href="#m4848736dc3" y="155.355658"/>
      </g>
     </g>
     <g id="text_14">
      <!-- 100 -->
      <g transform="translate(31.5125 159.154877)scale(0.1 -0.1)">
       <use xlink:href="#DejaVuSans-49"/>
       <use x="63.623047" xlink:href="#DejaVuSans-48"/>
       <use x="127.246094" xlink:href="#DejaVuSans-48"/>
      </g>
     </g>
    </g>
    <g id="ytick_6">
     <g id="line2d_14">
      <g>
       <use style="stroke:#000000;stroke-width:0.8;" x="57.6" xlink:href="#m4848736dc3" y="119.928068"/>
      </g>
     </g>
     <g id="text_15">
      <!-- 125 -->
      <g transform="translate(31.5125 123.727287)scale(0.1 -0.1)">
       <use xlink:href="#DejaVuSans-49"/>
       <use x="63.623047" xlink:href="#DejaVuSans-50"/>
       <use x="127.246094" xlink:href="#DejaVuSans-53"/>
      </g>
     </g>
    </g>
    <g id="ytick_7">
     <g id="line2d_15">
      <g>
       <use style="stroke:#000000;stroke-width:0.8;" x="57.6" xlink:href="#m4848736dc3" y="84.500477"/>
      </g>
     </g>
     <g id="text_16">
      <!-- 150 -->
      <g transform="translate(31.5125 88.299696)scale(0.1 -0.1)">
       <use xlink:href="#DejaVuSans-49"/>
       <use x="63.623047" xlink:href="#DejaVuSans-53"/>
       <use x="127.246094" xlink:href="#DejaVuSans-48"/>
      </g>
     </g>
    </g>
    <g id="ytick_8">
     <g id="line2d_16">
      <g>
       <use style="stroke:#000000;stroke-width:0.8;" x="57.6" xlink:href="#m4848736dc3" y="49.072887"/>
      </g>
     </g>
     <g id="text_17">
      <!-- 175 -->
      <g transform="translate(31.5125 52.872105)scale(0.1 -0.1)">
       <use xlink:href="#DejaVuSans-49"/>
       <use x="63.623047" xlink:href="#DejaVuSans-55"/>
       <use x="127.246094" xlink:href="#DejaVuSans-53"/>
      </g>
     </g>
    </g>
    <g id="text_18">
     <!-- Loss -->
     <defs>
      <path d="M 9.8125 72.90625 
L 19.671875 72.90625 
L 19.671875 8.296875 
L 55.171875 8.296875 
L 55.171875 0 
L 9.8125 0 
z
" id="DejaVuSans-76"/>
      <path d="M 30.609375 48.390625 
Q 23.390625 48.390625 19.1875 42.75 
Q 14.984375 37.109375 14.984375 27.296875 
Q 14.984375 17.484375 19.15625 11.84375 
Q 23.34375 6.203125 30.609375 6.203125 
Q 37.796875 6.203125 41.984375 11.859375 
Q 46.1875 17.53125 46.1875 27.296875 
Q 46.1875 37.015625 41.984375 42.703125 
Q 37.796875 48.390625 30.609375 48.390625 
z
M 30.609375 56 
Q 42.328125 56 49.015625 48.375 
Q 55.71875 40.765625 55.71875 27.296875 
Q 55.71875 13.875 49.015625 6.21875 
Q 42.328125 -1.421875 30.609375 -1.421875 
Q 18.84375 -1.421875 12.171875 6.21875 
Q 5.515625 13.875 5.515625 27.296875 
Q 5.515625 40.765625 12.171875 48.375 
Q 18.84375 56 30.609375 56 
z
" id="DejaVuSans-111"/>
      <path d="M 44.28125 53.078125 
L 44.28125 44.578125 
Q 40.484375 46.53125 36.375 47.5 
Q 32.28125 48.484375 27.875 48.484375 
Q 21.1875 48.484375 17.84375 46.4375 
Q 14.5 44.390625 14.5 40.28125 
Q 14.5 37.15625 16.890625 35.375 
Q 19.28125 33.59375 26.515625 31.984375 
L 29.59375 31.296875 
Q 39.15625 29.25 43.1875 25.515625 
Q 47.21875 21.78125 47.21875 15.09375 
Q 47.21875 7.46875 41.1875 3.015625 
Q 35.15625 -1.421875 24.609375 -1.421875 
Q 20.21875 -1.421875 15.453125 -0.5625 
Q 10.6875 0.296875 5.421875 2 
L 5.421875 11.28125 
Q 10.40625 8.6875 15.234375 7.390625 
Q 20.0625 6.109375 24.8125 6.109375 
Q 31.15625 6.109375 34.5625 8.28125 
Q 37.984375 10.453125 37.984375 14.40625 
Q 37.984375 18.0625 35.515625 20.015625 
Q 33.0625 21.96875 24.703125 23.78125 
L 21.578125 24.515625 
Q 13.234375 26.265625 9.515625 29.90625 
Q 5.8125 33.546875 5.8125 39.890625 
Q 5.8125 47.609375 11.28125 51.796875 
Q 16.75 56 26.8125 56 
Q 31.78125 56 36.171875 55.265625 
Q 40.578125 54.546875 44.28125 53.078125 
z
" id="DejaVuSans-115"/>
     </defs>
     <g transform="translate(25.432812 185.581906)rotate(-90)scale(0.1 -0.1)">
      <use xlink:href="#DejaVuSans-76"/>
      <use x="55.697266" xlink:href="#DejaVuSans-111"/>
      <use x="116.878906" xlink:href="#DejaVuSans-115"/>
      <use x="168.978516" xlink:href="#DejaVuSans-115"/>
     </g>
    </g>
   </g>
   <g id="line2d_17">
    <path clip-path="url(#p4f8fb027b0)" d="M 73.832727 266.767563 
L 74.049308 79.396279 
L 74.265889 123.877539 
L 74.69905 166.060785 
L 74.915631 200.918569 
L 75.132212 156.580412 
L 75.348793 203.721369 
L 75.565373 184.748233 
L 75.781954 186.805732 
L 75.998535 200.222256 
L 76.215116 206.506945 
L 76.431696 207.862979 
L 76.648277 206.345744 
L 76.864858 223.853134 
L 77.081439 224.115722 
L 77.298019 230.707569 
L 77.5146 226.72063 
L 77.731181 228.026509 
L 77.947762 224.786973 
L 78.380923 235.436436 
L 78.597504 231.162156 
L 78.814085 239.384248 
L 79.247246 232.422777 
L 79.463827 238.798067 
L 79.680408 216.488335 
L 80.113569 233.503368 
L 80.33015 241.563242 
L 80.546731 239.925284 
L 80.763311 255.447002 
L 81.196473 235.670697 
L 81.413054 241.121776 
L 81.629634 251.257804 
L 81.846215 245.334035 
L 82.062796 248.820266 
L 82.279377 245.900711 
L 82.495957 244.84203 
L 82.712538 242.094445 
L 83.1457 251.001423 
L 83.36228 247.018273 
L 83.578861 248.348521 
L 83.795442 251.82461 
L 84.012023 245.51593 
L 84.228603 250.055534 
L 84.445184 250.011655 
L 84.661765 244.731194 
L 84.878346 256.589528 
L 85.094926 248.870205 
L 85.311507 263.853701 
L 85.528088 248.013333 
L 85.744669 248.525881 
L 85.961249 241.83948 
L 86.17783 246.332474 
L 86.394411 257.565174 
L 86.610992 259.974194 
L 86.827572 257.047385 
L 87.044153 251.927959 
L 87.260734 242.72104 
L 87.477315 254.888297 
L 87.693895 250.241434 
L 87.910476 259.536993 
L 88.127057 248.035216 
L 88.343638 261.64206 
L 88.560218 254.687095 
L 88.776799 259.893701 
L 88.99338 255.892872 
L 89.209961 258.806645 
L 89.426541 264.332481 
L 89.643122 258.283607 
L 89.859703 256.694423 
L 90.076284 260.18488 
L 90.292864 267.839218 
L 90.509445 260.113718 
L 90.726026 258.846323 
L 90.942607 256.855024 
L 91.159187 272.094478 
L 91.375768 263.377877 
L 91.592349 264.530042 
L 91.80893 255.646753 
L 92.02551 267.051841 
L 92.242091 263.010152 
L 92.675253 267.717747 
L 92.891833 260.313928 
L 93.108414 265.016344 
L 93.324995 256.029209 
L 93.541576 265.207224 
L 93.758156 261.599195 
L 93.974737 268.528501 
L 94.191318 269.834128 
L 94.407899 265.796501 
L 94.624479 267.247621 
L 94.84106 263.137578 
L 95.057641 270.101757 
L 95.274222 268.424068 
L 95.490802 261.805008 
L 95.707383 269.922795 
L 95.923964 261.540023 
L 96.140545 272.018326 
L 96.357125 265.124404 
L 96.573706 267.346856 
L 96.790287 266.672977 
L 97.006868 270.390125 
L 97.223448 265.845521 
L 97.440029 265.75469 
L 97.65661 269.876769 
L 97.873191 270.661068 
L 98.089771 269.071799 
L 98.306352 273.712751 
L 98.522933 268.116596 
L 98.739514 270.421076 
L 98.956094 261.798875 
L 99.389256 275.275644 
L 99.605837 275.064848 
L 100.038998 269.567892 
L 100.255579 274.124383 
L 100.47216 269.668448 
L 100.68874 272.589411 
L 100.905321 272.585148 
L 101.121902 261.840778 
L 101.338483 270.538515 
L 101.555063 269.065604 
L 101.771644 273.667575 
L 101.988225 274.002214 
L 102.204806 263.201496 
L 102.421386 269.732547 
L 102.854548 264.396188 
L 103.071129 265.579296 
L 103.287709 269.200974 
L 103.50429 268.430701 
L 103.720871 270.795302 
L 103.937452 264.900516 
L 104.154032 265.09282 
L 104.370613 267.88913 
L 104.587194 267.163058 
L 104.803775 267.569584 
L 105.020355 273.524718 
L 105.236936 275.313978 
L 105.453517 270.639142 
L 105.670098 270.418098 
L 105.886678 261.796359 
L 106.103259 277.339734 
L 106.31984 276.244634 
L 106.536421 272.430285 
L 106.753001 272.320939 
L 106.969582 268.972786 
L 107.402744 275.299683 
L 107.619324 273.495378 
L 107.835905 273.044094 
L 108.052486 273.463199 
L 108.269067 268.218823 
L 108.485647 273.762987 
L 108.702228 270.883158 
L 109.13539 273.789946 
L 109.568551 275.396122 
L 110.001713 274.168497 
L 110.434874 275.905443 
L 110.651455 277.514456 
L 110.868036 277.536365 
L 111.084616 278.468241 
L 111.301197 276.770194 
L 111.734359 279.412611 
L 111.950939 277.03835 
L 112.16752 277.313675 
L 112.384101 280.60311 
L 112.600682 280.431758 
L 112.817262 279.702732 
L 113.033843 281.619978 
L 113.250424 280.862498 
L 113.467005 280.538745 
L 113.683585 278.054901 
L 113.900166 280.707834 
L 114.333328 277.47312 
L 114.549908 278.548026 
L 114.766489 283.265335 
L 114.98307 279.646255 
L 115.199651 278.200287 
L 115.416231 277.990173 
L 115.632812 279.862111 
L 115.849393 280.514031 
L 116.065974 281.689147 
L 116.282554 281.443276 
L 116.499135 282.650428 
L 116.715716 280.716209 
L 116.932297 281.448842 
L 117.148877 280.516139 
L 117.582039 283.218657 
L 117.79862 283.33657 
L 118.0152 278.375002 
L 118.231781 285.897657 
L 118.664943 281.151798 
L 118.881523 281.720974 
L 119.098104 280.397979 
L 119.314685 282.387405 
L 119.531266 282.312232 
L 119.747846 277.872333 
L 119.964427 284.904385 
L 120.181008 283.5833 
L 120.397589 280.531311 
L 120.614169 280.177619 
L 120.83075 282.849745 
L 121.263912 280.501254 
L 121.697073 284.803092 
L 121.913654 284.958972 
L 122.346815 278.781067 
L 122.563396 282.852292 
L 122.779977 274.475104 
L 122.996558 282.003612 
L 123.213138 281.167042 
L 123.429719 277.878011 
L 123.6463 284.393842 
L 123.862881 278.731876 
L 124.296042 283.443729 
L 124.512623 280.997632 
L 124.729204 284.219688 
L 124.945784 283.452604 
L 125.162365 280.23063 
L 125.378946 285.674452 
L 125.595527 281.997605 
L 125.812107 281.930702 
L 126.028688 283.959256 
L 126.245269 281.609196 
L 126.46185 281.166376 
L 126.67843 285.800963 
L 126.895011 284.138956 
L 127.111592 284.644177 
L 127.328173 283.628746 
L 127.544753 285.394136 
L 127.761334 284.437076 
L 127.977915 287.09718 
L 128.194496 284.451899 
L 128.411076 286.455129 
L 128.627657 286.499432 
L 128.844238 285.900151 
L 129.060819 286.788572 
L 129.277399 285.773144 
L 129.49398 285.83725 
L 129.710561 287.475698 
L 129.927142 286.414428 
L 130.143722 286.780676 
L 130.360303 286.459317 
L 130.576884 289.389017 
L 130.793465 286.453319 
L 131.010045 285.811833 
L 131.226626 287.185174 
L 131.443207 286.890726 
L 131.659788 285.574414 
L 131.876368 289.123406 
L 132.092949 283.564714 
L 132.30953 286.885402 
L 132.526111 287.161808 
L 132.742691 287.142629 
L 132.959272 287.873674 
L 133.175853 286.796944 
L 133.392434 287.60963 
L 133.609014 287.9509 
L 133.825595 287.798833 
L 134.042176 289.886943 
L 134.258757 289.697223 
L 134.475337 288.437708 
L 134.691918 284.806744 
L 134.908499 287.333328 
L 135.12508 287.906481 
L 135.341661 287.884938 
L 135.558241 287.621735 
L 135.774822 288.756927 
L 135.991403 287.803211 
L 136.207984 289.272284 
L 136.424564 286.572087 
L 136.857726 288.921306 
L 137.074307 288.269609 
L 137.290887 288.377889 
L 137.507468 289.24581 
L 137.724049 289.158064 
L 137.94063 288.783644 
L 138.15721 288.170251 
L 138.373791 289.240288 
L 138.590372 289.203227 
L 138.806953 287.666228 
L 139.023533 289.758181 
L 139.240114 288.661042 
L 139.456695 288.537782 
L 139.673276 290.611498 
L 139.889856 289.094015 
L 140.106437 290.521293 
L 140.756179 288.768753 
L 140.97276 290.143097 
L 141.189341 289.411141 
L 141.405922 289.831474 
L 141.622502 289.95886 
L 142.055664 288.290364 
L 142.272245 288.535385 
L 142.705406 289.94111 
L 142.921987 289.520667 
L 143.138568 289.42664 
L 143.571729 290.858167 
L 144.004891 290.244412 
L 144.221471 288.96271 
L 144.438052 290.358393 
L 144.654633 286.895196 
L 144.871214 289.988415 
L 145.087794 289.899542 
L 145.304375 289.66761 
L 145.737537 290.721143 
L 145.954117 289.296042 
L 146.170698 289.986041 
L 146.387279 289.547598 
L 146.60386 290.777668 
L 146.82044 290.741444 
L 147.253602 289.667179 
L 147.470183 290.671668 
L 147.686763 289.795886 
L 147.903344 291.240914 
L 148.119925 291.090139 
L 148.336506 289.591901 
L 148.553086 290.834057 
L 148.769667 290.161234 
L 148.986248 290.918513 
L 149.202829 291.193826 
L 149.419409 290.587676 
L 149.63599 290.698036 
L 149.852571 290.069965 
L 150.069152 291.50449 
L 150.285732 291.431437 
L 150.502313 290.840865 
L 150.718894 291.021152 
L 150.935475 290.721609 
L 151.152055 291.238169 
L 151.368636 291.443407 
L 151.585217 290.533205 
L 151.801798 292.213278 
L 152.018378 291.775507 
L 152.234959 291.67062 
L 152.45154 291.219066 
L 152.668121 291.302634 
L 153.101282 292.453978 
L 153.317863 291.404455 
L 153.534444 292.305968 
L 153.751024 291.477892 
L 153.967605 292.160656 
L 154.184186 291.110855 
L 154.400767 292.270618 
L 154.617347 291.534727 
L 154.833928 292.906626 
L 155.050509 291.311496 
L 155.26709 291.04725 
L 155.48367 291.53076 
L 155.700251 290.317376 
L 155.916832 292.294241 
L 156.133413 291.704529 
L 156.349993 290.673899 
L 156.566574 291.132387 
L 156.999736 291.20751 
L 157.216316 291.964901 
L 157.432897 291.688051 
L 157.649478 292.001321 
L 157.866059 291.594936 
L 158.082639 291.97779 
L 158.29922 292.094755 
L 158.515801 291.642084 
L 158.732382 291.602533 
L 158.948962 292.311619 
L 159.165543 291.836092 
L 159.382124 292.900832 
L 159.598705 292.454224 
L 160.031866 292.90429 
L 160.248447 292.016073 
L 160.465028 291.597254 
L 160.681608 292.268596 
L 160.898189 291.954854 
L 161.11477 293.467219 
L 161.331351 292.13201 
L 161.547931 292.196977 
L 161.764512 292.595489 
L 161.981093 292.051321 
L 162.197674 293.290622 
L 162.630835 291.848401 
L 162.847416 292.771269 
L 163.063997 292.824281 
L 163.280577 293.00276 
L 163.497158 292.49713 
L 163.713739 292.781585 
L 164.1469 292.230799 
L 164.580062 293.001671 
L 164.796643 292.415816 
L 165.013223 292.536253 
L 165.229804 291.898738 
L 165.662966 293.571347 
L 165.879546 293.45557 
L 166.312708 292.275424 
L 166.529289 292.918865 
L 166.745869 292.405468 
L 166.96245 292.178885 
L 167.179031 292.461532 
L 167.395612 292.474675 
L 167.612192 293.294798 
L 167.828773 293.013307 
L 168.045354 291.515639 
L 168.261935 292.983792 
L 168.478515 292.517097 
L 168.695096 293.078072 
L 168.911677 293.057408 
L 169.128258 291.086882 
L 169.344838 292.794913 
L 169.561419 292.621999 
L 169.994581 292.790705 
L 170.211161 292.327195 
L 170.427742 292.729307 
L 170.644323 292.49659 
L 171.077484 293.511416 
L 171.294065 293.004176 
L 171.727227 293.223813 
L 171.943807 292.991597 
L 172.160388 293.077048 
L 172.376969 293.586244 
L 172.59355 293.054069 
L 172.81013 293.393845 
L 173.026711 292.663315 
L 173.243292 292.563407 
L 173.459873 293.105841 
L 173.676453 292.937416 
L 173.893034 293.622611 
L 174.326196 292.646175 
L 174.542776 293.561469 
L 174.759357 293.431281 
L 175.192519 293.64114 
L 175.409099 292.782043 
L 175.62568 293.079063 
L 175.842261 292.975384 
L 176.058842 293.032519 
L 176.275422 292.803474 
L 176.492003 293.124027 
L 176.708584 293.751733 
L 176.925165 293.739123 
L 177.141745 292.429835 
L 177.358326 293.163046 
L 177.791488 292.822562 
L 178.008068 292.861884 
L 178.224649 293.497992 
L 178.44123 292.482132 
L 178.657811 293.14307 
L 178.874391 293.024237 
L 179.090972 292.622587 
L 179.307553 293.283907 
L 179.524134 293.34202 
L 179.740714 292.799441 
L 179.957295 293.207972 
L 180.173876 293.203773 
L 180.390457 294.002305 
L 180.607037 292.868202 
L 180.823618 293.657633 
L 181.040199 293.51553 
L 181.25678 293.756316 
L 181.47336 294.325843 
L 181.689941 293.280584 
L 181.906522 293.389144 
L 182.123103 294.048605 
L 182.339683 293.488236 
L 182.556264 293.956355 
L 182.772845 294.134512 
L 182.989426 293.755967 
L 183.206006 293.617601 
L 183.422587 294.324968 
L 183.639168 294.246547 
L 183.855749 293.685364 
L 184.28891 294.782673 
L 184.505491 293.743811 
L 184.722072 294.289095 
L 185.155233 294.08072 
L 185.371814 294.496992 
L 185.588395 294.22725 
L 185.804975 294.215047 
L 186.238137 293.68153 
L 186.454718 293.929466 
L 186.671298 293.969084 
L 186.887879 293.692774 
L 187.321041 294.454485 
L 187.537621 293.746658 
L 187.754202 294.380357 
L 188.187364 293.887563 
L 188.620525 294.687446 
L 188.837106 294.265445 
L 189.053687 294.286835 
L 189.270267 294.501253 
L 189.92001 294.192467 
L 190.13659 294.249979 
L 190.353171 294.775985 
L 190.569752 293.844194 
L 190.786333 294.155364 
L 191.002913 294.74716 
L 191.219494 294.596365 
L 191.436075 294.635418 
L 191.652656 294.10489 
L 191.869236 294.643924 
L 192.302398 294.00798 
L 192.518979 294.573597 
L 192.735559 294.30583 
L 193.168721 294.528066 
L 193.385302 293.657663 
L 193.818463 294.860769 
L 194.251625 294.029721 
L 194.468205 294.63275 
L 194.684786 294.219181 
L 194.901367 294.565959 
L 195.117948 294.051971 
L 195.334528 294.402839 
L 195.551109 294.44825 
L 196.417432 294.114601 
L 196.850594 294.502509 
L 197.067174 294.13207 
L 197.283755 294.023705 
L 197.500336 294.57686 
L 197.716917 293.910236 
L 197.933497 294.345183 
L 198.150078 294.17954 
L 198.366659 294.628181 
L 198.58324 294.195154 
L 198.79982 294.112874 
L 199.016401 293.888163 
L 199.232982 294.330524 
L 199.449563 294.252016 
L 199.666143 294.301897 
L 199.882724 294.149787 
L 200.749047 294.366594 
L 200.965628 294.68467 
L 201.182209 293.776578 
L 201.61537 294.407142 
L 202.048532 294.150087 
L 202.265112 294.006184 
L 202.481693 294.426546 
L 202.914855 294.120998 
L 203.131436 294.124058 
L 203.348016 294.605921 
L 203.564597 294.320661 
L 203.781178 294.562921 
L 204.214339 294.085723 
L 204.43092 294.507179 
L 205.297243 294.278832 
L 205.513824 294.398667 
L 205.730405 294.821222 
L 205.946985 294.198486 
L 206.163566 294.438129 
L 206.596728 294.435643 
L 206.813308 294.295421 
L 207.24647 294.30751 
L 207.463051 294.153619 
L 207.679631 294.431673 
L 208.762535 294.411733 
L 208.979116 294.346437 
L 209.412277 294.525309 
L 209.628858 294.101799 
L 209.845439 294.480212 
L 210.06202 294.141824 
L 210.2786 294.274039 
L 210.495181 294.095709 
L 210.928343 294.574368 
L 211.144923 294.25312 
L 211.578085 294.327377 
L 211.794666 294.081782 
L 212.011246 294.79142 
L 212.227827 294.378819 
L 212.444408 294.378154 
L 212.877569 294.612687 
L 213.09415 294.53369 
L 213.310731 295.089175 
L 213.743892 294.595425 
L 213.960473 294.782753 
L 214.177054 294.385962 
L 214.393635 294.517683 
L 214.610215 294.817302 
L 214.826796 294.515897 
L 215.259958 294.437165 
L 215.476538 294.777665 
L 215.693119 294.30752 
L 215.9097 294.613688 
L 216.342861 294.561434 
L 216.559442 294.561814 
L 216.776023 294.707976 
L 216.992604 294.557934 
L 217.209184 294.97273 
L 217.425765 294.5761 
L 217.642346 294.778989 
L 217.858927 294.489106 
L 218.075507 294.687858 
L 218.72525 294.506691 
L 218.94183 294.789413 
L 219.158411 294.300535 
L 219.374992 294.344359 
L 219.591573 294.846007 
L 219.808153 294.479284 
L 220.241315 294.432129 
L 220.457896 294.590786 
L 220.891057 294.284394 
L 221.324219 294.602933 
L 221.540799 294.153038 
L 221.973961 294.730551 
L 222.190542 294.400193 
L 222.407122 294.437572 
L 222.623703 294.702387 
L 223.273445 294.735343 
L 223.490026 294.964198 
L 223.706607 294.765543 
L 223.923188 294.809019 
L 224.356349 294.388996 
L 224.57293 294.689354 
L 225.439253 294.670629 
L 225.655834 294.541434 
L 225.872414 294.778592 
L 226.088995 294.230383 
L 226.738737 294.651446 
L 226.955318 294.323204 
L 227.171899 294.87978 
L 227.38848 294.904833 
L 227.821641 294.473414 
L 228.038222 294.91079 
L 228.471383 294.591963 
L 228.687964 294.815639 
L 228.904545 294.537199 
L 229.121126 294.767979 
L 229.554287 294.813639 
L 229.770868 294.540457 
L 230.204029 294.475229 
L 230.42061 294.783368 
L 230.637191 294.753771 
L 230.853772 294.391354 
L 231.286933 294.624837 
L 231.503514 294.50707 
L 231.720095 294.84522 
L 232.153256 294.357664 
L 232.586418 294.491327 
L 232.802998 294.505939 
L 233.019579 294.8831 
L 233.23616 294.491655 
L 233.452741 294.440056 
L 233.669321 294.536521 
L 233.885902 294.798665 
L 234.102483 294.720593 
L 234.319064 294.779016 
L 234.752225 294.537062 
L 234.968806 294.888453 
L 235.185387 294.56656 
L 235.835129 294.546805 
L 236.918033 294.906234 
L 237.134613 295.05899 
L 237.351194 294.701824 
L 237.784356 295.013271 
L 238.000936 294.841209 
L 238.217517 295.074326 
L 238.434098 294.731595 
L 239.08384 294.961769 
L 239.300421 294.433039 
L 239.517002 294.75219 
L 239.733582 294.592573 
L 239.950163 295.041977 
L 240.166744 294.771152 
L 240.816486 295.406285 
L 241.033067 294.993816 
L 241.249648 295.156592 
L 241.466228 294.616669 
L 241.682809 294.929639 
L 241.89939 294.641766 
L 242.115971 294.970657 
L 242.332551 294.738562 
L 242.549132 295.018706 
L 242.982294 294.721454 
L 243.198874 294.977427 
L 243.415455 295.048982 
L 243.848617 295.000926 
L 244.065197 294.444754 
L 244.498359 295.087682 
L 244.93152 294.636086 
L 245.148101 294.701964 
L 245.364682 294.970118 
L 245.581263 294.837052 
L 245.797843 294.991911 
L 246.014424 294.576791 
L 246.231005 295.128153 
L 246.447586 294.957834 
L 246.664166 295.096403 
L 246.880747 294.721731 
L 247.313909 294.744028 
L 247.530489 295.061797 
L 247.74707 295.047136 
L 247.963651 294.822883 
L 248.180232 294.889777 
L 248.396812 295.141064 
L 248.613393 294.905514 
L 248.829974 295.026166 
L 249.046555 294.900318 
L 249.263135 294.909265 
L 249.479716 294.754793 
L 249.696297 294.974321 
L 249.912878 294.811558 
L 250.346039 294.895549 
L 250.56262 294.6979 
L 250.779201 294.66339 
L 250.995781 294.818867 
L 251.862104 294.770101 
L 252.078685 295.169842 
L 252.295266 294.827229 
L 252.945008 294.716752 
L 253.161589 295.009876 
L 253.37817 294.584944 
L 254.027912 295.061278 
L 254.461073 294.504269 
L 254.894235 295.059234 
L 255.110816 294.638206 
L 255.327396 294.876633 
L 255.543977 294.588398 
L 255.760558 294.851686 
L 255.977139 294.886139 
L 256.193719 294.65873 
L 256.4103 294.847427 
L 256.626881 294.782773 
L 256.843462 295.010103 
L 257.060042 294.822316 
L 257.276623 294.876794 
L 257.493204 294.59857 
L 257.709785 294.633939 
L 257.926365 295.005088 
L 258.142946 294.850151 
L 258.359527 294.840944 
L 258.576108 294.645493 
L 258.792688 294.874445 
L 259.009269 294.836528 
L 259.22585 294.575596 
L 259.442431 294.90565 
L 259.659011 294.822064 
L 259.875592 294.919781 
L 260.092173 294.469049 
L 260.525334 294.998899 
L 260.741915 294.654406 
L 260.958496 294.979321 
L 261.175077 294.987625 
L 261.391657 294.74267 
L 261.608238 294.742324 
L 261.824819 294.980128 
L 262.25798 294.762059 
L 262.474561 294.739578 
L 262.691142 295.203062 
L 262.907723 294.935977 
L 263.124303 295.050151 
L 263.340884 294.964648 
L 263.557465 294.739404 
L 263.774046 294.959903 
L 263.990626 294.945755 
L 264.207207 295.141967 
L 264.640369 294.661068 
L 265.07353 294.797881 
L 265.290111 294.744485 
L 265.506692 294.941565 
L 265.723272 294.698178 
L 265.939853 294.83232 
L 266.156434 294.713322 
L 266.589595 295.262757 
L 266.806176 294.761614 
L 267.022757 294.829051 
L 267.239338 294.60168 
L 267.88908 294.948525 
L 268.322241 294.73169 
L 268.538822 294.988629 
L 268.755403 295.059204 
L 268.971984 294.697007 
L 269.188564 294.629746 
L 269.405145 295.117067 
L 269.621726 294.858431 
L 269.838307 294.781128 
L 270.054888 294.529358 
L 270.271468 294.887289 
L 270.70463 294.932588 
L 270.921211 294.53863 
L 271.354372 294.872424 
L 271.570953 294.56969 
L 271.787534 294.898079 
L 272.220695 294.863629 
L 272.437276 294.529044 
L 272.653857 294.809375 
L 273.303599 295.140595 
L 273.52018 294.757733 
L 273.73676 295.488 
L 273.953341 294.775154 
L 274.603083 294.966842 
L 275.036245 294.875332 
L 275.252826 294.931999 
L 275.469406 294.571256 
L 275.685987 294.98055 
L 275.902568 294.878519 
L 276.119149 295.134385 
L 276.335729 294.69256 
L 276.55231 294.759379 
L 276.985472 295.206063 
L 277.635214 294.78087 
L 277.851795 294.772445 
L 278.068375 294.527834 
L 278.284956 294.853247 
L 278.501537 294.667819 
L 278.934698 294.86431 
L 279.151279 294.981562 
L 279.584441 294.710875 
L 279.801021 295.140603 
L 280.017602 295.050831 
L 280.234183 294.784211 
L 280.450764 294.959981 
L 280.667344 294.90951 
L 280.883925 295.051983 
L 281.100506 295.043651 
L 281.750248 294.625294 
L 282.18341 294.994331 
L 282.39999 294.913 
L 283.266313 295.0385 
L 283.482894 294.904752 
L 283.699475 295.032873 
L 283.916056 294.964741 
L 284.132636 294.54456 
L 284.349217 295.056832 
L 284.565798 294.964071 
L 284.782379 294.679364 
L 284.998959 294.759795 
L 285.21554 294.659789 
L 285.432121 294.942412 
L 285.648702 294.760326 
L 285.865282 294.960563 
L 286.081863 294.918675 
L 286.298444 294.628221 
L 286.515025 294.952477 
L 286.731605 294.984762 
L 286.948186 294.876201 
L 287.381348 294.856864 
L 287.597928 294.608673 
L 287.814509 294.919246 
L 288.897413 294.760301 
L 289.330574 294.86121 
L 289.547155 294.987242 
L 289.980317 294.561546 
L 290.196897 294.707165 
L 290.413478 295.058657 
L 290.630059 295.118569 
L 291.279801 294.895109 
L 291.496382 295.079419 
L 291.929543 295.153099 
L 292.146124 294.991006 
L 292.362705 295.07403 
L 292.579286 295.330318 
L 292.795866 295.132419 
L 293.012447 294.714049 
L 293.229028 295.210774 
L 293.445609 294.966042 
L 293.662189 294.975784 
L 293.87877 294.862668 
L 294.095351 295.042085 
L 294.311932 294.776548 
L 294.528512 295.009232 
L 294.961674 294.876341 
L 295.178255 294.845624 
L 295.394835 295.04975 
L 296.044578 294.900073 
L 296.69432 295.010525 
L 296.910901 295.327346 
L 297.344062 294.960484 
L 297.777224 294.921076 
L 298.426966 295.202574 
L 298.860127 295.007393 
L 299.076708 295.154351 
L 299.293289 294.973213 
L 299.50987 295.074914 
L 299.72645 294.909148 
L 300.159612 295.22388 
L 300.376193 295.181985 
L 300.592773 294.8343 
L 300.809354 294.854499 
L 301.025935 295.054873 
L 301.242516 294.798919 
L 302.108839 294.98015 
L 302.542 294.766866 
L 302.758581 295.003548 
L 303.191742 294.601605 
L 303.624904 295.129471 
L 304.274646 294.863273 
L 304.491227 295.047461 
L 304.924388 294.981383 
L 305.35755 294.761493 
L 305.790711 295.017513 
L 306.007292 294.978763 
L 306.223873 294.815096 
L 306.440454 295.006264 
L 306.873615 294.908039 
L 307.090196 295.160823 
L 307.306777 294.971527 
L 307.956519 295.197334 
L 308.1731 294.960128 
L 308.38968 294.994777 
L 308.606261 294.848124 
L 308.822842 295.209028 
L 309.039423 294.818996 
L 309.256003 295.045504 
L 309.689165 294.679608 
L 309.905746 294.650533 
L 310.122326 294.973014 
L 310.338907 295.031676 
L 310.555488 294.809212 
L 310.772069 295.070038 
L 310.988649 294.720745 
L 311.638392 294.824694 
L 312.071553 294.801178 
L 312.288134 294.847749 
L 312.504715 295.150208 
L 312.937876 294.396593 
L 313.154457 294.748608 
L 313.587618 294.955309 
L 313.804199 294.883304 
L 314.02078 295.057733 
L 314.237361 294.85285 
L 314.453941 294.947783 
L 314.670522 294.79659 
L 315.103684 294.914587 
L 315.753426 294.883278 
L 316.403168 294.988594 
L 316.619749 294.680758 
L 316.83633 294.842277 
L 317.05291 294.616584 
L 317.269491 295.14543 
L 317.486072 294.778711 
L 317.702653 294.969484 
L 317.919233 294.932382 
L 318.135814 294.766393 
L 318.352395 294.907445 
L 318.568976 294.819167 
L 319.218718 294.852942 
L 319.435299 294.85901 
L 319.651879 295.071938 
L 319.86846 294.908045 
L 320.301622 294.997103 
L 320.734783 294.650965 
L 320.951364 294.900844 
L 321.167945 294.916501 
L 321.601106 294.539487 
L 321.817687 295.101627 
L 322.250848 294.936421 
L 322.467429 294.904291 
L 322.68401 295.000645 
L 322.900591 294.78395 
L 323.117171 295.009547 
L 323.550333 295.072001 
L 323.766914 294.671249 
L 323.983494 294.966656 
L 324.200075 294.958334 
L 324.416656 295.065262 
L 324.633237 295.027836 
L 325.066398 294.753727 
L 325.282979 294.841407 
L 325.49956 295.053404 
L 325.71614 294.784656 
L 325.932721 295.131196 
L 326.149302 295.143032 
L 326.365883 294.959084 
L 326.582463 294.997785 
L 327.015625 294.843383 
L 327.448786 294.804436 
L 327.665367 295.1023 
L 327.881948 295.01339 
L 328.098529 294.771011 
L 328.315109 294.960663 
L 328.748271 294.976671 
L 328.964852 295.23335 
L 329.398013 294.795432 
L 329.614594 295.008348 
L 329.831175 294.717371 
L 330.047755 294.801897 
L 330.264336 295.181713 
L 330.480917 294.684976 
L 330.914078 295.160211 
L 331.34724 294.610727 
L 331.780401 295.039236 
L 331.996982 294.928128 
L 332.430144 294.511339 
L 332.646724 294.870728 
L 332.863305 294.813457 
L 333.079886 294.935932 
L 333.296467 294.908454 
L 333.513047 295.017993 
L 333.729628 294.834587 
L 334.595951 294.984177 
L 334.812532 295.165967 
L 335.029113 294.765796 
L 335.462274 294.992364 
L 335.895436 294.768937 
L 336.112016 294.740349 
L 336.761759 295.040629 
L 336.978339 294.634937 
L 337.628082 295.207585 
L 338.061243 294.544347 
L 338.710986 295.037217 
L 338.927566 295.034941 
L 339.144147 294.622479 
L 339.360728 294.711692 
L 339.577309 294.994363 
L 340.01047 295.063177 
L 340.660212 295.03052 
L 340.876793 294.893094 
L 341.093374 294.999804 
L 341.309955 294.611436 
L 341.526535 295.169676 
L 341.959697 294.651485 
L 342.392858 295.140557 
L 342.609439 294.876492 
L 342.82602 294.828616 
L 343.259181 295.011864 
L 343.908924 294.88582 
L 344.125504 294.581063 
L 344.558666 295.048346 
L 344.775247 295.033495 
L 344.991827 294.850024 
L 345.208408 295.218714 
L 345.424989 295.247387 
L 345.64157 294.890969 
L 346.074731 294.557044 
L 346.291312 295.159085 
L 346.507893 294.927689 
L 346.941054 295.054706 
L 347.157635 295.25162 
L 347.374216 294.714676 
L 347.590796 294.98929 
L 347.807377 294.974147 
L 348.023958 294.805211 
L 348.457119 294.978938 
L 348.6737 294.910155 
L 348.890281 295.000216 
L 349.106862 294.866734 
L 349.323442 295.155278 
L 349.540023 294.955455 
L 349.973185 295.180644 
L 350.189765 294.705299 
L 350.406346 294.784734 
L 350.622927 295.01879 
L 351.272669 295.008223 
L 351.48925 294.83823 
L 351.922411 295.015542 
L 352.138992 294.643511 
L 352.572154 294.94484 
L 352.788734 294.927741 
L 353.005315 295.238598 
L 353.221896 294.868457 
L 353.655057 294.804899 
L 353.871638 294.958742 
L 354.52138 294.945471 
L 354.737961 294.865418 
L 355.171123 295.061857 
L 355.604284 294.988996 
L 356.037446 294.586003 
L 356.470607 295.163133 
L 356.903769 294.726583 
L 357.120349 294.741588 
L 357.33693 294.901468 
L 357.553511 294.854512 
L 357.770092 294.633101 
L 357.986672 294.742497 
L 358.203253 294.45049 
L 358.419834 294.82578 
L 358.636415 294.53795 
L 358.852995 294.636347 
L 359.069576 294.982093 
L 359.719318 294.679764 
L 359.935899 295.035046 
L 360.15248 294.730645 
L 360.369061 295.078956 
L 360.585641 295.136311 
L 360.802222 294.861991 
L 361.668545 294.847018 
L 361.885126 294.80058 
L 362.318287 295.123373 
L 362.534868 294.799662 
L 362.751449 294.882815 
L 362.96803 294.732016 
L 363.18461 294.969179 
L 363.401191 294.985309 
L 363.617772 294.613537 
L 363.834353 294.939807 
L 364.050933 294.875916 
L 364.484095 295.283557 
L 364.917256 294.815945 
L 365.566999 294.858246 
L 365.783579 294.773972 
L 366.00016 295.165371 
L 366.216741 295.164759 
L 366.433322 294.660426 
L 366.649902 294.631596 
L 367.083064 295.1185 
L 367.516225 294.620449 
L 367.949387 295.026139 
L 368.165968 294.478486 
L 368.382548 294.688337 
L 368.599129 294.702532 
L 368.81571 294.523531 
L 369.032291 294.853005 
L 369.465452 294.892173 
L 370.115194 294.957865 
L 370.331775 294.8382 
L 370.548356 294.982759 
L 370.764937 294.80794 
L 370.981517 294.996791 
L 371.414679 295.117285 
L 371.63126 294.839383 
L 371.84784 294.813711 
L 372.064421 295.151534 
L 372.281002 295.238153 
L 372.714163 294.833945 
L 372.930744 295.066705 
L 373.147325 294.834291 
L 373.363906 294.973365 
L 373.580486 294.734621 
L 373.797067 294.845276 
L 374.013648 295.176309 
L 374.230229 294.680671 
L 374.446809 294.96593 
L 374.66339 294.89513 
L 374.879971 295.047468 
L 375.096552 294.603312 
L 375.313132 295.108543 
L 375.529713 294.806759 
L 375.746294 294.814058 
L 375.962875 294.647237 
L 376.396036 295.021058 
L 376.612617 294.472615 
L 377.262359 295.141323 
L 377.47894 294.814449 
L 377.912101 295.216325 
L 378.128682 294.944361 
L 378.345263 295.044175 
L 378.561844 294.8383 
L 379.428167 295.145375 
L 379.644747 295.003555 
L 379.861328 294.719591 
L 380.077909 294.987651 
L 380.29449 294.806661 
L 380.51107 295.249982 
L 381.160813 294.722271 
L 381.377393 294.79599 
L 381.593974 295.030643 
L 381.810555 294.409664 
L 382.027136 294.921653 
L 382.243716 294.956771 
L 382.460297 294.696586 
L 382.676878 294.96093 
L 382.893459 294.729178 
L 383.110039 294.929585 
L 383.543201 294.724816 
L 383.976362 294.859436 
L 384.192943 294.931198 
L 384.409524 294.738472 
L 384.626105 294.726601 
L 384.842685 294.46544 
L 385.059266 294.96733 
L 385.709008 294.656469 
L 386.575331 295.1234 
L 386.791912 294.798167 
L 387.008493 294.780452 
L 387.225074 295.214693 
L 387.441654 294.830471 
L 387.658235 294.869049 
L 387.874816 294.696181 
L 388.307977 295.056503 
L 388.524558 295.066897 
L 388.741139 294.768588 
L 388.95772 294.664778 
L 389.1743 295.203891 
L 389.390881 294.915443 
L 389.607462 295.093537 
L 389.824043 294.811996 
L 390.257204 294.991394 
L 390.690366 294.599407 
L 390.906946 294.747232 
L 391.123527 294.61179 
L 391.556689 294.958807 
L 391.773269 294.711202 
L 392.206431 294.826148 
L 392.423012 294.77177 
L 392.639592 294.926995 
L 393.505915 294.794786 
L 393.722496 295.019554 
L 393.939077 294.913369 
L 394.155658 295.047676 
L 394.372238 294.819018 
L 394.8054 294.966035 
L 395.021981 294.696236 
L 395.238561 295.135276 
L 395.455142 294.448035 
L 395.671723 295.054766 
L 395.888304 294.469895 
L 396.104884 294.673159 
L 396.321465 295.044199 
L 396.538046 295.025096 
L 396.754627 294.709015 
L 397.187788 294.849888 
L 397.404369 295.146523 
L 397.62095 294.821402 
L 397.83753 295.125242 
L 398.487273 294.655293 
L 398.487273 294.655293 
" style="fill:none;stroke:#1f77b4;stroke-linecap:square;stroke-width:1.5;"/>
   </g>
   <g id="line2d_18">
    <path clip-path="url(#p4f8fb027b0)" d="M 73.832727 267.907712 
L 74.049308 53.568 
L 74.265889 129.901538 
L 74.48247 145.65875 
L 74.915631 190.320024 
L 75.132212 167.368583 
L 75.348793 191.756481 
L 75.565373 189.92355 
L 75.781954 190.697145 
L 76.215116 213.555898 
L 76.431696 214.123812 
L 76.648277 216.372623 
L 76.864858 226.407065 
L 77.081439 225.245609 
L 77.298019 231.82052 
L 77.5146 228.441022 
L 77.731181 226.961384 
L 77.947762 226.951783 
L 78.164342 231.201494 
L 78.814085 236.251661 
L 79.030665 235.962125 
L 79.247246 235.148176 
L 79.463827 233.508158 
L 79.680408 227.276981 
L 80.113569 235.840516 
L 80.33015 235.219619 
L 80.546731 237.6753 
L 80.763311 246.719974 
L 80.979892 242.472485 
L 81.196473 241.589488 
L 81.413054 239.317248 
L 82.279377 249.79374 
L 82.495957 245.883337 
L 82.712538 246.423514 
L 82.929119 248.986473 
L 83.1457 249.718124 
L 83.36228 249.568469 
L 83.578861 248.660669 
L 83.795442 252.247116 
L 84.012023 252.641111 
L 84.228603 252.181278 
L 84.445184 250.704475 
L 84.661765 250.99206 
L 84.878346 257.843503 
L 85.094926 253.019124 
L 85.311507 255.280165 
L 85.744669 251.611188 
L 86.17783 249.63735 
L 86.394411 253.488587 
L 86.610992 259.35732 
L 86.827572 258.054576 
L 87.044153 252.538154 
L 87.260734 254.41188 
L 87.477315 258.147835 
L 87.693895 254.067067 
L 88.127057 256.27042 
L 88.343638 259.511615 
L 88.560218 256.1538 
L 88.776799 256.950515 
L 88.99338 255.779193 
L 89.426541 260.635226 
L 89.643122 260.867579 
L 90.292864 265.537195 
L 90.726026 261.219268 
L 90.942607 264.06186 
L 91.159187 264.964781 
L 91.375768 267.01329 
L 91.592349 265.961422 
L 91.80893 261.440923 
L 92.02551 264.973216 
L 92.242091 263.886027 
L 92.675253 266.408084 
L 92.891833 264.747437 
L 93.108414 264.232195 
L 93.324995 260.550319 
L 93.758156 266.71175 
L 93.974737 264.182831 
L 94.191318 266.713664 
L 94.407899 265.450221 
L 94.624479 265.13827 
L 94.84106 266.064803 
L 95.057641 267.882635 
L 95.274222 266.608445 
L 95.490802 266.796668 
L 95.707383 268.664398 
L 95.923964 267.23352 
L 96.140545 269.357959 
L 96.357125 266.731776 
L 96.573706 266.269619 
L 96.790287 267.008087 
L 97.006868 267.227736 
L 97.440029 269.557615 
L 97.65661 271.025144 
L 97.873191 270.851331 
L 98.089771 268.893929 
L 98.306352 270.348465 
L 98.522933 270.369437 
L 98.956094 265.9183 
L 99.389256 273.4071 
L 99.605837 273.04753 
L 99.822417 271.638402 
L 100.038998 271.422926 
L 100.255579 271.014181 
L 100.47216 272.471345 
L 100.68874 272.552543 
L 101.121902 267.208607 
L 101.338483 267.293319 
L 101.555063 266.034336 
L 101.771644 269.63201 
L 101.988225 269.520288 
L 102.421386 265.834899 
L 102.637967 267.499105 
L 102.854548 264.550014 
L 103.071129 265.265547 
L 103.287709 271.035688 
L 103.50429 270.02284 
L 103.720871 269.685414 
L 103.937452 268.223667 
L 104.154032 265.853557 
L 104.370613 267.619744 
L 104.587194 265.790871 
L 105.236936 273.175645 
L 105.670098 270.079715 
L 105.886678 270.088788 
L 106.103259 273.064931 
L 106.31984 273.915586 
L 106.969582 269.113649 
L 107.402744 275.659948 
L 107.835905 273.89406 
L 108.052486 271.918394 
L 108.269067 273.014113 
L 108.485647 274.82542 
L 108.918809 274.192842 
L 109.35197 276.695503 
L 109.568551 276.286968 
L 109.785132 275.330485 
L 110.001713 276.689381 
L 110.218293 277.089255 
L 110.434874 276.268291 
L 110.651455 276.415398 
L 110.868036 277.907641 
L 111.084616 278.323745 
L 111.301197 277.535545 
L 111.517778 278.185686 
L 111.734359 277.79187 
L 111.950939 278.051989 
L 112.16752 278.525558 
L 112.384101 280.351605 
L 112.600682 279.97716 
L 112.817262 278.844954 
L 113.033843 280.047695 
L 113.250424 280.388036 
L 113.683585 280.224616 
L 113.900166 280.565471 
L 114.116747 278.591601 
L 114.333328 279.526529 
L 114.549908 279.302084 
L 114.766489 279.623869 
L 115.199651 280.922503 
L 115.416231 280.3775 
L 115.632812 280.765168 
L 115.849393 280.258679 
L 116.065974 281.552005 
L 116.282554 281.902935 
L 116.499135 281.991133 
L 116.715716 281.688089 
L 116.932297 281.068353 
L 117.148877 281.065209 
L 117.365458 282.485483 
L 117.582039 282.444734 
L 117.79862 282.932683 
L 118.0152 282.94225 
L 118.231781 284.392404 
L 118.448362 282.797273 
L 118.881523 281.725012 
L 119.098104 281.777876 
L 119.314685 282.114168 
L 119.531266 282.089095 
L 119.747846 282.429977 
L 119.964427 283.595718 
L 120.181008 282.921484 
L 120.397589 281.813353 
L 120.83075 282.606007 
L 121.047331 282.402549 
L 121.263912 283.106676 
L 121.480492 282.251389 
L 121.697073 282.76143 
L 121.913654 282.595313 
L 122.130235 280.058531 
L 122.346815 281.852002 
L 122.563396 280.756927 
L 122.779977 278.208829 
L 123.213138 279.987676 
L 123.429719 278.89622 
L 123.6463 281.865042 
L 123.862881 281.472832 
L 124.079461 281.873068 
L 124.296042 283.132984 
L 124.512623 281.347601 
L 124.729204 282.201566 
L 124.945784 282.428281 
L 125.162365 281.713446 
L 125.378946 283.135438 
L 125.595527 283.327681 
L 125.812107 284.62925 
L 126.028688 284.662346 
L 126.46185 281.999157 
L 126.67843 284.222193 
L 126.895011 284.815871 
L 127.111592 284.725017 
L 127.328173 283.992823 
L 127.761334 285.426351 
L 127.977915 285.479373 
L 128.411076 284.295175 
L 128.627657 285.525086 
L 128.844238 285.46688 
L 129.060819 285.098745 
L 129.277399 285.230303 
L 129.927142 286.441495 
L 130.143722 286.244962 
L 130.576884 286.640586 
L 130.793465 285.169747 
L 131.010045 285.418515 
L 131.443207 285.01501 
L 131.876368 286.77588 
L 132.092949 285.337376 
L 132.526111 286.686516 
L 132.742691 286.743536 
L 132.959272 286.978722 
L 133.392434 287.094185 
L 133.609014 287.340449 
L 133.825595 287.384687 
L 134.042176 287.923921 
L 134.258757 287.564175 
L 134.691918 285.881045 
L 134.908499 286.804715 
L 135.12508 286.639554 
L 135.341661 286.812079 
L 135.774822 287.577847 
L 135.991403 287.256134 
L 136.207984 287.722826 
L 136.424564 287.86576 
L 136.857726 287.37607 
L 137.074307 288.311444 
L 137.290887 288.731591 
L 137.507468 288.517069 
L 137.94063 287.445496 
L 138.15721 287.884749 
L 138.373791 288.700722 
L 138.806953 289.195092 
L 139.023533 288.932992 
L 139.240114 288.14347 
L 139.456695 288.49728 
L 139.673276 289.138495 
L 139.889856 289.378873 
L 140.106437 289.270047 
L 140.323018 289.287795 
L 140.756179 288.950103 
L 141.189341 289.7037 
L 141.405922 289.295944 
L 141.839083 288.105133 
L 142.705406 289.245809 
L 143.138568 288.723745 
L 143.571729 289.722567 
L 144.004891 288.83918 
L 144.221471 287.944001 
L 144.654633 288.04976 
L 144.871214 288.433509 
L 145.087794 289.318296 
L 145.304375 289.632759 
L 145.737537 288.861035 
L 145.954117 288.912645 
L 146.170698 289.446312 
L 146.387279 289.618558 
L 146.60386 290.059634 
L 146.82044 290.231433 
L 147.037021 289.478561 
L 147.253602 289.642207 
L 147.470183 289.947351 
L 147.686763 289.531796 
L 147.903344 290.313782 
L 148.336506 289.752863 
L 148.769667 290.41018 
L 148.986248 290.219346 
L 149.202829 290.714721 
L 149.63599 289.925822 
L 149.852571 290.294397 
L 150.069152 290.889066 
L 150.935475 290.68815 
L 151.152055 291.002247 
L 151.368636 291.040033 
L 151.585217 290.692206 
L 151.801798 291.228554 
L 152.018378 291.321445 
L 152.45154 291.095212 
L 152.884701 291.697251 
L 153.317863 291.645433 
L 154.184186 291.107085 
L 154.400767 291.689872 
L 154.617347 291.582224 
L 155.050509 291.09996 
L 155.26709 291.729149 
L 155.700251 290.521138 
L 155.916832 291.323911 
L 156.133413 291.436625 
L 156.349993 291.060478 
L 156.566574 291.205054 
L 156.783155 290.989236 
L 156.999736 291.594268 
L 157.216316 291.638734 
L 157.432897 291.402559 
L 157.649478 291.643269 
L 158.732382 291.882568 
L 158.948962 292.171486 
L 159.382124 292.387479 
L 159.815285 292.065705 
L 160.248447 292.382622 
L 160.465028 291.951519 
L 160.681608 292.26647 
L 160.898189 292.370062 
L 161.11477 292.267855 
L 161.331351 291.898748 
L 161.981093 292.120312 
L 162.414254 292.533415 
L 162.847416 292.457646 
L 163.063997 292.245222 
L 164.1469 292.621434 
L 165.013223 292.340457 
L 165.879546 292.692905 
L 166.096127 292.611865 
L 166.312708 292.382963 
L 166.529289 292.414811 
L 166.96245 292.107238 
L 167.179031 292.088364 
L 167.395612 292.338306 
L 167.612192 292.864437 
L 168.045354 292.175608 
L 168.261935 292.622714 
L 168.695096 292.707407 
L 169.128258 292.284879 
L 169.344838 292.335448 
L 169.778 292.148821 
L 169.994581 292.573171 
L 170.427742 292.429263 
L 170.860904 292.87784 
L 171.077484 292.965695 
L 171.294065 292.871277 
L 171.727227 293.110043 
L 172.376969 293.054469 
L 172.59355 293.181107 
L 172.81013 293.157175 
L 173.026711 292.93677 
L 173.243292 292.970109 
L 173.459873 292.841446 
L 173.893034 293.307202 
L 174.109615 292.964134 
L 174.326196 292.885794 
L 174.759357 293.141411 
L 175.192519 293.445576 
L 175.62568 293.263841 
L 176.058842 293.260538 
L 176.275422 293.105447 
L 176.708584 293.364078 
L 177.141745 292.745253 
L 177.574907 293.184366 
L 178.008068 292.727487 
L 178.224649 293.088064 
L 178.44123 292.884992 
L 178.657811 292.447684 
L 178.874391 292.582636 
L 179.090972 293.148332 
L 179.307553 293.269449 
L 179.740714 292.747194 
L 180.390457 293.509084 
L 180.607037 293.39898 
L 180.823618 293.523277 
L 181.25678 293.522162 
L 181.689941 293.660287 
L 182.123103 293.677521 
L 182.339683 293.434937 
L 183.206006 293.450328 
L 183.639168 293.752806 
L 183.855749 293.700986 
L 184.072329 293.926788 
L 184.28891 293.876911 
L 184.505491 293.681329 
L 184.722072 293.78793 
L 185.155233 293.470276 
L 185.588395 293.840523 
L 186.887879 293.611951 
L 187.321041 293.798706 
L 187.537621 293.706139 
L 188.403944 293.938413 
L 189.053687 293.999575 
L 189.270267 293.832295 
L 189.703429 293.84662 
L 190.353171 294.090517 
L 190.569752 294.000655 
L 191.219494 294.073783 
L 191.436075 293.935186 
L 191.869236 294.125111 
L 192.085817 293.840423 
L 192.302398 293.838923 
L 192.518979 294.123693 
L 193.601882 293.956086 
L 193.818463 294.136009 
L 194.251625 293.84325 
L 194.468205 294.050577 
L 194.901367 293.960422 
L 195.76769 294.126963 
L 195.984271 293.947809 
L 196.417432 294.036215 
L 196.850594 294.157402 
L 197.283755 293.997109 
L 197.716917 293.984602 
L 198.150078 294.155395 
L 198.58324 294.085294 
L 199.016401 293.860564 
L 199.232982 294.063019 
L 199.449563 294.094304 
L 199.666143 293.980363 
L 200.099305 294.170372 
L 200.315886 294.167177 
L 200.532466 294.052198 
L 200.965628 294.096213 
L 201.398789 293.751197 
L 201.831951 293.948157 
L 202.265112 293.940548 
L 202.481693 294.096222 
L 203.131436 294.152246 
L 203.564597 294.231214 
L 203.781178 294.257732 
L 204.214339 294.077229 
L 204.864082 294.284455 
L 205.513824 294.212057 
L 205.946985 294.336089 
L 207.679631 294.196889 
L 208.762535 294.365036 
L 209.412277 294.103395 
L 209.628858 294.234774 
L 209.845439 294.123818 
L 210.06202 293.885536 
L 210.2786 293.872969 
L 210.711762 294.273058 
L 210.928343 294.198921 
L 211.144923 293.985371 
L 211.578085 294.083833 
L 212.011246 294.282856 
L 212.227827 294.169786 
L 213.743892 294.395059 
L 215.476538 294.377529 
L 215.9097 294.390546 
L 216.342861 294.458637 
L 216.776023 294.409121 
L 218.292088 294.497701 
L 218.94183 294.486591 
L 219.374992 294.417452 
L 219.591573 294.47688 
L 220.024734 294.32512 
L 220.457896 294.45717 
L 220.891057 294.378733 
L 221.107638 294.478821 
L 221.540799 294.317658 
L 221.973961 294.481533 
L 222.190542 294.377758 
L 223.490026 294.491339 
L 223.923188 294.395059 
L 224.356349 294.485171 
L 224.57293 294.430332 
L 225.222672 294.557088 
L 225.655834 294.213184 
L 226.522157 294.377309 
L 227.171899 294.386879 
L 227.821641 294.559251 
L 228.254803 294.52482 
L 228.687964 294.504349 
L 229.337706 294.5278 
L 230.853772 294.335413 
L 231.936675 294.477706 
L 232.369837 294.475638 
L 232.802998 294.548731 
L 233.452741 294.452798 
L 233.885902 294.553172 
L 234.535644 294.305807 
L 234.968806 294.479719 
L 235.401967 294.422956 
L 235.835129 294.568723 
L 236.701452 294.471284 
L 237.134613 294.573943 
L 237.567775 294.602139 
L 238.434098 294.637137 
L 239.300421 294.569474 
L 239.733582 294.545791 
L 240.166744 294.42564 
L 240.816486 294.599961 
L 241.466228 294.631519 
L 242.332551 294.545772 
L 242.765713 294.644509 
L 244.065197 294.427727 
L 244.498359 294.640106 
L 245.148101 294.540459 
L 245.581263 294.600121 
L 246.447586 294.599822 
L 246.880747 294.6679 
L 247.313909 294.581456 
L 247.74707 294.684526 
L 249.046555 294.568465 
L 249.479716 294.474369 
L 249.912878 294.59557 
L 250.779201 294.525039 
L 251.212362 294.663127 
L 252.295266 294.582917 
L 253.161589 294.604699 
L 253.59475 294.531908 
L 254.027912 294.622286 
L 254.461073 294.427789 
L 254.894235 294.628906 
L 256.193719 294.423808 
L 256.626881 294.518528 
L 257.060042 294.591113 
L 257.709785 294.518227 
L 258.142946 294.613065 
L 258.576108 294.602037 
L 259.009269 294.609971 
L 259.659011 294.560079 
L 260.525334 294.605727 
L 261.175077 294.498918 
L 263.124303 294.698471 
L 265.506692 294.702498 
L 266.156434 294.623186 
L 266.806176 294.71365 
L 267.239338 294.693304 
L 267.672499 294.748465 
L 268.105661 294.588028 
L 270.488049 294.578322 
L 270.921211 294.340622 
L 271.570953 294.595989 
L 273.303599 294.583263 
L 273.52018 294.553669 
L 273.953341 294.66067 
L 274.386503 294.546014 
L 274.819664 294.691068 
L 275.252826 294.600725 
L 276.335729 294.745177 
L 278.501537 294.638377 
L 279.36786 294.722322 
L 282.616571 294.683814 
L 283.049733 294.700311 
L 283.482894 294.737629 
L 283.916056 294.727698 
L 284.132636 294.650231 
L 284.565798 294.746872 
L 285.21554 294.64743 
L 285.648702 294.793683 
L 286.515025 294.71432 
L 287.164767 294.69934 
L 288.680832 294.67515 
L 288.897413 294.750228 
L 289.330574 294.604661 
L 289.980317 294.710358 
L 291.06322 294.659338 
L 292.362705 294.715954 
L 294.095351 294.708986 
L 294.745093 294.716358 
L 295.394835 294.634795 
L 296.261158 294.711699 
L 296.69432 294.751966 
L 297.344062 294.736228 
L 298.426966 294.713129 
L 299.72645 294.71958 
L 300.376193 294.702857 
L 300.809354 294.69235 
L 301.242516 294.681985 
L 301.675677 294.639563 
L 302.108839 294.718858 
L 302.758581 294.651977 
L 303.408323 294.711496 
L 304.707808 294.662834 
L 305.140969 294.536761 
L 306.007292 294.666254 
L 306.440454 294.642069 
L 307.090196 294.541399 
L 307.523357 294.571852 
L 307.956519 294.683342 
L 308.606261 294.62018 
L 309.256003 294.685943 
L 312.721295 294.561263 
L 313.154457 294.612793 
L 313.804199 294.731355 
L 314.237361 294.68133 
L 314.670522 294.650322 
L 315.103684 294.677475 
L 315.536845 294.654919 
L 316.186587 294.633169 
L 317.486072 294.690078 
L 317.919233 294.708577 
L 318.352395 294.701019 
L 319.002137 294.566182 
L 320.518202 294.748275 
L 320.951364 294.582548 
L 321.384525 294.721219 
L 345.85815 294.669189 
L 346.291312 294.642406 
L 346.724473 294.675428 
L 348.023958 294.630032 
L 348.6737 294.631718 
L 349.106862 294.668836 
L 349.540023 294.678051 
L 349.973185 294.585052 
L 351.272669 294.623216 
L 351.705831 294.635621 
L 355.387703 294.627029 
L 355.604284 294.684835 
L 356.254026 294.496114 
L 356.687188 294.546772 
L 357.33693 294.410165 
L 358.203253 294.54503 
L 359.719318 294.548711 
L 360.15248 294.515927 
L 360.585641 294.682326 
L 361.235384 294.643895 
L 361.451964 294.733556 
L 363.18461 294.582961 
L 366.433322 294.614501 
L 366.866483 294.607715 
L 367.732806 294.677151 
L 372.064421 294.677318 
L 372.497583 294.780349 
L 372.930744 294.644618 
L 373.580486 294.718082 
L 374.013648 294.578788 
L 378.995005 294.654674 
L 379.428167 294.748004 
L 380.727651 294.52718 
L 382.027136 294.693575 
L 384.842685 294.586249 
L 385.059266 294.720077 
L 385.709008 294.649498 
L 386.14217 294.750829 
L 387.874816 294.64802 
L 388.524558 294.696684 
L 388.95772 294.637992 
L 389.390881 294.724238 
L 389.824043 294.59693 
L 390.257204 294.703197 
L 390.690366 294.470703 
L 391.123527 294.715054 
L 391.556689 294.582299 
L 391.98985 294.751092 
L 392.639592 294.520917 
L 392.856173 294.701419 
L 395.455142 294.588431 
L 395.671723 294.686279 
L 395.888304 294.519246 
L 396.538046 294.619181 
L 396.971207 294.634047 
L 397.404369 294.639708 
L 397.62095 294.606165 
L 398.054111 294.705817 
L 398.487273 294.618489 
L 398.487273 294.618489 
" style="fill:none;stroke:#ff7f0e;stroke-linecap:square;stroke-width:1.5;"/>
   </g>
   <g id="patch_3">
    <path d="M 57.6 307.584 
L 57.6 41.472 
" style="fill:none;stroke:#000000;stroke-linecap:square;stroke-linejoin:miter;stroke-width:0.8;"/>
   </g>
   <g id="patch_4">
    <path d="M 414.72 307.584 
L 414.72 41.472 
" style="fill:none;stroke:#000000;stroke-linecap:square;stroke-linejoin:miter;stroke-width:0.8;"/>
   </g>
   <g id="patch_5">
    <path d="M 57.6 307.584 
L 414.72 307.584 
" style="fill:none;stroke:#000000;stroke-linecap:square;stroke-linejoin:miter;stroke-width:0.8;"/>
   </g>
   <g id="patch_6">
    <path d="M 57.6 41.472 
L 414.72 41.472 
" style="fill:none;stroke:#000000;stroke-linecap:square;stroke-linejoin:miter;stroke-width:0.8;"/>
   </g>
   <g id="text_19">
    <!-- PyTorch MLP -->
    <defs>
     <path d="M 19.671875 64.796875 
L 19.671875 37.40625 
L 32.078125 37.40625 
Q 38.96875 37.40625 42.71875 40.96875 
Q 46.484375 44.53125 46.484375 51.125 
Q 46.484375 57.671875 42.71875 61.234375 
Q 38.96875 64.796875 32.078125 64.796875 
z
M 9.8125 72.90625 
L 32.078125 72.90625 
Q 44.34375 72.90625 50.609375 67.359375 
Q 56.890625 61.8125 56.890625 51.125 
Q 56.890625 40.328125 50.609375 34.8125 
Q 44.34375 29.296875 32.078125 29.296875 
L 19.671875 29.296875 
L 19.671875 0 
L 9.8125 0 
z
" id="DejaVuSans-80"/>
     <path d="M 32.171875 -5.078125 
Q 28.375 -14.84375 24.75 -17.8125 
Q 21.140625 -20.796875 15.09375 -20.796875 
L 7.90625 -20.796875 
L 7.90625 -13.28125 
L 13.1875 -13.28125 
Q 16.890625 -13.28125 18.9375 -11.515625 
Q 21 -9.765625 23.484375 -3.21875 
L 25.09375 0.875 
L 2.984375 54.6875 
L 12.5 54.6875 
L 29.59375 11.921875 
L 46.6875 54.6875 
L 56.203125 54.6875 
z
" id="DejaVuSans-121"/>
     <path d="M -0.296875 72.90625 
L 61.375 72.90625 
L 61.375 64.59375 
L 35.5 64.59375 
L 35.5 0 
L 25.59375 0 
L 25.59375 64.59375 
L -0.296875 64.59375 
z
" id="DejaVuSans-84"/>
     <path d="M 41.109375 46.296875 
Q 39.59375 47.171875 37.8125 47.578125 
Q 36.03125 48 33.890625 48 
Q 26.265625 48 22.1875 43.046875 
Q 18.109375 38.09375 18.109375 28.8125 
L 18.109375 0 
L 9.078125 0 
L 9.078125 54.6875 
L 18.109375 54.6875 
L 18.109375 46.1875 
Q 20.953125 51.171875 25.484375 53.578125 
Q 30.03125 56 36.53125 56 
Q 37.453125 56 38.578125 55.875 
Q 39.703125 55.765625 41.0625 55.515625 
z
" id="DejaVuSans-114"/>
     <path d="M 48.78125 52.59375 
L 48.78125 44.1875 
Q 44.96875 46.296875 41.140625 47.34375 
Q 37.3125 48.390625 33.40625 48.390625 
Q 24.65625 48.390625 19.8125 42.84375 
Q 14.984375 37.3125 14.984375 27.296875 
Q 14.984375 17.28125 19.8125 11.734375 
Q 24.65625 6.203125 33.40625 6.203125 
Q 37.3125 6.203125 41.140625 7.25 
Q 44.96875 8.296875 48.78125 10.40625 
L 48.78125 2.09375 
Q 45.015625 0.34375 40.984375 -0.53125 
Q 36.96875 -1.421875 32.421875 -1.421875 
Q 20.0625 -1.421875 12.78125 6.34375 
Q 5.515625 14.109375 5.515625 27.296875 
Q 5.515625 40.671875 12.859375 48.328125 
Q 20.21875 56 33.015625 56 
Q 37.15625 56 41.109375 55.140625 
Q 45.0625 54.296875 48.78125 52.59375 
z
" id="DejaVuSans-99"/>
     <path d="M 54.890625 33.015625 
L 54.890625 0 
L 45.90625 0 
L 45.90625 32.71875 
Q 45.90625 40.484375 42.875 44.328125 
Q 39.84375 48.1875 33.796875 48.1875 
Q 26.515625 48.1875 22.3125 43.546875 
Q 18.109375 38.921875 18.109375 30.90625 
L 18.109375 0 
L 9.078125 0 
L 9.078125 75.984375 
L 18.109375 75.984375 
L 18.109375 46.1875 
Q 21.34375 51.125 25.703125 53.5625 
Q 30.078125 56 35.796875 56 
Q 45.21875 56 50.046875 50.171875 
Q 54.890625 44.34375 54.890625 33.015625 
z
" id="DejaVuSans-104"/>
     <path id="DejaVuSans-32"/>
     <path d="M 9.8125 72.90625 
L 24.515625 72.90625 
L 43.109375 23.296875 
L 61.8125 72.90625 
L 76.515625 72.90625 
L 76.515625 0 
L 66.890625 0 
L 66.890625 64.015625 
L 48.09375 14.015625 
L 38.1875 14.015625 
L 19.390625 64.015625 
L 19.390625 0 
L 9.8125 0 
z
" id="DejaVuSans-77"/>
    </defs>
    <g transform="translate(198.06 35.472)scale(0.12 -0.12)">
     <use xlink:href="#DejaVuSans-80"/>
     <use x="60.302734" xlink:href="#DejaVuSans-121"/>
     <use x="119.482422" xlink:href="#DejaVuSans-84"/>
     <use x="180.300781" xlink:href="#DejaVuSans-111"/>
     <use x="241.482422" xlink:href="#DejaVuSans-114"/>
     <use x="282.564453" xlink:href="#DejaVuSans-99"/>
     <use x="337.544922" xlink:href="#DejaVuSans-104"/>
     <use x="400.923828" xlink:href="#DejaVuSans-32"/>
     <use x="432.710938" xlink:href="#DejaVuSans-77"/>
     <use x="518.990234" xlink:href="#DejaVuSans-76"/>
     <use x="574.703125" xlink:href="#DejaVuSans-80"/>
    </g>
   </g>
   <g id="legend_1">
    <g id="patch_7">
     <path d="M 350.279375 78.82825 
L 407.72 78.82825 
Q 409.72 78.82825 409.72 76.82825 
L 409.72 48.472 
Q 409.72 46.472 407.72 46.472 
L 350.279375 46.472 
Q 348.279375 46.472 348.279375 48.472 
L 348.279375 76.82825 
Q 348.279375 78.82825 350.279375 78.82825 
z
" style="fill:#ffffff;opacity:0.8;stroke:#cccccc;stroke-linejoin:miter;"/>
    </g>
    <g id="line2d_19">
     <path d="M 352.279375 54.570437 
L 372.279375 54.570437 
" style="fill:none;stroke:#1f77b4;stroke-linecap:square;stroke-width:1.5;"/>
    </g>
    <g id="line2d_20"/>
    <g id="text_20">
     <!-- Train -->
     <defs>
      <path d="M 34.28125 27.484375 
Q 23.390625 27.484375 19.1875 25 
Q 14.984375 22.515625 14.984375 16.5 
Q 14.984375 11.71875 18.140625 8.90625 
Q 21.296875 6.109375 26.703125 6.109375 
Q 34.1875 6.109375 38.703125 11.40625 
Q 43.21875 16.703125 43.21875 25.484375 
L 43.21875 27.484375 
z
M 52.203125 31.203125 
L 52.203125 0 
L 43.21875 0 
L 43.21875 8.296875 
Q 40.140625 3.328125 35.546875 0.953125 
Q 30.953125 -1.421875 24.3125 -1.421875 
Q 15.921875 -1.421875 10.953125 3.296875 
Q 6 8.015625 6 15.921875 
Q 6 25.140625 12.171875 29.828125 
Q 18.359375 34.515625 30.609375 34.515625 
L 43.21875 34.515625 
L 43.21875 35.40625 
Q 43.21875 41.609375 39.140625 45 
Q 35.0625 48.390625 27.6875 48.390625 
Q 23 48.390625 18.546875 47.265625 
Q 14.109375 46.140625 10.015625 43.890625 
L 10.015625 52.203125 
Q 14.9375 54.109375 19.578125 55.046875 
Q 24.21875 56 28.609375 56 
Q 40.484375 56 46.34375 49.84375 
Q 52.203125 43.703125 52.203125 31.203125 
z
" id="DejaVuSans-97"/>
      <path d="M 9.421875 54.6875 
L 18.40625 54.6875 
L 18.40625 0 
L 9.421875 0 
z
M 9.421875 75.984375 
L 18.40625 75.984375 
L 18.40625 64.59375 
L 9.421875 64.59375 
z
" id="DejaVuSans-105"/>
      <path d="M 54.890625 33.015625 
L 54.890625 0 
L 45.90625 0 
L 45.90625 32.71875 
Q 45.90625 40.484375 42.875 44.328125 
Q 39.84375 48.1875 33.796875 48.1875 
Q 26.515625 48.1875 22.3125 43.546875 
Q 18.109375 38.921875 18.109375 30.90625 
L 18.109375 0 
L 9.078125 0 
L 9.078125 54.6875 
L 18.109375 54.6875 
L 18.109375 46.1875 
Q 21.34375 51.125 25.703125 53.5625 
Q 30.078125 56 35.796875 56 
Q 45.21875 56 50.046875 50.171875 
Q 54.890625 44.34375 54.890625 33.015625 
z
" id="DejaVuSans-110"/>
     </defs>
     <g transform="translate(380.279375 58.070437)scale(0.1 -0.1)">
      <use xlink:href="#DejaVuSans-84"/>
      <use x="60.865234" xlink:href="#DejaVuSans-114"/>
      <use x="101.978516" xlink:href="#DejaVuSans-97"/>
      <use x="163.257812" xlink:href="#DejaVuSans-105"/>
      <use x="191.041016" xlink:href="#DejaVuSans-110"/>
     </g>
    </g>
    <g id="line2d_21">
     <path d="M 352.279375 69.248562 
L 372.279375 69.248562 
" style="fill:none;stroke:#ff7f0e;stroke-linecap:square;stroke-width:1.5;"/>
    </g>
    <g id="line2d_22"/>
    <g id="text_21">
     <!-- Test -->
     <g transform="translate(380.279375 72.748562)scale(0.1 -0.1)">
      <use xlink:href="#DejaVuSans-84"/>
      <use x="60.818359" xlink:href="#DejaVuSans-101"/>
      <use x="122.341797" xlink:href="#DejaVuSans-115"/>
      <use x="174.441406" xlink:href="#DejaVuSans-116"/>
     </g>
    </g>
   </g>
  </g>
 </g>
 <defs>
  <clipPath id="p4f8fb027b0">
   <rect height="266.112" width="357.12" x="57.6" y="41.472"/>
  </clipPath>
 </defs>
</svg>
